<?xml version="1.0" encoding="UTF-8" standalone="no"?>
<!DOCTYPE svg PUBLIC "-//W3C//DTD SVG 1.1//EN"
 "http://www.w3.org/Graphics/SVG/1.1/DTD/svg11.dtd">
<!-- Generated by graphviz version 4.0.0 (20220529.0937)
 -->
<!-- Title: D:/OneDrive &#45; Avans Hogeschool/Minor/PRO Smart Roofs/Software/GreenRoof_Base/include/Transmit/AzIoTSasToken.h Pages: 1 -->
<svg width="317pt" height="240pt"
 viewBox="0.00 0.00 316.99 240.00" xmlns="http://www.w3.org/2000/svg" xmlns:xlink="http://www.w3.org/1999/xlink">
<g id="graph0" class="graph" transform="scale(1 1) rotate(0) translate(4 236)">
<title>D:/OneDrive &#45; Avans Hogeschool/Minor/PRO Smart Roofs/Software/GreenRoof_Base/include/Transmit/AzIoTSasToken.h</title>
<polygon fill="white" stroke="transparent" points="-4,4 -4,-236 312.99,-236 312.99,4 -4,4"/>
<!-- Node1 -->
<g id="node1" class="node">
<title>Node1</title>
<g id="a_node1"><a xlink:title="Sas token class.">
<polygon fill="#bfbfbf" stroke="black" points="52.49,-168.5 52.49,-231.5 189.49,-231.5 189.49,-168.5 52.49,-168.5"/>
<text text-anchor="start" x="60.49" y="-219.5" font-family="Helvetica,sans-Serif" font-size="10.00">D:/OneDrive &#45; Avans</text>
<text text-anchor="start" x="60.49" y="-208.5" font-family="Helvetica,sans-Serif" font-size="10.00"> Hogeschool/Minor/PRO</text>
<text text-anchor="start" x="60.49" y="-197.5" font-family="Helvetica,sans-Serif" font-size="10.00"> Smart Roofs/Software</text>
<text text-anchor="start" x="60.49" y="-186.5" font-family="Helvetica,sans-Serif" font-size="10.00">/GreenRoof_Base/include</text>
<text text-anchor="middle" x="120.99" y="-175.5" font-family="Helvetica,sans-Serif" font-size="10.00">/Transmit/AzIoTSasToken.h</text>
</a>
</g>
</g>
<!-- Node2 -->
<g id="node2" class="node">
<title>Node2</title>
<g id="a_node2"><a xlink:title=" ">
<polygon fill="white" stroke="#bfbfbf" points="21.99,-0.5 21.99,-19.5 79.99,-19.5 79.99,-0.5 21.99,-0.5"/>
<text text-anchor="middle" x="50.99" y="-7.5" font-family="Helvetica,sans-Serif" font-size="10.00">Arduino.h</text>
</a>
</g>
</g>
<!-- Node1&#45;&gt;Node2 -->
<g id="edge1" class="edge">
<title>Node1&#45;&gt;Node2</title>
<path fill="none" stroke="midnightblue" d="M52.35,-171.78C35.91,-161.83 20.41,-148.77 10.99,-132 -5.55,-102.55 -1.01,-87.57 10.99,-56 15.32,-44.6 24.02,-34.24 32.2,-26.34"/>
<polygon fill="midnightblue" stroke="midnightblue" points="34.63,-28.86 39.72,-19.57 29.95,-23.66 34.63,-28.86"/>
</g>
<!-- Node3 -->
<g id="node3" class="node">
<title>Node3</title>
<g id="a_node3"><a xlink:href="config_8h.html" target="_top" xlink:title="System configuration.">
<polygon fill="white" stroke="black" points="20.49,-112.5 20.49,-131.5 109.49,-131.5 109.49,-112.5 20.49,-112.5"/>
<text text-anchor="middle" x="64.99" y="-119.5" font-family="Helvetica,sans-Serif" font-size="10.00">Settings/config.h</text>
</a>
</g>
</g>
<!-- Node1&#45;&gt;Node3 -->
<g id="edge2" class="edge">
<title>Node1&#45;&gt;Node3</title>
<path fill="none" stroke="midnightblue" d="M98.21,-168.09C91.1,-158.43 83.51,-148.14 77.39,-139.83"/>
<polygon fill="midnightblue" stroke="midnightblue" points="80.16,-137.69 71.41,-131.72 74.53,-141.84 80.16,-137.69"/>
</g>
<!-- Node6 -->
<g id="node6" class="node">
<title>Node6</title>
<g id="a_node6"><a xlink:title=" ">
<polygon fill="white" stroke="#bfbfbf" points="127.49,-112.5 127.49,-131.5 228.49,-131.5 228.49,-112.5 127.49,-112.5"/>
<text text-anchor="middle" x="177.99" y="-119.5" font-family="Helvetica,sans-Serif" font-size="10.00">az_iot_hub_client.h</text>
</a>
</g>
</g>
<!-- Node1&#45;&gt;Node6 -->
<g id="edge6" class="edge">
<title>Node1&#45;&gt;Node6</title>
<path fill="none" stroke="midnightblue" d="M144.17,-168.09C151.42,-158.43 159.13,-148.14 165.37,-139.83"/>
<polygon fill="midnightblue" stroke="midnightblue" points="168.25,-141.82 171.45,-131.72 162.65,-137.62 168.25,-141.82"/>
</g>
<!-- Node7 -->
<g id="node7" class="node">
<title>Node7</title>
<g id="a_node7"><a xlink:title=" ">
<polygon fill="white" stroke="#bfbfbf" points="246.99,-112.5 246.99,-131.5 308.99,-131.5 308.99,-112.5 246.99,-112.5"/>
<text text-anchor="middle" x="277.99" y="-119.5" font-family="Helvetica,sans-Serif" font-size="10.00">az_span.h</text>
</a>
</g>
</g>
<!-- Node1&#45;&gt;Node7 -->
<g id="edge7" class="edge">
<title>Node1&#45;&gt;Node7</title>
<path fill="none" stroke="midnightblue" d="M184.39,-168.31C207.62,-157.06 232.68,-144.93 251.02,-136.05"/>
<polygon fill="midnightblue" stroke="midnightblue" points="252.73,-139.11 260.21,-131.61 249.68,-132.81 252.73,-139.11"/>
</g>
<!-- Node4 -->
<g id="node4" class="node">
<title>Node4</title>
<g id="a_node4"><a xlink:href="keys_8h.html" target="_top" xlink:title="Security keys.">
<polygon fill="white" stroke="black" points="19.99,-56.5 19.99,-75.5 65.99,-75.5 65.99,-56.5 19.99,-56.5"/>
<text text-anchor="middle" x="42.99" y="-63.5" font-family="Helvetica,sans-Serif" font-size="10.00">keys.h</text>
</a>
</g>
</g>
<!-- Node3&#45;&gt;Node4 -->
<g id="edge3" class="edge">
<title>Node3&#45;&gt;Node4</title>
<path fill="none" stroke="midnightblue" d="M61.36,-112.08C58.38,-104.77 54.06,-94.18 50.36,-85.1"/>
<polygon fill="midnightblue" stroke="midnightblue" points="53.57,-83.69 46.55,-75.75 47.09,-86.33 53.57,-83.69"/>
</g>
<!-- Node5 -->
<g id="node5" class="node">
<title>Node5</title>
<g id="a_node5"><a xlink:href="_debug_8h.html" target="_top" xlink:title=" ">
<polygon fill="white" stroke="black" points="84.49,-56.5 84.49,-75.5 137.49,-75.5 137.49,-56.5 84.49,-56.5"/>
<text text-anchor="middle" x="110.99" y="-63.5" font-family="Helvetica,sans-Serif" font-size="10.00">Debug.h</text>
</a>
</g>
</g>
<!-- Node3&#45;&gt;Node5 -->
<g id="edge4" class="edge">
<title>Node3&#45;&gt;Node5</title>
<path fill="none" stroke="midnightblue" d="M72.59,-112.08C79.22,-104.3 89.01,-92.8 97.05,-83.37"/>
<polygon fill="midnightblue" stroke="midnightblue" points="99.71,-85.63 103.53,-75.75 94.39,-81.09 99.71,-85.63"/>
</g>
<!-- Node5&#45;&gt;Node2 -->
<g id="edge5" class="edge">
<title>Node5&#45;&gt;Node2</title>
<path fill="none" stroke="midnightblue" d="M101.35,-56.32C92.48,-48.34 79.11,-36.31 68.38,-26.65"/>
<polygon fill="midnightblue" stroke="midnightblue" points="70.58,-23.92 60.8,-19.83 65.9,-29.13 70.58,-23.92"/>
</g>
</g>
</svg>
