<?xml version="1.0" encoding="UTF-8" standalone="no"?>
<!DOCTYPE svg PUBLIC "-//W3C//DTD SVG 1.1//EN"
 "http://www.w3.org/Graphics/SVG/1.1/DTD/svg11.dtd">
<!-- Generated by graphviz version 4.0.0 (20220529.0937)
 -->
<!-- Title: D:/OneDrive &#45; Avans Hogeschool/Minor/PRO Smart Roofs/Software/GreenRoof_Base/src/Transmit/AzIoTSasToken.cpp Pages: 1 -->
<svg width="727pt" height="296pt"
 viewBox="0.00 0.00 726.99 296.00" xmlns="http://www.w3.org/2000/svg" xmlns:xlink="http://www.w3.org/1999/xlink">
<g id="graph0" class="graph" transform="scale(1 1) rotate(0) translate(4 292)">
<title>D:/OneDrive &#45; Avans Hogeschool/Minor/PRO Smart Roofs/Software/GreenRoof_Base/src/Transmit/AzIoTSasToken.cpp</title>
<polygon fill="white" stroke="transparent" points="-4,4 -4,-292 722.99,-292 722.99,4 -4,4"/>
<!-- Node1 -->
<g id="node1" class="node">
<title>Node1</title>
<g id="a_node1"><a xlink:title=" ">
<polygon fill="#bfbfbf" stroke="black" points="365.99,-224.5 365.99,-287.5 515.99,-287.5 515.99,-224.5 365.99,-224.5"/>
<text text-anchor="start" x="373.99" y="-275.5" font-family="Helvetica,sans-Serif" font-size="10.00">D:/OneDrive &#45; Avans</text>
<text text-anchor="start" x="373.99" y="-264.5" font-family="Helvetica,sans-Serif" font-size="10.00"> Hogeschool/Minor/PRO</text>
<text text-anchor="start" x="373.99" y="-253.5" font-family="Helvetica,sans-Serif" font-size="10.00"> Smart Roofs/Software</text>
<text text-anchor="start" x="373.99" y="-242.5" font-family="Helvetica,sans-Serif" font-size="10.00">/GreenRoof_Base/src/Transmit</text>
<text text-anchor="middle" x="440.99" y="-231.5" font-family="Helvetica,sans-Serif" font-size="10.00">/AzIoTSasToken.cpp</text>
</a>
</g>
</g>
<!-- Node2 -->
<g id="node2" class="node">
<title>Node2</title>
<g id="a_node2"><a xlink:href="_az_io_t_sas_token_8h.html" target="_top" xlink:title=" ">
<polygon fill="white" stroke="black" points="54.99,-168.5 54.99,-187.5 188.99,-187.5 188.99,-168.5 54.99,-168.5"/>
<text text-anchor="middle" x="121.99" y="-175.5" font-family="Helvetica,sans-Serif" font-size="10.00">Transmit/AzIoTSasToken.h</text>
</a>
</g>
</g>
<!-- Node1&#45;&gt;Node2 -->
<g id="edge1" class="edge">
<title>Node1&#45;&gt;Node2</title>
<path fill="none" stroke="midnightblue" d="M365.79,-237.09C304.32,-222.44 219.39,-202.21 167.71,-189.89"/>
<polygon fill="midnightblue" stroke="midnightblue" points="168.37,-186.45 157.83,-187.54 166.75,-193.26 168.37,-186.45"/>
</g>
<!-- Node9 -->
<g id="node9" class="node">
<title>Node9</title>
<g id="a_node9"><a xlink:title=" ">
<polygon fill="white" stroke="#bfbfbf" points="207.49,-168.5 207.49,-187.5 272.49,-187.5 272.49,-168.5 207.49,-168.5"/>
<text text-anchor="middle" x="239.99" y="-175.5" font-family="Helvetica,sans-Serif" font-size="10.00">az_result.h</text>
</a>
</g>
</g>
<!-- Node1&#45;&gt;Node9 -->
<g id="edge9" class="edge">
<title>Node1&#45;&gt;Node9</title>
<path fill="none" stroke="midnightblue" d="M365.86,-226.59C333.57,-214.38 297.54,-200.76 272.33,-191.23"/>
<polygon fill="midnightblue" stroke="midnightblue" points="273.49,-187.93 262.9,-187.66 271.02,-194.47 273.49,-187.93"/>
</g>
<!-- Node10 -->
<g id="node10" class="node">
<title>Node10</title>
<g id="a_node10"><a xlink:title=" ">
<polygon fill="white" stroke="#bfbfbf" points="290.99,-168.5 290.99,-187.5 384.99,-187.5 384.99,-168.5 290.99,-168.5"/>
<text text-anchor="middle" x="337.99" y="-175.5" font-family="Helvetica,sans-Serif" font-size="10.00">mbedtls/base64.h</text>
</a>
</g>
</g>
<!-- Node1&#45;&gt;Node10 -->
<g id="edge10" class="edge">
<title>Node1&#45;&gt;Node10</title>
<path fill="none" stroke="midnightblue" d="M399.39,-224.31C385.15,-213.8 369.87,-202.52 358.11,-193.85"/>
<polygon fill="midnightblue" stroke="midnightblue" points="360,-190.89 349.88,-187.77 355.85,-196.53 360,-190.89"/>
</g>
<!-- Node11 -->
<g id="node11" class="node">
<title>Node11</title>
<g id="a_node11"><a xlink:title=" ">
<polygon fill="white" stroke="#bfbfbf" points="402.99,-168.5 402.99,-187.5 478.99,-187.5 478.99,-168.5 402.99,-168.5"/>
<text text-anchor="middle" x="440.99" y="-175.5" font-family="Helvetica,sans-Serif" font-size="10.00">mbedtls/md.h</text>
</a>
</g>
</g>
<!-- Node1&#45;&gt;Node11 -->
<g id="edge11" class="edge">
<title>Node1&#45;&gt;Node11</title>
<path fill="none" stroke="midnightblue" d="M440.99,-224.09C440.99,-215.15 440.99,-205.67 440.99,-197.72"/>
<polygon fill="midnightblue" stroke="midnightblue" points="444.49,-197.72 440.99,-187.72 437.49,-197.72 444.49,-197.72"/>
</g>
<!-- Node12 -->
<g id="node12" class="node">
<title>Node12</title>
<g id="a_node12"><a xlink:title=" ">
<polygon fill="white" stroke="#bfbfbf" points="496.99,-168.5 496.99,-187.5 590.99,-187.5 590.99,-168.5 496.99,-168.5"/>
<text text-anchor="middle" x="543.99" y="-175.5" font-family="Helvetica,sans-Serif" font-size="10.00">mbedtls/sha256.h</text>
</a>
</g>
</g>
<!-- Node1&#45;&gt;Node12 -->
<g id="edge12" class="edge">
<title>Node1&#45;&gt;Node12</title>
<path fill="none" stroke="midnightblue" d="M482.59,-224.31C496.82,-213.8 512.11,-202.52 523.87,-193.85"/>
<polygon fill="midnightblue" stroke="midnightblue" points="526.13,-196.53 532.1,-187.77 521.97,-190.89 526.13,-196.53"/>
</g>
<!-- Node13 -->
<g id="node13" class="node">
<title>Node13</title>
<g id="a_node13"><a xlink:title=" ">
<polygon fill="white" stroke="#bfbfbf" points="608.99,-168.5 608.99,-187.5 656.99,-187.5 656.99,-168.5 608.99,-168.5"/>
<text text-anchor="middle" x="632.99" y="-175.5" font-family="Helvetica,sans-Serif" font-size="10.00">stdlib.h</text>
</a>
</g>
</g>
<!-- Node1&#45;&gt;Node13 -->
<g id="edge13" class="edge">
<title>Node1&#45;&gt;Node13</title>
<path fill="none" stroke="midnightblue" d="M516.05,-225.29C546.05,-213.41 578.92,-200.4 602.15,-191.21"/>
<polygon fill="midnightblue" stroke="midnightblue" points="603.47,-194.45 611.48,-187.52 600.89,-187.94 603.47,-194.45"/>
</g>
<!-- Node14 -->
<g id="node14" class="node">
<title>Node14</title>
<g id="a_node14"><a xlink:title=" ">
<polygon fill="white" stroke="#bfbfbf" points="674.99,-168.5 674.99,-187.5 718.99,-187.5 718.99,-168.5 674.99,-168.5"/>
<text text-anchor="middle" x="696.99" y="-175.5" font-family="Helvetica,sans-Serif" font-size="10.00">time.h</text>
</a>
</g>
</g>
<!-- Node1&#45;&gt;Node14 -->
<g id="edge14" class="edge">
<title>Node1&#45;&gt;Node14</title>
<path fill="none" stroke="midnightblue" d="M516.07,-232.71C565.56,-218.02 627.86,-199.52 664.94,-188.51"/>
<polygon fill="midnightblue" stroke="midnightblue" points="666.11,-191.82 674.7,-185.62 664.12,-185.11 666.11,-191.82"/>
</g>
<!-- Node3 -->
<g id="node3" class="node">
<title>Node3</title>
<g id="a_node3"><a xlink:title=" ">
<polygon fill="white" stroke="#bfbfbf" points="22.99,-0.5 22.99,-19.5 80.99,-19.5 80.99,-0.5 22.99,-0.5"/>
<text text-anchor="middle" x="51.99" y="-7.5" font-family="Helvetica,sans-Serif" font-size="10.00">Arduino.h</text>
</a>
</g>
</g>
<!-- Node2&#45;&gt;Node3 -->
<g id="edge2" class="edge">
<title>Node2&#45;&gt;Node3</title>
<path fill="none" stroke="midnightblue" d="M68.67,-168.43C47.33,-162.1 24.81,-151.1 11.99,-132 -6.84,-103.96 -0.02,-87.57 11.99,-56 16.32,-44.6 25.02,-34.24 33.2,-26.34"/>
<polygon fill="midnightblue" stroke="midnightblue" points="35.63,-28.86 40.72,-19.57 30.95,-23.66 35.63,-28.86"/>
</g>
<!-- Node4 -->
<g id="node4" class="node">
<title>Node4</title>
<g id="a_node4"><a xlink:href="config_8h.html" target="_top" xlink:title="System configuration.">
<polygon fill="white" stroke="black" points="21.49,-112.5 21.49,-131.5 110.49,-131.5 110.49,-112.5 21.49,-112.5"/>
<text text-anchor="middle" x="65.99" y="-119.5" font-family="Helvetica,sans-Serif" font-size="10.00">Settings/config.h</text>
</a>
</g>
</g>
<!-- Node2&#45;&gt;Node4 -->
<g id="edge3" class="edge">
<title>Node2&#45;&gt;Node4</title>
<path fill="none" stroke="midnightblue" d="M112.99,-168.32C104.79,-160.42 92.48,-148.55 82.52,-138.94"/>
<polygon fill="midnightblue" stroke="midnightblue" points="84.78,-136.26 75.15,-131.83 79.92,-141.29 84.78,-136.26"/>
</g>
<!-- Node7 -->
<g id="node7" class="node">
<title>Node7</title>
<g id="a_node7"><a xlink:title=" ">
<polygon fill="white" stroke="#bfbfbf" points="128.49,-112.5 128.49,-131.5 229.49,-131.5 229.49,-112.5 128.49,-112.5"/>
<text text-anchor="middle" x="178.99" y="-119.5" font-family="Helvetica,sans-Serif" font-size="10.00">az_iot_hub_client.h</text>
</a>
</g>
</g>
<!-- Node2&#45;&gt;Node7 -->
<g id="edge7" class="edge">
<title>Node2&#45;&gt;Node7</title>
<path fill="none" stroke="midnightblue" d="M131.15,-168.32C139.49,-160.42 152.02,-148.55 162.17,-138.94"/>
<polygon fill="midnightblue" stroke="midnightblue" points="164.81,-141.25 169.66,-131.83 160,-136.17 164.81,-141.25"/>
</g>
<!-- Node8 -->
<g id="node8" class="node">
<title>Node8</title>
<g id="a_node8"><a xlink:title=" ">
<polygon fill="white" stroke="#bfbfbf" points="247.99,-112.5 247.99,-131.5 309.99,-131.5 309.99,-112.5 247.99,-112.5"/>
<text text-anchor="middle" x="278.99" y="-119.5" font-family="Helvetica,sans-Serif" font-size="10.00">az_span.h</text>
</a>
</g>
</g>
<!-- Node2&#45;&gt;Node8 -->
<g id="edge8" class="edge">
<title>Node2&#45;&gt;Node8</title>
<path fill="none" stroke="midnightblue" d="M146.87,-168.44C173.28,-159.36 215.2,-144.94 244.73,-134.78"/>
<polygon fill="midnightblue" stroke="midnightblue" points="245.91,-138.08 254.23,-131.52 243.63,-131.46 245.91,-138.08"/>
</g>
<!-- Node5 -->
<g id="node5" class="node">
<title>Node5</title>
<g id="a_node5"><a xlink:href="keys_8h.html" target="_top" xlink:title="Security keys.">
<polygon fill="white" stroke="black" points="20.99,-56.5 20.99,-75.5 66.99,-75.5 66.99,-56.5 20.99,-56.5"/>
<text text-anchor="middle" x="43.99" y="-63.5" font-family="Helvetica,sans-Serif" font-size="10.00">keys.h</text>
</a>
</g>
</g>
<!-- Node4&#45;&gt;Node5 -->
<g id="edge4" class="edge">
<title>Node4&#45;&gt;Node5</title>
<path fill="none" stroke="midnightblue" d="M62.36,-112.08C59.38,-104.77 55.06,-94.18 51.36,-85.1"/>
<polygon fill="midnightblue" stroke="midnightblue" points="54.57,-83.69 47.55,-75.75 48.09,-86.33 54.57,-83.69"/>
</g>
<!-- Node6 -->
<g id="node6" class="node">
<title>Node6</title>
<g id="a_node6"><a xlink:href="_debug_8h.html" target="_top" xlink:title=" ">
<polygon fill="white" stroke="black" points="85.49,-56.5 85.49,-75.5 138.49,-75.5 138.49,-56.5 85.49,-56.5"/>
<text text-anchor="middle" x="111.99" y="-63.5" font-family="Helvetica,sans-Serif" font-size="10.00">Debug.h</text>
</a>
</g>
</g>
<!-- Node4&#45;&gt;Node6 -->
<g id="edge5" class="edge">
<title>Node4&#45;&gt;Node6</title>
<path fill="none" stroke="midnightblue" d="M73.58,-112.08C80.22,-104.3 90.01,-92.8 98.05,-83.37"/>
<polygon fill="midnightblue" stroke="midnightblue" points="100.71,-85.63 104.53,-75.75 95.38,-81.09 100.71,-85.63"/>
</g>
<!-- Node6&#45;&gt;Node3 -->
<g id="edge6" class="edge">
<title>Node6&#45;&gt;Node3</title>
<path fill="none" stroke="midnightblue" d="M102.35,-56.32C93.48,-48.34 80.11,-36.31 69.38,-26.65"/>
<polygon fill="midnightblue" stroke="midnightblue" points="71.58,-23.92 61.8,-19.83 66.9,-29.13 71.58,-23.92"/>
</g>
</g>
</svg>
