<?xml version="1.0" encoding="UTF-8" standalone="no"?>
<!DOCTYPE svg PUBLIC "-//W3C//DTD SVG 1.1//EN"
 "http://www.w3.org/Graphics/SVG/1.1/DTD/svg11.dtd">
<!-- Generated by graphviz version 4.0.0 (20220529.0937)
 -->
<!-- Title: D:/OneDrive &#45; Avans Hogeschool/Minor/PRO Smart Roofs/Software/GreenRoof_Base/src/Sensors/DS18B20Sensor.cpp Pages: 1 -->
<svg width="443pt" height="363pt"
 viewBox="0.00 0.00 442.50 363.00" xmlns="http://www.w3.org/2000/svg" xmlns:xlink="http://www.w3.org/1999/xlink">
<g id="graph0" class="graph" transform="scale(1 1) rotate(0) translate(4 359)">
<title>D:/OneDrive &#45; Avans Hogeschool/Minor/PRO Smart Roofs/Software/GreenRoof_Base/src/Sensors/DS18B20Sensor.cpp</title>
<polygon fill="white" stroke="transparent" points="-4,4 -4,-359 438.5,-359 438.5,4 -4,4"/>
<!-- Node1 -->
<g id="node1" class="node">
<title>Node1</title>
<g id="a_node1"><a xlink:title="Temperature sensor class.">
<polygon fill="#bfbfbf" stroke="black" points="0,-291.5 0,-354.5 149,-354.5 149,-291.5 0,-291.5"/>
<text text-anchor="start" x="8" y="-342.5" font-family="Helvetica,sans-Serif" font-size="10.00">D:/OneDrive &#45; Avans</text>
<text text-anchor="start" x="8" y="-331.5" font-family="Helvetica,sans-Serif" font-size="10.00"> Hogeschool/Minor/PRO</text>
<text text-anchor="start" x="8" y="-320.5" font-family="Helvetica,sans-Serif" font-size="10.00"> Smart Roofs/Software</text>
<text text-anchor="start" x="8" y="-309.5" font-family="Helvetica,sans-Serif" font-size="10.00">/GreenRoof_Base/src/Sensors</text>
<text text-anchor="middle" x="74.5" y="-298.5" font-family="Helvetica,sans-Serif" font-size="10.00">/DS18B20Sensor.cpp</text>
</a>
</g>
</g>
<!-- Node2 -->
<g id="node2" class="node">
<title>Node2</title>
<g id="a_node2"><a xlink:href="_d_s18_b20_sensor_8h.html" target="_top" xlink:title=" ">
<polygon fill="white" stroke="black" points="6.5,-235.5 6.5,-254.5 142.5,-254.5 142.5,-235.5 6.5,-235.5"/>
<text text-anchor="middle" x="74.5" y="-242.5" font-family="Helvetica,sans-Serif" font-size="10.00">Sensors/DS18B20Sensor.h</text>
</a>
</g>
</g>
<!-- Node1&#45;&gt;Node2 -->
<g id="edge1" class="edge">
<title>Node1&#45;&gt;Node2</title>
<path fill="none" stroke="midnightblue" d="M74.5,-291.09C74.5,-282.15 74.5,-272.67 74.5,-264.72"/>
<polygon fill="midnightblue" stroke="midnightblue" points="78,-264.72 74.5,-254.72 71,-264.72 78,-264.72"/>
</g>
<!-- Node3 -->
<g id="node3" class="node">
<title>Node3</title>
<g id="a_node3"><a xlink:title=" ">
<polygon fill="white" stroke="#bfbfbf" points="74.5,-0.5 74.5,-19.5 132.5,-19.5 132.5,-0.5 74.5,-0.5"/>
<text text-anchor="middle" x="103.5" y="-7.5" font-family="Helvetica,sans-Serif" font-size="10.00">Arduino.h</text>
</a>
</g>
</g>
<!-- Node2&#45;&gt;Node3 -->
<g id="edge2" class="edge">
<title>Node2&#45;&gt;Node3</title>
<path fill="none" stroke="midnightblue" d="M60.13,-235.33C48.62,-227.47 33.31,-214.72 26.5,-199 21.02,-186.36 24.76,-181.67 26.5,-168 33,-116.99 29.26,-100.22 55.5,-56 62.44,-44.3 73.32,-33.74 82.96,-25.8"/>
<polygon fill="midnightblue" stroke="midnightblue" points="85.26,-28.45 90.99,-19.53 80.95,-22.93 85.26,-28.45"/>
</g>
<!-- Node4 -->
<g id="node4" class="node">
<title>Node4</title>
<g id="a_node4"><a xlink:href="_sensor_base_8h.html" target="_top" xlink:title="Sensor base object Interface.">
<polygon fill="white" stroke="black" points="35.5,-174 35.5,-193 113.5,-193 113.5,-174 35.5,-174"/>
<text text-anchor="middle" x="74.5" y="-181" font-family="Helvetica,sans-Serif" font-size="10.00">SensorBase.h</text>
</a>
</g>
</g>
<!-- Node2&#45;&gt;Node4 -->
<g id="edge3" class="edge">
<title>Node2&#45;&gt;Node4</title>
<path fill="none" stroke="midnightblue" d="M74.5,-235.48C74.5,-227.08 74.5,-213.98 74.5,-203.16"/>
<polygon fill="midnightblue" stroke="midnightblue" points="78,-203.01 74.5,-193.01 71,-203.01 78,-203.01"/>
</g>
<!-- Node8 -->
<g id="node8" class="node">
<title>Node8</title>
<g id="a_node8"><a xlink:href="_one_wire_temperature_bus_8h.html" target="_top" xlink:title="Class for shared bus instance of temperature bus.">
<polygon fill="white" stroke="black" points="133,-168.5 133,-198.5 304,-198.5 304,-168.5 133,-168.5"/>
<text text-anchor="start" x="141" y="-186.5" font-family="Helvetica,sans-Serif" font-size="10.00">Sensors/Com/OneWireTemperature</text>
<text text-anchor="middle" x="218.5" y="-175.5" font-family="Helvetica,sans-Serif" font-size="10.00">Bus.h</text>
</a>
</g>
</g>
<!-- Node2&#45;&gt;Node8 -->
<g id="edge9" class="edge">
<title>Node2&#45;&gt;Node8</title>
<path fill="none" stroke="midnightblue" d="M95.13,-235.48C115.91,-226.89 148.6,-213.38 175.11,-202.43"/>
<polygon fill="midnightblue" stroke="midnightblue" points="176.66,-205.58 184.56,-198.52 173.98,-199.11 176.66,-205.58"/>
</g>
<!-- Node4&#45;&gt;Node3 -->
<g id="edge4" class="edge">
<title>Node4&#45;&gt;Node3</title>
<path fill="none" stroke="midnightblue" d="M71.24,-173.86C63.83,-152.86 47.6,-97.83 63.5,-56 67.84,-44.6 76.53,-34.24 84.71,-26.34"/>
<polygon fill="midnightblue" stroke="midnightblue" points="87.14,-28.86 92.23,-19.57 82.46,-23.66 87.14,-28.86"/>
</g>
<!-- Node5 -->
<g id="node5" class="node">
<title>Node5</title>
<g id="a_node5"><a xlink:href="config_8h.html" target="_top" xlink:title="System configuration.">
<polygon fill="white" stroke="black" points="87,-112.5 87,-131.5 176,-131.5 176,-112.5 87,-112.5"/>
<text text-anchor="middle" x="131.5" y="-119.5" font-family="Helvetica,sans-Serif" font-size="10.00">Settings/config.h</text>
</a>
</g>
</g>
<!-- Node4&#45;&gt;Node5 -->
<g id="edge5" class="edge">
<title>Node4&#45;&gt;Node5</title>
<path fill="none" stroke="midnightblue" d="M82.67,-173.98C91.39,-164.87 105.4,-150.24 116.19,-138.98"/>
<polygon fill="midnightblue" stroke="midnightblue" points="118.96,-141.15 123.35,-131.51 113.9,-136.31 118.96,-141.15"/>
</g>
<!-- Node6 -->
<g id="node6" class="node">
<title>Node6</title>
<g id="a_node6"><a xlink:href="keys_8h.html" target="_top" xlink:title="Security keys.">
<polygon fill="white" stroke="black" points="72.5,-56.5 72.5,-75.5 118.5,-75.5 118.5,-56.5 72.5,-56.5"/>
<text text-anchor="middle" x="95.5" y="-63.5" font-family="Helvetica,sans-Serif" font-size="10.00">keys.h</text>
</a>
</g>
</g>
<!-- Node5&#45;&gt;Node6 -->
<g id="edge6" class="edge">
<title>Node5&#45;&gt;Node6</title>
<path fill="none" stroke="midnightblue" d="M125.56,-112.08C120.52,-104.53 113.16,-93.49 106.99,-84.23"/>
<polygon fill="midnightblue" stroke="midnightblue" points="109.79,-82.13 101.33,-75.75 103.97,-86.01 109.79,-82.13"/>
</g>
<!-- Node7 -->
<g id="node7" class="node">
<title>Node7</title>
<g id="a_node7"><a xlink:href="_debug_8h.html" target="_top" xlink:title=" ">
<polygon fill="white" stroke="black" points="137,-56.5 137,-75.5 190,-75.5 190,-56.5 137,-56.5"/>
<text text-anchor="middle" x="163.5" y="-63.5" font-family="Helvetica,sans-Serif" font-size="10.00">Debug.h</text>
</a>
</g>
</g>
<!-- Node5&#45;&gt;Node7 -->
<g id="edge7" class="edge">
<title>Node5&#45;&gt;Node7</title>
<path fill="none" stroke="midnightblue" d="M136.78,-112.08C141.21,-104.61 147.66,-93.72 153.12,-84.52"/>
<polygon fill="midnightblue" stroke="midnightblue" points="156.23,-86.14 158.31,-75.75 150.21,-82.57 156.23,-86.14"/>
</g>
<!-- Node7&#45;&gt;Node3 -->
<g id="edge8" class="edge">
<title>Node7&#45;&gt;Node3</title>
<path fill="none" stroke="midnightblue" d="M153.86,-56.32C144.99,-48.34 131.63,-36.31 120.89,-26.65"/>
<polygon fill="midnightblue" stroke="midnightblue" points="123.09,-23.92 113.32,-19.83 118.41,-29.13 123.09,-23.92"/>
</g>
<!-- Node8&#45;&gt;Node3 -->
<g id="edge10" class="edge">
<title>Node8&#45;&gt;Node3</title>
<path fill="none" stroke="midnightblue" d="M220.25,-168.35C222.57,-143.12 223.82,-89.82 198.5,-56 184.93,-37.88 162.21,-26.75 142.39,-20.1"/>
<polygon fill="midnightblue" stroke="midnightblue" points="143.24,-16.7 132.65,-17.1 141.17,-23.39 143.24,-16.7"/>
</g>
<!-- Node8&#45;&gt;Node5 -->
<g id="edge13" class="edge">
<title>Node8&#45;&gt;Node5</title>
<path fill="none" stroke="midnightblue" d="M197.88,-168.4C184.2,-159.04 166.29,-146.79 152.52,-137.38"/>
<polygon fill="midnightblue" stroke="midnightblue" points="154.39,-134.41 144.16,-131.66 150.44,-140.19 154.39,-134.41"/>
</g>
<!-- Node9 -->
<g id="node9" class="node">
<title>Node9</title>
<g id="a_node9"><a xlink:title=" ">
<polygon fill="white" stroke="#bfbfbf" points="247,-112.5 247,-131.5 310,-131.5 310,-112.5 247,-112.5"/>
<text text-anchor="middle" x="278.5" y="-119.5" font-family="Helvetica,sans-Serif" font-size="10.00">OneWire.h</text>
</a>
</g>
</g>
<!-- Node8&#45;&gt;Node9 -->
<g id="edge11" class="edge">
<title>Node8&#45;&gt;Node9</title>
<path fill="none" stroke="midnightblue" d="M232.72,-168.4C241.71,-159.49 253.34,-147.95 262.63,-138.74"/>
<polygon fill="midnightblue" stroke="midnightblue" points="265.13,-141.18 269.77,-131.66 260.2,-136.21 265.13,-141.18"/>
</g>
<!-- Node10 -->
<g id="node10" class="node">
<title>Node10</title>
<g id="a_node10"><a xlink:title=" ">
<polygon fill="white" stroke="#bfbfbf" points="328.5,-112.5 328.5,-131.5 434.5,-131.5 434.5,-112.5 328.5,-112.5"/>
<text text-anchor="middle" x="381.5" y="-119.5" font-family="Helvetica,sans-Serif" font-size="10.00">DallasTemperature.h</text>
</a>
</g>
</g>
<!-- Node8&#45;&gt;Node10 -->
<g id="edge12" class="edge">
<title>Node8&#45;&gt;Node10</title>
<path fill="none" stroke="midnightblue" d="M257.13,-168.4C284.84,-158.28 321.81,-144.79 348.22,-135.15"/>
<polygon fill="midnightblue" stroke="midnightblue" points="349.59,-138.37 357.78,-131.66 347.19,-131.8 349.59,-138.37"/>
</g>
</g>
</svg>
