<?xml version="1.0" encoding="UTF-8" standalone="no"?>
<!DOCTYPE svg PUBLIC "-//W3C//DTD SVG 1.1//EN"
 "http://www.w3.org/Graphics/SVG/1.1/DTD/svg11.dtd">
<!-- Generated by graphviz version 4.0.0 (20220529.0937)
 -->
<!-- Title: D:/OneDrive &#45; Avans Hogeschool/Minor/PRO Smart Roofs/Software/GreenRoof_Base/include/Sensors/DS18B20Sensor.h Pages: 1 -->
<svg width="438pt" height="307pt"
 viewBox="0.00 0.00 437.50 307.00" xmlns="http://www.w3.org/2000/svg" xmlns:xlink="http://www.w3.org/1999/xlink">
<g id="graph0" class="graph" transform="scale(1 1) rotate(0) translate(4 303)">
<title>D:/OneDrive &#45; Avans Hogeschool/Minor/PRO Smart Roofs/Software/GreenRoof_Base/include/Sensors/DS18B20Sensor.h</title>
<polygon fill="white" stroke="transparent" points="-4,4 -4,-303 433.5,-303 433.5,4 -4,4"/>
<!-- Node1 -->
<g id="node1" class="node">
<title>Node1</title>
<g id="a_node1"><a xlink:title=" ">
<polygon fill="#bfbfbf" stroke="black" points="0,-235.5 0,-298.5 139,-298.5 139,-235.5 0,-235.5"/>
<text text-anchor="start" x="8" y="-286.5" font-family="Helvetica,sans-Serif" font-size="10.00">D:/OneDrive &#45; Avans</text>
<text text-anchor="start" x="8" y="-275.5" font-family="Helvetica,sans-Serif" font-size="10.00"> Hogeschool/Minor/PRO</text>
<text text-anchor="start" x="8" y="-264.5" font-family="Helvetica,sans-Serif" font-size="10.00"> Smart Roofs/Software</text>
<text text-anchor="start" x="8" y="-253.5" font-family="Helvetica,sans-Serif" font-size="10.00">/GreenRoof_Base/include</text>
<text text-anchor="middle" x="69.5" y="-242.5" font-family="Helvetica,sans-Serif" font-size="10.00">/Sensors/DS18B20Sensor.h</text>
</a>
</g>
</g>
<!-- Node2 -->
<g id="node2" class="node">
<title>Node2</title>
<g id="a_node2"><a xlink:title=" ">
<polygon fill="white" stroke="#bfbfbf" points="69.5,-0.5 69.5,-19.5 127.5,-19.5 127.5,-0.5 69.5,-0.5"/>
<text text-anchor="middle" x="98.5" y="-7.5" font-family="Helvetica,sans-Serif" font-size="10.00">Arduino.h</text>
</a>
</g>
</g>
<!-- Node1&#45;&gt;Node2 -->
<g id="edge1" class="edge">
<title>Node1&#45;&gt;Node2</title>
<path fill="none" stroke="midnightblue" d="M41.36,-235.19C33.34,-224.51 25.66,-211.94 21.5,-199 17.29,-185.88 19.76,-181.67 21.5,-168 28,-116.99 24.26,-100.22 50.5,-56 57.44,-44.3 68.32,-33.74 77.96,-25.8"/>
<polygon fill="midnightblue" stroke="midnightblue" points="80.26,-28.45 85.99,-19.53 75.95,-22.93 80.26,-28.45"/>
</g>
<!-- Node3 -->
<g id="node3" class="node">
<title>Node3</title>
<g id="a_node3"><a xlink:href="_sensor_base_8h.html" target="_top" xlink:title="Sensor base object Interface.">
<polygon fill="white" stroke="black" points="30.5,-174 30.5,-193 108.5,-193 108.5,-174 30.5,-174"/>
<text text-anchor="middle" x="69.5" y="-181" font-family="Helvetica,sans-Serif" font-size="10.00">SensorBase.h</text>
</a>
</g>
</g>
<!-- Node1&#45;&gt;Node3 -->
<g id="edge2" class="edge">
<title>Node1&#45;&gt;Node3</title>
<path fill="none" stroke="midnightblue" d="M69.5,-235.19C69.5,-224.55 69.5,-212.95 69.5,-203.53"/>
<polygon fill="midnightblue" stroke="midnightblue" points="73,-203.34 69.5,-193.34 66,-203.34 73,-203.34"/>
</g>
<!-- Node7 -->
<g id="node7" class="node">
<title>Node7</title>
<g id="a_node7"><a xlink:href="_one_wire_temperature_bus_8h.html" target="_top" xlink:title="Class for shared bus instance of temperature bus.">
<polygon fill="white" stroke="black" points="128,-168.5 128,-198.5 299,-198.5 299,-168.5 128,-168.5"/>
<text text-anchor="start" x="136" y="-186.5" font-family="Helvetica,sans-Serif" font-size="10.00">Sensors/Com/OneWireTemperature</text>
<text text-anchor="middle" x="213.5" y="-175.5" font-family="Helvetica,sans-Serif" font-size="10.00">Bus.h</text>
</a>
</g>
</g>
<!-- Node1&#45;&gt;Node7 -->
<g id="edge8" class="edge">
<title>Node1&#45;&gt;Node7</title>
<path fill="none" stroke="midnightblue" d="M123.53,-235.42C142.38,-224.75 162.99,-213.08 179.73,-203.62"/>
<polygon fill="midnightblue" stroke="midnightblue" points="181.61,-206.57 188.59,-198.6 178.16,-200.48 181.61,-206.57"/>
</g>
<!-- Node3&#45;&gt;Node2 -->
<g id="edge3" class="edge">
<title>Node3&#45;&gt;Node2</title>
<path fill="none" stroke="midnightblue" d="M66.24,-173.86C58.83,-152.86 42.6,-97.83 58.5,-56 62.84,-44.6 71.53,-34.24 79.71,-26.34"/>
<polygon fill="midnightblue" stroke="midnightblue" points="82.14,-28.86 87.23,-19.57 77.46,-23.66 82.14,-28.86"/>
</g>
<!-- Node4 -->
<g id="node4" class="node">
<title>Node4</title>
<g id="a_node4"><a xlink:href="config_8h.html" target="_top" xlink:title="System configuration.">
<polygon fill="white" stroke="black" points="82,-112.5 82,-131.5 171,-131.5 171,-112.5 82,-112.5"/>
<text text-anchor="middle" x="126.5" y="-119.5" font-family="Helvetica,sans-Serif" font-size="10.00">Settings/config.h</text>
</a>
</g>
</g>
<!-- Node3&#45;&gt;Node4 -->
<g id="edge4" class="edge">
<title>Node3&#45;&gt;Node4</title>
<path fill="none" stroke="midnightblue" d="M77.67,-173.98C86.39,-164.87 100.4,-150.24 111.19,-138.98"/>
<polygon fill="midnightblue" stroke="midnightblue" points="113.96,-141.15 118.35,-131.51 108.9,-136.31 113.96,-141.15"/>
</g>
<!-- Node5 -->
<g id="node5" class="node">
<title>Node5</title>
<g id="a_node5"><a xlink:href="keys_8h.html" target="_top" xlink:title="Security keys.">
<polygon fill="white" stroke="black" points="67.5,-56.5 67.5,-75.5 113.5,-75.5 113.5,-56.5 67.5,-56.5"/>
<text text-anchor="middle" x="90.5" y="-63.5" font-family="Helvetica,sans-Serif" font-size="10.00">keys.h</text>
</a>
</g>
</g>
<!-- Node4&#45;&gt;Node5 -->
<g id="edge5" class="edge">
<title>Node4&#45;&gt;Node5</title>
<path fill="none" stroke="midnightblue" d="M120.56,-112.08C115.52,-104.53 108.16,-93.49 101.99,-84.23"/>
<polygon fill="midnightblue" stroke="midnightblue" points="104.79,-82.13 96.33,-75.75 98.97,-86.01 104.79,-82.13"/>
</g>
<!-- Node6 -->
<g id="node6" class="node">
<title>Node6</title>
<g id="a_node6"><a xlink:href="_debug_8h.html" target="_top" xlink:title=" ">
<polygon fill="white" stroke="black" points="132,-56.5 132,-75.5 185,-75.5 185,-56.5 132,-56.5"/>
<text text-anchor="middle" x="158.5" y="-63.5" font-family="Helvetica,sans-Serif" font-size="10.00">Debug.h</text>
</a>
</g>
</g>
<!-- Node4&#45;&gt;Node6 -->
<g id="edge6" class="edge">
<title>Node4&#45;&gt;Node6</title>
<path fill="none" stroke="midnightblue" d="M131.78,-112.08C136.21,-104.61 142.66,-93.72 148.12,-84.52"/>
<polygon fill="midnightblue" stroke="midnightblue" points="151.23,-86.14 153.31,-75.75 145.21,-82.57 151.23,-86.14"/>
</g>
<!-- Node6&#45;&gt;Node2 -->
<g id="edge7" class="edge">
<title>Node6&#45;&gt;Node2</title>
<path fill="none" stroke="midnightblue" d="M148.86,-56.32C139.99,-48.34 126.63,-36.31 115.89,-26.65"/>
<polygon fill="midnightblue" stroke="midnightblue" points="118.09,-23.92 108.32,-19.83 113.41,-29.13 118.09,-23.92"/>
</g>
<!-- Node7&#45;&gt;Node2 -->
<g id="edge9" class="edge">
<title>Node7&#45;&gt;Node2</title>
<path fill="none" stroke="midnightblue" d="M215.25,-168.35C217.57,-143.12 218.82,-89.82 193.5,-56 179.93,-37.88 157.21,-26.75 137.39,-20.1"/>
<polygon fill="midnightblue" stroke="midnightblue" points="138.24,-16.7 127.65,-17.1 136.17,-23.39 138.24,-16.7"/>
</g>
<!-- Node7&#45;&gt;Node4 -->
<g id="edge12" class="edge">
<title>Node7&#45;&gt;Node4</title>
<path fill="none" stroke="midnightblue" d="M192.88,-168.4C179.2,-159.04 161.29,-146.79 147.52,-137.38"/>
<polygon fill="midnightblue" stroke="midnightblue" points="149.39,-134.41 139.16,-131.66 145.44,-140.19 149.39,-134.41"/>
</g>
<!-- Node8 -->
<g id="node8" class="node">
<title>Node8</title>
<g id="a_node8"><a xlink:title=" ">
<polygon fill="white" stroke="#bfbfbf" points="242,-112.5 242,-131.5 305,-131.5 305,-112.5 242,-112.5"/>
<text text-anchor="middle" x="273.5" y="-119.5" font-family="Helvetica,sans-Serif" font-size="10.00">OneWire.h</text>
</a>
</g>
</g>
<!-- Node7&#45;&gt;Node8 -->
<g id="edge10" class="edge">
<title>Node7&#45;&gt;Node8</title>
<path fill="none" stroke="midnightblue" d="M227.72,-168.4C236.71,-159.49 248.34,-147.95 257.63,-138.74"/>
<polygon fill="midnightblue" stroke="midnightblue" points="260.13,-141.18 264.77,-131.66 255.2,-136.21 260.13,-141.18"/>
</g>
<!-- Node9 -->
<g id="node9" class="node">
<title>Node9</title>
<g id="a_node9"><a xlink:title=" ">
<polygon fill="white" stroke="#bfbfbf" points="323.5,-112.5 323.5,-131.5 429.5,-131.5 429.5,-112.5 323.5,-112.5"/>
<text text-anchor="middle" x="376.5" y="-119.5" font-family="Helvetica,sans-Serif" font-size="10.00">DallasTemperature.h</text>
</a>
</g>
</g>
<!-- Node7&#45;&gt;Node9 -->
<g id="edge11" class="edge">
<title>Node7&#45;&gt;Node9</title>
<path fill="none" stroke="midnightblue" d="M252.13,-168.4C279.84,-158.28 316.81,-144.79 343.22,-135.15"/>
<polygon fill="midnightblue" stroke="midnightblue" points="344.59,-138.37 352.78,-131.66 342.19,-131.8 344.59,-138.37"/>
</g>
</g>
</svg>
