<?xml version="1.0" encoding="UTF-8" standalone="no"?>
<!DOCTYPE svg PUBLIC "-//W3C//DTD SVG 1.1//EN"
 "http://www.w3.org/Graphics/SVG/1.1/DTD/svg11.dtd">
<!-- Generated by graphviz version 4.0.0 (20220529.0937)
 -->
<!-- Title: D:/OneDrive &#45; Avans Hogeschool/Minor/PRO Smart Roofs/Software/GreenRoof_Base/include/DataStore.h Pages: 1 -->
<svg width="409pt" height="352pt"
 viewBox="0.00 0.00 409.42 352.00" xmlns="http://www.w3.org/2000/svg" xmlns:xlink="http://www.w3.org/1999/xlink">
<g id="graph0" class="graph" transform="scale(1 1) rotate(0) translate(4 348)">
<title>D:/OneDrive &#45; Avans Hogeschool/Minor/PRO Smart Roofs/Software/GreenRoof_Base/include/DataStore.h</title>
<polygon fill="white" stroke="transparent" points="-4,4 -4,-348 405.42,-348 405.42,4 -4,4"/>
<!-- Node1 -->
<g id="node1" class="node">
<title>Node1</title>
<g id="a_node1"><a xlink:title="Local data storage object.">
<polygon fill="#bfbfbf" stroke="black" points="203.92,-280.5 203.92,-343.5 330.92,-343.5 330.92,-280.5 203.92,-280.5"/>
<text text-anchor="start" x="211.92" y="-331.5" font-family="Helvetica,sans-Serif" font-size="10.00">D:/OneDrive &#45; Avans</text>
<text text-anchor="start" x="211.92" y="-320.5" font-family="Helvetica,sans-Serif" font-size="10.00"> Hogeschool/Minor/PRO</text>
<text text-anchor="start" x="211.92" y="-309.5" font-family="Helvetica,sans-Serif" font-size="10.00"> Smart Roofs/Software</text>
<text text-anchor="start" x="211.92" y="-298.5" font-family="Helvetica,sans-Serif" font-size="10.00">/GreenRoof_Base/include</text>
<text text-anchor="middle" x="267.42" y="-287.5" font-family="Helvetica,sans-Serif" font-size="10.00">/DataStore.h</text>
</a>
</g>
</g>
<!-- Node2 -->
<g id="node2" class="node">
<title>Node2</title>
<g id="a_node2"><a xlink:title=" ">
<polygon fill="white" stroke="#bfbfbf" points="247.42,-0.5 247.42,-19.5 305.42,-19.5 305.42,-0.5 247.42,-0.5"/>
<text text-anchor="middle" x="276.42" y="-7.5" font-family="Helvetica,sans-Serif" font-size="10.00">Arduino.h</text>
</a>
</g>
</g>
<!-- Node1&#45;&gt;Node2 -->
<g id="edge1" class="edge">
<title>Node1&#45;&gt;Node2</title>
<path fill="none" stroke="midnightblue" d="M328.14,-280.45C363.6,-257.89 401.42,-223.41 401.42,-179 401.42,-179 401.42,-179 401.42,-121 401.42,-72.17 347,-39.89 309.98,-23.58"/>
<polygon fill="midnightblue" stroke="midnightblue" points="311.09,-20.25 300.52,-19.59 308.37,-26.7 311.09,-20.25"/>
</g>
<!-- Node3 -->
<g id="node3" class="node">
<title>Node3</title>
<g id="a_node3"><a xlink:title=" ">
<polygon fill="white" stroke="#bfbfbf" points="318.42,-112.5 318.42,-131.5 360.42,-131.5 360.42,-112.5 318.42,-112.5"/>
<text text-anchor="middle" x="339.42" y="-119.5" font-family="Helvetica,sans-Serif" font-size="10.00">vector</text>
</a>
</g>
</g>
<!-- Node1&#45;&gt;Node3 -->
<g id="edge2" class="edge">
<title>Node1&#45;&gt;Node3</title>
<path fill="none" stroke="midnightblue" d="M296.96,-280.48C305.83,-269.73 314.71,-257.04 320.42,-244 335.28,-210.03 338.71,-166.19 339.39,-141.7"/>
<polygon fill="midnightblue" stroke="midnightblue" points="342.89,-141.68 339.54,-131.63 335.89,-141.57 342.89,-141.68"/>
</g>
<!-- Node4 -->
<g id="node4" class="node">
<title>Node4</title>
<g id="a_node4"><a xlink:title=" ">
<polygon fill="white" stroke="#bfbfbf" points="181.42,-224.5 181.42,-243.5 219.42,-243.5 219.42,-224.5 181.42,-224.5"/>
<text text-anchor="middle" x="200.42" y="-231.5" font-family="Helvetica,sans-Serif" font-size="10.00">FS.h</text>
</a>
</g>
</g>
<!-- Node1&#45;&gt;Node4 -->
<g id="edge3" class="edge">
<title>Node1&#45;&gt;Node4</title>
<path fill="none" stroke="midnightblue" d="M240.16,-280.09C231.47,-270.22 222.19,-259.7 214.79,-251.3"/>
<polygon fill="midnightblue" stroke="midnightblue" points="217.34,-248.9 208.1,-243.72 212.09,-253.53 217.34,-248.9"/>
</g>
<!-- Node5 -->
<g id="node5" class="node">
<title>Node5</title>
<g id="a_node5"><a xlink:title=" ">
<polygon fill="white" stroke="#bfbfbf" points="237.92,-224.5 237.92,-243.5 296.92,-243.5 296.92,-224.5 237.92,-224.5"/>
<text text-anchor="middle" x="267.42" y="-231.5" font-family="Helvetica,sans-Serif" font-size="10.00">SPIFFS.h</text>
</a>
</g>
</g>
<!-- Node1&#45;&gt;Node5 -->
<g id="edge4" class="edge">
<title>Node1&#45;&gt;Node5</title>
<path fill="none" stroke="midnightblue" d="M267.42,-280.09C267.42,-271.15 267.42,-261.67 267.42,-253.72"/>
<polygon fill="midnightblue" stroke="midnightblue" points="270.92,-253.72 267.42,-243.72 263.92,-253.72 270.92,-253.72"/>
</g>
<!-- Node6 -->
<g id="node6" class="node">
<title>Node6</title>
<g id="a_node6"><a xlink:href="config_8h.html" target="_top" xlink:title="System configuration.">
<polygon fill="white" stroke="black" points="68.92,-112.5 68.92,-131.5 157.92,-131.5 157.92,-112.5 68.92,-112.5"/>
<text text-anchor="middle" x="113.42" y="-119.5" font-family="Helvetica,sans-Serif" font-size="10.00">Settings/config.h</text>
</a>
</g>
</g>
<!-- Node1&#45;&gt;Node6 -->
<g id="edge5" class="edge">
<title>Node1&#45;&gt;Node6</title>
<path fill="none" stroke="midnightblue" d="M203.88,-303.46C135.14,-293.83 32.16,-274.67 8.42,-244 -23.18,-203.19 46.19,-157.98 86.76,-136.18"/>
<polygon fill="midnightblue" stroke="midnightblue" points="88.41,-139.26 95.65,-131.52 85.17,-133.06 88.41,-139.26"/>
</g>
<!-- Node9 -->
<g id="node9" class="node">
<title>Node9</title>
<g id="a_node9"><a xlink:href="_data_object_8h.html" target="_top" xlink:title="Data objects used for sensor data storage.">
<polygon fill="white" stroke="black" points="239.42,-168.5 239.42,-187.5 313.42,-187.5 313.42,-168.5 239.42,-168.5"/>
<text text-anchor="middle" x="276.42" y="-175.5" font-family="Helvetica,sans-Serif" font-size="10.00">DataObject.h</text>
</a>
</g>
</g>
<!-- Node1&#45;&gt;Node9 -->
<g id="edge9" class="edge">
<title>Node1&#45;&gt;Node9</title>
<path fill="none" stroke="midnightblue" d="M289.72,-280.49C296.46,-269.54 302.98,-256.73 306.42,-244 308.73,-235.42 308.99,-232.51 306.42,-224 303.3,-213.7 296.96,-203.61 290.92,-195.6"/>
<polygon fill="midnightblue" stroke="midnightblue" points="293.64,-193.4 284.63,-187.82 288.19,-197.8 293.64,-193.4"/>
</g>
<!-- Node10 -->
<g id="node10" class="node">
<title>Node10</title>
<g id="a_node10"><a xlink:href="_transmission_base_8h.html" target="_top" xlink:title="Transmission base object.">
<polygon fill="white" stroke="black" points="17.42,-224.5 17.42,-243.5 163.42,-243.5 163.42,-224.5 17.42,-224.5"/>
<text text-anchor="middle" x="90.42" y="-231.5" font-family="Helvetica,sans-Serif" font-size="10.00">Transmit/TransmissionBase.h</text>
</a>
</g>
</g>
<!-- Node1&#45;&gt;Node10 -->
<g id="edge13" class="edge">
<title>Node1&#45;&gt;Node10</title>
<path fill="none" stroke="midnightblue" d="M203.52,-283.56C174.88,-271.27 142.51,-257.37 119.76,-247.6"/>
<polygon fill="midnightblue" stroke="midnightblue" points="120.9,-244.28 110.33,-243.55 118.14,-250.71 120.9,-244.28"/>
</g>
<!-- Node7 -->
<g id="node7" class="node">
<title>Node7</title>
<g id="a_node7"><a xlink:href="keys_8h.html" target="_top" xlink:title="Security keys.">
<polygon fill="white" stroke="black" points="158.42,-56.5 158.42,-75.5 204.42,-75.5 204.42,-56.5 158.42,-56.5"/>
<text text-anchor="middle" x="181.42" y="-63.5" font-family="Helvetica,sans-Serif" font-size="10.00">keys.h</text>
</a>
</g>
</g>
<!-- Node6&#45;&gt;Node7 -->
<g id="edge6" class="edge">
<title>Node6&#45;&gt;Node7</title>
<path fill="none" stroke="midnightblue" d="M124.34,-112.32C134.59,-104.18 150.14,-91.84 162.42,-82.09"/>
<polygon fill="midnightblue" stroke="midnightblue" points="164.64,-84.79 170.29,-75.83 160.28,-79.31 164.64,-84.79"/>
</g>
<!-- Node8 -->
<g id="node8" class="node">
<title>Node8</title>
<g id="a_node8"><a xlink:href="_debug_8h.html" target="_top" xlink:title=" ">
<polygon fill="white" stroke="black" points="86.92,-56.5 86.92,-75.5 139.92,-75.5 139.92,-56.5 86.92,-56.5"/>
<text text-anchor="middle" x="113.42" y="-63.5" font-family="Helvetica,sans-Serif" font-size="10.00">Debug.h</text>
</a>
</g>
</g>
<!-- Node6&#45;&gt;Node8 -->
<g id="edge7" class="edge">
<title>Node6&#45;&gt;Node8</title>
<path fill="none" stroke="midnightblue" d="M113.42,-112.08C113.42,-105.01 113.42,-94.86 113.42,-85.99"/>
<polygon fill="midnightblue" stroke="midnightblue" points="116.92,-85.75 113.42,-75.75 109.92,-85.75 116.92,-85.75"/>
</g>
<!-- Node8&#45;&gt;Node2 -->
<g id="edge8" class="edge">
<title>Node8&#45;&gt;Node2</title>
<path fill="none" stroke="midnightblue" d="M139.24,-56.44C166.67,-47.36 210.19,-32.94 240.85,-22.78"/>
<polygon fill="midnightblue" stroke="midnightblue" points="242.32,-25.98 250.71,-19.52 240.12,-19.34 242.32,-25.98"/>
</g>
<!-- Node9&#45;&gt;Node2 -->
<g id="edge10" class="edge">
<title>Node9&#45;&gt;Node2</title>
<path fill="none" stroke="midnightblue" d="M276.42,-168.08C276.42,-141.95 276.42,-65.21 276.42,-29.58"/>
<polygon fill="midnightblue" stroke="midnightblue" points="279.92,-29.57 276.42,-19.57 272.92,-29.57 279.92,-29.57"/>
</g>
<!-- Node9&#45;&gt;Node3 -->
<g id="edge11" class="edge">
<title>Node9&#45;&gt;Node3</title>
<path fill="none" stroke="midnightblue" d="M286.54,-168.32C295.94,-160.26 310.16,-148.08 321.49,-138.37"/>
<polygon fill="midnightblue" stroke="midnightblue" points="323.8,-141 329.11,-131.83 319.24,-135.68 323.8,-141"/>
</g>
<!-- Node9&#45;&gt;Node6 -->
<g id="edge12" class="edge">
<title>Node9&#45;&gt;Node6</title>
<path fill="none" stroke="midnightblue" d="M250.59,-168.44C223.17,-159.36 179.64,-144.94 148.98,-134.78"/>
<polygon fill="midnightblue" stroke="midnightblue" points="149.72,-131.34 139.12,-131.52 147.52,-137.98 149.72,-131.34"/>
</g>
<!-- Node10&#45;&gt;Node6 -->
<g id="edge15" class="edge">
<title>Node10&#45;&gt;Node6</title>
<path fill="none" stroke="midnightblue" d="M92.22,-224.37C95.93,-206.62 104.5,-165.67 109.53,-141.6"/>
<polygon fill="midnightblue" stroke="midnightblue" points="113,-142.1 111.62,-131.59 106.15,-140.66 113,-142.1"/>
</g>
<!-- Node10&#45;&gt;Node9 -->
<g id="edge14" class="edge">
<title>Node10&#45;&gt;Node9</title>
<path fill="none" stroke="midnightblue" d="M119.89,-224.44C151.59,-215.24 202.15,-200.56 237.19,-190.39"/>
<polygon fill="midnightblue" stroke="midnightblue" points="238.45,-193.67 247.08,-187.52 236.5,-186.94 238.45,-193.67"/>
</g>
</g>
</svg>
