<?xml version="1.0" encoding="UTF-8" standalone="no"?>
<!DOCTYPE svg PUBLIC "-//W3C//DTD SVG 1.1//EN"
 "http://www.w3.org/Graphics/SVG/1.1/DTD/svg11.dtd">
<!-- Generated by graphviz version 4.0.0 (20220529.0937)
 -->
<!-- Title: D:/OneDrive &#45; Avans Hogeschool/Minor/PRO Smart Roofs/Software/GreenRoof_Base/include/DataPublisher.h Pages: 1 -->
<!--zoomable 408 -->
<svg id="main" version="1.1" xmlns="http://www.w3.org/2000/svg" xmlns:xlink="http://www.w3.org/1999/xlink" xml:space="preserve" onload="init(evt)">
<style type="text/css"><![CDATA[
.edge:hover path { stroke: red; }
.edge:hover polygon { stroke: red; fill: red; }
]]></style>
<script type="text/javascript"><![CDATA[
var edges = document.getElementsByTagName('g');
if (edges && edges.length) {
  for (var i=0;i<edges.length;i++) {
    if (edges[i].id.substr(0,4)=='edge') {
      edges[i].setAttribute('class','edge');
    }
  }
}
]]></script>
        <defs>
                <circle id="rim" cx="0" cy="0" r="7"/>
                <circle id="rim2" cx="0" cy="0" r="3.5"/>
                <g id="zoomPlus">
                        <use xlink:href="#rim" fill="#404040">
                                <set attributeName="fill" to="#808080" begin="zoomplus.mouseover" end="zoomplus.mouseout"/>
                        </use>
                        <path d="M-4,0h8M0,-4v8" fill="none" stroke="white" stroke-width="1.5" pointer-events="none"/>
                </g>
                <g id="zoomMin">
                        <use xlink:href="#rim" fill="#404040">
                                <set attributeName="fill" to="#808080" begin="zoomminus.mouseover" end="zoomminus.mouseout"/>
                        </use>
                        <path d="M-4,0h8" fill="none" stroke="white" stroke-width="1.5" pointer-events="none"/>
                </g>
                <g id="dirArrow">
                        <path fill="none" stroke="white" stroke-width="1.5" d="M0,-3.0v7 M-2.5,-0.5L0,-3.0L2.5,-0.5"/>
                </g>
               <g id="resetDef">
                       <use xlink:href="#rim2" fill="#404040">
                               <set attributeName="fill" to="#808080" begin="reset.mouseover" end="reset.mouseout"/>
                       </use>
               </g>
        </defs>

<script type="text/javascript">
var viewWidth = 520;
var viewHeight = 408;
var sectionId = 'dynsection-0';
</script>
<script xlink:href="svgpan.js"/>
<svg id="graph" class="graph">
<g id="viewport">
<title>D:/OneDrive &#45; Avans Hogeschool/Minor/PRO Smart Roofs/Software/GreenRoof_Base/include/DataPublisher.h</title>
<polygon fill="white" stroke="transparent" points="-4,4 -4,-404 515.76,-404 515.76,4 -4,4"/>
<!-- Node1 -->
<g id="node1" class="node">
<title>Node1</title>
<g id="a_node1"><a xlink:title="Data parser and management for transmission and storage of sensor data.">
<polygon fill="#bfbfbf" stroke="black" points="147.26,-336.5 147.26,-399.5 274.26,-399.5 274.26,-336.5 147.26,-336.5"/>
<text text-anchor="start" x="155.26" y="-387.5" font-family="Helvetica,sans-Serif" font-size="10.00">D:/OneDrive &#45; Avans</text>
<text text-anchor="start" x="155.26" y="-376.5" font-family="Helvetica,sans-Serif" font-size="10.00"> Hogeschool/Minor/PRO</text>
<text text-anchor="start" x="155.26" y="-365.5" font-family="Helvetica,sans-Serif" font-size="10.00"> Smart Roofs/Software</text>
<text text-anchor="start" x="155.26" y="-354.5" font-family="Helvetica,sans-Serif" font-size="10.00">/GreenRoof_Base/include</text>
<text text-anchor="middle" x="210.76" y="-343.5" font-family="Helvetica,sans-Serif" font-size="10.00">/DataPublisher.h</text>
</a>
</g>
</g>
<!-- Node2 -->
<g id="node2" class="node">
<title>Node2</title>
<g id="a_node2"><a xlink:title=" ">
<polygon fill="white" stroke="#bfbfbf" points="345.76,-0.5 345.76,-19.5 403.76,-19.5 403.76,-0.5 345.76,-0.5"/>
<text text-anchor="middle" x="374.76" y="-7.5" font-family="Helvetica,sans-Serif" font-size="10.00">Arduino.h</text>
</a>
</g>
</g>
<!-- Node1&#45;&gt;Node2 -->
<g id="edge1" class="edge">
<title>Node1&#45;&gt;Node2</title>
<path fill="none" stroke="midnightblue" d="M274.6,-366.16C362.95,-361.24 511.76,-337.71 511.76,-235 511.76,-235 511.76,-235 511.76,-121 511.76,-70 453.31,-38.69 412.77,-23.11"/>
<polygon fill="midnightblue" stroke="midnightblue" points="413.74,-19.74 403.15,-19.58 411.33,-26.31 413.74,-19.74"/>
</g>
<!-- Node3 -->
<g id="node3" class="node">
<title>Node3</title>
<g id="a_node3"><a xlink:title=" ">
<polygon fill="white" stroke="#bfbfbf" points="75.26,-280.5 75.26,-299.5 120.26,-299.5 120.26,-280.5 75.26,-280.5"/>
<text text-anchor="middle" x="97.76" y="-287.5" font-family="Helvetica,sans-Serif" font-size="10.00">WiFi.h</text>
</a>
</g>
</g>
<!-- Node1&#45;&gt;Node3 -->
<g id="edge2" class="edge">
<title>Node1&#45;&gt;Node3</title>
<path fill="none" stroke="midnightblue" d="M165.13,-336.31C149.35,-325.7 132.41,-314.3 119.46,-305.59"/>
<polygon fill="midnightblue" stroke="midnightblue" points="121.06,-302.45 110.81,-299.77 117.15,-308.26 121.06,-302.45"/>
</g>
<!-- Node4 -->
<g id="node4" class="node">
<title>Node4</title>
<g id="a_node4"><a xlink:title=" ">
<polygon fill="white" stroke="#bfbfbf" points="138.76,-280.5 138.76,-299.5 182.76,-299.5 182.76,-280.5 138.76,-280.5"/>
<text text-anchor="middle" x="160.76" y="-287.5" font-family="Helvetica,sans-Serif" font-size="10.00">time.h</text>
</a>
</g>
</g>
<!-- Node1&#45;&gt;Node4 -->
<g id="edge3" class="edge">
<title>Node1&#45;&gt;Node4</title>
<path fill="none" stroke="midnightblue" d="M190.42,-336.09C184.14,-326.53 177.44,-316.36 172.01,-308.1"/>
<polygon fill="midnightblue" stroke="midnightblue" points="174.92,-306.15 166.5,-299.72 169.07,-310 174.92,-306.15"/>
</g>
<!-- Node5 -->
<g id="node5" class="node">
<title>Node5</title>
<g id="a_node5"><a xlink:href="config_8h.html" target="_top" xlink:title="System configuration.">
<polygon fill="white" stroke="black" points="143.26,-112.5 143.26,-131.5 232.26,-131.5 232.26,-112.5 143.26,-112.5"/>
<text text-anchor="middle" x="187.76" y="-119.5" font-family="Helvetica,sans-Serif" font-size="10.00">Settings/config.h</text>
</a>
</g>
</g>
<!-- Node1&#45;&gt;Node5 -->
<g id="edge4" class="edge">
<title>Node1&#45;&gt;Node5</title>
<path fill="none" stroke="midnightblue" d="M147.24,-350.71C96.52,-333.71 29.94,-301.3 4.76,-244 -21.75,-183.68 71.14,-149.63 134.16,-133.89"/>
<polygon fill="midnightblue" stroke="midnightblue" points="135.09,-137.26 144,-131.52 133.45,-130.46 135.09,-137.26"/>
</g>
<!-- Node8 -->
<g id="node8" class="node">
<title>Node8</title>
<g id="a_node8"><a xlink:href="_data_object_8h.html" target="_top" xlink:title="Data objects used for sensor data storage.">
<polygon fill="white" stroke="black" points="282.76,-168.5 282.76,-187.5 356.76,-187.5 356.76,-168.5 282.76,-168.5"/>
<text text-anchor="middle" x="319.76" y="-175.5" font-family="Helvetica,sans-Serif" font-size="10.00">DataObject.h</text>
</a>
</g>
</g>
<!-- Node1&#45;&gt;Node8 -->
<g id="edge8" class="edge">
<title>Node1&#45;&gt;Node8</title>
<path fill="none" stroke="midnightblue" d="M274.48,-340.38C313.14,-320.29 358.77,-288.52 378.76,-244 388.07,-223.26 366.51,-204.62 346.88,-192.68"/>
<polygon fill="midnightblue" stroke="midnightblue" points="348.54,-189.6 338.12,-187.68 345.07,-195.68 348.54,-189.6"/>
</g>
<!-- Node10 -->
<g id="node10" class="node">
<title>Node10</title>
<g id="a_node10"><a xlink:href="_transmission_base_8h.html" target="_top" xlink:title="Transmission base object.">
<polygon fill="white" stroke="black" points="13.76,-224.5 13.76,-243.5 159.76,-243.5 159.76,-224.5 13.76,-224.5"/>
<text text-anchor="middle" x="86.76" y="-231.5" font-family="Helvetica,sans-Serif" font-size="10.00">Transmit/TransmissionBase.h</text>
</a>
</g>
</g>
<!-- Node1&#45;&gt;Node10 -->
<g id="edge12" class="edge">
<title>Node1&#45;&gt;Node10</title>
<path fill="none" stroke="midnightblue" d="M210.82,-336.2C209.33,-318.03 204.66,-295.61 191.76,-280 178.42,-263.85 158.2,-253.36 139.06,-246.62"/>
<polygon fill="midnightblue" stroke="midnightblue" points="140.08,-243.27 129.49,-243.51 137.92,-249.93 140.08,-243.27"/>
</g>
<!-- Node11 -->
<g id="node11" class="node">
<title>Node11</title>
<g id="a_node11"><a xlink:href="_data_store_8h.html" target="_top" xlink:title="Local data storage object.">
<polygon fill="white" stroke="black" points="238.76,-280.5 238.76,-299.5 306.76,-299.5 306.76,-280.5 238.76,-280.5"/>
<text text-anchor="middle" x="272.76" y="-287.5" font-family="Helvetica,sans-Serif" font-size="10.00">DataStore.h</text>
</a>
</g>
</g>
<!-- Node1&#45;&gt;Node11 -->
<g id="edge15" class="edge">
<title>Node1&#45;&gt;Node11</title>
<path fill="none" stroke="midnightblue" d="M235.98,-336.09C243.94,-326.33 252.43,-315.92 259.25,-307.57"/>
<polygon fill="midnightblue" stroke="midnightblue" points="262.04,-309.68 265.65,-299.72 256.62,-305.25 262.04,-309.68"/>
</g>
<!-- Node6 -->
<g id="node6" class="node">
<title>Node6</title>
<g id="a_node6"><a xlink:href="keys_8h.html" target="_top" xlink:title="Security keys.">
<polygon fill="white" stroke="black" points="232.76,-56.5 232.76,-75.5 278.76,-75.5 278.76,-56.5 232.76,-56.5"/>
<text text-anchor="middle" x="255.76" y="-63.5" font-family="Helvetica,sans-Serif" font-size="10.00">keys.h</text>
</a>
</g>
</g>
<!-- Node5&#45;&gt;Node6 -->
<g id="edge5" class="edge">
<title>Node5&#45;&gt;Node6</title>
<path fill="none" stroke="midnightblue" d="M198.69,-112.32C208.94,-104.18 224.48,-91.84 236.76,-82.09"/>
<polygon fill="midnightblue" stroke="midnightblue" points="238.98,-84.79 244.64,-75.83 234.63,-79.31 238.98,-84.79"/>
</g>
<!-- Node7 -->
<g id="node7" class="node">
<title>Node7</title>
<g id="a_node7"><a xlink:href="_debug_8h.html" target="_top" xlink:title=" ">
<polygon fill="white" stroke="black" points="161.26,-56.5 161.26,-75.5 214.26,-75.5 214.26,-56.5 161.26,-56.5"/>
<text text-anchor="middle" x="187.76" y="-63.5" font-family="Helvetica,sans-Serif" font-size="10.00">Debug.h</text>
</a>
</g>
</g>
<!-- Node5&#45;&gt;Node7 -->
<g id="edge6" class="edge">
<title>Node5&#45;&gt;Node7</title>
<path fill="none" stroke="midnightblue" d="M187.76,-112.08C187.76,-105.01 187.76,-94.86 187.76,-85.99"/>
<polygon fill="midnightblue" stroke="midnightblue" points="191.26,-85.75 187.76,-75.75 184.26,-85.75 191.26,-85.75"/>
</g>
<!-- Node7&#45;&gt;Node2 -->
<g id="edge7" class="edge">
<title>Node7&#45;&gt;Node2</title>
<path fill="none" stroke="midnightblue" d="M214.55,-57.26C246.31,-48.09 299.48,-32.74 335.79,-22.25"/>
<polygon fill="midnightblue" stroke="midnightblue" points="336.92,-25.57 345.56,-19.43 334.98,-18.85 336.92,-25.57"/>
</g>
<!-- Node8&#45;&gt;Node2 -->
<g id="edge9" class="edge">
<title>Node8&#45;&gt;Node2</title>
<path fill="none" stroke="midnightblue" d="M322.72,-168.08C331.41,-141.83 357.02,-64.55 368.76,-29.12"/>
<polygon fill="midnightblue" stroke="midnightblue" points="372.1,-30.16 371.92,-19.57 365.46,-27.96 372.1,-30.16"/>
</g>
<!-- Node8&#45;&gt;Node5 -->
<g id="edge11" class="edge">
<title>Node8&#45;&gt;Node5</title>
<path fill="none" stroke="midnightblue" d="M298.85,-168.44C277.03,-159.52 242.61,-145.44 217.87,-135.32"/>
<polygon fill="midnightblue" stroke="midnightblue" points="219.16,-132.06 208.58,-131.52 216.51,-138.54 219.16,-132.06"/>
</g>
<!-- Node9 -->
<g id="node9" class="node">
<title>Node9</title>
<g id="a_node9"><a xlink:title=" ">
<polygon fill="white" stroke="#bfbfbf" points="356.76,-112.5 356.76,-131.5 398.76,-131.5 398.76,-112.5 356.76,-112.5"/>
<text text-anchor="middle" x="377.76" y="-119.5" font-family="Helvetica,sans-Serif" font-size="10.00">vector</text>
</a>
</g>
</g>
<!-- Node8&#45;&gt;Node9 -->
<g id="edge10" class="edge">
<title>Node8&#45;&gt;Node9</title>
<path fill="none" stroke="midnightblue" d="M329.08,-168.32C337.65,-160.34 350.57,-148.31 360.95,-138.65"/>
<polygon fill="midnightblue" stroke="midnightblue" points="363.34,-141.21 368.27,-131.83 358.57,-136.09 363.34,-141.21"/>
</g>
<!-- Node10&#45;&gt;Node5 -->
<g id="edge14" class="edge">
<title>Node10&#45;&gt;Node5</title>
<path fill="none" stroke="midnightblue" d="M94.69,-224.37C111.58,-205.97 151.34,-162.67 173.02,-139.05"/>
<polygon fill="midnightblue" stroke="midnightblue" points="175.69,-141.32 179.87,-131.59 170.53,-136.59 175.69,-141.32"/>
</g>
<!-- Node10&#45;&gt;Node8 -->
<g id="edge13" class="edge">
<title>Node10&#45;&gt;Node8</title>
<path fill="none" stroke="midnightblue" d="M123.68,-224.44C164.16,-215.06 229.18,-199.99 273.15,-189.8"/>
<polygon fill="midnightblue" stroke="midnightblue" points="274.06,-193.18 283.01,-187.52 272.48,-186.36 274.06,-193.18"/>
</g>
<!-- Node11&#45;&gt;Node2 -->
<g id="edge16" class="edge">
<title>Node11&#45;&gt;Node2</title>
<path fill="none" stroke="midnightblue" d="M306.93,-282.02C354.73,-270.03 435.76,-240.62 435.76,-179 435.76,-179 435.76,-179 435.76,-121 435.76,-83.57 408.42,-46.96 390.35,-26.84"/>
<polygon fill="midnightblue" stroke="midnightblue" points="392.88,-24.43 383.5,-19.51 387.77,-29.21 392.88,-24.43"/>
</g>
<!-- Node11&#45;&gt;Node5 -->
<g id="edge20" class="edge">
<title>Node11&#45;&gt;Node5</title>
<path fill="none" stroke="midnightblue" d="M264.76,-280.21C257.11,-271.49 245.62,-257.52 237.76,-244 217.76,-209.58 201.72,-165.61 193.58,-141.27"/>
<polygon fill="midnightblue" stroke="midnightblue" points="196.85,-140 190.42,-131.58 190.2,-142.17 196.85,-140"/>
</g>
<!-- Node11&#45;&gt;Node8 -->
<g id="edge21" class="edge">
<title>Node11&#45;&gt;Node8</title>
<path fill="none" stroke="midnightblue" d="M263.94,-280.3C252.13,-267.56 233.86,-243.25 244.76,-224 253.11,-209.26 268.42,-198.82 283.05,-191.73"/>
<polygon fill="midnightblue" stroke="midnightblue" points="284.76,-194.8 292.48,-187.55 281.92,-188.4 284.76,-194.8"/>
</g>
<!-- Node11&#45;&gt;Node9 -->
<g id="edge17" class="edge">
<title>Node11&#45;&gt;Node9</title>
<path fill="none" stroke="midnightblue" d="M307.01,-284.43C331.54,-279.17 362.93,-267.92 378.76,-244 399.37,-212.87 390.88,-166.65 383.77,-141.3"/>
<polygon fill="midnightblue" stroke="midnightblue" points="387.05,-140.08 380.8,-131.53 380.36,-142.11 387.05,-140.08"/>
</g>
<!-- Node11&#45;&gt;Node10 -->
<g id="edge22" class="edge">
<title>Node11&#45;&gt;Node10</title>
<path fill="none" stroke="midnightblue" d="M243.29,-280.44C211.59,-271.24 161.03,-256.56 125.99,-246.39"/>
<polygon fill="midnightblue" stroke="midnightblue" points="126.68,-242.94 116.1,-243.52 124.72,-249.67 126.68,-242.94"/>
</g>
<!-- Node12 -->
<g id="node12" class="node">
<title>Node12</title>
<g id="a_node12"><a xlink:title=" ">
<polygon fill="white" stroke="#bfbfbf" points="253.76,-224.5 253.76,-243.5 291.76,-243.5 291.76,-224.5 253.76,-224.5"/>
<text text-anchor="middle" x="272.76" y="-231.5" font-family="Helvetica,sans-Serif" font-size="10.00">FS.h</text>
</a>
</g>
</g>
<!-- Node11&#45;&gt;Node12 -->
<g id="edge18" class="edge">
<title>Node11&#45;&gt;Node12</title>
<path fill="none" stroke="midnightblue" d="M272.76,-280.08C272.76,-273.01 272.76,-262.86 272.76,-253.99"/>
<polygon fill="midnightblue" stroke="midnightblue" points="276.26,-253.75 272.76,-243.75 269.26,-253.75 276.26,-253.75"/>
</g>
<!-- Node13 -->
<g id="node13" class="node">
<title>Node13</title>
<g id="a_node13"><a xlink:title=" ">
<polygon fill="white" stroke="#bfbfbf" points="310.26,-224.5 310.26,-243.5 369.26,-243.5 369.26,-224.5 310.26,-224.5"/>
<text text-anchor="middle" x="339.76" y="-231.5" font-family="Helvetica,sans-Serif" font-size="10.00">SPIFFS.h</text>
</a>
</g>
</g>
<!-- Node11&#45;&gt;Node13 -->
<g id="edge19" class="edge">
<title>Node11&#45;&gt;Node13</title>
<path fill="none" stroke="midnightblue" d="M283.53,-280.32C293.53,-272.26 308.65,-260.08 320.69,-250.37"/>
<polygon fill="midnightblue" stroke="midnightblue" points="323.21,-252.83 328.8,-243.83 318.82,-247.38 323.21,-252.83"/>
</g>
</g>
</svg>
        <g id="navigator" transform="translate(0 0)" fill="#404254">
                <rect fill="#f2f5e9" fill-opacity="0.5" stroke="#606060" stroke-width=".5" x="0" y="0" width="60" height="60"/>
                <use id="zoomplus" xlink:href="#zoomPlus" x="17" y="9" onmousedown="handleZoom(evt,'in')"/>
                <use id="zoomminus" xlink:href="#zoomMin" x="42" y="9" onmousedown="handleZoom(evt,'out')"/>
                <use id="reset" xlink:href="#resetDef" x="30" y="36" onmousedown="handleReset()"/>
                <g id="arrowUp" xlink:href="#dirArrow" transform="translate(30 24)" onmousedown="handlePan(0,-1)">
                  <use xlink:href="#rim" fill="#404040">
                        <set attributeName="fill" to="#808080" begin="arrowUp.mouseover" end="arrowUp.mouseout"/>
                  </use>
                  <path fill="none" stroke="white" stroke-width="1.5" d="M0,-3.0v7 M-2.5,-0.5L0,-3.0L2.5,-0.5"/>
                </g>
                <g id="arrowRight" xlink:href="#dirArrow" transform="rotate(90) translate(36 -43)" onmousedown="handlePan(1,0)">
                  <use xlink:href="#rim" fill="#404040">
                        <set attributeName="fill" to="#808080" begin="arrowRight.mouseover" end="arrowRight.mouseout"/>
                  </use>
                  <path fill="none" stroke="white" stroke-width="1.5" d="M0,-3.0v7 M-2.5,-0.5L0,-3.0L2.5,-0.5"/>
                </g>
                <g id="arrowDown" xlink:href="#dirArrow" transform="rotate(180) translate(-30 -48)" onmousedown="handlePan(0,1)">
                  <use xlink:href="#rim" fill="#404040">
                        <set attributeName="fill" to="#808080" begin="arrowDown.mouseover" end="arrowDown.mouseout"/>
                  </use>
                  <path fill="none" stroke="white" stroke-width="1.5" d="M0,-3.0v7 M-2.5,-0.5L0,-3.0L2.5,-0.5"/>
                </g>
                <g id="arrowLeft" xlink:href="#dirArrow" transform="rotate(270) translate(-36 17)" onmousedown="handlePan(-1,0)">
                  <use xlink:href="#rim" fill="#404040">
                        <set attributeName="fill" to="#808080" begin="arrowLeft.mouseover" end="arrowLeft.mouseout"/>
                  </use>
                  <path fill="none" stroke="white" stroke-width="1.5" d="M0,-3.0v7 M-2.5,-0.5L0,-3.0L2.5,-0.5"/>
                </g>
        </g>
        <svg viewBox="0 0 15 15" width="100%" height="30px" preserveAspectRatio="xMaxYMin meet">
         <g id="arrow_out" transform="scale(0.3 0.3)">
          <a xlink:href="_data_publisher_8h__incl_org.svg" target="_base">
           <rect id="button" ry="5" rx="5" y="6" x="6" height="38" width="38"
                fill="#f2f5e9" fill-opacity="0.5" stroke="#606060" stroke-width="1.0"/>
           <path id="arrow"
             d="M 11.500037,31.436501 C 11.940474,20.09759 22.043105,11.32322 32.158766,21.979434 L 37.068811,17.246167 C 37.068811,17.246167 37.088388,32 37.088388,32 L 22.160133,31.978069 C 22.160133,31.978069 26.997745,27.140456 26.997745,27.140456 C 18.528582,18.264221 13.291696,25.230495 11.500037,31.436501 z"
             style="fill:#404040;"/>
          </a>
         </g>
        </svg>
</svg>
