<?xml version="1.0" encoding="UTF-8" standalone="no"?>
<!DOCTYPE svg PUBLIC "-//W3C//DTD SVG 1.1//EN"
 "http://www.w3.org/Graphics/SVG/1.1/DTD/svg11.dtd">
<!-- Generated by graphviz version 4.0.0 (20220529.0937)
 -->
<!-- Title: D:/OneDrive &#45; Avans Hogeschool/Minor/PRO Smart Roofs/Software/GreenRoof_Base/src/DataStore.cpp Pages: 1 -->
<!--zoomable 453 -->
<svg id="main" version="1.1" xmlns="http://www.w3.org/2000/svg" xmlns:xlink="http://www.w3.org/1999/xlink" xml:space="preserve" onload="init(evt)">
<style type="text/css"><![CDATA[
.edge:hover path { stroke: red; }
.edge:hover polygon { stroke: red; fill: red; }
]]></style>
<script type="text/javascript"><![CDATA[
var edges = document.getElementsByTagName('g');
if (edges && edges.length) {
  for (var i=0;i<edges.length;i++) {
    if (edges[i].id.substr(0,4)=='edge') {
      edges[i].setAttribute('class','edge');
    }
  }
}
]]></script>
        <defs>
                <circle id="rim" cx="0" cy="0" r="7"/>
                <circle id="rim2" cx="0" cy="0" r="3.5"/>
                <g id="zoomPlus">
                        <use xlink:href="#rim" fill="#404040">
                                <set attributeName="fill" to="#808080" begin="zoomplus.mouseover" end="zoomplus.mouseout"/>
                        </use>
                        <path d="M-4,0h8M0,-4v8" fill="none" stroke="white" stroke-width="1.5" pointer-events="none"/>
                </g>
                <g id="zoomMin">
                        <use xlink:href="#rim" fill="#404040">
                                <set attributeName="fill" to="#808080" begin="zoomminus.mouseover" end="zoomminus.mouseout"/>
                        </use>
                        <path d="M-4,0h8" fill="none" stroke="white" stroke-width="1.5" pointer-events="none"/>
                </g>
                <g id="dirArrow">
                        <path fill="none" stroke="white" stroke-width="1.5" d="M0,-3.0v7 M-2.5,-0.5L0,-3.0L2.5,-0.5"/>
                </g>
               <g id="resetDef">
                       <use xlink:href="#rim2" fill="#404040">
                               <set attributeName="fill" to="#808080" begin="reset.mouseover" end="reset.mouseout"/>
                       </use>
               </g>
        </defs>

<script type="text/javascript">
var viewWidth = 598;
var viewHeight = 453;
var sectionId = 'dynsection-0';
</script>
<script xlink:href="svgpan.js"/>
<svg id="graph" class="graph">
<g id="viewport">
<title>D:/OneDrive &#45; Avans Hogeschool/Minor/PRO Smart Roofs/Software/GreenRoof_Base/src/DataStore.cpp</title>
<polygon fill="white" stroke="transparent" points="-4,4 -4,-449 593.61,-449 593.61,4 -4,4"/>
<!-- Node1 -->
<g id="node1" class="node">
<title>Node1</title>
<g id="a_node1"><a xlink:title="Local data storage object.">
<polygon fill="#bfbfbf" stroke="black" points="219.5,-392.5 219.5,-444.5 394.5,-444.5 394.5,-392.5 219.5,-392.5"/>
<text text-anchor="start" x="227.5" y="-432.5" font-family="Helvetica,sans-Serif" font-size="10.00">D:/OneDrive &#45; Avans</text>
<text text-anchor="start" x="227.5" y="-421.5" font-family="Helvetica,sans-Serif" font-size="10.00"> Hogeschool/Minor/PRO</text>
<text text-anchor="start" x="227.5" y="-410.5" font-family="Helvetica,sans-Serif" font-size="10.00"> Smart Roofs/Software</text>
<text text-anchor="middle" x="307" y="-399.5" font-family="Helvetica,sans-Serif" font-size="10.00">/GreenRoof_Base/src/DataStore.cpp</text>
</a>
</g>
</g>
<!-- Node2 -->
<g id="node2" class="node">
<title>Node2</title>
<g id="a_node2"><a xlink:href="_data_store_8h.html" target="_top" xlink:title="Local data storage object.">
<polygon fill="white" stroke="black" points="156,-280.5 156,-299.5 224,-299.5 224,-280.5 156,-280.5"/>
<text text-anchor="middle" x="190" y="-287.5" font-family="Helvetica,sans-Serif" font-size="10.00">DataStore.h</text>
</a>
</g>
</g>
<!-- Node1&#45;&gt;Node2 -->
<g id="edge1" class="edge">
<title>Node1&#45;&gt;Node2</title>
<path fill="none" stroke="midnightblue" d="M283.6,-392.2C260.17,-366.87 224.82,-328.65 204.94,-307.15"/>
<polygon fill="midnightblue" stroke="midnightblue" points="207.27,-304.51 197.91,-299.55 202.13,-309.27 207.27,-304.51"/>
</g>
<!-- Node12 -->
<g id="node12" class="node">
<title>Node12</title>
<g id="a_node12"><a xlink:href="_data_publisher_8h.html" target="_top" xlink:title="Data parser and management for transmission and storage of sensor data.">
<polygon fill="white" stroke="black" points="363,-336.5 363,-355.5 449,-355.5 449,-336.5 363,-336.5"/>
<text text-anchor="middle" x="406" y="-343.5" font-family="Helvetica,sans-Serif" font-size="10.00">DataPublisher.h</text>
</a>
</g>
</g>
<!-- Node1&#45;&gt;Node12 -->
<g id="edge17" class="edge">
<title>Node1&#45;&gt;Node12</title>
<path fill="none" stroke="midnightblue" d="M342.18,-392.45C356.67,-382.13 372.95,-370.53 385.44,-361.64"/>
<polygon fill="midnightblue" stroke="midnightblue" points="387.67,-364.35 393.79,-355.7 383.61,-358.65 387.67,-364.35"/>
</g>
<!-- Node3 -->
<g id="node3" class="node">
<title>Node3</title>
<g id="a_node3"><a xlink:title=" ">
<polygon fill="white" stroke="#bfbfbf" points="181,-0.5 181,-19.5 239,-19.5 239,-0.5 181,-0.5"/>
<text text-anchor="middle" x="210" y="-7.5" font-family="Helvetica,sans-Serif" font-size="10.00">Arduino.h</text>
</a>
</g>
</g>
<!-- Node2&#45;&gt;Node3 -->
<g id="edge2" class="edge">
<title>Node2&#45;&gt;Node3</title>
<path fill="none" stroke="midnightblue" d="M155.59,-284.8C100.84,-275.98 0,-250.09 0,-179 0,-179 0,-179 0,-121 0,-44.74 110,-21.25 170.78,-14.09"/>
<polygon fill="midnightblue" stroke="midnightblue" points="171.24,-17.56 180.8,-13 170.48,-10.6 171.24,-17.56"/>
</g>
<!-- Node4 -->
<g id="node4" class="node">
<title>Node4</title>
<g id="a_node4"><a xlink:title=" ">
<polygon fill="white" stroke="#bfbfbf" points="71,-112.5 71,-131.5 113,-131.5 113,-112.5 71,-112.5"/>
<text text-anchor="middle" x="92" y="-119.5" font-family="Helvetica,sans-Serif" font-size="10.00">vector</text>
</a>
</g>
</g>
<!-- Node2&#45;&gt;Node4 -->
<g id="edge3" class="edge">
<title>Node2&#45;&gt;Node4</title>
<path fill="none" stroke="midnightblue" d="M155.76,-283.76C132.33,-278.19 102.9,-266.86 88,-244 67.6,-212.71 77.45,-166.56 85.38,-141.25"/>
<polygon fill="midnightblue" stroke="midnightblue" points="88.79,-142.1 88.67,-131.5 82.16,-139.86 88.79,-142.1"/>
</g>
<!-- Node5 -->
<g id="node5" class="node">
<title>Node5</title>
<g id="a_node5"><a xlink:title=" ">
<polygon fill="white" stroke="#bfbfbf" points="104,-224.5 104,-243.5 142,-243.5 142,-224.5 104,-224.5"/>
<text text-anchor="middle" x="123" y="-231.5" font-family="Helvetica,sans-Serif" font-size="10.00">FS.h</text>
</a>
</g>
</g>
<!-- Node2&#45;&gt;Node5 -->
<g id="edge4" class="edge">
<title>Node2&#45;&gt;Node5</title>
<path fill="none" stroke="midnightblue" d="M179.24,-280.32C169.23,-272.26 154.11,-260.08 142.07,-250.37"/>
<polygon fill="midnightblue" stroke="midnightblue" points="143.94,-247.38 133.96,-243.83 139.55,-252.83 143.94,-247.38"/>
</g>
<!-- Node6 -->
<g id="node6" class="node">
<title>Node6</title>
<g id="a_node6"><a xlink:title=" ">
<polygon fill="white" stroke="#bfbfbf" points="160.5,-224.5 160.5,-243.5 219.5,-243.5 219.5,-224.5 160.5,-224.5"/>
<text text-anchor="middle" x="190" y="-231.5" font-family="Helvetica,sans-Serif" font-size="10.00">SPIFFS.h</text>
</a>
</g>
</g>
<!-- Node2&#45;&gt;Node6 -->
<g id="edge5" class="edge">
<title>Node2&#45;&gt;Node6</title>
<path fill="none" stroke="midnightblue" d="M190,-280.08C190,-273.01 190,-262.86 190,-253.99"/>
<polygon fill="midnightblue" stroke="midnightblue" points="193.5,-253.75 190,-243.75 186.5,-253.75 193.5,-253.75"/>
</g>
<!-- Node7 -->
<g id="node7" class="node">
<title>Node7</title>
<g id="a_node7"><a xlink:href="config_8h.html" target="_top" xlink:title="System configuration.">
<polygon fill="white" stroke="black" points="236.5,-112.5 236.5,-131.5 325.5,-131.5 325.5,-112.5 236.5,-112.5"/>
<text text-anchor="middle" x="281" y="-119.5" font-family="Helvetica,sans-Serif" font-size="10.00">Settings/config.h</text>
</a>
</g>
</g>
<!-- Node2&#45;&gt;Node7 -->
<g id="edge6" class="edge">
<title>Node2&#45;&gt;Node7</title>
<path fill="none" stroke="midnightblue" d="M198.96,-280.35C207.5,-271.74 220.32,-257.84 229,-244 250.27,-210.07 266.78,-165.92 275.08,-141.42"/>
<polygon fill="midnightblue" stroke="midnightblue" points="278.5,-142.25 278.31,-131.66 271.85,-140.05 278.5,-142.25"/>
</g>
<!-- Node10 -->
<g id="node10" class="node">
<title>Node10</title>
<g id="a_node10"><a xlink:href="_data_object_8h.html" target="_top" xlink:title="Data objects used for sensor data storage.">
<polygon fill="white" stroke="black" points="146,-168.5 146,-187.5 220,-187.5 220,-168.5 146,-168.5"/>
<text text-anchor="middle" x="183" y="-175.5" font-family="Helvetica,sans-Serif" font-size="10.00">DataObject.h</text>
</a>
</g>
</g>
<!-- Node2&#45;&gt;Node10 -->
<g id="edge10" class="edge">
<title>Node2&#45;&gt;Node10</title>
<path fill="none" stroke="midnightblue" d="M155.7,-282.43C134.25,-276.36 108.27,-264.97 95,-244 79.79,-219.96 112.5,-201.8 142.27,-190.87"/>
<polygon fill="midnightblue" stroke="midnightblue" points="143.47,-194.16 151.77,-187.57 141.17,-187.54 143.47,-194.16"/>
</g>
<!-- Node11 -->
<g id="node11" class="node">
<title>Node11</title>
<g id="a_node11"><a xlink:href="_transmission_base_8h.html" target="_top" xlink:title="Transmission base object.">
<polygon fill="white" stroke="black" points="314,-224.5 314,-243.5 460,-243.5 460,-224.5 314,-224.5"/>
<text text-anchor="middle" x="387" y="-231.5" font-family="Helvetica,sans-Serif" font-size="10.00">Transmit/TransmissionBase.h</text>
</a>
</g>
</g>
<!-- Node2&#45;&gt;Node11 -->
<g id="edge14" class="edge">
<title>Node2&#45;&gt;Node11</title>
<path fill="none" stroke="midnightblue" d="M221.22,-280.44C254.93,-271.2 308.8,-256.44 345.93,-246.26"/>
<polygon fill="midnightblue" stroke="midnightblue" points="347.21,-249.54 355.93,-243.52 345.36,-242.78 347.21,-249.54"/>
</g>
<!-- Node8 -->
<g id="node8" class="node">
<title>Node8</title>
<g id="a_node8"><a xlink:href="keys_8h.html" target="_top" xlink:title="Security keys.">
<polygon fill="white" stroke="black" points="283,-56.5 283,-75.5 329,-75.5 329,-56.5 283,-56.5"/>
<text text-anchor="middle" x="306" y="-63.5" font-family="Helvetica,sans-Serif" font-size="10.00">keys.h</text>
</a>
</g>
</g>
<!-- Node7&#45;&gt;Node8 -->
<g id="edge7" class="edge">
<title>Node7&#45;&gt;Node8</title>
<path fill="none" stroke="midnightblue" d="M285.13,-112.08C288.51,-104.77 293.42,-94.18 297.62,-85.1"/>
<polygon fill="midnightblue" stroke="midnightblue" points="300.92,-86.3 301.95,-75.75 294.57,-83.36 300.92,-86.3"/>
</g>
<!-- Node9 -->
<g id="node9" class="node">
<title>Node9</title>
<g id="a_node9"><a xlink:href="_debug_8h.html" target="_top" xlink:title=" ">
<polygon fill="white" stroke="black" points="211.5,-56.5 211.5,-75.5 264.5,-75.5 264.5,-56.5 211.5,-56.5"/>
<text text-anchor="middle" x="238" y="-63.5" font-family="Helvetica,sans-Serif" font-size="10.00">Debug.h</text>
</a>
</g>
</g>
<!-- Node7&#45;&gt;Node9 -->
<g id="edge8" class="edge">
<title>Node7&#45;&gt;Node9</title>
<path fill="none" stroke="midnightblue" d="M273.9,-112.08C267.76,-104.38 258.73,-93.03 251.26,-83.65"/>
<polygon fill="midnightblue" stroke="midnightblue" points="253.94,-81.39 244.97,-75.75 248.46,-85.75 253.94,-81.39"/>
</g>
<!-- Node9&#45;&gt;Node3 -->
<g id="edge9" class="edge">
<title>Node9&#45;&gt;Node3</title>
<path fill="none" stroke="midnightblue" d="M233.38,-56.08C229.54,-48.69 223.98,-37.95 219.24,-28.81"/>
<polygon fill="midnightblue" stroke="midnightblue" points="222.25,-27.02 214.54,-19.75 216.03,-30.24 222.25,-27.02"/>
</g>
<!-- Node10&#45;&gt;Node3 -->
<g id="edge11" class="edge">
<title>Node10&#45;&gt;Node3</title>
<path fill="none" stroke="midnightblue" d="M184.45,-168.08C188.7,-141.95 201.18,-65.21 206.98,-29.58"/>
<polygon fill="midnightblue" stroke="midnightblue" points="210.46,-30 208.61,-19.57 203.55,-28.88 210.46,-30"/>
</g>
<!-- Node10&#45;&gt;Node4 -->
<g id="edge12" class="edge">
<title>Node10&#45;&gt;Node4</title>
<path fill="none" stroke="midnightblue" d="M168.38,-168.32C154.05,-159.82 131.99,-146.73 115.25,-136.8"/>
<polygon fill="midnightblue" stroke="midnightblue" points="116.97,-133.75 106.58,-131.65 113.4,-139.77 116.97,-133.75"/>
</g>
<!-- Node10&#45;&gt;Node7 -->
<g id="edge13" class="edge">
<title>Node10&#45;&gt;Node7</title>
<path fill="none" stroke="midnightblue" d="M198.75,-168.32C214.32,-159.74 238.38,-146.49 256.46,-136.52"/>
<polygon fill="midnightblue" stroke="midnightblue" points="258.22,-139.55 265.29,-131.65 254.85,-133.42 258.22,-139.55"/>
</g>
<!-- Node11&#45;&gt;Node7 -->
<g id="edge16" class="edge">
<title>Node11&#45;&gt;Node7</title>
<path fill="none" stroke="midnightblue" d="M378.68,-224.37C360.96,-205.97 319.23,-162.67 296.47,-139.05"/>
<polygon fill="midnightblue" stroke="midnightblue" points="298.74,-136.36 289.28,-131.59 293.7,-141.22 298.74,-136.36"/>
</g>
<!-- Node11&#45;&gt;Node10 -->
<g id="edge15" class="edge">
<title>Node11&#45;&gt;Node10</title>
<path fill="none" stroke="midnightblue" d="M354.68,-224.44C319.61,-215.16 263.5,-200.31 225.04,-190.13"/>
<polygon fill="midnightblue" stroke="midnightblue" points="225.74,-186.69 215.17,-187.52 223.94,-193.46 225.74,-186.69"/>
</g>
<!-- Node12&#45;&gt;Node2 -->
<g id="edge24" class="edge">
<title>Node12&#45;&gt;Node2</title>
<path fill="none" stroke="midnightblue" d="M371.77,-336.44C334.49,-327.12 274.73,-312.18 233.99,-302"/>
<polygon fill="midnightblue" stroke="midnightblue" points="234.62,-298.55 224.07,-299.52 232.92,-305.34 234.62,-298.55"/>
</g>
<!-- Node12&#45;&gt;Node3 -->
<g id="edge18" class="edge">
<title>Node12&#45;&gt;Node3</title>
<path fill="none" stroke="midnightblue" d="M449,-344.36C485.85,-341.5 537.9,-331.57 570,-300 591.46,-278.89 589,-265.1 589,-235 589,-235 589,-235 589,-121 589,-50.76 345.9,-22.47 249.09,-13.99"/>
<polygon fill="midnightblue" stroke="midnightblue" points="249.37,-10.5 239.11,-13.14 248.78,-17.48 249.37,-10.5"/>
</g>
<!-- Node12&#45;&gt;Node7 -->
<g id="edge21" class="edge">
<title>Node12&#45;&gt;Node7</title>
<path fill="none" stroke="midnightblue" d="M411.17,-336.09C418.51,-323.49 432.47,-299.79 445,-280 455.28,-263.75 463.43,-262.4 469,-244 471.58,-235.49 473.56,-231.63 469,-224 439.21,-174.19 375.48,-147.52 330.51,-134.32"/>
<polygon fill="midnightblue" stroke="midnightblue" points="331.22,-130.88 320.65,-131.55 329.33,-137.62 331.22,-130.88"/>
</g>
<!-- Node12&#45;&gt;Node10 -->
<g id="edge22" class="edge">
<title>Node12&#45;&gt;Node10</title>
<path fill="none" stroke="midnightblue" d="M394.32,-336.31C358.2,-309.42 247.95,-227.35 202.7,-193.67"/>
<polygon fill="midnightblue" stroke="midnightblue" points="204.67,-190.77 194.56,-187.61 200.49,-196.38 204.67,-190.77"/>
</g>
<!-- Node12&#45;&gt;Node11 -->
<g id="edge23" class="edge">
<title>Node12&#45;&gt;Node11</title>
<path fill="none" stroke="midnightblue" d="M404.51,-336.37C401.44,-318.62 394.37,-277.67 390.21,-253.6"/>
<polygon fill="midnightblue" stroke="midnightblue" points="393.64,-252.85 388.48,-243.59 386.74,-254.04 393.64,-252.85"/>
</g>
<!-- Node13 -->
<g id="node13" class="node">
<title>Node13</title>
<g id="a_node13"><a xlink:title=" ">
<polygon fill="white" stroke="#bfbfbf" points="453.5,-280.5 453.5,-299.5 498.5,-299.5 498.5,-280.5 453.5,-280.5"/>
<text text-anchor="middle" x="476" y="-287.5" font-family="Helvetica,sans-Serif" font-size="10.00">WiFi.h</text>
</a>
</g>
</g>
<!-- Node12&#45;&gt;Node13 -->
<g id="edge19" class="edge">
<title>Node12&#45;&gt;Node13</title>
<path fill="none" stroke="midnightblue" d="M417.25,-336.32C427.8,-328.18 443.8,-315.84 456.44,-306.09"/>
<polygon fill="midnightblue" stroke="midnightblue" points="458.77,-308.71 464.55,-299.83 454.49,-303.17 458.77,-308.71"/>
</g>
<!-- Node14 -->
<g id="node14" class="node">
<title>Node14</title>
<g id="a_node14"><a xlink:title=" ">
<polygon fill="white" stroke="#bfbfbf" points="517,-280.5 517,-299.5 561,-299.5 561,-280.5 517,-280.5"/>
<text text-anchor="middle" x="539" y="-287.5" font-family="Helvetica,sans-Serif" font-size="10.00">time.h</text>
</a>
</g>
</g>
<!-- Node12&#45;&gt;Node14 -->
<g id="edge20" class="edge">
<title>Node12&#45;&gt;Node14</title>
<path fill="none" stroke="midnightblue" d="M427.07,-336.44C449.06,-327.52 483.73,-313.44 508.66,-303.32"/>
<polygon fill="midnightblue" stroke="midnightblue" points="510.08,-306.52 518.02,-299.52 507.44,-300.04 510.08,-306.52"/>
</g>
</g>
</svg>
        <g id="navigator" transform="translate(0 0)" fill="#404254">
                <rect fill="#f2f5e9" fill-opacity="0.5" stroke="#606060" stroke-width=".5" x="0" y="0" width="60" height="60"/>
                <use id="zoomplus" xlink:href="#zoomPlus" x="17" y="9" onmousedown="handleZoom(evt,'in')"/>
                <use id="zoomminus" xlink:href="#zoomMin" x="42" y="9" onmousedown="handleZoom(evt,'out')"/>
                <use id="reset" xlink:href="#resetDef" x="30" y="36" onmousedown="handleReset()"/>
                <g id="arrowUp" xlink:href="#dirArrow" transform="translate(30 24)" onmousedown="handlePan(0,-1)">
                  <use xlink:href="#rim" fill="#404040">
                        <set attributeName="fill" to="#808080" begin="arrowUp.mouseover" end="arrowUp.mouseout"/>
                  </use>
                  <path fill="none" stroke="white" stroke-width="1.5" d="M0,-3.0v7 M-2.5,-0.5L0,-3.0L2.5,-0.5"/>
                </g>
                <g id="arrowRight" xlink:href="#dirArrow" transform="rotate(90) translate(36 -43)" onmousedown="handlePan(1,0)">
                  <use xlink:href="#rim" fill="#404040">
                        <set attributeName="fill" to="#808080" begin="arrowRight.mouseover" end="arrowRight.mouseout"/>
                  </use>
                  <path fill="none" stroke="white" stroke-width="1.5" d="M0,-3.0v7 M-2.5,-0.5L0,-3.0L2.5,-0.5"/>
                </g>
                <g id="arrowDown" xlink:href="#dirArrow" transform="rotate(180) translate(-30 -48)" onmousedown="handlePan(0,1)">
                  <use xlink:href="#rim" fill="#404040">
                        <set attributeName="fill" to="#808080" begin="arrowDown.mouseover" end="arrowDown.mouseout"/>
                  </use>
                  <path fill="none" stroke="white" stroke-width="1.5" d="M0,-3.0v7 M-2.5,-0.5L0,-3.0L2.5,-0.5"/>
                </g>
                <g id="arrowLeft" xlink:href="#dirArrow" transform="rotate(270) translate(-36 17)" onmousedown="handlePan(-1,0)">
                  <use xlink:href="#rim" fill="#404040">
                        <set attributeName="fill" to="#808080" begin="arrowLeft.mouseover" end="arrowLeft.mouseout"/>
                  </use>
                  <path fill="none" stroke="white" stroke-width="1.5" d="M0,-3.0v7 M-2.5,-0.5L0,-3.0L2.5,-0.5"/>
                </g>
        </g>
        <svg viewBox="0 0 15 15" width="100%" height="30px" preserveAspectRatio="xMaxYMin meet">
         <g id="arrow_out" transform="scale(0.3 0.3)">
          <a xlink:href="_data_store_8cpp__incl_org.svg" target="_base">
           <rect id="button" ry="5" rx="5" y="6" x="6" height="38" width="38"
                fill="#f2f5e9" fill-opacity="0.5" stroke="#606060" stroke-width="1.0"/>
           <path id="arrow"
             d="M 11.500037,31.436501 C 11.940474,20.09759 22.043105,11.32322 32.158766,21.979434 L 37.068811,17.246167 C 37.068811,17.246167 37.088388,32 37.088388,32 L 22.160133,31.978069 C 22.160133,31.978069 26.997745,27.140456 26.997745,27.140456 C 18.528582,18.264221 13.291696,25.230495 11.500037,31.436501 z"
             style="fill:#404040;"/>
          </a>
         </g>
        </svg>
</svg>
