<?xml version="1.0" encoding="UTF-8" standalone="no"?>
<!DOCTYPE svg PUBLIC "-//W3C//DTD SVG 1.1//EN"
 "http://www.w3.org/Graphics/SVG/1.1/DTD/svg11.dtd">
<!-- Generated by graphviz version 4.0.0 (20220529.0937)
 -->
<!-- Title: D:/OneDrive &#45; Avans Hogeschool/Minor/PRO Smart Roofs/Software/GreenRoof_Base/include/DataObject.h Pages: 1 -->
<svg width="200pt" height="240pt"
 viewBox="0.00 0.00 200.00 240.00" xmlns="http://www.w3.org/2000/svg" xmlns:xlink="http://www.w3.org/1999/xlink">
<g id="graph0" class="graph" transform="scale(1 1) rotate(0) translate(4 236)">
<title>D:/OneDrive &#45; Avans Hogeschool/Minor/PRO Smart Roofs/Software/GreenRoof_Base/include/DataObject.h</title>
<polygon fill="white" stroke="transparent" points="-4,4 -4,-236 196,-236 196,4 -4,4"/>
<!-- Node1 -->
<g id="node1" class="node">
<title>Node1</title>
<g id="a_node1"><a xlink:title="Data objects used for sensor data storage.">
<polygon fill="#bfbfbf" stroke="black" points="0,-168.5 0,-231.5 127,-231.5 127,-168.5 0,-168.5"/>
<text text-anchor="start" x="8" y="-219.5" font-family="Helvetica,sans-Serif" font-size="10.00">D:/OneDrive &#45; Avans</text>
<text text-anchor="start" x="8" y="-208.5" font-family="Helvetica,sans-Serif" font-size="10.00"> Hogeschool/Minor/PRO</text>
<text text-anchor="start" x="8" y="-197.5" font-family="Helvetica,sans-Serif" font-size="10.00"> Smart Roofs/Software</text>
<text text-anchor="start" x="8" y="-186.5" font-family="Helvetica,sans-Serif" font-size="10.00">/GreenRoof_Base/include</text>
<text text-anchor="middle" x="63.5" y="-175.5" font-family="Helvetica,sans-Serif" font-size="10.00">/DataObject.h</text>
</a>
</g>
</g>
<!-- Node2 -->
<g id="node2" class="node">
<title>Node2</title>
<g id="a_node2"><a xlink:title=" ">
<polygon fill="white" stroke="#bfbfbf" points="51.5,-0.5 51.5,-19.5 109.5,-19.5 109.5,-0.5 51.5,-0.5"/>
<text text-anchor="middle" x="80.5" y="-7.5" font-family="Helvetica,sans-Serif" font-size="10.00">Arduino.h</text>
</a>
</g>
</g>
<!-- Node1&#45;&gt;Node2 -->
<g id="edge1" class="edge">
<title>Node1&#45;&gt;Node2</title>
<path fill="none" stroke="midnightblue" d="M46.46,-168.23C41.22,-157.15 36.14,-144.34 33.5,-132 31.64,-123.31 32.41,-120.82 33.5,-112 36.63,-86.54 36.6,-79.22 47.5,-56 52.28,-45.82 59.5,-35.63 65.98,-27.52"/>
<polygon fill="midnightblue" stroke="midnightblue" points="68.83,-29.56 72.55,-19.64 63.46,-25.08 68.83,-29.56"/>
</g>
<!-- Node3 -->
<g id="node3" class="node">
<title>Node3</title>
<g id="a_node3"><a xlink:title=" ">
<polygon fill="white" stroke="#bfbfbf" points="42.5,-112.5 42.5,-131.5 84.5,-131.5 84.5,-112.5 42.5,-112.5"/>
<text text-anchor="middle" x="63.5" y="-119.5" font-family="Helvetica,sans-Serif" font-size="10.00">vector</text>
</a>
</g>
</g>
<!-- Node1&#45;&gt;Node3 -->
<g id="edge2" class="edge">
<title>Node1&#45;&gt;Node3</title>
<path fill="none" stroke="midnightblue" d="M63.5,-168.09C63.5,-159.15 63.5,-149.67 63.5,-141.72"/>
<polygon fill="midnightblue" stroke="midnightblue" points="67,-141.72 63.5,-131.72 60,-141.72 67,-141.72"/>
</g>
<!-- Node4 -->
<g id="node4" class="node">
<title>Node4</title>
<g id="a_node4"><a xlink:href="config_8h.html" target="_top" xlink:title="System configuration.">
<polygon fill="white" stroke="black" points="103,-112.5 103,-131.5 192,-131.5 192,-112.5 103,-112.5"/>
<text text-anchor="middle" x="147.5" y="-119.5" font-family="Helvetica,sans-Serif" font-size="10.00">Settings/config.h</text>
</a>
</g>
</g>
<!-- Node1&#45;&gt;Node4 -->
<g id="edge3" class="edge">
<title>Node1&#45;&gt;Node4</title>
<path fill="none" stroke="midnightblue" d="M97.67,-168.09C108.91,-157.92 120.93,-147.04 130.34,-138.52"/>
<polygon fill="midnightblue" stroke="midnightblue" points="132.8,-141.02 137.86,-131.72 128.1,-135.83 132.8,-141.02"/>
</g>
<!-- Node5 -->
<g id="node5" class="node">
<title>Node5</title>
<g id="a_node5"><a xlink:href="keys_8h.html" target="_top" xlink:title="Security keys.">
<polygon fill="white" stroke="black" points="56.5,-56.5 56.5,-75.5 102.5,-75.5 102.5,-56.5 56.5,-56.5"/>
<text text-anchor="middle" x="79.5" y="-63.5" font-family="Helvetica,sans-Serif" font-size="10.00">keys.h</text>
</a>
</g>
</g>
<!-- Node4&#45;&gt;Node5 -->
<g id="edge4" class="edge">
<title>Node4&#45;&gt;Node5</title>
<path fill="none" stroke="midnightblue" d="M136.57,-112.32C126.33,-104.18 110.78,-91.84 98.5,-82.09"/>
<polygon fill="midnightblue" stroke="midnightblue" points="100.63,-79.31 90.62,-75.83 96.28,-84.79 100.63,-79.31"/>
</g>
<!-- Node6 -->
<g id="node6" class="node">
<title>Node6</title>
<g id="a_node6"><a xlink:href="_debug_8h.html" target="_top" xlink:title=" ">
<polygon fill="white" stroke="black" points="121,-56.5 121,-75.5 174,-75.5 174,-56.5 121,-56.5"/>
<text text-anchor="middle" x="147.5" y="-63.5" font-family="Helvetica,sans-Serif" font-size="10.00">Debug.h</text>
</a>
</g>
</g>
<!-- Node4&#45;&gt;Node6 -->
<g id="edge5" class="edge">
<title>Node4&#45;&gt;Node6</title>
<path fill="none" stroke="midnightblue" d="M147.5,-112.08C147.5,-105.01 147.5,-94.86 147.5,-85.99"/>
<polygon fill="midnightblue" stroke="midnightblue" points="151,-85.75 147.5,-75.75 144,-85.75 151,-85.75"/>
</g>
<!-- Node6&#45;&gt;Node2 -->
<g id="edge6" class="edge">
<title>Node6&#45;&gt;Node2</title>
<path fill="none" stroke="midnightblue" d="M136.74,-56.32C126.73,-48.26 111.61,-36.08 99.57,-26.37"/>
<polygon fill="midnightblue" stroke="midnightblue" points="101.44,-23.38 91.46,-19.83 97.05,-28.83 101.44,-23.38"/>
</g>
</g>
</svg>
