<?xml version="1.0" encoding="UTF-8" standalone="no"?>
<!DOCTYPE svg PUBLIC "-//W3C//DTD SVG 1.1//EN"
 "http://www.w3.org/Graphics/SVG/1.1/DTD/svg11.dtd">
<!-- Generated by graphviz version 4.0.0 (20220529.0937)
 -->
<!-- Title: D:/OneDrive &#45; Avans Hogeschool/Minor/PRO Smart Roofs/Software/GreenRoof_Base/include/DataObject.h Pages: 1 -->
<!--zoomable 572 -->
<svg id="main" version="1.1" xmlns="http://www.w3.org/2000/svg" xmlns:xlink="http://www.w3.org/1999/xlink" xml:space="preserve" onload="init(evt)">
<style type="text/css"><![CDATA[
.edge:hover path { stroke: red; }
.edge:hover polygon { stroke: red; fill: red; }
]]></style>
<script type="text/javascript"><![CDATA[
var edges = document.getElementsByTagName('g');
if (edges && edges.length) {
  for (var i=0;i<edges.length;i++) {
    if (edges[i].id.substr(0,4)=='edge') {
      edges[i].setAttribute('class','edge');
    }
  }
}
]]></script>
        <defs>
                <circle id="rim" cx="0" cy="0" r="7"/>
                <circle id="rim2" cx="0" cy="0" r="3.5"/>
                <g id="zoomPlus">
                        <use xlink:href="#rim" fill="#404040">
                                <set attributeName="fill" to="#808080" begin="zoomplus.mouseover" end="zoomplus.mouseout"/>
                        </use>
                        <path d="M-4,0h8M0,-4v8" fill="none" stroke="white" stroke-width="1.5" pointer-events="none"/>
                </g>
                <g id="zoomMin">
                        <use xlink:href="#rim" fill="#404040">
                                <set attributeName="fill" to="#808080" begin="zoomminus.mouseover" end="zoomminus.mouseout"/>
                        </use>
                        <path d="M-4,0h8" fill="none" stroke="white" stroke-width="1.5" pointer-events="none"/>
                </g>
                <g id="dirArrow">
                        <path fill="none" stroke="white" stroke-width="1.5" d="M0,-3.0v7 M-2.5,-0.5L0,-3.0L2.5,-0.5"/>
                </g>
               <g id="resetDef">
                       <use xlink:href="#rim2" fill="#404040">
                               <set attributeName="fill" to="#808080" begin="reset.mouseover" end="reset.mouseout"/>
                       </use>
               </g>
        </defs>

<script type="text/javascript">
var viewWidth = 993;
var viewHeight = 572;
var sectionId = 'dynsection-1';
</script>
<script xlink:href="svgpan.js"/>
<svg id="graph" class="graph">
<g id="viewport">
<title>D:/OneDrive &#45; Avans Hogeschool/Minor/PRO Smart Roofs/Software/GreenRoof_Base/include/DataObject.h</title>
<polygon fill="white" stroke="transparent" points="-4,4 -4,-568 989.08,-568 989.08,4 -4,4"/>
<!-- Node1 -->
<g id="node1" class="node">
<title>Node1</title>
<g id="a_node1"><a xlink:title="Data objects used for sensor data storage.">
<polygon fill="#bfbfbf" stroke="black" points="220.5,-500.5 220.5,-563.5 347.5,-563.5 347.5,-500.5 220.5,-500.5"/>
<text text-anchor="start" x="228.5" y="-551.5" font-family="Helvetica,sans-Serif" font-size="10.00">D:/OneDrive &#45; Avans</text>
<text text-anchor="start" x="228.5" y="-540.5" font-family="Helvetica,sans-Serif" font-size="10.00"> Hogeschool/Minor/PRO</text>
<text text-anchor="start" x="228.5" y="-529.5" font-family="Helvetica,sans-Serif" font-size="10.00"> Smart Roofs/Software</text>
<text text-anchor="start" x="228.5" y="-518.5" font-family="Helvetica,sans-Serif" font-size="10.00">/GreenRoof_Base/include</text>
<text text-anchor="middle" x="284" y="-507.5" font-family="Helvetica,sans-Serif" font-size="10.00">/DataObject.h</text>
</a>
</g>
</g>
<!-- Node2 -->
<g id="node2" class="node">
<title>Node2</title>
<g id="a_node2"><a xlink:href="_data_publisher_8h.html" target="_top" xlink:title="Data parser and management for transmission and storage of sensor data.">
<polygon fill="white" stroke="black" points="205.5,-200.5 205.5,-263.5 332.5,-263.5 332.5,-200.5 205.5,-200.5"/>
<text text-anchor="start" x="213.5" y="-251.5" font-family="Helvetica,sans-Serif" font-size="10.00">D:/OneDrive &#45; Avans</text>
<text text-anchor="start" x="213.5" y="-240.5" font-family="Helvetica,sans-Serif" font-size="10.00"> Hogeschool/Minor/PRO</text>
<text text-anchor="start" x="213.5" y="-229.5" font-family="Helvetica,sans-Serif" font-size="10.00"> Smart Roofs/Software</text>
<text text-anchor="start" x="213.5" y="-218.5" font-family="Helvetica,sans-Serif" font-size="10.00">/GreenRoof_Base/include</text>
<text text-anchor="middle" x="269" y="-207.5" font-family="Helvetica,sans-Serif" font-size="10.00">/DataPublisher.h</text>
</a>
</g>
</g>
<!-- Node1&#45;&gt;Node2 -->
<g id="edge1" class="edge">
<title>Node1&#45;&gt;Node2</title>
<path fill="none" stroke="midnightblue" d="M277.45,-490.38C272.36,-456.65 265.71,-407.35 263,-364 261.22,-335.61 261.73,-328.42 263,-300 263.53,-288.1 264.59,-275.05 265.68,-263.65"/>
<polygon fill="midnightblue" stroke="midnightblue" points="274,-490.98 278.97,-500.33 280.92,-489.91 274,-490.98"/>
</g>
<!-- Node3 -->
<g id="node3" class="node">
<title>Node3</title>
<g id="a_node3"><a xlink:href="_measurement_controller_8h.html" target="_top" xlink:title="Main measurement and communication controller.">
<polygon fill="white" stroke="black" points="22,-100.5 22,-163.5 150,-163.5 150,-100.5 22,-100.5"/>
<text text-anchor="start" x="30" y="-151.5" font-family="Helvetica,sans-Serif" font-size="10.00">D:/OneDrive &#45; Avans</text>
<text text-anchor="start" x="30" y="-140.5" font-family="Helvetica,sans-Serif" font-size="10.00"> Hogeschool/Minor/PRO</text>
<text text-anchor="start" x="30" y="-129.5" font-family="Helvetica,sans-Serif" font-size="10.00"> Smart Roofs/Software</text>
<text text-anchor="start" x="30" y="-118.5" font-family="Helvetica,sans-Serif" font-size="10.00">/GreenRoof_Base/include</text>
<text text-anchor="middle" x="86" y="-107.5" font-family="Helvetica,sans-Serif" font-size="10.00">/MeasurementController.h</text>
</a>
</g>
</g>
<!-- Node1&#45;&gt;Node3 -->
<g id="edge10" class="edge">
<title>Node1&#45;&gt;Node3</title>
<path fill="none" stroke="midnightblue" d="M264.22,-491.24C224.7,-411.8 136.73,-234.97 101.26,-163.67"/>
<polygon fill="midnightblue" stroke="midnightblue" points="261.2,-493.04 268.79,-500.43 267.47,-489.92 261.2,-493.04"/>
</g>
<!-- Node8 -->
<g id="node8" class="node">
<title>Node8</title>
<g id="a_node8"><a xlink:href="_data_store_8h.html" target="_top" xlink:title="Local data storage object.">
<polygon fill="white" stroke="black" points="272.5,-300.5 272.5,-363.5 399.5,-363.5 399.5,-300.5 272.5,-300.5"/>
<text text-anchor="start" x="280.5" y="-351.5" font-family="Helvetica,sans-Serif" font-size="10.00">D:/OneDrive &#45; Avans</text>
<text text-anchor="start" x="280.5" y="-340.5" font-family="Helvetica,sans-Serif" font-size="10.00"> Hogeschool/Minor/PRO</text>
<text text-anchor="start" x="280.5" y="-329.5" font-family="Helvetica,sans-Serif" font-size="10.00"> Smart Roofs/Software</text>
<text text-anchor="start" x="280.5" y="-318.5" font-family="Helvetica,sans-Serif" font-size="10.00">/GreenRoof_Base/include</text>
<text text-anchor="middle" x="336" y="-307.5" font-family="Helvetica,sans-Serif" font-size="10.00">/DataStore.h</text>
</a>
</g>
</g>
<!-- Node1&#45;&gt;Node8 -->
<g id="edge7" class="edge">
<title>Node1&#45;&gt;Node8</title>
<path fill="none" stroke="midnightblue" d="M294.67,-490.37C304.56,-452.73 319.04,-397.56 327.98,-363.54"/>
<polygon fill="midnightblue" stroke="midnightblue" points="291.17,-489.94 292.01,-500.5 297.94,-491.71 291.17,-489.94"/>
</g>
<!-- Node9 -->
<g id="node9" class="node">
<title>Node9</title>
<g id="a_node9"><a xlink:href="_transmission_base_8h.html" target="_top" xlink:title="Transmission base object.">
<polygon fill="white" stroke="black" points="368.5,-400.5 368.5,-463.5 517.5,-463.5 517.5,-400.5 368.5,-400.5"/>
<text text-anchor="start" x="376.5" y="-451.5" font-family="Helvetica,sans-Serif" font-size="10.00">D:/OneDrive &#45; Avans</text>
<text text-anchor="start" x="376.5" y="-440.5" font-family="Helvetica,sans-Serif" font-size="10.00"> Hogeschool/Minor/PRO</text>
<text text-anchor="start" x="376.5" y="-429.5" font-family="Helvetica,sans-Serif" font-size="10.00"> Smart Roofs/Software</text>
<text text-anchor="start" x="376.5" y="-418.5" font-family="Helvetica,sans-Serif" font-size="10.00">/GreenRoof_Base/include</text>
<text text-anchor="middle" x="443" y="-407.5" font-family="Helvetica,sans-Serif" font-size="10.00">/Transmit/TransmissionBase.h</text>
</a>
</g>
</g>
<!-- Node1&#45;&gt;Node9 -->
<g id="edge11" class="edge">
<title>Node1&#45;&gt;Node9</title>
<path fill="none" stroke="midnightblue" d="M342.46,-494.97C359.16,-484.68 377.19,-473.56 393.3,-463.63"/>
<polygon fill="midnightblue" stroke="midnightblue" points="340.55,-492.03 333.87,-500.26 344.22,-497.99 340.55,-492.03"/>
</g>
<!-- Node2&#45;&gt;Node3 -->
<g id="edge2" class="edge">
<title>Node2&#45;&gt;Node3</title>
<path fill="none" stroke="midnightblue" d="M202.97,-195.64C183.35,-185.13 162.03,-173.71 143.03,-163.54"/>
<polygon fill="midnightblue" stroke="midnightblue" points="201.38,-198.76 211.85,-200.4 204.69,-192.59 201.38,-198.76"/>
</g>
<!-- Node6 -->
<g id="node6" class="node">
<title>Node6</title>
<g id="a_node6"><a xlink:href="_data_publisher_8cpp.html" target="_top" xlink:title="Data parser and management for transmission and storage of sensor data.">
<polygon fill="white" stroke="black" points="168,-106 168,-158 360,-158 360,-106 168,-106"/>
<text text-anchor="start" x="176" y="-146" font-family="Helvetica,sans-Serif" font-size="10.00">D:/OneDrive &#45; Avans</text>
<text text-anchor="start" x="176" y="-135" font-family="Helvetica,sans-Serif" font-size="10.00"> Hogeschool/Minor/PRO</text>
<text text-anchor="start" x="176" y="-124" font-family="Helvetica,sans-Serif" font-size="10.00"> Smart Roofs/Software</text>
<text text-anchor="middle" x="264" y="-113" font-family="Helvetica,sans-Serif" font-size="10.00">/GreenRoof_Base/src/DataPublisher.cpp</text>
</a>
</g>
</g>
<!-- Node2&#45;&gt;Node6 -->
<g id="edge5" class="edge">
<title>Node2&#45;&gt;Node6</title>
<path fill="none" stroke="midnightblue" d="M266.91,-190.08C266.36,-179.21 265.78,-167.79 265.28,-158.05"/>
<polygon fill="midnightblue" stroke="midnightblue" points="263.43,-190.45 267.43,-200.26 270.42,-190.1 263.43,-190.45"/>
</g>
<!-- Node7 -->
<g id="node7" class="node">
<title>Node7</title>
<g id="a_node7"><a xlink:href="_data_store_8cpp.html" target="_top" xlink:title="Local data storage object.">
<polygon fill="white" stroke="black" points="378.5,-106 378.5,-158 553.5,-158 553.5,-106 378.5,-106"/>
<text text-anchor="start" x="386.5" y="-146" font-family="Helvetica,sans-Serif" font-size="10.00">D:/OneDrive &#45; Avans</text>
<text text-anchor="start" x="386.5" y="-135" font-family="Helvetica,sans-Serif" font-size="10.00"> Hogeschool/Minor/PRO</text>
<text text-anchor="start" x="386.5" y="-124" font-family="Helvetica,sans-Serif" font-size="10.00"> Smart Roofs/Software</text>
<text text-anchor="middle" x="466" y="-113" font-family="Helvetica,sans-Serif" font-size="10.00">/GreenRoof_Base/src/DataStore.cpp</text>
</a>
</g>
</g>
<!-- Node2&#45;&gt;Node7 -->
<g id="edge6" class="edge">
<title>Node2&#45;&gt;Node7</title>
<path fill="none" stroke="midnightblue" d="M339.63,-195.86C364.72,-183.38 392.44,-169.6 415.5,-158.12"/>
<polygon fill="midnightblue" stroke="midnightblue" points="337.92,-192.81 330.52,-200.4 341.03,-199.07 337.92,-192.81"/>
</g>
<!-- Node4 -->
<g id="node4" class="node">
<title>Node4</title>
<g id="a_node4"><a xlink:href="main_8cpp.html" target="_top" xlink:title="Main runnable.">
<polygon fill="white" stroke="black" points="609,-6 609,-58 761,-58 761,-6 609,-6"/>
<text text-anchor="start" x="617" y="-46" font-family="Helvetica,sans-Serif" font-size="10.00">D:/OneDrive &#45; Avans</text>
<text text-anchor="start" x="617" y="-35" font-family="Helvetica,sans-Serif" font-size="10.00"> Hogeschool/Minor/PRO</text>
<text text-anchor="start" x="617" y="-24" font-family="Helvetica,sans-Serif" font-size="10.00"> Smart Roofs/Software</text>
<text text-anchor="middle" x="685" y="-13" font-family="Helvetica,sans-Serif" font-size="10.00">/GreenRoof_Base/src/main.cpp</text>
</a>
</g>
</g>
<!-- Node3&#45;&gt;Node4 -->
<g id="edge3" class="edge">
<title>Node3&#45;&gt;Node4</title>
<path fill="none" stroke="midnightblue" d="M159.86,-100.03C322.79,-57.09 507.39,-41.78 608.82,-36.15"/>
<polygon fill="midnightblue" stroke="midnightblue" points="158.9,-96.66 150.15,-102.63 160.71,-103.42 158.9,-96.66"/>
</g>
<!-- Node5 -->
<g id="node5" class="node">
<title>Node5</title>
<g id="a_node5"><a xlink:href="_measurement_controller_8cpp.html" target="_top" xlink:title="Main measurement and communication controller.">
<polygon fill="white" stroke="black" points="0,-0.5 0,-63.5 172,-63.5 172,-0.5 0,-0.5"/>
<text text-anchor="start" x="8" y="-51.5" font-family="Helvetica,sans-Serif" font-size="10.00">D:/OneDrive &#45; Avans</text>
<text text-anchor="start" x="8" y="-40.5" font-family="Helvetica,sans-Serif" font-size="10.00"> Hogeschool/Minor/PRO</text>
<text text-anchor="start" x="8" y="-29.5" font-family="Helvetica,sans-Serif" font-size="10.00"> Smart Roofs/Software</text>
<text text-anchor="start" x="8" y="-18.5" font-family="Helvetica,sans-Serif" font-size="10.00">/GreenRoof_Base/src/Measurement</text>
<text text-anchor="middle" x="86" y="-7.5" font-family="Helvetica,sans-Serif" font-size="10.00">Controller.cpp</text>
</a>
</g>
</g>
<!-- Node3&#45;&gt;Node5 -->
<g id="edge4" class="edge">
<title>Node3&#45;&gt;Node5</title>
<path fill="none" stroke="midnightblue" d="M86,-90.1C86,-81.24 86,-72.01 86,-63.63"/>
<polygon fill="midnightblue" stroke="midnightblue" points="82.5,-90.26 86,-100.26 89.5,-90.26 82.5,-90.26"/>
</g>
<!-- Node8&#45;&gt;Node2 -->
<g id="edge8" class="edge">
<title>Node8&#45;&gt;Node2</title>
<path fill="none" stroke="midnightblue" d="M309.22,-291.83C302.8,-282.44 296.05,-272.56 289.94,-263.63"/>
<polygon fill="midnightblue" stroke="midnightblue" points="306.45,-293.98 314.98,-300.26 312.23,-290.03 306.45,-293.98"/>
</g>
<!-- Node8&#45;&gt;Node7 -->
<g id="edge9" class="edge">
<title>Node8&#45;&gt;Node7</title>
<path fill="none" stroke="midnightblue" d="M349.41,-290.8C359.54,-263.71 375.09,-227.96 395,-200 406.01,-184.54 420.98,-169.78 434.33,-158.07"/>
<polygon fill="midnightblue" stroke="midnightblue" points="346.06,-289.76 345.93,-300.35 352.64,-292.16 346.06,-289.76"/>
</g>
<!-- Node9&#45;&gt;Node2 -->
<g id="edge12" class="edge">
<title>Node9&#45;&gt;Node2</title>
<path fill="none" stroke="midnightblue" d="M441.25,-390.12C438.09,-362.01 429.87,-325.33 409,-300 389.55,-276.4 359.83,-260.55 332.77,-250.23"/>
<polygon fill="midnightblue" stroke="midnightblue" points="437.8,-390.8 442.22,-400.43 444.76,-390.14 437.8,-390.8"/>
</g>
<!-- Node9&#45;&gt;Node8 -->
<g id="edge13" class="edge">
<title>Node9&#45;&gt;Node8</title>
<path fill="none" stroke="midnightblue" d="M401.79,-393.26C391.09,-383.46 379.69,-373.02 369.44,-363.63"/>
<polygon fill="midnightblue" stroke="midnightblue" points="399.7,-396.09 409.44,-400.26 404.43,-390.93 399.7,-396.09"/>
</g>
<!-- Node10 -->
<g id="node10" class="node">
<title>Node10</title>
<g id="a_node10"><a xlink:href="_h_t_t_p_transmission_8h.html" target="_top" xlink:title="Transmission method for HTTP post transfers.">
<polygon fill="white" stroke="black" points="456,-300.5 456,-363.5 606,-363.5 606,-300.5 456,-300.5"/>
<text text-anchor="start" x="464" y="-351.5" font-family="Helvetica,sans-Serif" font-size="10.00">D:/OneDrive &#45; Avans</text>
<text text-anchor="start" x="464" y="-340.5" font-family="Helvetica,sans-Serif" font-size="10.00"> Hogeschool/Minor/PRO</text>
<text text-anchor="start" x="464" y="-329.5" font-family="Helvetica,sans-Serif" font-size="10.00"> Smart Roofs/Software</text>
<text text-anchor="start" x="464" y="-318.5" font-family="Helvetica,sans-Serif" font-size="10.00">/GreenRoof_Base/include</text>
<text text-anchor="middle" x="531" y="-307.5" font-family="Helvetica,sans-Serif" font-size="10.00">/Transmit/HTTPTransmission.h</text>
</a>
</g>
</g>
<!-- Node9&#45;&gt;Node10 -->
<g id="edge14" class="edge">
<title>Node9&#45;&gt;Node10</title>
<path fill="none" stroke="midnightblue" d="M477.4,-392.69C486.06,-383.05 495.23,-372.83 503.5,-363.63"/>
<polygon fill="midnightblue" stroke="midnightblue" points="474.68,-390.48 470.6,-400.26 479.89,-395.16 474.68,-390.48"/>
</g>
<!-- Node12 -->
<g id="node12" class="node">
<title>Node12</title>
<g id="a_node12"><a xlink:href="_i_o_t_hub_transmission_8h.html" target="_top" xlink:title="IOT Hub based transmission method.">
<polygon fill="white" stroke="black" points="624,-300.5 624,-363.5 782,-363.5 782,-300.5 624,-300.5"/>
<text text-anchor="start" x="632" y="-351.5" font-family="Helvetica,sans-Serif" font-size="10.00">D:/OneDrive &#45; Avans</text>
<text text-anchor="start" x="632" y="-340.5" font-family="Helvetica,sans-Serif" font-size="10.00"> Hogeschool/Minor/PRO</text>
<text text-anchor="start" x="632" y="-329.5" font-family="Helvetica,sans-Serif" font-size="10.00"> Smart Roofs/Software</text>
<text text-anchor="start" x="632" y="-318.5" font-family="Helvetica,sans-Serif" font-size="10.00">/GreenRoof_Base/include</text>
<text text-anchor="middle" x="703" y="-307.5" font-family="Helvetica,sans-Serif" font-size="10.00">/Transmit/IOTHubTransmission.h</text>
</a>
</g>
</g>
<!-- Node9&#45;&gt;Node12 -->
<g id="edge17" class="edge">
<title>Node9&#45;&gt;Node12</title>
<path fill="none" stroke="midnightblue" d="M527.02,-399.33C558.14,-387.6 593.29,-374.35 623.95,-362.8"/>
<polygon fill="midnightblue" stroke="midnightblue" points="525.63,-396.11 517.51,-402.92 528.1,-402.67 525.63,-396.11"/>
</g>
<!-- Node14 -->
<g id="node14" class="node">
<title>Node14</title>
<g id="a_node14"><a xlink:href="_u_d_p_transmission_8h.html" target="_top" xlink:title="Transmission class for publishing to Urban Data Platform.">
<polygon fill="white" stroke="black" points="818,-300.5 818,-363.5 964,-363.5 964,-300.5 818,-300.5"/>
<text text-anchor="start" x="826" y="-351.5" font-family="Helvetica,sans-Serif" font-size="10.00">D:/OneDrive &#45; Avans</text>
<text text-anchor="start" x="826" y="-340.5" font-family="Helvetica,sans-Serif" font-size="10.00"> Hogeschool/Minor/PRO</text>
<text text-anchor="start" x="826" y="-329.5" font-family="Helvetica,sans-Serif" font-size="10.00"> Smart Roofs/Software</text>
<text text-anchor="start" x="826" y="-318.5" font-family="Helvetica,sans-Serif" font-size="10.00">/GreenRoof_Base/include</text>
<text text-anchor="middle" x="891" y="-307.5" font-family="Helvetica,sans-Serif" font-size="10.00">/Transmit/UDPTransmission.h</text>
</a>
</g>
</g>
<!-- Node9&#45;&gt;Node14 -->
<g id="edge20" class="edge">
<title>Node9&#45;&gt;Node14</title>
<path fill="none" stroke="midnightblue" d="M527.72,-417.38C598.55,-405.36 701.97,-386.3 791,-364 799.73,-361.81 808.82,-359.31 817.81,-356.7"/>
<polygon fill="midnightblue" stroke="midnightblue" points="526.79,-413.99 517.52,-419.11 527.96,-420.89 526.79,-413.99"/>
</g>
<!-- Node10&#45;&gt;Node4 -->
<g id="edge15" class="edge">
<title>Node10&#45;&gt;Node4</title>
<path fill="none" stroke="midnightblue" d="M551.63,-291.08C583.89,-228.66 645.34,-109.74 672.06,-58.04"/>
<polygon fill="midnightblue" stroke="midnightblue" points="548.38,-289.74 546.9,-300.23 554.6,-292.95 548.38,-289.74"/>
</g>
<!-- Node11 -->
<g id="node11" class="node">
<title>Node11</title>
<g id="a_node11"><a xlink:href="_h_t_t_p_transmission_8cpp.html" target="_top" xlink:title="Transmission method for HTTP post transfers.">
<polygon fill="white" stroke="black" points="404,-200.5 404,-263.5 554,-263.5 554,-200.5 404,-200.5"/>
<text text-anchor="start" x="412" y="-251.5" font-family="Helvetica,sans-Serif" font-size="10.00">D:/OneDrive &#45; Avans</text>
<text text-anchor="start" x="412" y="-240.5" font-family="Helvetica,sans-Serif" font-size="10.00"> Hogeschool/Minor/PRO</text>
<text text-anchor="start" x="412" y="-229.5" font-family="Helvetica,sans-Serif" font-size="10.00"> Smart Roofs/Software</text>
<text text-anchor="start" x="412" y="-218.5" font-family="Helvetica,sans-Serif" font-size="10.00">/GreenRoof_Base/src/Transmit</text>
<text text-anchor="middle" x="479" y="-207.5" font-family="Helvetica,sans-Serif" font-size="10.00">/HTTPTransmission.cpp</text>
</a>
</g>
</g>
<!-- Node10&#45;&gt;Node11 -->
<g id="edge16" class="edge">
<title>Node10&#45;&gt;Node11</title>
<path fill="none" stroke="midnightblue" d="M509.91,-291.25C505.02,-282.04 499.9,-272.38 495.25,-263.63"/>
<polygon fill="midnightblue" stroke="midnightblue" points="506.91,-293.07 514.69,-300.26 513.09,-289.79 506.91,-293.07"/>
</g>
<!-- Node12&#45;&gt;Node4 -->
<g id="edge18" class="edge">
<title>Node12&#45;&gt;Node4</title>
<path fill="none" stroke="midnightblue" d="M750.16,-292.89C757.84,-284.27 764.69,-274.52 769,-264 779.79,-237.68 775.57,-227.68 769,-200 756.18,-146 723.01,-89.63 702.39,-58.15"/>
<polygon fill="midnightblue" stroke="midnightblue" points="747.59,-290.51 743.23,-300.17 752.66,-295.34 747.59,-290.51"/>
</g>
<!-- Node13 -->
<g id="node13" class="node">
<title>Node13</title>
<g id="a_node13"><a xlink:href="_i_o_t_hub_transmission_8cpp.html" target="_top" xlink:title="IOT Hub based transmission method.">
<polygon fill="white" stroke="black" points="610,-200.5 610,-263.5 760,-263.5 760,-200.5 610,-200.5"/>
<text text-anchor="start" x="618" y="-251.5" font-family="Helvetica,sans-Serif" font-size="10.00">D:/OneDrive &#45; Avans</text>
<text text-anchor="start" x="618" y="-240.5" font-family="Helvetica,sans-Serif" font-size="10.00"> Hogeschool/Minor/PRO</text>
<text text-anchor="start" x="618" y="-229.5" font-family="Helvetica,sans-Serif" font-size="10.00"> Smart Roofs/Software</text>
<text text-anchor="start" x="618" y="-218.5" font-family="Helvetica,sans-Serif" font-size="10.00">/GreenRoof_Base/src/Transmit</text>
<text text-anchor="middle" x="685" y="-207.5" font-family="Helvetica,sans-Serif" font-size="10.00">/IOTHubTransmission.cpp</text>
</a>
</g>
</g>
<!-- Node12&#45;&gt;Node13 -->
<g id="edge19" class="edge">
<title>Node12&#45;&gt;Node13</title>
<path fill="none" stroke="midnightblue" d="M695.54,-290.39C693.9,-281.44 692.18,-272.11 690.63,-263.63"/>
<polygon fill="midnightblue" stroke="midnightblue" points="692.11,-291.06 697.35,-300.26 698.99,-289.79 692.11,-291.06"/>
</g>
<!-- Node14&#45;&gt;Node4 -->
<g id="edge21" class="edge">
<title>Node14&#45;&gt;Node4</title>
<path fill="none" stroke="midnightblue" d="M951.85,-293.81C961.22,-285.24 969.57,-275.27 975,-264 987.34,-238.37 989.24,-224.63 975,-200 929.35,-121.03 830.62,-76.11 761.08,-53.18"/>
<polygon fill="midnightblue" stroke="midnightblue" points="949.49,-291.22 944.16,-300.38 954.04,-296.54 949.49,-291.22"/>
</g>
<!-- Node15 -->
<g id="node15" class="node">
<title>Node15</title>
<g id="a_node15"><a xlink:href="_u_d_p_transmission_8cpp.html" target="_top" xlink:title="Transmission class for publishing to Urban Data Platform.">
<polygon fill="white" stroke="black" points="816,-200.5 816,-263.5 966,-263.5 966,-200.5 816,-200.5"/>
<text text-anchor="start" x="824" y="-251.5" font-family="Helvetica,sans-Serif" font-size="10.00">D:/OneDrive &#45; Avans</text>
<text text-anchor="start" x="824" y="-240.5" font-family="Helvetica,sans-Serif" font-size="10.00"> Hogeschool/Minor/PRO</text>
<text text-anchor="start" x="824" y="-229.5" font-family="Helvetica,sans-Serif" font-size="10.00"> Smart Roofs/Software</text>
<text text-anchor="start" x="824" y="-218.5" font-family="Helvetica,sans-Serif" font-size="10.00">/GreenRoof_Base/src/Transmit</text>
<text text-anchor="middle" x="891" y="-207.5" font-family="Helvetica,sans-Serif" font-size="10.00">/UDPTransmission.cpp</text>
</a>
</g>
</g>
<!-- Node14&#45;&gt;Node15 -->
<g id="edge22" class="edge">
<title>Node14&#45;&gt;Node15</title>
<path fill="none" stroke="midnightblue" d="M891,-290.1C891,-281.24 891,-272.01 891,-263.63"/>
<polygon fill="midnightblue" stroke="midnightblue" points="887.5,-290.26 891,-300.26 894.5,-290.26 887.5,-290.26"/>
</g>
</g>
</svg>
        <g id="navigator" transform="translate(0 0)" fill="#404254">
                <rect fill="#f2f5e9" fill-opacity="0.5" stroke="#606060" stroke-width=".5" x="0" y="0" width="60" height="60"/>
                <use id="zoomplus" xlink:href="#zoomPlus" x="17" y="9" onmousedown="handleZoom(evt,'in')"/>
                <use id="zoomminus" xlink:href="#zoomMin" x="42" y="9" onmousedown="handleZoom(evt,'out')"/>
                <use id="reset" xlink:href="#resetDef" x="30" y="36" onmousedown="handleReset()"/>
                <g id="arrowUp" xlink:href="#dirArrow" transform="translate(30 24)" onmousedown="handlePan(0,-1)">
                  <use xlink:href="#rim" fill="#404040">
                        <set attributeName="fill" to="#808080" begin="arrowUp.mouseover" end="arrowUp.mouseout"/>
                  </use>
                  <path fill="none" stroke="white" stroke-width="1.5" d="M0,-3.0v7 M-2.5,-0.5L0,-3.0L2.5,-0.5"/>
                </g>
                <g id="arrowRight" xlink:href="#dirArrow" transform="rotate(90) translate(36 -43)" onmousedown="handlePan(1,0)">
                  <use xlink:href="#rim" fill="#404040">
                        <set attributeName="fill" to="#808080" begin="arrowRight.mouseover" end="arrowRight.mouseout"/>
                  </use>
                  <path fill="none" stroke="white" stroke-width="1.5" d="M0,-3.0v7 M-2.5,-0.5L0,-3.0L2.5,-0.5"/>
                </g>
                <g id="arrowDown" xlink:href="#dirArrow" transform="rotate(180) translate(-30 -48)" onmousedown="handlePan(0,1)">
                  <use xlink:href="#rim" fill="#404040">
                        <set attributeName="fill" to="#808080" begin="arrowDown.mouseover" end="arrowDown.mouseout"/>
                  </use>
                  <path fill="none" stroke="white" stroke-width="1.5" d="M0,-3.0v7 M-2.5,-0.5L0,-3.0L2.5,-0.5"/>
                </g>
                <g id="arrowLeft" xlink:href="#dirArrow" transform="rotate(270) translate(-36 17)" onmousedown="handlePan(-1,0)">
                  <use xlink:href="#rim" fill="#404040">
                        <set attributeName="fill" to="#808080" begin="arrowLeft.mouseover" end="arrowLeft.mouseout"/>
                  </use>
                  <path fill="none" stroke="white" stroke-width="1.5" d="M0,-3.0v7 M-2.5,-0.5L0,-3.0L2.5,-0.5"/>
                </g>
        </g>
        <svg viewBox="0 0 15 15" width="100%" height="30px" preserveAspectRatio="xMaxYMin meet">
         <g id="arrow_out" transform="scale(0.3 0.3)">
          <a xlink:href="_data_object_8h__dep__incl_org.svg" target="_base">
           <rect id="button" ry="5" rx="5" y="6" x="6" height="38" width="38"
                fill="#f2f5e9" fill-opacity="0.5" stroke="#606060" stroke-width="1.0"/>
           <path id="arrow"
             d="M 11.500037,31.436501 C 11.940474,20.09759 22.043105,11.32322 32.158766,21.979434 L 37.068811,17.246167 C 37.068811,17.246167 37.088388,32 37.088388,32 L 22.160133,31.978069 C 22.160133,31.978069 26.997745,27.140456 26.997745,27.140456 C 18.528582,18.264221 13.291696,25.230495 11.500037,31.436501 z"
             style="fill:#404040;"/>
          </a>
         </g>
        </svg>
</svg>
