<?xml version="1.0" encoding="UTF-8" standalone="no"?>
<!DOCTYPE svg PUBLIC "-//W3C//DTD SVG 1.1//EN"
 "http://www.w3.org/Graphics/SVG/1.1/DTD/svg11.dtd">
<!-- Generated by graphviz version 4.0.0 (20220529.0937)
 -->
<!-- Title: D:/OneDrive &#45; Avans Hogeschool/Minor/PRO Smart Roofs/Software/GreenRoof_Base/include/DataPublisher.h Pages: 1 -->
<svg width="642pt" height="272pt"
 viewBox="0.00 0.00 641.50 272.00" xmlns="http://www.w3.org/2000/svg" xmlns:xlink="http://www.w3.org/1999/xlink">
<g id="graph0" class="graph" transform="scale(1 1) rotate(0) translate(4 268)">
<title>D:/OneDrive &#45; Avans Hogeschool/Minor/PRO Smart Roofs/Software/GreenRoof_Base/include/DataPublisher.h</title>
<polygon fill="white" stroke="transparent" points="-4,4 -4,-268 637.5,-268 637.5,4 -4,4"/>
<!-- Node1 -->
<g id="node1" class="node">
<title>Node1</title>
<g id="a_node1"><a xlink:title="Data parser and management for transmission and storage of sensor data.">
<polygon fill="#bfbfbf" stroke="black" points="280.5,-200.5 280.5,-263.5 407.5,-263.5 407.5,-200.5 280.5,-200.5"/>
<text text-anchor="start" x="288.5" y="-251.5" font-family="Helvetica,sans-Serif" font-size="10.00">D:/OneDrive &#45; Avans</text>
<text text-anchor="start" x="288.5" y="-240.5" font-family="Helvetica,sans-Serif" font-size="10.00"> Hogeschool/Minor/PRO</text>
<text text-anchor="start" x="288.5" y="-229.5" font-family="Helvetica,sans-Serif" font-size="10.00"> Smart Roofs/Software</text>
<text text-anchor="start" x="288.5" y="-218.5" font-family="Helvetica,sans-Serif" font-size="10.00">/GreenRoof_Base/include</text>
<text text-anchor="middle" x="344" y="-207.5" font-family="Helvetica,sans-Serif" font-size="10.00">/DataPublisher.h</text>
</a>
</g>
</g>
<!-- Node2 -->
<g id="node2" class="node">
<title>Node2</title>
<g id="a_node2"><a xlink:href="_measurement_controller_8h.html" target="_top" xlink:title="Main measurement and communication controller.">
<polygon fill="white" stroke="black" points="102,-100.5 102,-163.5 230,-163.5 230,-100.5 102,-100.5"/>
<text text-anchor="start" x="110" y="-151.5" font-family="Helvetica,sans-Serif" font-size="10.00">D:/OneDrive &#45; Avans</text>
<text text-anchor="start" x="110" y="-140.5" font-family="Helvetica,sans-Serif" font-size="10.00"> Hogeschool/Minor/PRO</text>
<text text-anchor="start" x="110" y="-129.5" font-family="Helvetica,sans-Serif" font-size="10.00"> Smart Roofs/Software</text>
<text text-anchor="start" x="110" y="-118.5" font-family="Helvetica,sans-Serif" font-size="10.00">/GreenRoof_Base/include</text>
<text text-anchor="middle" x="166" y="-107.5" font-family="Helvetica,sans-Serif" font-size="10.00">/MeasurementController.h</text>
</a>
</g>
</g>
<!-- Node1&#45;&gt;Node2 -->
<g id="edge1" class="edge">
<title>Node1&#45;&gt;Node2</title>
<path fill="none" stroke="midnightblue" d="M279.32,-195.39C260.42,-184.98 239.93,-173.7 221.63,-163.63"/>
<polygon fill="midnightblue" stroke="midnightblue" points="277.72,-198.5 288.17,-200.26 281.1,-192.37 277.72,-198.5"/>
</g>
<!-- Node5 -->
<g id="node5" class="node">
<title>Node5</title>
<g id="a_node5"><a xlink:href="_data_publisher_8cpp.html" target="_top" xlink:title="Data parser and management for transmission and storage of sensor data.">
<polygon fill="white" stroke="black" points="248,-106 248,-158 440,-158 440,-106 248,-106"/>
<text text-anchor="start" x="256" y="-146" font-family="Helvetica,sans-Serif" font-size="10.00">D:/OneDrive &#45; Avans</text>
<text text-anchor="start" x="256" y="-135" font-family="Helvetica,sans-Serif" font-size="10.00"> Hogeschool/Minor/PRO</text>
<text text-anchor="start" x="256" y="-124" font-family="Helvetica,sans-Serif" font-size="10.00"> Smart Roofs/Software</text>
<text text-anchor="middle" x="344" y="-113" font-family="Helvetica,sans-Serif" font-size="10.00">/GreenRoof_Base/src/DataPublisher.cpp</text>
</a>
</g>
</g>
<!-- Node1&#45;&gt;Node5 -->
<g id="edge4" class="edge">
<title>Node1&#45;&gt;Node5</title>
<path fill="none" stroke="midnightblue" d="M344,-190.08C344,-179.21 344,-167.79 344,-158.05"/>
<polygon fill="midnightblue" stroke="midnightblue" points="340.5,-190.26 344,-200.26 347.5,-190.26 340.5,-190.26"/>
</g>
<!-- Node6 -->
<g id="node6" class="node">
<title>Node6</title>
<g id="a_node6"><a xlink:href="_data_store_8cpp.html" target="_top" xlink:title="Local data storage object.">
<polygon fill="white" stroke="black" points="458.5,-106 458.5,-158 633.5,-158 633.5,-106 458.5,-106"/>
<text text-anchor="start" x="466.5" y="-146" font-family="Helvetica,sans-Serif" font-size="10.00">D:/OneDrive &#45; Avans</text>
<text text-anchor="start" x="466.5" y="-135" font-family="Helvetica,sans-Serif" font-size="10.00"> Hogeschool/Minor/PRO</text>
<text text-anchor="start" x="466.5" y="-124" font-family="Helvetica,sans-Serif" font-size="10.00"> Smart Roofs/Software</text>
<text text-anchor="middle" x="546" y="-113" font-family="Helvetica,sans-Serif" font-size="10.00">/GreenRoof_Base/src/DataStore.cpp</text>
</a>
</g>
</g>
<!-- Node1&#45;&gt;Node6 -->
<g id="edge5" class="edge">
<title>Node1&#45;&gt;Node6</title>
<path fill="none" stroke="midnightblue" d="M416.09,-196.03C441.9,-183.5 470.46,-169.65 494.22,-158.12"/>
<polygon fill="midnightblue" stroke="midnightblue" points="414.55,-192.88 407.08,-200.4 417.61,-199.18 414.55,-192.88"/>
</g>
<!-- Node3 -->
<g id="node3" class="node">
<title>Node3</title>
<g id="a_node3"><a xlink:href="main_8cpp.html" target="_top" xlink:title="Main runnable.">
<polygon fill="white" stroke="black" points="0,-6 0,-58 152,-58 152,-6 0,-6"/>
<text text-anchor="start" x="8" y="-46" font-family="Helvetica,sans-Serif" font-size="10.00">D:/OneDrive &#45; Avans</text>
<text text-anchor="start" x="8" y="-35" font-family="Helvetica,sans-Serif" font-size="10.00"> Hogeschool/Minor/PRO</text>
<text text-anchor="start" x="8" y="-24" font-family="Helvetica,sans-Serif" font-size="10.00"> Smart Roofs/Software</text>
<text text-anchor="middle" x="76" y="-13" font-family="Helvetica,sans-Serif" font-size="10.00">/GreenRoof_Base/src/main.cpp</text>
</a>
</g>
</g>
<!-- Node2&#45;&gt;Node3 -->
<g id="edge2" class="edge">
<title>Node2&#45;&gt;Node3</title>
<path fill="none" stroke="midnightblue" d="M130.88,-92.76C120.18,-81.1 108.69,-68.6 99.01,-58.05"/>
<polygon fill="midnightblue" stroke="midnightblue" points="128.43,-95.26 137.77,-100.26 133.58,-90.53 128.43,-95.26"/>
</g>
<!-- Node4 -->
<g id="node4" class="node">
<title>Node4</title>
<g id="a_node4"><a xlink:href="_measurement_controller_8cpp.html" target="_top" xlink:title="Main measurement and communication controller.">
<polygon fill="white" stroke="black" points="170,-0.5 170,-63.5 342,-63.5 342,-0.5 170,-0.5"/>
<text text-anchor="start" x="178" y="-51.5" font-family="Helvetica,sans-Serif" font-size="10.00">D:/OneDrive &#45; Avans</text>
<text text-anchor="start" x="178" y="-40.5" font-family="Helvetica,sans-Serif" font-size="10.00"> Hogeschool/Minor/PRO</text>
<text text-anchor="start" x="178" y="-29.5" font-family="Helvetica,sans-Serif" font-size="10.00"> Smart Roofs/Software</text>
<text text-anchor="start" x="178" y="-18.5" font-family="Helvetica,sans-Serif" font-size="10.00">/GreenRoof_Base/src/Measurement</text>
<text text-anchor="middle" x="256" y="-7.5" font-family="Helvetica,sans-Serif" font-size="10.00">Controller.cpp</text>
</a>
</g>
</g>
<!-- Node2&#45;&gt;Node4 -->
<g id="edge3" class="edge">
<title>Node2&#45;&gt;Node4</title>
<path fill="none" stroke="midnightblue" d="M201.18,-92.69C210.03,-83.05 219.42,-72.83 227.87,-63.63"/>
<polygon fill="midnightblue" stroke="midnightblue" points="198.42,-90.53 194.23,-100.26 203.57,-95.26 198.42,-90.53"/>
</g>
</g>
</svg>
