<?xml version="1.0" encoding="UTF-8" standalone="no"?>
<!DOCTYPE svg PUBLIC "-//W3C//DTD SVG 1.1//EN"
 "http://www.w3.org/Graphics/SVG/1.1/DTD/svg11.dtd">
<!-- Generated by graphviz version 4.0.0 (20220529.0937)
 -->
<!-- Title: D:/OneDrive &#45; Avans Hogeschool/Minor/PRO Smart Roofs/Software/GreenRoof_Base/src/DataPublisher.cpp Pages: 1 -->
<svg width="520pt" height="453pt"
 viewBox="0.00 0.00 519.76 453.00" xmlns="http://www.w3.org/2000/svg" xmlns:xlink="http://www.w3.org/1999/xlink">
<g id="graph0" class="graph" transform="scale(1 1) rotate(0) translate(4 449)">
<title>D:/OneDrive &#45; Avans Hogeschool/Minor/PRO Smart Roofs/Software/GreenRoof_Base/src/DataPublisher.cpp</title>
<polygon fill="white" stroke="transparent" points="-4,4 -4,-449 515.76,-449 515.76,4 -4,4"/>
<!-- Node1 -->
<g id="node1" class="node">
<title>Node1</title>
<g id="a_node1"><a xlink:title="Data parser and management for transmission and storage of sensor data.">
<polygon fill="#bfbfbf" stroke="black" points="114.76,-392.5 114.76,-444.5 306.76,-444.5 306.76,-392.5 114.76,-392.5"/>
<text text-anchor="start" x="122.76" y="-432.5" font-family="Helvetica,sans-Serif" font-size="10.00">D:/OneDrive &#45; Avans</text>
<text text-anchor="start" x="122.76" y="-421.5" font-family="Helvetica,sans-Serif" font-size="10.00"> Hogeschool/Minor/PRO</text>
<text text-anchor="start" x="122.76" y="-410.5" font-family="Helvetica,sans-Serif" font-size="10.00"> Smart Roofs/Software</text>
<text text-anchor="middle" x="210.76" y="-399.5" font-family="Helvetica,sans-Serif" font-size="10.00">/GreenRoof_Base/src/DataPublisher.cpp</text>
</a>
</g>
</g>
<!-- Node2 -->
<g id="node2" class="node">
<title>Node2</title>
<g id="a_node2"><a xlink:href="_data_publisher_8h.html" target="_top" xlink:title="Data parser and management for transmission and storage of sensor data.">
<polygon fill="white" stroke="black" points="167.76,-336.5 167.76,-355.5 253.76,-355.5 253.76,-336.5 167.76,-336.5"/>
<text text-anchor="middle" x="210.76" y="-343.5" font-family="Helvetica,sans-Serif" font-size="10.00">DataPublisher.h</text>
</a>
</g>
</g>
<!-- Node1&#45;&gt;Node2 -->
<g id="edge1" class="edge">
<title>Node1&#45;&gt;Node2</title>
<path fill="none" stroke="midnightblue" d="M210.76,-392.45C210.76,-383.73 210.76,-374.1 210.76,-365.96"/>
<polygon fill="midnightblue" stroke="midnightblue" points="214.26,-365.7 210.76,-355.7 207.26,-365.7 214.26,-365.7"/>
</g>
<!-- Node3 -->
<g id="node3" class="node">
<title>Node3</title>
<g id="a_node3"><a xlink:title=" ">
<polygon fill="white" stroke="#bfbfbf" points="345.76,-0.5 345.76,-19.5 403.76,-19.5 403.76,-0.5 345.76,-0.5"/>
<text text-anchor="middle" x="374.76" y="-7.5" font-family="Helvetica,sans-Serif" font-size="10.00">Arduino.h</text>
</a>
</g>
</g>
<!-- Node2&#45;&gt;Node3 -->
<g id="edge2" class="edge">
<title>Node2&#45;&gt;Node3</title>
<path fill="none" stroke="midnightblue" d="M253.89,-338.48C337.12,-324.68 511.76,-289.25 511.76,-235 511.76,-235 511.76,-235 511.76,-121 511.76,-70 453.31,-38.69 412.77,-23.11"/>
<polygon fill="midnightblue" stroke="midnightblue" points="413.74,-19.74 403.15,-19.58 411.33,-26.31 413.74,-19.74"/>
</g>
<!-- Node4 -->
<g id="node4" class="node">
<title>Node4</title>
<g id="a_node4"><a xlink:title=" ">
<polygon fill="white" stroke="#bfbfbf" points="75.26,-280.5 75.26,-299.5 120.26,-299.5 120.26,-280.5 75.26,-280.5"/>
<text text-anchor="middle" x="97.76" y="-287.5" font-family="Helvetica,sans-Serif" font-size="10.00">WiFi.h</text>
</a>
</g>
</g>
<!-- Node2&#45;&gt;Node4 -->
<g id="edge3" class="edge">
<title>Node2&#45;&gt;Node4</title>
<path fill="none" stroke="midnightblue" d="M192.86,-336.44C174.51,-327.68 145.76,-313.94 124.67,-303.86"/>
<polygon fill="midnightblue" stroke="midnightblue" points="126.11,-300.67 115.58,-299.52 123.1,-306.99 126.11,-300.67"/>
</g>
<!-- Node5 -->
<g id="node5" class="node">
<title>Node5</title>
<g id="a_node5"><a xlink:title=" ">
<polygon fill="white" stroke="#bfbfbf" points="138.76,-280.5 138.76,-299.5 182.76,-299.5 182.76,-280.5 138.76,-280.5"/>
<text text-anchor="middle" x="160.76" y="-287.5" font-family="Helvetica,sans-Serif" font-size="10.00">time.h</text>
</a>
</g>
</g>
<!-- Node2&#45;&gt;Node5 -->
<g id="edge4" class="edge">
<title>Node2&#45;&gt;Node5</title>
<path fill="none" stroke="midnightblue" d="M202.51,-336.08C195.3,-328.3 184.65,-316.8 175.92,-307.37"/>
<polygon fill="midnightblue" stroke="midnightblue" points="178.23,-304.71 168.86,-299.75 173.09,-309.47 178.23,-304.71"/>
</g>
<!-- Node6 -->
<g id="node6" class="node">
<title>Node6</title>
<g id="a_node6"><a xlink:href="config_8h.html" target="_top" xlink:title="System configuration.">
<polygon fill="white" stroke="black" points="143.26,-112.5 143.26,-131.5 232.26,-131.5 232.26,-112.5 143.26,-112.5"/>
<text text-anchor="middle" x="187.76" y="-119.5" font-family="Helvetica,sans-Serif" font-size="10.00">Settings/config.h</text>
</a>
</g>
</g>
<!-- Node2&#45;&gt;Node6 -->
<g id="edge5" class="edge">
<title>Node2&#45;&gt;Node6</title>
<path fill="none" stroke="midnightblue" d="M167.68,-339.77C115.84,-330.75 32.32,-306.72 4.76,-244 -21.75,-183.68 71.14,-149.63 134.16,-133.89"/>
<polygon fill="midnightblue" stroke="midnightblue" points="135.09,-137.26 144,-131.52 133.45,-130.46 135.09,-137.26"/>
</g>
<!-- Node9 -->
<g id="node9" class="node">
<title>Node9</title>
<g id="a_node9"><a xlink:href="_data_object_8h.html" target="_top" xlink:title="Data objects used for sensor data storage.">
<polygon fill="white" stroke="black" points="282.76,-168.5 282.76,-187.5 356.76,-187.5 356.76,-168.5 282.76,-168.5"/>
<text text-anchor="middle" x="319.76" y="-175.5" font-family="Helvetica,sans-Serif" font-size="10.00">DataObject.h</text>
</a>
</g>
</g>
<!-- Node2&#45;&gt;Node9 -->
<g id="edge9" class="edge">
<title>Node2&#45;&gt;Node9</title>
<path fill="none" stroke="midnightblue" d="M246.51,-336.44C288.36,-324.16 354.99,-296.93 378.76,-244 388.07,-223.26 366.51,-204.62 346.88,-192.68"/>
<polygon fill="midnightblue" stroke="midnightblue" points="348.54,-189.6 338.12,-187.68 345.07,-195.68 348.54,-189.6"/>
</g>
<!-- Node11 -->
<g id="node11" class="node">
<title>Node11</title>
<g id="a_node11"><a xlink:href="_transmission_base_8h.html" target="_top" xlink:title="Transmission base object.">
<polygon fill="white" stroke="black" points="13.76,-224.5 13.76,-243.5 159.76,-243.5 159.76,-224.5 13.76,-224.5"/>
<text text-anchor="middle" x="86.76" y="-231.5" font-family="Helvetica,sans-Serif" font-size="10.00">Transmit/TransmissionBase.h</text>
</a>
</g>
</g>
<!-- Node2&#45;&gt;Node11 -->
<g id="edge13" class="edge">
<title>Node2&#45;&gt;Node11</title>
<path fill="none" stroke="midnightblue" d="M210.5,-336.31C209.65,-322.69 206.11,-296.19 191.76,-280 177.58,-264 156.73,-253.5 137.34,-246.7"/>
<polygon fill="midnightblue" stroke="midnightblue" points="138.26,-243.32 127.67,-243.56 136.1,-249.98 138.26,-243.32"/>
</g>
<!-- Node12 -->
<g id="node12" class="node">
<title>Node12</title>
<g id="a_node12"><a xlink:href="_data_store_8h.html" target="_top" xlink:title="Local data storage object.">
<polygon fill="white" stroke="black" points="238.76,-280.5 238.76,-299.5 306.76,-299.5 306.76,-280.5 238.76,-280.5"/>
<text text-anchor="middle" x="272.76" y="-287.5" font-family="Helvetica,sans-Serif" font-size="10.00">DataStore.h</text>
</a>
</g>
</g>
<!-- Node2&#45;&gt;Node12 -->
<g id="edge16" class="edge">
<title>Node2&#45;&gt;Node12</title>
<path fill="none" stroke="midnightblue" d="M220.72,-336.32C229.89,-328.34 243.7,-316.31 254.79,-306.65"/>
<polygon fill="midnightblue" stroke="midnightblue" points="257.38,-309.04 262.62,-299.83 252.78,-303.76 257.38,-309.04"/>
</g>
<!-- Node7 -->
<g id="node7" class="node">
<title>Node7</title>
<g id="a_node7"><a xlink:href="keys_8h.html" target="_top" xlink:title="Security keys.">
<polygon fill="white" stroke="black" points="232.76,-56.5 232.76,-75.5 278.76,-75.5 278.76,-56.5 232.76,-56.5"/>
<text text-anchor="middle" x="255.76" y="-63.5" font-family="Helvetica,sans-Serif" font-size="10.00">keys.h</text>
</a>
</g>
</g>
<!-- Node6&#45;&gt;Node7 -->
<g id="edge6" class="edge">
<title>Node6&#45;&gt;Node7</title>
<path fill="none" stroke="midnightblue" d="M198.69,-112.32C208.94,-104.18 224.48,-91.84 236.76,-82.09"/>
<polygon fill="midnightblue" stroke="midnightblue" points="238.98,-84.79 244.64,-75.83 234.63,-79.31 238.98,-84.79"/>
</g>
<!-- Node8 -->
<g id="node8" class="node">
<title>Node8</title>
<g id="a_node8"><a xlink:href="_debug_8h.html" target="_top" xlink:title=" ">
<polygon fill="white" stroke="black" points="161.26,-56.5 161.26,-75.5 214.26,-75.5 214.26,-56.5 161.26,-56.5"/>
<text text-anchor="middle" x="187.76" y="-63.5" font-family="Helvetica,sans-Serif" font-size="10.00">Debug.h</text>
</a>
</g>
</g>
<!-- Node6&#45;&gt;Node8 -->
<g id="edge7" class="edge">
<title>Node6&#45;&gt;Node8</title>
<path fill="none" stroke="midnightblue" d="M187.76,-112.08C187.76,-105.01 187.76,-94.86 187.76,-85.99"/>
<polygon fill="midnightblue" stroke="midnightblue" points="191.26,-85.75 187.76,-75.75 184.26,-85.75 191.26,-85.75"/>
</g>
<!-- Node8&#45;&gt;Node3 -->
<g id="edge8" class="edge">
<title>Node8&#45;&gt;Node3</title>
<path fill="none" stroke="midnightblue" d="M214.55,-57.26C246.31,-48.09 299.48,-32.74 335.79,-22.25"/>
<polygon fill="midnightblue" stroke="midnightblue" points="336.92,-25.57 345.56,-19.43 334.98,-18.85 336.92,-25.57"/>
</g>
<!-- Node9&#45;&gt;Node3 -->
<g id="edge10" class="edge">
<title>Node9&#45;&gt;Node3</title>
<path fill="none" stroke="midnightblue" d="M322.72,-168.08C331.41,-141.83 357.02,-64.55 368.76,-29.12"/>
<polygon fill="midnightblue" stroke="midnightblue" points="372.1,-30.16 371.92,-19.57 365.46,-27.96 372.1,-30.16"/>
</g>
<!-- Node9&#45;&gt;Node6 -->
<g id="edge12" class="edge">
<title>Node9&#45;&gt;Node6</title>
<path fill="none" stroke="midnightblue" d="M298.85,-168.44C277.03,-159.52 242.61,-145.44 217.87,-135.32"/>
<polygon fill="midnightblue" stroke="midnightblue" points="219.16,-132.06 208.58,-131.52 216.51,-138.54 219.16,-132.06"/>
</g>
<!-- Node10 -->
<g id="node10" class="node">
<title>Node10</title>
<g id="a_node10"><a xlink:title=" ">
<polygon fill="white" stroke="#bfbfbf" points="356.76,-112.5 356.76,-131.5 398.76,-131.5 398.76,-112.5 356.76,-112.5"/>
<text text-anchor="middle" x="377.76" y="-119.5" font-family="Helvetica,sans-Serif" font-size="10.00">vector</text>
</a>
</g>
</g>
<!-- Node9&#45;&gt;Node10 -->
<g id="edge11" class="edge">
<title>Node9&#45;&gt;Node10</title>
<path fill="none" stroke="midnightblue" d="M329.08,-168.32C337.65,-160.34 350.57,-148.31 360.95,-138.65"/>
<polygon fill="midnightblue" stroke="midnightblue" points="363.34,-141.21 368.27,-131.83 358.57,-136.09 363.34,-141.21"/>
</g>
<!-- Node11&#45;&gt;Node6 -->
<g id="edge15" class="edge">
<title>Node11&#45;&gt;Node6</title>
<path fill="none" stroke="midnightblue" d="M94.69,-224.37C111.58,-205.97 151.34,-162.67 173.02,-139.05"/>
<polygon fill="midnightblue" stroke="midnightblue" points="175.69,-141.32 179.87,-131.59 170.53,-136.59 175.69,-141.32"/>
</g>
<!-- Node11&#45;&gt;Node9 -->
<g id="edge14" class="edge">
<title>Node11&#45;&gt;Node9</title>
<path fill="none" stroke="midnightblue" d="M123.68,-224.44C164.16,-215.06 229.18,-199.99 273.15,-189.8"/>
<polygon fill="midnightblue" stroke="midnightblue" points="274.06,-193.18 283.01,-187.52 272.48,-186.36 274.06,-193.18"/>
</g>
<!-- Node12&#45;&gt;Node3 -->
<g id="edge17" class="edge">
<title>Node12&#45;&gt;Node3</title>
<path fill="none" stroke="midnightblue" d="M306.93,-282.02C354.73,-270.03 435.76,-240.62 435.76,-179 435.76,-179 435.76,-179 435.76,-121 435.76,-83.57 408.42,-46.96 390.35,-26.84"/>
<polygon fill="midnightblue" stroke="midnightblue" points="392.88,-24.43 383.5,-19.51 387.77,-29.21 392.88,-24.43"/>
</g>
<!-- Node12&#45;&gt;Node6 -->
<g id="edge21" class="edge">
<title>Node12&#45;&gt;Node6</title>
<path fill="none" stroke="midnightblue" d="M264.76,-280.21C257.11,-271.49 245.62,-257.52 237.76,-244 217.76,-209.58 201.72,-165.61 193.58,-141.27"/>
<polygon fill="midnightblue" stroke="midnightblue" points="196.85,-140 190.42,-131.58 190.2,-142.17 196.85,-140"/>
</g>
<!-- Node12&#45;&gt;Node9 -->
<g id="edge22" class="edge">
<title>Node12&#45;&gt;Node9</title>
<path fill="none" stroke="midnightblue" d="M263.94,-280.3C252.13,-267.56 233.86,-243.25 244.76,-224 253.11,-209.26 268.42,-198.82 283.05,-191.73"/>
<polygon fill="midnightblue" stroke="midnightblue" points="284.76,-194.8 292.48,-187.55 281.92,-188.4 284.76,-194.8"/>
</g>
<!-- Node12&#45;&gt;Node10 -->
<g id="edge18" class="edge">
<title>Node12&#45;&gt;Node10</title>
<path fill="none" stroke="midnightblue" d="M307.01,-284.43C331.54,-279.17 362.93,-267.92 378.76,-244 399.37,-212.87 390.88,-166.65 383.77,-141.3"/>
<polygon fill="midnightblue" stroke="midnightblue" points="387.05,-140.08 380.8,-131.53 380.36,-142.11 387.05,-140.08"/>
</g>
<!-- Node12&#45;&gt;Node11 -->
<g id="edge23" class="edge">
<title>Node12&#45;&gt;Node11</title>
<path fill="none" stroke="midnightblue" d="M243.29,-280.44C211.59,-271.24 161.03,-256.56 125.99,-246.39"/>
<polygon fill="midnightblue" stroke="midnightblue" points="126.68,-242.94 116.1,-243.52 124.72,-249.67 126.68,-242.94"/>
</g>
<!-- Node13 -->
<g id="node13" class="node">
<title>Node13</title>
<g id="a_node13"><a xlink:title=" ">
<polygon fill="white" stroke="#bfbfbf" points="253.76,-224.5 253.76,-243.5 291.76,-243.5 291.76,-224.5 253.76,-224.5"/>
<text text-anchor="middle" x="272.76" y="-231.5" font-family="Helvetica,sans-Serif" font-size="10.00">FS.h</text>
</a>
</g>
</g>
<!-- Node12&#45;&gt;Node13 -->
<g id="edge19" class="edge">
<title>Node12&#45;&gt;Node13</title>
<path fill="none" stroke="midnightblue" d="M272.76,-280.08C272.76,-273.01 272.76,-262.86 272.76,-253.99"/>
<polygon fill="midnightblue" stroke="midnightblue" points="276.26,-253.75 272.76,-243.75 269.26,-253.75 276.26,-253.75"/>
</g>
<!-- Node14 -->
<g id="node14" class="node">
<title>Node14</title>
<g id="a_node14"><a xlink:title=" ">
<polygon fill="white" stroke="#bfbfbf" points="310.26,-224.5 310.26,-243.5 369.26,-243.5 369.26,-224.5 310.26,-224.5"/>
<text text-anchor="middle" x="339.76" y="-231.5" font-family="Helvetica,sans-Serif" font-size="10.00">SPIFFS.h</text>
</a>
</g>
</g>
<!-- Node12&#45;&gt;Node14 -->
<g id="edge20" class="edge">
<title>Node12&#45;&gt;Node14</title>
<path fill="none" stroke="midnightblue" d="M283.53,-280.32C293.53,-272.26 308.65,-260.08 320.69,-250.37"/>
<polygon fill="midnightblue" stroke="midnightblue" points="323.21,-252.83 328.8,-243.83 318.82,-247.38 323.21,-252.83"/>
</g>
</g>
</svg>
