<?xml version="1.0" encoding="UTF-8" standalone="no"?>
<!DOCTYPE svg PUBLIC "-//W3C//DTD SVG 1.1//EN"
 "http://www.w3.org/Graphics/SVG/1.1/DTD/svg11.dtd">
<!-- Generated by graphviz version 4.0.0 (20220529.0937)
 -->
<!-- Title: D:/OneDrive &#45; Avans Hogeschool/Minor/PRO Smart Roofs/Software/GreenRoof_Base/include/Transmit/IOTHubTransmission.h Pages: 1 -->
<svg width="698pt" height="352pt"
 viewBox="0.00 0.00 698.36 352.00" xmlns="http://www.w3.org/2000/svg" xmlns:xlink="http://www.w3.org/1999/xlink">
<g id="graph0" class="graph" transform="scale(1 1) rotate(0) translate(4 348)">
<title>D:/OneDrive &#45; Avans Hogeschool/Minor/PRO Smart Roofs/Software/GreenRoof_Base/include/Transmit/IOTHubTransmission.h</title>
<polygon fill="white" stroke="transparent" points="-4,4 -4,-348 694.36,-348 694.36,4 -4,4"/>
<!-- Node1 -->
<g id="node1" class="node">
<title>Node1</title>
<g id="a_node1"><a xlink:title="IOT Hub based transmission method.">
<polygon fill="#bfbfbf" stroke="black" points="300,-280.5 300,-343.5 458,-343.5 458,-280.5 300,-280.5"/>
<text text-anchor="start" x="308" y="-331.5" font-family="Helvetica,sans-Serif" font-size="10.00">D:/OneDrive &#45; Avans</text>
<text text-anchor="start" x="308" y="-320.5" font-family="Helvetica,sans-Serif" font-size="10.00"> Hogeschool/Minor/PRO</text>
<text text-anchor="start" x="308" y="-309.5" font-family="Helvetica,sans-Serif" font-size="10.00"> Smart Roofs/Software</text>
<text text-anchor="start" x="308" y="-298.5" font-family="Helvetica,sans-Serif" font-size="10.00">/GreenRoof_Base/include</text>
<text text-anchor="middle" x="379" y="-287.5" font-family="Helvetica,sans-Serif" font-size="10.00">/Transmit/IOTHubTransmission.h</text>
</a>
</g>
</g>
<!-- Node2 -->
<g id="node2" class="node">
<title>Node2</title>
<g id="a_node2"><a xlink:href="_transmission_base_8h.html" target="_top" xlink:title="Transmission base object.">
<polygon fill="white" stroke="black" points="6.5,-224.5 6.5,-243.5 111.5,-243.5 111.5,-224.5 6.5,-224.5"/>
<text text-anchor="middle" x="59" y="-231.5" font-family="Helvetica,sans-Serif" font-size="10.00">TransmissionBase.h</text>
</a>
</g>
</g>
<!-- Node1&#45;&gt;Node2 -->
<g id="edge1" class="edge">
<title>Node1&#45;&gt;Node2</title>
<path fill="none" stroke="midnightblue" d="M299.9,-292.21C238.6,-277.66 155.81,-257.99 104.98,-245.92"/>
<polygon fill="midnightblue" stroke="midnightblue" points="105.48,-242.44 94.95,-243.54 103.87,-249.25 105.48,-242.44"/>
</g>
<!-- Node6 -->
<g id="node6" class="node">
<title>Node6</title>
<g id="a_node6"><a xlink:href="config_8h.html" target="_top" xlink:title="System configuration.">
<polygon fill="white" stroke="black" points="86.5,-112.5 86.5,-131.5 175.5,-131.5 175.5,-112.5 86.5,-112.5"/>
<text text-anchor="middle" x="131" y="-119.5" font-family="Helvetica,sans-Serif" font-size="10.00">Settings/config.h</text>
</a>
</g>
</g>
<!-- Node1&#45;&gt;Node6 -->
<g id="edge10" class="edge">
<title>Node1&#45;&gt;Node6</title>
<path fill="none" stroke="midnightblue" d="M299.93,-305.98C253.05,-298.86 195.95,-282.24 160,-244 133.58,-215.9 129.91,-168.12 130.1,-141.8"/>
<polygon fill="midnightblue" stroke="midnightblue" points="133.61,-141.74 130.38,-131.65 126.61,-141.55 133.61,-141.74"/>
</g>
<!-- Node9 -->
<g id="node9" class="node">
<title>Node9</title>
<g id="a_node9"><a xlink:title=" ">
<polygon fill="white" stroke="#bfbfbf" points="168.5,-224.5 168.5,-243.5 241.5,-243.5 241.5,-224.5 168.5,-224.5"/>
<text text-anchor="middle" x="205" y="-231.5" font-family="Helvetica,sans-Serif" font-size="10.00">mqtt_client.h</text>
</a>
</g>
</g>
<!-- Node1&#45;&gt;Node9 -->
<g id="edge11" class="edge">
<title>Node1&#45;&gt;Node9</title>
<path fill="none" stroke="midnightblue" d="M308.98,-280.42C282.85,-269 254.59,-256.66 234.14,-247.73"/>
<polygon fill="midnightblue" stroke="midnightblue" points="235.33,-244.43 224.77,-243.63 232.53,-250.84 235.33,-244.43"/>
</g>
<!-- Node10 -->
<g id="node10" class="node">
<title>Node10</title>
<g id="a_node10"><a xlink:title=" ">
<polygon fill="white" stroke="#bfbfbf" points="259.5,-224.5 259.5,-243.5 304.5,-243.5 304.5,-224.5 259.5,-224.5"/>
<text text-anchor="middle" x="282" y="-231.5" font-family="Helvetica,sans-Serif" font-size="10.00">cstdlib</text>
</a>
</g>
</g>
<!-- Node1&#45;&gt;Node10 -->
<g id="edge12" class="edge">
<title>Node1&#45;&gt;Node10</title>
<path fill="none" stroke="midnightblue" d="M339.83,-280.31C326.55,-269.9 312.3,-258.74 301.27,-250.1"/>
<polygon fill="midnightblue" stroke="midnightblue" points="303.23,-247.19 293.2,-243.77 298.91,-252.7 303.23,-247.19"/>
</g>
<!-- Node11 -->
<g id="node11" class="node">
<title>Node11</title>
<g id="a_node11"><a xlink:title=" ">
<polygon fill="white" stroke="#bfbfbf" points="322.5,-224.5 322.5,-243.5 371.5,-243.5 371.5,-224.5 322.5,-224.5"/>
<text text-anchor="middle" x="347" y="-231.5" font-family="Helvetica,sans-Serif" font-size="10.00">string.h</text>
</a>
</g>
</g>
<!-- Node1&#45;&gt;Node11 -->
<g id="edge13" class="edge">
<title>Node1&#45;&gt;Node11</title>
<path fill="none" stroke="midnightblue" d="M365.98,-280.09C362.13,-270.94 358.05,-261.23 354.65,-253.17"/>
<polygon fill="midnightblue" stroke="midnightblue" points="357.78,-251.58 350.67,-243.72 351.33,-254.29 357.78,-251.58"/>
</g>
<!-- Node12 -->
<g id="node12" class="node">
<title>Node12</title>
<g id="a_node12"><a xlink:title=" ">
<polygon fill="white" stroke="#bfbfbf" points="390,-224.5 390,-243.5 434,-243.5 434,-224.5 390,-224.5"/>
<text text-anchor="middle" x="412" y="-231.5" font-family="Helvetica,sans-Serif" font-size="10.00">time.h</text>
</a>
</g>
</g>
<!-- Node1&#45;&gt;Node12 -->
<g id="edge14" class="edge">
<title>Node1&#45;&gt;Node12</title>
<path fill="none" stroke="midnightblue" d="M392.42,-280.09C396.44,-270.84 400.7,-261.01 404.23,-252.9"/>
<polygon fill="midnightblue" stroke="midnightblue" points="407.44,-254.28 408.21,-243.72 401.02,-251.5 407.44,-254.28"/>
</g>
<!-- Node13 -->
<g id="node13" class="node">
<title>Node13</title>
<g id="a_node13"><a xlink:title=" ">
<polygon fill="white" stroke="#bfbfbf" points="452,-224.5 452,-243.5 530,-243.5 530,-224.5 452,-224.5"/>
<text text-anchor="middle" x="491" y="-231.5" font-family="Helvetica,sans-Serif" font-size="10.00">ArduinoJson.h</text>
</a>
</g>
</g>
<!-- Node1&#45;&gt;Node13 -->
<g id="edge15" class="edge">
<title>Node1&#45;&gt;Node13</title>
<path fill="none" stroke="midnightblue" d="M424.23,-280.31C439.86,-269.7 456.66,-258.3 469.5,-249.59"/>
<polygon fill="midnightblue" stroke="midnightblue" points="471.76,-252.29 478.07,-243.77 467.83,-246.49 471.76,-252.29"/>
</g>
<!-- Node14 -->
<g id="node14" class="node">
<title>Node14</title>
<g id="a_node14"><a xlink:title=" ">
<polygon fill="white" stroke="#bfbfbf" points="548.5,-224.5 548.5,-243.5 607.5,-243.5 607.5,-224.5 548.5,-224.5"/>
<text text-anchor="middle" x="578" y="-231.5" font-family="Helvetica,sans-Serif" font-size="10.00">az_core.h</text>
</a>
</g>
</g>
<!-- Node1&#45;&gt;Node14 -->
<g id="edge16" class="edge">
<title>Node1&#45;&gt;Node14</title>
<path fill="none" stroke="midnightblue" d="M458.22,-280.74C488.95,-269.01 522.37,-256.24 546.08,-247.19"/>
<polygon fill="midnightblue" stroke="midnightblue" points="547.52,-250.39 555.62,-243.55 545.03,-243.85 547.52,-250.39"/>
</g>
<!-- Node15 -->
<g id="node15" class="node">
<title>Node15</title>
<g id="a_node15"><a xlink:title=" ">
<polygon fill="white" stroke="#bfbfbf" points="625.5,-224.5 625.5,-243.5 676.5,-243.5 676.5,-224.5 625.5,-224.5"/>
<text text-anchor="middle" x="651" y="-231.5" font-family="Helvetica,sans-Serif" font-size="10.00">az_iot.h</text>
</a>
</g>
</g>
<!-- Node1&#45;&gt;Node15 -->
<g id="edge17" class="edge">
<title>Node1&#45;&gt;Node15</title>
<path fill="none" stroke="midnightblue" d="M458.04,-288.92C510.13,-274.36 575.83,-256 615.56,-244.9"/>
<polygon fill="midnightblue" stroke="midnightblue" points="616.64,-248.24 625.32,-242.17 614.75,-241.49 616.64,-248.24"/>
</g>
<!-- Node16 -->
<g id="node16" class="node">
<title>Node16</title>
<g id="a_node16"><a xlink:href="_az_io_t_sas_token_8h.html" target="_top" xlink:title=" ">
<polygon fill="white" stroke="black" points="236.5,-168.5 236.5,-187.5 329.5,-187.5 329.5,-168.5 236.5,-168.5"/>
<text text-anchor="middle" x="283" y="-175.5" font-family="Helvetica,sans-Serif" font-size="10.00">AzIoTSasToken.h</text>
</a>
</g>
</g>
<!-- Node1&#45;&gt;Node16 -->
<g id="edge18" class="edge">
<title>Node1&#45;&gt;Node16</title>
<path fill="none" stroke="midnightblue" d="M458.21,-304.8C539.48,-296.59 657.9,-278.89 686,-244 691.58,-237.08 691.93,-230.62 686,-224 663.34,-198.67 445.64,-185.95 339.98,-181.23"/>
<polygon fill="midnightblue" stroke="midnightblue" points="339.95,-177.73 329.8,-180.78 339.64,-184.72 339.95,-177.73"/>
</g>
<!-- Node3 -->
<g id="node3" class="node">
<title>Node3</title>
<g id="a_node3"><a xlink:href="_data_object_8h.html" target="_top" xlink:title="Data objects used for sensor data storage.">
<polygon fill="white" stroke="black" points="0,-168.5 0,-187.5 74,-187.5 74,-168.5 0,-168.5"/>
<text text-anchor="middle" x="37" y="-175.5" font-family="Helvetica,sans-Serif" font-size="10.00">DataObject.h</text>
</a>
</g>
</g>
<!-- Node2&#45;&gt;Node3 -->
<g id="edge2" class="edge">
<title>Node2&#45;&gt;Node3</title>
<path fill="none" stroke="midnightblue" d="M55.37,-224.08C52.39,-216.77 48.07,-206.18 44.38,-197.1"/>
<polygon fill="midnightblue" stroke="midnightblue" points="47.58,-195.69 40.57,-187.75 41.1,-198.33 47.58,-195.69"/>
</g>
<!-- Node2&#45;&gt;Node6 -->
<g id="edge9" class="edge">
<title>Node2&#45;&gt;Node6</title>
<path fill="none" stroke="midnightblue" d="M64.65,-224.37C76.53,-206.22 104.29,-163.8 119.88,-139.99"/>
<polygon fill="midnightblue" stroke="midnightblue" points="122.83,-141.88 125.38,-131.59 116.97,-138.04 122.83,-141.88"/>
</g>
<!-- Node4 -->
<g id="node4" class="node">
<title>Node4</title>
<g id="a_node4"><a xlink:title=" ">
<polygon fill="white" stroke="#bfbfbf" points="111,-0.5 111,-19.5 169,-19.5 169,-0.5 111,-0.5"/>
<text text-anchor="middle" x="140" y="-7.5" font-family="Helvetica,sans-Serif" font-size="10.00">Arduino.h</text>
</a>
</g>
</g>
<!-- Node3&#45;&gt;Node4 -->
<g id="edge3" class="edge">
<title>Node3&#45;&gt;Node4</title>
<path fill="none" stroke="midnightblue" d="M31.87,-168.41C26.94,-159.61 19.84,-145.38 17,-132 9.67,-97.48 15.46,-81.36 40,-56 56.49,-38.95 80.62,-27.84 101.05,-20.92"/>
<polygon fill="midnightblue" stroke="midnightblue" points="102.25,-24.21 110.73,-17.85 100.14,-17.54 102.25,-24.21"/>
</g>
<!-- Node5 -->
<g id="node5" class="node">
<title>Node5</title>
<g id="a_node5"><a xlink:title=" ">
<polygon fill="white" stroke="#bfbfbf" points="26,-112.5 26,-131.5 68,-131.5 68,-112.5 26,-112.5"/>
<text text-anchor="middle" x="47" y="-119.5" font-family="Helvetica,sans-Serif" font-size="10.00">vector</text>
</a>
</g>
</g>
<!-- Node3&#45;&gt;Node5 -->
<g id="edge4" class="edge">
<title>Node3&#45;&gt;Node5</title>
<path fill="none" stroke="midnightblue" d="M38.65,-168.08C39.98,-160.93 41.88,-150.64 43.54,-141.69"/>
<polygon fill="midnightblue" stroke="midnightblue" points="47,-142.22 45.38,-131.75 40.12,-140.95 47,-142.22"/>
</g>
<!-- Node3&#45;&gt;Node6 -->
<g id="edge5" class="edge">
<title>Node3&#45;&gt;Node6</title>
<path fill="none" stroke="midnightblue" d="M52.1,-168.32C66.9,-159.82 89.69,-146.73 106.98,-136.8"/>
<polygon fill="midnightblue" stroke="midnightblue" points="109.01,-139.67 115.93,-131.65 105.52,-133.6 109.01,-139.67"/>
</g>
<!-- Node7 -->
<g id="node7" class="node">
<title>Node7</title>
<g id="a_node7"><a xlink:href="keys_8h.html" target="_top" xlink:title="Security keys.">
<polygon fill="white" stroke="black" points="49,-56.5 49,-75.5 95,-75.5 95,-56.5 49,-56.5"/>
<text text-anchor="middle" x="72" y="-63.5" font-family="Helvetica,sans-Serif" font-size="10.00">keys.h</text>
</a>
</g>
</g>
<!-- Node6&#45;&gt;Node7 -->
<g id="edge6" class="edge">
<title>Node6&#45;&gt;Node7</title>
<path fill="none" stroke="midnightblue" d="M121.52,-112.32C112.8,-104.34 99.66,-92.31 89.1,-82.65"/>
<polygon fill="midnightblue" stroke="midnightblue" points="91.39,-80 81.65,-75.83 86.67,-85.17 91.39,-80"/>
</g>
<!-- Node8 -->
<g id="node8" class="node">
<title>Node8</title>
<g id="a_node8"><a xlink:href="_debug_8h.html" target="_top" xlink:title=" ">
<polygon fill="white" stroke="black" points="113.5,-56.5 113.5,-75.5 166.5,-75.5 166.5,-56.5 113.5,-56.5"/>
<text text-anchor="middle" x="140" y="-63.5" font-family="Helvetica,sans-Serif" font-size="10.00">Debug.h</text>
</a>
</g>
</g>
<!-- Node6&#45;&gt;Node8 -->
<g id="edge7" class="edge">
<title>Node6&#45;&gt;Node8</title>
<path fill="none" stroke="midnightblue" d="M132.49,-112.08C133.68,-104.93 135.39,-94.64 136.88,-85.69"/>
<polygon fill="midnightblue" stroke="midnightblue" points="140.35,-86.19 138.54,-75.75 133.45,-85.04 140.35,-86.19"/>
</g>
<!-- Node8&#45;&gt;Node4 -->
<g id="edge8" class="edge">
<title>Node8&#45;&gt;Node4</title>
<path fill="none" stroke="midnightblue" d="M140,-56.08C140,-49.01 140,-38.86 140,-29.99"/>
<polygon fill="midnightblue" stroke="midnightblue" points="143.5,-29.75 140,-19.75 136.5,-29.75 143.5,-29.75"/>
</g>
<!-- Node16&#45;&gt;Node4 -->
<g id="edge19" class="edge">
<title>Node16&#45;&gt;Node4</title>
<path fill="none" stroke="midnightblue" d="M268.74,-168.23C256.03,-159.95 237.4,-146.63 224,-132 197.02,-102.53 199.18,-88.54 176,-56 169.11,-46.32 160.86,-35.94 154,-27.59"/>
<polygon fill="midnightblue" stroke="midnightblue" points="156.56,-25.19 147.47,-19.74 151.18,-29.66 156.56,-25.19"/>
</g>
<!-- Node16&#45;&gt;Node6 -->
<g id="edge20" class="edge">
<title>Node16&#45;&gt;Node6</title>
<path fill="none" stroke="midnightblue" d="M258.92,-168.44C233.46,-159.4 193.11,-145.06 164.54,-134.92"/>
<polygon fill="midnightblue" stroke="midnightblue" points="165.57,-131.57 154.97,-131.52 163.22,-138.16 165.57,-131.57"/>
</g>
<!-- Node17 -->
<g id="node17" class="node">
<title>Node17</title>
<g id="a_node17"><a xlink:title=" ">
<polygon fill="white" stroke="#bfbfbf" points="232.5,-112.5 232.5,-131.5 333.5,-131.5 333.5,-112.5 232.5,-112.5"/>
<text text-anchor="middle" x="283" y="-119.5" font-family="Helvetica,sans-Serif" font-size="10.00">az_iot_hub_client.h</text>
</a>
</g>
</g>
<!-- Node16&#45;&gt;Node17 -->
<g id="edge21" class="edge">
<title>Node16&#45;&gt;Node17</title>
<path fill="none" stroke="midnightblue" d="M283,-168.08C283,-161.01 283,-150.86 283,-141.99"/>
<polygon fill="midnightblue" stroke="midnightblue" points="286.5,-141.75 283,-131.75 279.5,-141.75 286.5,-141.75"/>
</g>
<!-- Node18 -->
<g id="node18" class="node">
<title>Node18</title>
<g id="a_node18"><a xlink:title=" ">
<polygon fill="white" stroke="#bfbfbf" points="352,-112.5 352,-131.5 414,-131.5 414,-112.5 352,-112.5"/>
<text text-anchor="middle" x="383" y="-119.5" font-family="Helvetica,sans-Serif" font-size="10.00">az_span.h</text>
</a>
</g>
</g>
<!-- Node16&#45;&gt;Node18 -->
<g id="edge22" class="edge">
<title>Node16&#45;&gt;Node18</title>
<path fill="none" stroke="midnightblue" d="M299.07,-168.32C314.96,-159.74 339.51,-146.49 357.96,-136.52"/>
<polygon fill="midnightblue" stroke="midnightblue" points="359.84,-139.49 366.97,-131.65 356.51,-133.33 359.84,-139.49"/>
</g>
</g>
</svg>
