<?xml version="1.0" encoding="UTF-8" standalone="no"?>
<!DOCTYPE svg PUBLIC "-//W3C//DTD SVG 1.1//EN"
 "http://www.w3.org/Graphics/SVG/1.1/DTD/svg11.dtd">
<!-- Generated by graphviz version 4.0.0 (20220529.0937)
 -->
<!-- Title: D:/OneDrive &#45; Avans Hogeschool/Minor/PRO Smart Roofs/Software/GreenRoof_Base/src/MeasurementController.cpp Pages: 1 -->
<!--zoomable 520 -->
<svg id="main" version="1.1" xmlns="http://www.w3.org/2000/svg" xmlns:xlink="http://www.w3.org/1999/xlink" xml:space="preserve" onload="init(evt)">
<style type="text/css"><![CDATA[
.edge:hover path { stroke: red; }
.edge:hover polygon { stroke: red; fill: red; }
]]></style>
<script type="text/javascript"><![CDATA[
var edges = document.getElementsByTagName('g');
if (edges && edges.length) {
  for (var i=0;i<edges.length;i++) {
    if (edges[i].id.substr(0,4)=='edge') {
      edges[i].setAttribute('class','edge');
    }
  }
}
]]></script>
        <defs>
                <circle id="rim" cx="0" cy="0" r="7"/>
                <circle id="rim2" cx="0" cy="0" r="3.5"/>
                <g id="zoomPlus">
                        <use xlink:href="#rim" fill="#404040">
                                <set attributeName="fill" to="#808080" begin="zoomplus.mouseover" end="zoomplus.mouseout"/>
                        </use>
                        <path d="M-4,0h8M0,-4v8" fill="none" stroke="white" stroke-width="1.5" pointer-events="none"/>
                </g>
                <g id="zoomMin">
                        <use xlink:href="#rim" fill="#404040">
                                <set attributeName="fill" to="#808080" begin="zoomminus.mouseover" end="zoomminus.mouseout"/>
                        </use>
                        <path d="M-4,0h8" fill="none" stroke="white" stroke-width="1.5" pointer-events="none"/>
                </g>
                <g id="dirArrow">
                        <path fill="none" stroke="white" stroke-width="1.5" d="M0,-3.0v7 M-2.5,-0.5L0,-3.0L2.5,-0.5"/>
                </g>
               <g id="resetDef">
                       <use xlink:href="#rim2" fill="#404040">
                               <set attributeName="fill" to="#808080" begin="reset.mouseover" end="reset.mouseout"/>
                       </use>
               </g>
        </defs>

<script type="text/javascript">
var viewWidth = 784;
var viewHeight = 520;
var sectionId = 'dynsection-0';
</script>
<script xlink:href="svgpan.js"/>
<svg id="graph" class="graph">
<g id="viewport">
<title>D:/OneDrive &#45; Avans Hogeschool/Minor/PRO Smart Roofs/Software/GreenRoof_Base/src/MeasurementController.cpp</title>
<polygon fill="white" stroke="transparent" points="-4,4 -4,-516 780,-516 780,4 -4,4"/>
<!-- Node1 -->
<g id="node1" class="node">
<title>Node1</title>
<g id="a_node1"><a xlink:title="Main measurement and communication controller.">
<polygon fill="#bfbfbf" stroke="black" points="408,-448.5 408,-511.5 580,-511.5 580,-448.5 408,-448.5"/>
<text text-anchor="start" x="416" y="-499.5" font-family="Helvetica,sans-Serif" font-size="10.00">D:/OneDrive &#45; Avans</text>
<text text-anchor="start" x="416" y="-488.5" font-family="Helvetica,sans-Serif" font-size="10.00"> Hogeschool/Minor/PRO</text>
<text text-anchor="start" x="416" y="-477.5" font-family="Helvetica,sans-Serif" font-size="10.00"> Smart Roofs/Software</text>
<text text-anchor="start" x="416" y="-466.5" font-family="Helvetica,sans-Serif" font-size="10.00">/GreenRoof_Base/src/Measurement</text>
<text text-anchor="middle" x="494" y="-455.5" font-family="Helvetica,sans-Serif" font-size="10.00">Controller.cpp</text>
</a>
</g>
</g>
<!-- Node2 -->
<g id="node2" class="node">
<title>Node2</title>
<g id="a_node2"><a xlink:href="_measurement_controller_8h.html" target="_top" xlink:title="Main measurement and communication controller.">
<polygon fill="white" stroke="black" points="431.5,-392.5 431.5,-411.5 556.5,-411.5 556.5,-392.5 431.5,-392.5"/>
<text text-anchor="middle" x="494" y="-399.5" font-family="Helvetica,sans-Serif" font-size="10.00">MeasurementController.h</text>
</a>
</g>
</g>
<!-- Node1&#45;&gt;Node2 -->
<g id="edge1" class="edge">
<title>Node1&#45;&gt;Node2</title>
<path fill="none" stroke="midnightblue" d="M494,-448.09C494,-439.15 494,-429.67 494,-421.72"/>
<polygon fill="midnightblue" stroke="midnightblue" points="497.5,-421.72 494,-411.72 490.5,-421.72 497.5,-421.72"/>
</g>
<!-- Node3 -->
<g id="node3" class="node">
<title>Node3</title>
<g id="a_node3"><a xlink:title=" ">
<polygon fill="white" stroke="#bfbfbf" points="518,-0.5 518,-19.5 576,-19.5 576,-0.5 518,-0.5"/>
<text text-anchor="middle" x="547" y="-7.5" font-family="Helvetica,sans-Serif" font-size="10.00">Arduino.h</text>
</a>
</g>
</g>
<!-- Node2&#45;&gt;Node3 -->
<g id="edge2" class="edge">
<title>Node2&#45;&gt;Node3</title>
<path fill="none" stroke="midnightblue" d="M542.16,-392.48C622.7,-376.85 776,-340.6 776,-291 776,-291 776,-291 776,-121 776,-37.86 651.83,-17.52 586.36,-12.57"/>
<polygon fill="midnightblue" stroke="midnightblue" points="586.21,-9.05 576,-11.88 585.75,-16.04 586.21,-9.05"/>
</g>
<!-- Node4 -->
<g id="node4" class="node">
<title>Node4</title>
<g id="a_node4"><a xlink:title=" ">
<polygon fill="white" stroke="#bfbfbf" points="93,-112.5 93,-131.5 135,-131.5 135,-112.5 93,-112.5"/>
<text text-anchor="middle" x="114" y="-119.5" font-family="Helvetica,sans-Serif" font-size="10.00">vector</text>
</a>
</g>
</g>
<!-- Node2&#45;&gt;Node4 -->
<g id="edge3" class="edge">
<title>Node2&#45;&gt;Node4</title>
<path fill="none" stroke="midnightblue" d="M431.43,-400.07C298.51,-396.4 0,-378.43 0,-291 0,-291 0,-291 0,-233 0,-186.11 50.55,-152.89 84.33,-135.93"/>
<polygon fill="midnightblue" stroke="midnightblue" points="85.87,-139.07 93.36,-131.58 82.83,-132.77 85.87,-139.07"/>
</g>
<!-- Node5 -->
<g id="node5" class="node">
<title>Node5</title>
<g id="a_node5"><a xlink:href="_data_object_8h.html" target="_top" xlink:title="Data objects used for sensor data storage.">
<polygon fill="white" stroke="black" points="222,-168.5 222,-187.5 296,-187.5 296,-168.5 222,-168.5"/>
<text text-anchor="middle" x="259" y="-175.5" font-family="Helvetica,sans-Serif" font-size="10.00">DataObject.h</text>
</a>
</g>
</g>
<!-- Node2&#45;&gt;Node5 -->
<g id="edge4" class="edge">
<title>Node2&#45;&gt;Node5</title>
<path fill="none" stroke="midnightblue" d="M434.65,-392.46C371.02,-380.79 269.75,-354.71 200,-300 170.59,-276.93 144.01,-255.58 164,-224 174.75,-207.01 193.85,-196.3 212.12,-189.63"/>
<polygon fill="midnightblue" stroke="midnightblue" points="213.44,-192.87 221.83,-186.4 211.24,-186.23 213.44,-192.87"/>
</g>
<!-- Node9 -->
<g id="node9" class="node">
<title>Node9</title>
<g id="a_node9"><a xlink:href="_data_publisher_8h.html" target="_top" xlink:title="Data parser and management for transmission and storage of sensor data.">
<polygon fill="white" stroke="black" points="451,-336.5 451,-355.5 537,-355.5 537,-336.5 451,-336.5"/>
<text text-anchor="middle" x="494" y="-343.5" font-family="Helvetica,sans-Serif" font-size="10.00">DataPublisher.h</text>
</a>
</g>
</g>
<!-- Node2&#45;&gt;Node9 -->
<g id="edge11" class="edge">
<title>Node2&#45;&gt;Node9</title>
<path fill="none" stroke="midnightblue" d="M494,-392.08C494,-385.01 494,-374.86 494,-365.99"/>
<polygon fill="midnightblue" stroke="midnightblue" points="497.5,-365.75 494,-355.75 490.5,-365.75 497.5,-365.75"/>
</g>
<!-- Node16 -->
<g id="node16" class="node">
<title>Node16</title>
<g id="a_node16"><a xlink:href="_sensor_base_8h.html" target="_top" xlink:title="Sensor base object Interface.">
<polygon fill="white" stroke="black" points="630.5,-168.5 630.5,-187.5 747.5,-187.5 747.5,-168.5 630.5,-168.5"/>
<text text-anchor="middle" x="689" y="-175.5" font-family="Helvetica,sans-Serif" font-size="10.00">Sensors/SensorBase.h</text>
</a>
</g>
</g>
<!-- Node2&#45;&gt;Node16 -->
<g id="edge28" class="edge">
<title>Node2&#45;&gt;Node16</title>
<path fill="none" stroke="midnightblue" d="M533.94,-392.45C579.35,-380.39 651.5,-353.59 685,-300 704.7,-268.48 699.09,-222.77 693.74,-197.52"/>
<polygon fill="midnightblue" stroke="midnightblue" points="697.15,-196.7 691.46,-187.76 690.33,-198.29 697.15,-196.7"/>
</g>
<!-- Node5&#45;&gt;Node3 -->
<g id="edge5" class="edge">
<title>Node5&#45;&gt;Node3</title>
<path fill="none" stroke="midnightblue" d="M270.61,-168.33C299.02,-147.35 374.7,-92.87 443,-56 466.31,-43.41 493.88,-31.62 514.77,-23.26"/>
<polygon fill="midnightblue" stroke="midnightblue" points="516.13,-26.49 524.15,-19.56 513.57,-19.97 516.13,-26.49"/>
</g>
<!-- Node5&#45;&gt;Node4 -->
<g id="edge6" class="edge">
<title>Node5&#45;&gt;Node4</title>
<path fill="none" stroke="midnightblue" d="M236.02,-168.44C211.42,-159.28 172.23,-144.68 144.92,-134.52"/>
<polygon fill="midnightblue" stroke="midnightblue" points="146.04,-131.2 135.45,-130.99 143.6,-137.76 146.04,-131.2"/>
</g>
<!-- Node6 -->
<g id="node6" class="node">
<title>Node6</title>
<g id="a_node6"><a xlink:href="config_8h.html" target="_top" xlink:title="System configuration.">
<polygon fill="white" stroke="black" points="433.5,-112.5 433.5,-131.5 522.5,-131.5 522.5,-112.5 433.5,-112.5"/>
<text text-anchor="middle" x="478" y="-119.5" font-family="Helvetica,sans-Serif" font-size="10.00">Settings/config.h</text>
</a>
</g>
</g>
<!-- Node5&#45;&gt;Node6 -->
<g id="edge7" class="edge">
<title>Node5&#45;&gt;Node6</title>
<path fill="none" stroke="midnightblue" d="M293.7,-168.44C331.58,-159.1 392.35,-144.12 433.66,-133.93"/>
<polygon fill="midnightblue" stroke="midnightblue" points="434.59,-137.31 443.46,-131.52 432.91,-130.51 434.59,-137.31"/>
</g>
<!-- Node7 -->
<g id="node7" class="node">
<title>Node7</title>
<g id="a_node7"><a xlink:href="keys_8h.html" target="_top" xlink:title="Security keys.">
<polygon fill="white" stroke="black" points="523,-56.5 523,-75.5 569,-75.5 569,-56.5 523,-56.5"/>
<text text-anchor="middle" x="546" y="-63.5" font-family="Helvetica,sans-Serif" font-size="10.00">keys.h</text>
</a>
</g>
</g>
<!-- Node6&#45;&gt;Node7 -->
<g id="edge8" class="edge">
<title>Node6&#45;&gt;Node7</title>
<path fill="none" stroke="midnightblue" d="M488.93,-112.32C499.17,-104.18 514.72,-91.84 527,-82.09"/>
<polygon fill="midnightblue" stroke="midnightblue" points="529.22,-84.79 534.88,-75.83 524.87,-79.31 529.22,-84.79"/>
</g>
<!-- Node8 -->
<g id="node8" class="node">
<title>Node8</title>
<g id="a_node8"><a xlink:href="_debug_8h.html" target="_top" xlink:title=" ">
<polygon fill="white" stroke="black" points="451.5,-56.5 451.5,-75.5 504.5,-75.5 504.5,-56.5 451.5,-56.5"/>
<text text-anchor="middle" x="478" y="-63.5" font-family="Helvetica,sans-Serif" font-size="10.00">Debug.h</text>
</a>
</g>
</g>
<!-- Node6&#45;&gt;Node8 -->
<g id="edge9" class="edge">
<title>Node6&#45;&gt;Node8</title>
<path fill="none" stroke="midnightblue" d="M478,-112.08C478,-105.01 478,-94.86 478,-85.99"/>
<polygon fill="midnightblue" stroke="midnightblue" points="481.5,-85.75 478,-75.75 474.5,-85.75 481.5,-85.75"/>
</g>
<!-- Node8&#45;&gt;Node3 -->
<g id="edge10" class="edge">
<title>Node8&#45;&gt;Node3</title>
<path fill="none" stroke="midnightblue" d="M489.09,-56.32C499.49,-48.18 515.26,-35.84 527.72,-26.09"/>
<polygon fill="midnightblue" stroke="midnightblue" points="529.99,-28.75 535.71,-19.83 525.68,-23.24 529.99,-28.75"/>
</g>
<!-- Node9&#45;&gt;Node3 -->
<g id="edge12" class="edge">
<title>Node9&#45;&gt;Node3</title>
<path fill="none" stroke="midnightblue" d="M512.81,-336.49C543.75,-321.05 602,-285.31 602,-235 602,-235 602,-235 602,-121 602,-84.57 577.57,-47.84 561.27,-27.39"/>
<polygon fill="midnightblue" stroke="midnightblue" points="563.95,-25.14 554.88,-19.67 558.56,-29.6 563.95,-25.14"/>
</g>
<!-- Node9&#45;&gt;Node5 -->
<g id="edge16" class="edge">
<title>Node9&#45;&gt;Node5</title>
<path fill="none" stroke="midnightblue" d="M476.78,-336.45C460.06,-327.91 434.17,-314.07 413,-300 361.16,-265.55 304.71,-218.5 276.75,-194.48"/>
<polygon fill="midnightblue" stroke="midnightblue" points="278.89,-191.7 269.03,-187.81 274.31,-196.99 278.89,-191.7"/>
</g>
<!-- Node9&#45;&gt;Node6 -->
<g id="edge15" class="edge">
<title>Node9&#45;&gt;Node6</title>
<path fill="none" stroke="midnightblue" d="M502.14,-336.43C519.63,-316.95 558.16,-267.65 545,-224 534.89,-190.46 509.59,-157.82 493.13,-139.1"/>
<polygon fill="midnightblue" stroke="midnightblue" points="495.59,-136.6 486.28,-131.53 490.39,-141.29 495.59,-136.6"/>
</g>
<!-- Node10 -->
<g id="node10" class="node">
<title>Node10</title>
<g id="a_node10"><a xlink:title=" ">
<polygon fill="white" stroke="#bfbfbf" points="630.5,-280.5 630.5,-299.5 675.5,-299.5 675.5,-280.5 630.5,-280.5"/>
<text text-anchor="middle" x="653" y="-287.5" font-family="Helvetica,sans-Serif" font-size="10.00">WiFi.h</text>
</a>
</g>
</g>
<!-- Node9&#45;&gt;Node10 -->
<g id="edge13" class="edge">
<title>Node9&#45;&gt;Node10</title>
<path fill="none" stroke="midnightblue" d="M519.19,-336.44C546.73,-327.09 590.91,-312.09 620.91,-301.9"/>
<polygon fill="midnightblue" stroke="midnightblue" points="622.15,-305.17 630.49,-298.64 619.9,-298.55 622.15,-305.17"/>
</g>
<!-- Node11 -->
<g id="node11" class="node">
<title>Node11</title>
<g id="a_node11"><a xlink:title=" ">
<polygon fill="white" stroke="#bfbfbf" points="422,-280.5 422,-299.5 466,-299.5 466,-280.5 422,-280.5"/>
<text text-anchor="middle" x="444" y="-287.5" font-family="Helvetica,sans-Serif" font-size="10.00">time.h</text>
</a>
</g>
</g>
<!-- Node9&#45;&gt;Node11 -->
<g id="edge14" class="edge">
<title>Node9&#45;&gt;Node11</title>
<path fill="none" stroke="midnightblue" d="M485.74,-336.08C478.54,-328.3 467.89,-316.8 459.15,-307.37"/>
<polygon fill="midnightblue" stroke="midnightblue" points="461.47,-304.71 452.1,-299.75 456.33,-309.47 461.47,-304.71"/>
</g>
<!-- Node12 -->
<g id="node12" class="node">
<title>Node12</title>
<g id="a_node12"><a xlink:href="_transmission_base_8h.html" target="_top" xlink:title="Transmission base object.">
<polygon fill="white" stroke="black" points="390,-224.5 390,-243.5 536,-243.5 536,-224.5 390,-224.5"/>
<text text-anchor="middle" x="463" y="-231.5" font-family="Helvetica,sans-Serif" font-size="10.00">Transmit/TransmissionBase.h</text>
</a>
</g>
</g>
<!-- Node9&#45;&gt;Node12 -->
<g id="edge17" class="edge">
<title>Node9&#45;&gt;Node12</title>
<path fill="none" stroke="midnightblue" d="M491.57,-336.37C486.54,-318.54 474.92,-277.3 468.15,-253.27"/>
<polygon fill="midnightblue" stroke="midnightblue" points="471.5,-252.27 465.42,-243.59 464.77,-254.17 471.5,-252.27"/>
</g>
<!-- Node13 -->
<g id="node13" class="node">
<title>Node13</title>
<g id="a_node13"><a xlink:href="_data_store_8h.html" target="_top" xlink:title="Local data storage object.">
<polygon fill="white" stroke="black" points="209,-280.5 209,-299.5 277,-299.5 277,-280.5 209,-280.5"/>
<text text-anchor="middle" x="243" y="-287.5" font-family="Helvetica,sans-Serif" font-size="10.00">DataStore.h</text>
</a>
</g>
</g>
<!-- Node9&#45;&gt;Node13 -->
<g id="edge20" class="edge">
<title>Node9&#45;&gt;Node13</title>
<path fill="none" stroke="midnightblue" d="M454.23,-336.44C408.77,-326.66 334.56,-310.7 287.29,-300.53"/>
<polygon fill="midnightblue" stroke="midnightblue" points="287.85,-297.07 277.34,-298.39 286.38,-303.91 287.85,-297.07"/>
</g>
<!-- Node12&#45;&gt;Node5 -->
<g id="edge18" class="edge">
<title>Node12&#45;&gt;Node5</title>
<path fill="none" stroke="midnightblue" d="M430.68,-224.44C395.61,-215.16 339.5,-200.31 301.04,-190.13"/>
<polygon fill="midnightblue" stroke="midnightblue" points="301.74,-186.69 291.17,-187.52 299.94,-193.46 301.74,-186.69"/>
</g>
<!-- Node12&#45;&gt;Node6 -->
<g id="edge19" class="edge">
<title>Node12&#45;&gt;Node6</title>
<path fill="none" stroke="midnightblue" d="M464.18,-224.37C466.6,-206.62 472.18,-165.67 475.46,-141.6"/>
<polygon fill="midnightblue" stroke="midnightblue" points="478.95,-141.97 476.83,-131.59 472.01,-141.03 478.95,-141.97"/>
</g>
<!-- Node13&#45;&gt;Node3 -->
<g id="edge21" class="edge">
<title>Node13&#45;&gt;Node3</title>
<path fill="none" stroke="midnightblue" d="M208.69,-286.08C150.33,-279.04 38,-255.54 38,-179 38,-179 38,-179 38,-121 38,-25.01 388.19,-12.58 507.64,-11.13"/>
<polygon fill="midnightblue" stroke="midnightblue" points="507.84,-14.63 517.81,-11.03 507.77,-7.63 507.84,-14.63"/>
</g>
<!-- Node13&#45;&gt;Node4 -->
<g id="edge22" class="edge">
<title>Node13&#45;&gt;Node4</title>
<path fill="none" stroke="midnightblue" d="M219.5,-280.49C202.15,-273.16 179.03,-261.05 164,-244 137.29,-213.7 123.57,-167.16 117.68,-141.53"/>
<polygon fill="midnightblue" stroke="midnightblue" points="121.07,-140.69 115.56,-131.64 114.23,-142.15 121.07,-140.69"/>
</g>
<!-- Node13&#45;&gt;Node5 -->
<g id="edge26" class="edge">
<title>Node13&#45;&gt;Node5</title>
<path fill="none" stroke="midnightblue" d="M219.8,-280.33C193.81,-269.21 157.14,-248.41 172,-224 181.46,-208.46 198.21,-198.05 214.5,-191.19"/>
<polygon fill="midnightblue" stroke="midnightblue" points="215.9,-194.4 223.99,-187.55 213.4,-187.87 215.9,-194.4"/>
</g>
<!-- Node13&#45;&gt;Node6 -->
<g id="edge25" class="edge">
<title>Node13&#45;&gt;Node6</title>
<path fill="none" stroke="midnightblue" d="M255.3,-280.31C293.45,-253.36 410.03,-171.01 457.53,-137.46"/>
<polygon fill="midnightblue" stroke="midnightblue" points="459.67,-140.23 465.82,-131.61 455.63,-134.52 459.67,-140.23"/>
</g>
<!-- Node13&#45;&gt;Node12 -->
<g id="edge27" class="edge">
<title>Node13&#45;&gt;Node12</title>
<path fill="none" stroke="midnightblue" d="M277.38,-280.56C315.33,-271.25 376.58,-256.21 418.25,-245.98"/>
<polygon fill="midnightblue" stroke="midnightblue" points="419.26,-249.34 428.14,-243.56 417.59,-242.54 419.26,-249.34"/>
</g>
<!-- Node14 -->
<g id="node14" class="node">
<title>Node14</title>
<g id="a_node14"><a xlink:title=" ">
<polygon fill="white" stroke="#bfbfbf" points="258,-224.5 258,-243.5 296,-243.5 296,-224.5 258,-224.5"/>
<text text-anchor="middle" x="277" y="-231.5" font-family="Helvetica,sans-Serif" font-size="10.00">FS.h</text>
</a>
</g>
</g>
<!-- Node13&#45;&gt;Node14 -->
<g id="edge23" class="edge">
<title>Node13&#45;&gt;Node14</title>
<path fill="none" stroke="midnightblue" d="M248.61,-280.08C253.37,-272.53 260.32,-261.49 266.15,-252.23"/>
<polygon fill="midnightblue" stroke="midnightblue" points="269.12,-254.08 271.49,-243.75 263.2,-250.35 269.12,-254.08"/>
</g>
<!-- Node15 -->
<g id="node15" class="node">
<title>Node15</title>
<g id="a_node15"><a xlink:title=" ">
<polygon fill="white" stroke="#bfbfbf" points="180.5,-224.5 180.5,-243.5 239.5,-243.5 239.5,-224.5 180.5,-224.5"/>
<text text-anchor="middle" x="210" y="-231.5" font-family="Helvetica,sans-Serif" font-size="10.00">SPIFFS.h</text>
</a>
</g>
</g>
<!-- Node13&#45;&gt;Node15 -->
<g id="edge24" class="edge">
<title>Node13&#45;&gt;Node15</title>
<path fill="none" stroke="midnightblue" d="M237.55,-280.08C232.99,-272.61 226.33,-261.72 220.71,-252.52"/>
<polygon fill="midnightblue" stroke="midnightblue" points="223.55,-250.46 215.35,-243.75 217.58,-254.11 223.55,-250.46"/>
</g>
<!-- Node16&#45;&gt;Node3 -->
<g id="edge29" class="edge">
<title>Node16&#45;&gt;Node3</title>
<path fill="none" stroke="midnightblue" d="M685.36,-168.2C676.23,-146.92 650.59,-91.83 616,-56 603.73,-43.29 587.24,-32.37 573.46,-24.47"/>
<polygon fill="midnightblue" stroke="midnightblue" points="574.88,-21.26 564.43,-19.5 571.5,-27.39 574.88,-21.26"/>
</g>
<!-- Node16&#45;&gt;Node6 -->
<g id="edge30" class="edge">
<title>Node16&#45;&gt;Node6</title>
<path fill="none" stroke="midnightblue" d="M655.57,-168.44C619.14,-159.12 560.77,-144.18 520.97,-134"/>
<polygon fill="midnightblue" stroke="midnightblue" points="521.83,-130.61 511.28,-131.52 520.1,-137.39 521.83,-130.61"/>
</g>
</g>
</svg>
        <g id="navigator" transform="translate(0 0)" fill="#404254">
                <rect fill="#f2f5e9" fill-opacity="0.5" stroke="#606060" stroke-width=".5" x="0" y="0" width="60" height="60"/>
                <use id="zoomplus" xlink:href="#zoomPlus" x="17" y="9" onmousedown="handleZoom(evt,'in')"/>
                <use id="zoomminus" xlink:href="#zoomMin" x="42" y="9" onmousedown="handleZoom(evt,'out')"/>
                <use id="reset" xlink:href="#resetDef" x="30" y="36" onmousedown="handleReset()"/>
                <g id="arrowUp" xlink:href="#dirArrow" transform="translate(30 24)" onmousedown="handlePan(0,-1)">
                  <use xlink:href="#rim" fill="#404040">
                        <set attributeName="fill" to="#808080" begin="arrowUp.mouseover" end="arrowUp.mouseout"/>
                  </use>
                  <path fill="none" stroke="white" stroke-width="1.5" d="M0,-3.0v7 M-2.5,-0.5L0,-3.0L2.5,-0.5"/>
                </g>
                <g id="arrowRight" xlink:href="#dirArrow" transform="rotate(90) translate(36 -43)" onmousedown="handlePan(1,0)">
                  <use xlink:href="#rim" fill="#404040">
                        <set attributeName="fill" to="#808080" begin="arrowRight.mouseover" end="arrowRight.mouseout"/>
                  </use>
                  <path fill="none" stroke="white" stroke-width="1.5" d="M0,-3.0v7 M-2.5,-0.5L0,-3.0L2.5,-0.5"/>
                </g>
                <g id="arrowDown" xlink:href="#dirArrow" transform="rotate(180) translate(-30 -48)" onmousedown="handlePan(0,1)">
                  <use xlink:href="#rim" fill="#404040">
                        <set attributeName="fill" to="#808080" begin="arrowDown.mouseover" end="arrowDown.mouseout"/>
                  </use>
                  <path fill="none" stroke="white" stroke-width="1.5" d="M0,-3.0v7 M-2.5,-0.5L0,-3.0L2.5,-0.5"/>
                </g>
                <g id="arrowLeft" xlink:href="#dirArrow" transform="rotate(270) translate(-36 17)" onmousedown="handlePan(-1,0)">
                  <use xlink:href="#rim" fill="#404040">
                        <set attributeName="fill" to="#808080" begin="arrowLeft.mouseover" end="arrowLeft.mouseout"/>
                  </use>
                  <path fill="none" stroke="white" stroke-width="1.5" d="M0,-3.0v7 M-2.5,-0.5L0,-3.0L2.5,-0.5"/>
                </g>
        </g>
        <svg viewBox="0 0 15 15" width="100%" height="30px" preserveAspectRatio="xMaxYMin meet">
         <g id="arrow_out" transform="scale(0.3 0.3)">
          <a xlink:href="_measurement_controller_8cpp__incl_org.svg" target="_base">
           <rect id="button" ry="5" rx="5" y="6" x="6" height="38" width="38"
                fill="#f2f5e9" fill-opacity="0.5" stroke="#606060" stroke-width="1.0"/>
           <path id="arrow"
             d="M 11.500037,31.436501 C 11.940474,20.09759 22.043105,11.32322 32.158766,21.979434 L 37.068811,17.246167 C 37.068811,17.246167 37.088388,32 37.088388,32 L 22.160133,31.978069 C 22.160133,31.978069 26.997745,27.140456 26.997745,27.140456 C 18.528582,18.264221 13.291696,25.230495 11.500037,31.436501 z"
             style="fill:#404040;"/>
          </a>
         </g>
        </svg>
</svg>
