<?xml version="1.0" encoding="UTF-8" standalone="no"?>
<!DOCTYPE svg PUBLIC "-//W3C//DTD SVG 1.1//EN"
 "http://www.w3.org/Graphics/SVG/1.1/DTD/svg11.dtd">
<!-- Generated by graphviz version 4.0.0 (20220529.0937)
 -->
<!-- Title: D:/OneDrive &#45; Avans Hogeschool/Minor/PRO Smart Roofs/Software/GreenRoof_Base/src/Sensors/MoistureSensor.cpp Pages: 1 -->
<svg width="233pt" height="352pt"
 viewBox="0.00 0.00 233.00 352.00" xmlns="http://www.w3.org/2000/svg" xmlns:xlink="http://www.w3.org/1999/xlink">
<g id="graph0" class="graph" transform="scale(1 1) rotate(0) translate(4 348)">
<title>D:/OneDrive &#45; Avans Hogeschool/Minor/PRO Smart Roofs/Software/GreenRoof_Base/src/Sensors/MoistureSensor.cpp</title>
<polygon fill="white" stroke="transparent" points="-4,4 -4,-348 229,-348 229,4 -4,4"/>
<!-- Node1 -->
<g id="node1" class="node">
<title>Node1</title>
<g id="a_node1"><a xlink:title="Moisture sensor class.">
<polygon fill="#bfbfbf" stroke="black" points="0,-280.5 0,-343.5 149,-343.5 149,-280.5 0,-280.5"/>
<text text-anchor="start" x="8" y="-331.5" font-family="Helvetica,sans-Serif" font-size="10.00">D:/OneDrive &#45; Avans</text>
<text text-anchor="start" x="8" y="-320.5" font-family="Helvetica,sans-Serif" font-size="10.00"> Hogeschool/Minor/PRO</text>
<text text-anchor="start" x="8" y="-309.5" font-family="Helvetica,sans-Serif" font-size="10.00"> Smart Roofs/Software</text>
<text text-anchor="start" x="8" y="-298.5" font-family="Helvetica,sans-Serif" font-size="10.00">/GreenRoof_Base/src/Sensors</text>
<text text-anchor="middle" x="74.5" y="-287.5" font-family="Helvetica,sans-Serif" font-size="10.00">/MoistureSensor.cpp</text>
</a>
</g>
</g>
<!-- Node2 -->
<g id="node2" class="node">
<title>Node2</title>
<g id="a_node2"><a xlink:href="_moisture_sensor_8h.html" target="_top" xlink:title="Moisture sensor class.">
<polygon fill="white" stroke="black" points="8.5,-224.5 8.5,-243.5 140.5,-243.5 140.5,-224.5 8.5,-224.5"/>
<text text-anchor="middle" x="74.5" y="-231.5" font-family="Helvetica,sans-Serif" font-size="10.00">Sensors/MoistureSensor.h</text>
</a>
</g>
</g>
<!-- Node1&#45;&gt;Node2 -->
<g id="edge1" class="edge">
<title>Node1&#45;&gt;Node2</title>
<path fill="none" stroke="midnightblue" d="M74.5,-280.09C74.5,-271.15 74.5,-261.67 74.5,-253.72"/>
<polygon fill="midnightblue" stroke="midnightblue" points="78,-253.72 74.5,-243.72 71,-253.72 78,-253.72"/>
</g>
<!-- Node3 -->
<g id="node3" class="node">
<title>Node3</title>
<g id="a_node3"><a xlink:title=" ">
<polygon fill="white" stroke="#bfbfbf" points="50.5,-0.5 50.5,-19.5 108.5,-19.5 108.5,-0.5 50.5,-0.5"/>
<text text-anchor="middle" x="79.5" y="-7.5" font-family="Helvetica,sans-Serif" font-size="10.00">Arduino.h</text>
</a>
</g>
</g>
<!-- Node2&#45;&gt;Node3 -->
<g id="edge2" class="edge">
<title>Node2&#45;&gt;Node3</title>
<path fill="none" stroke="midnightblue" d="M70.9,-224.22C67.44,-215.28 62.47,-200.94 60.5,-188 51.74,-130.33 66.22,-61.48 74.44,-29.29"/>
<polygon fill="midnightblue" stroke="midnightblue" points="77.85,-30.07 77.04,-19.51 71.09,-28.28 77.85,-30.07"/>
</g>
<!-- Node4 -->
<g id="node4" class="node">
<title>Node4</title>
<g id="a_node4"><a xlink:href="_sensor_base_8h.html" target="_top" xlink:title="Sensor base object Interface.">
<polygon fill="white" stroke="black" points="69.5,-168.5 69.5,-187.5 147.5,-187.5 147.5,-168.5 69.5,-168.5"/>
<text text-anchor="middle" x="108.5" y="-175.5" font-family="Helvetica,sans-Serif" font-size="10.00">SensorBase.h</text>
</a>
</g>
</g>
<!-- Node2&#45;&gt;Node4 -->
<g id="edge3" class="edge">
<title>Node2&#45;&gt;Node4</title>
<path fill="none" stroke="midnightblue" d="M80.11,-224.08C84.87,-216.53 91.82,-205.49 97.65,-196.23"/>
<polygon fill="midnightblue" stroke="midnightblue" points="100.62,-198.08 102.99,-187.75 94.7,-194.35 100.62,-198.08"/>
</g>
<!-- Node4&#45;&gt;Node3 -->
<g id="edge4" class="edge">
<title>Node4&#45;&gt;Node3</title>
<path fill="none" stroke="midnightblue" d="M106.42,-168.41C104.28,-159.38 100.91,-144.74 98.5,-132 91.66,-95.91 85.4,-53.43 82.05,-29.62"/>
<polygon fill="midnightblue" stroke="midnightblue" points="85.5,-28.96 80.65,-19.54 78.56,-29.93 85.5,-28.96"/>
</g>
<!-- Node5 -->
<g id="node5" class="node">
<title>Node5</title>
<g id="a_node5"><a xlink:href="config_8h.html" target="_top" xlink:title="System configuration.">
<polygon fill="white" stroke="black" points="108,-112.5 108,-131.5 197,-131.5 197,-112.5 108,-112.5"/>
<text text-anchor="middle" x="152.5" y="-119.5" font-family="Helvetica,sans-Serif" font-size="10.00">Settings/config.h</text>
</a>
</g>
</g>
<!-- Node4&#45;&gt;Node5 -->
<g id="edge5" class="edge">
<title>Node4&#45;&gt;Node5</title>
<path fill="none" stroke="midnightblue" d="M115.77,-168.08C122.04,-160.38 131.29,-149.03 138.93,-139.65"/>
<polygon fill="midnightblue" stroke="midnightblue" points="141.77,-141.71 145.37,-131.75 136.34,-137.29 141.77,-141.71"/>
</g>
<!-- Node6 -->
<g id="node6" class="node">
<title>Node6</title>
<g id="a_node6"><a xlink:href="keys_8h.html" target="_top" xlink:title="Security keys.">
<polygon fill="white" stroke="black" points="107.5,-56.5 107.5,-75.5 153.5,-75.5 153.5,-56.5 107.5,-56.5"/>
<text text-anchor="middle" x="130.5" y="-63.5" font-family="Helvetica,sans-Serif" font-size="10.00">keys.h</text>
</a>
</g>
</g>
<!-- Node5&#45;&gt;Node6 -->
<g id="edge6" class="edge">
<title>Node5&#45;&gt;Node6</title>
<path fill="none" stroke="midnightblue" d="M148.87,-112.08C145.89,-104.77 141.57,-94.18 137.88,-85.1"/>
<polygon fill="midnightblue" stroke="midnightblue" points="141.08,-83.69 134.07,-75.75 134.6,-86.33 141.08,-83.69"/>
</g>
<!-- Node7 -->
<g id="node7" class="node">
<title>Node7</title>
<g id="a_node7"><a xlink:href="_debug_8h.html" target="_top" xlink:title=" ">
<polygon fill="white" stroke="black" points="172,-56.5 172,-75.5 225,-75.5 225,-56.5 172,-56.5"/>
<text text-anchor="middle" x="198.5" y="-63.5" font-family="Helvetica,sans-Serif" font-size="10.00">Debug.h</text>
</a>
</g>
</g>
<!-- Node5&#45;&gt;Node7 -->
<g id="edge7" class="edge">
<title>Node5&#45;&gt;Node7</title>
<path fill="none" stroke="midnightblue" d="M160.1,-112.08C166.73,-104.3 176.52,-92.8 184.56,-83.37"/>
<polygon fill="midnightblue" stroke="midnightblue" points="187.23,-85.63 191.05,-75.75 181.9,-81.09 187.23,-85.63"/>
</g>
<!-- Node7&#45;&gt;Node3 -->
<g id="edge8" class="edge">
<title>Node7&#45;&gt;Node3</title>
<path fill="none" stroke="midnightblue" d="M179.64,-56.44C160.23,-47.64 129.77,-33.81 107.54,-23.72"/>
<polygon fill="midnightblue" stroke="midnightblue" points="108.82,-20.46 98.27,-19.52 105.93,-26.84 108.82,-20.46"/>
</g>
</g>
</svg>
