<?xml version="1.0" encoding="UTF-8" standalone="no"?>
<!DOCTYPE svg PUBLIC "-//W3C//DTD SVG 1.1//EN"
 "http://www.w3.org/Graphics/SVG/1.1/DTD/svg11.dtd">
<!-- Generated by graphviz version 4.0.0 (20220529.0937)
 -->
<!-- Title: D:/OneDrive &#45; Avans Hogeschool/Minor/PRO Smart Roofs/Software/GreenRoof_Base/include/Sensors/MoistureSensor.h Pages: 1 -->
<svg width="226pt" height="296pt"
 viewBox="0.00 0.00 226.00 296.00" xmlns="http://www.w3.org/2000/svg" xmlns:xlink="http://www.w3.org/1999/xlink">
<g id="graph0" class="graph" transform="scale(1 1) rotate(0) translate(4 292)">
<title>D:/OneDrive &#45; Avans Hogeschool/Minor/PRO Smart Roofs/Software/GreenRoof_Base/include/Sensors/MoistureSensor.h</title>
<polygon fill="white" stroke="transparent" points="-4,4 -4,-292 222,-292 222,4 -4,4"/>
<!-- Node1 -->
<g id="node1" class="node">
<title>Node1</title>
<g id="a_node1"><a xlink:title="Moisture sensor class.">
<polygon fill="#bfbfbf" stroke="black" points="0,-224.5 0,-287.5 135,-287.5 135,-224.5 0,-224.5"/>
<text text-anchor="start" x="8" y="-275.5" font-family="Helvetica,sans-Serif" font-size="10.00">D:/OneDrive &#45; Avans</text>
<text text-anchor="start" x="8" y="-264.5" font-family="Helvetica,sans-Serif" font-size="10.00"> Hogeschool/Minor/PRO</text>
<text text-anchor="start" x="8" y="-253.5" font-family="Helvetica,sans-Serif" font-size="10.00"> Smart Roofs/Software</text>
<text text-anchor="start" x="8" y="-242.5" font-family="Helvetica,sans-Serif" font-size="10.00">/GreenRoof_Base/include</text>
<text text-anchor="middle" x="67.5" y="-231.5" font-family="Helvetica,sans-Serif" font-size="10.00">/Sensors/MoistureSensor.h</text>
</a>
</g>
</g>
<!-- Node2 -->
<g id="node2" class="node">
<title>Node2</title>
<g id="a_node2"><a xlink:title=" ">
<polygon fill="white" stroke="#bfbfbf" points="43.5,-0.5 43.5,-19.5 101.5,-19.5 101.5,-0.5 43.5,-0.5"/>
<text text-anchor="middle" x="72.5" y="-7.5" font-family="Helvetica,sans-Serif" font-size="10.00">Arduino.h</text>
</a>
</g>
</g>
<!-- Node1&#45;&gt;Node2 -->
<g id="edge1" class="edge">
<title>Node1&#45;&gt;Node2</title>
<path fill="none" stroke="midnightblue" d="M59.68,-224.19C57.17,-212.89 54.73,-199.94 53.5,-188 47.53,-130.25 60.55,-61.95 67.91,-29.67"/>
<polygon fill="midnightblue" stroke="midnightblue" points="71.34,-30.37 70.23,-19.84 64.53,-28.76 71.34,-30.37"/>
</g>
<!-- Node3 -->
<g id="node3" class="node">
<title>Node3</title>
<g id="a_node3"><a xlink:href="_sensor_base_8h.html" target="_top" xlink:title="Sensor base object Interface.">
<polygon fill="white" stroke="black" points="62.5,-168.5 62.5,-187.5 140.5,-187.5 140.5,-168.5 62.5,-168.5"/>
<text text-anchor="middle" x="101.5" y="-175.5" font-family="Helvetica,sans-Serif" font-size="10.00">SensorBase.h</text>
</a>
</g>
</g>
<!-- Node1&#45;&gt;Node3 -->
<g id="edge2" class="edge">
<title>Node1&#45;&gt;Node3</title>
<path fill="none" stroke="midnightblue" d="M81.33,-224.09C85.47,-214.84 89.86,-205.01 93.49,-196.9"/>
<polygon fill="midnightblue" stroke="midnightblue" points="96.71,-198.28 97.6,-187.72 90.32,-195.42 96.71,-198.28"/>
</g>
<!-- Node3&#45;&gt;Node2 -->
<g id="edge3" class="edge">
<title>Node3&#45;&gt;Node2</title>
<path fill="none" stroke="midnightblue" d="M99.42,-168.41C97.28,-159.38 93.91,-144.74 91.5,-132 84.66,-95.91 78.4,-53.43 75.05,-29.62"/>
<polygon fill="midnightblue" stroke="midnightblue" points="78.5,-28.96 73.65,-19.54 71.56,-29.93 78.5,-28.96"/>
</g>
<!-- Node4 -->
<g id="node4" class="node">
<title>Node4</title>
<g id="a_node4"><a xlink:href="config_8h.html" target="_top" xlink:title="System configuration.">
<polygon fill="white" stroke="black" points="101,-112.5 101,-131.5 190,-131.5 190,-112.5 101,-112.5"/>
<text text-anchor="middle" x="145.5" y="-119.5" font-family="Helvetica,sans-Serif" font-size="10.00">Settings/config.h</text>
</a>
</g>
</g>
<!-- Node3&#45;&gt;Node4 -->
<g id="edge4" class="edge">
<title>Node3&#45;&gt;Node4</title>
<path fill="none" stroke="midnightblue" d="M108.77,-168.08C115.04,-160.38 124.29,-149.03 131.93,-139.65"/>
<polygon fill="midnightblue" stroke="midnightblue" points="134.77,-141.71 138.37,-131.75 129.34,-137.29 134.77,-141.71"/>
</g>
<!-- Node5 -->
<g id="node5" class="node">
<title>Node5</title>
<g id="a_node5"><a xlink:href="keys_8h.html" target="_top" xlink:title="Security keys.">
<polygon fill="white" stroke="black" points="100.5,-56.5 100.5,-75.5 146.5,-75.5 146.5,-56.5 100.5,-56.5"/>
<text text-anchor="middle" x="123.5" y="-63.5" font-family="Helvetica,sans-Serif" font-size="10.00">keys.h</text>
</a>
</g>
</g>
<!-- Node4&#45;&gt;Node5 -->
<g id="edge5" class="edge">
<title>Node4&#45;&gt;Node5</title>
<path fill="none" stroke="midnightblue" d="M141.87,-112.08C138.89,-104.77 134.57,-94.18 130.88,-85.1"/>
<polygon fill="midnightblue" stroke="midnightblue" points="134.08,-83.69 127.07,-75.75 127.6,-86.33 134.08,-83.69"/>
</g>
<!-- Node6 -->
<g id="node6" class="node">
<title>Node6</title>
<g id="a_node6"><a xlink:href="_debug_8h.html" target="_top" xlink:title=" ">
<polygon fill="white" stroke="black" points="165,-56.5 165,-75.5 218,-75.5 218,-56.5 165,-56.5"/>
<text text-anchor="middle" x="191.5" y="-63.5" font-family="Helvetica,sans-Serif" font-size="10.00">Debug.h</text>
</a>
</g>
</g>
<!-- Node4&#45;&gt;Node6 -->
<g id="edge6" class="edge">
<title>Node4&#45;&gt;Node6</title>
<path fill="none" stroke="midnightblue" d="M153.1,-112.08C159.73,-104.3 169.52,-92.8 177.56,-83.37"/>
<polygon fill="midnightblue" stroke="midnightblue" points="180.23,-85.63 184.05,-75.75 174.9,-81.09 180.23,-85.63"/>
</g>
<!-- Node6&#45;&gt;Node2 -->
<g id="edge7" class="edge">
<title>Node6&#45;&gt;Node2</title>
<path fill="none" stroke="midnightblue" d="M172.64,-56.44C153.23,-47.64 122.77,-33.81 100.54,-23.72"/>
<polygon fill="midnightblue" stroke="midnightblue" points="101.82,-20.46 91.27,-19.52 98.93,-26.84 101.82,-20.46"/>
</g>
</g>
</svg>
