<?xml version="1.0" encoding="UTF-8" standalone="no"?>
<!DOCTYPE svg PUBLIC "-//W3C//DTD SVG 1.1//EN"
 "http://www.w3.org/Graphics/SVG/1.1/DTD/svg11.dtd">
<!-- Generated by graphviz version 4.0.0 (20220529.0937)
 -->
<!-- Title: D:/OneDrive &#45; Avans Hogeschool/Minor/PRO Smart Roofs/Software/GreenRoof_Base/include/Sensors/Com/OneWireTemperatureBus.h Pages: 1 -->
<svg width="441pt" height="272pt"
 viewBox="0.00 0.00 440.50 272.00" xmlns="http://www.w3.org/2000/svg" xmlns:xlink="http://www.w3.org/1999/xlink">
<g id="graph0" class="graph" transform="scale(1 1) rotate(0) translate(4 268)">
<title>D:/OneDrive &#45; Avans Hogeschool/Minor/PRO Smart Roofs/Software/GreenRoof_Base/include/Sensors/Com/OneWireTemperatureBus.h</title>
<polygon fill="white" stroke="transparent" points="-4,4 -4,-268 436.5,-268 436.5,4 -4,4"/>
<!-- Node1 -->
<g id="node1" class="node">
<title>Node1</title>
<g id="a_node1"><a xlink:title="Class for shared bus instance of temperature bus.">
<polygon fill="#bfbfbf" stroke="black" points="74,-200.5 74,-263.5 274,-263.5 274,-200.5 74,-200.5"/>
<text text-anchor="start" x="82" y="-251.5" font-family="Helvetica,sans-Serif" font-size="10.00">D:/OneDrive &#45; Avans</text>
<text text-anchor="start" x="82" y="-240.5" font-family="Helvetica,sans-Serif" font-size="10.00"> Hogeschool/Minor/PRO</text>
<text text-anchor="start" x="82" y="-229.5" font-family="Helvetica,sans-Serif" font-size="10.00"> Smart Roofs/Software</text>
<text text-anchor="start" x="82" y="-218.5" font-family="Helvetica,sans-Serif" font-size="10.00">/GreenRoof_Base/include</text>
<text text-anchor="middle" x="174" y="-207.5" font-family="Helvetica,sans-Serif" font-size="10.00">/Sensors/Com/OneWireTemperatureBus.h</text>
</a>
</g>
</g>
<!-- Node2 -->
<g id="node2" class="node">
<title>Node2</title>
<g id="a_node2"><a xlink:href="_d_s18_b20_sensor_8h.html" target="_top" xlink:title=" ">
<polygon fill="white" stroke="black" points="104.5,-100.5 104.5,-163.5 243.5,-163.5 243.5,-100.5 104.5,-100.5"/>
<text text-anchor="start" x="112.5" y="-151.5" font-family="Helvetica,sans-Serif" font-size="10.00">D:/OneDrive &#45; Avans</text>
<text text-anchor="start" x="112.5" y="-140.5" font-family="Helvetica,sans-Serif" font-size="10.00"> Hogeschool/Minor/PRO</text>
<text text-anchor="start" x="112.5" y="-129.5" font-family="Helvetica,sans-Serif" font-size="10.00"> Smart Roofs/Software</text>
<text text-anchor="start" x="112.5" y="-118.5" font-family="Helvetica,sans-Serif" font-size="10.00">/GreenRoof_Base/include</text>
<text text-anchor="middle" x="174" y="-107.5" font-family="Helvetica,sans-Serif" font-size="10.00">/Sensors/DS18B20Sensor.h</text>
</a>
</g>
</g>
<!-- Node1&#45;&gt;Node2 -->
<g id="edge1" class="edge">
<title>Node1&#45;&gt;Node2</title>
<path fill="none" stroke="midnightblue" d="M174,-190.1C174,-181.24 174,-172.01 174,-163.63"/>
<polygon fill="midnightblue" stroke="midnightblue" points="170.5,-190.26 174,-200.26 177.5,-190.26 170.5,-190.26"/>
</g>
<!-- Node3 -->
<g id="node3" class="node">
<title>Node3</title>
<g id="a_node3"><a xlink:href="main_8cpp.html" target="_top" xlink:title="Main runnable.">
<polygon fill="white" stroke="black" points="0,-6 0,-58 152,-58 152,-6 0,-6"/>
<text text-anchor="start" x="8" y="-46" font-family="Helvetica,sans-Serif" font-size="10.00">D:/OneDrive &#45; Avans</text>
<text text-anchor="start" x="8" y="-35" font-family="Helvetica,sans-Serif" font-size="10.00"> Hogeschool/Minor/PRO</text>
<text text-anchor="start" x="8" y="-24" font-family="Helvetica,sans-Serif" font-size="10.00"> Smart Roofs/Software</text>
<text text-anchor="middle" x="76" y="-13" font-family="Helvetica,sans-Serif" font-size="10.00">/GreenRoof_Base/src/main.cpp</text>
</a>
</g>
</g>
<!-- Node1&#45;&gt;Node3 -->
<g id="edge4" class="edge">
<title>Node1&#45;&gt;Node3</title>
<path fill="none" stroke="midnightblue" d="M118.92,-193.52C109.63,-184.85 101.05,-174.92 95,-164 76.58,-130.73 74.03,-85.72 74.54,-58.06"/>
<polygon fill="midnightblue" stroke="midnightblue" points="116.68,-196.21 126.49,-200.2 121.31,-190.96 116.68,-196.21"/>
</g>
<!-- Node5 -->
<g id="node5" class="node">
<title>Node5</title>
<g id="a_node5"><a xlink:href="_one_wire_temperature_bus_8cpp.html" target="_top" xlink:title="Class for shared bus instance of temperature bus.">
<polygon fill="white" stroke="black" points="261.5,-100.5 261.5,-163.5 432.5,-163.5 432.5,-100.5 261.5,-100.5"/>
<text text-anchor="start" x="269.5" y="-151.5" font-family="Helvetica,sans-Serif" font-size="10.00">D:/OneDrive &#45; Avans</text>
<text text-anchor="start" x="269.5" y="-140.5" font-family="Helvetica,sans-Serif" font-size="10.00"> Hogeschool/Minor/PRO</text>
<text text-anchor="start" x="269.5" y="-129.5" font-family="Helvetica,sans-Serif" font-size="10.00"> Smart Roofs/Software</text>
<text text-anchor="start" x="269.5" y="-118.5" font-family="Helvetica,sans-Serif" font-size="10.00">/GreenRoof_Base/src/Sensors</text>
<text text-anchor="middle" x="347" y="-107.5" font-family="Helvetica,sans-Serif" font-size="10.00">/Com/OneWireTemperatureBus.cpp</text>
</a>
</g>
</g>
<!-- Node1&#45;&gt;Node5 -->
<g id="edge5" class="edge">
<title>Node1&#45;&gt;Node5</title>
<path fill="none" stroke="midnightblue" d="M237.11,-195.25C255.42,-184.88 275.23,-173.65 292.93,-163.63"/>
<polygon fill="midnightblue" stroke="midnightblue" points="235.24,-192.29 228.26,-200.26 238.69,-198.38 235.24,-192.29"/>
</g>
<!-- Node2&#45;&gt;Node3 -->
<g id="edge2" class="edge">
<title>Node2&#45;&gt;Node3</title>
<path fill="none" stroke="midnightblue" d="M136.09,-93.09C124.34,-81.34 111.7,-68.7 101.05,-58.05"/>
<polygon fill="midnightblue" stroke="midnightblue" points="133.72,-95.66 143.26,-100.26 138.66,-90.72 133.72,-95.66"/>
</g>
<!-- Node4 -->
<g id="node4" class="node">
<title>Node4</title>
<g id="a_node4"><a xlink:href="_d_s18_b20_sensor_8cpp.html" target="_top" xlink:title="Temperature sensor class.">
<polygon fill="white" stroke="black" points="170.5,-0.5 170.5,-63.5 319.5,-63.5 319.5,-0.5 170.5,-0.5"/>
<text text-anchor="start" x="178.5" y="-51.5" font-family="Helvetica,sans-Serif" font-size="10.00">D:/OneDrive &#45; Avans</text>
<text text-anchor="start" x="178.5" y="-40.5" font-family="Helvetica,sans-Serif" font-size="10.00"> Hogeschool/Minor/PRO</text>
<text text-anchor="start" x="178.5" y="-29.5" font-family="Helvetica,sans-Serif" font-size="10.00"> Smart Roofs/Software</text>
<text text-anchor="start" x="178.5" y="-18.5" font-family="Helvetica,sans-Serif" font-size="10.00">/GreenRoof_Base/src/Sensors</text>
<text text-anchor="middle" x="245" y="-7.5" font-family="Helvetica,sans-Serif" font-size="10.00">/DS18B20Sensor.cpp</text>
</a>
</g>
</g>
<!-- Node2&#45;&gt;Node4 -->
<g id="edge3" class="edge">
<title>Node2&#45;&gt;Node4</title>
<path fill="none" stroke="midnightblue" d="M202.17,-92.11C209.03,-82.65 216.27,-72.65 222.81,-63.63"/>
<polygon fill="midnightblue" stroke="midnightblue" points="199.3,-90.11 196.27,-100.26 204.97,-94.22 199.3,-90.11"/>
</g>
</g>
</svg>
