<?xml version="1.0" encoding="UTF-8" standalone="no"?>
<!DOCTYPE svg PUBLIC "-//W3C//DTD SVG 1.1//EN"
 "http://www.w3.org/Graphics/SVG/1.1/DTD/svg11.dtd">
<!-- Generated by graphviz version 4.0.0 (20220529.0937)
 -->
<!-- Title: D:/OneDrive &#45; Avans Hogeschool/Minor/PRO Smart Roofs/Software/GreenRoof_Base/include/Sensors/Com/OneWireTemperatureBus.h Pages: 1 -->
<svg width="321pt" height="240pt"
 viewBox="0.00 0.00 320.50 240.00" xmlns="http://www.w3.org/2000/svg" xmlns:xlink="http://www.w3.org/1999/xlink">
<g id="graph0" class="graph" transform="scale(1 1) rotate(0) translate(4 236)">
<title>D:/OneDrive &#45; Avans Hogeschool/Minor/PRO Smart Roofs/Software/GreenRoof_Base/include/Sensors/Com/OneWireTemperatureBus.h</title>
<polygon fill="white" stroke="transparent" points="-4,4 -4,-236 316.5,-236 316.5,4 -4,4"/>
<!-- Node1 -->
<g id="node1" class="node">
<title>Node1</title>
<g id="a_node1"><a xlink:title="Class for shared bus instance of temperature bus.">
<polygon fill="#bfbfbf" stroke="black" points="0,-168.5 0,-231.5 200,-231.5 200,-168.5 0,-168.5"/>
<text text-anchor="start" x="8" y="-219.5" font-family="Helvetica,sans-Serif" font-size="10.00">D:/OneDrive &#45; Avans</text>
<text text-anchor="start" x="8" y="-208.5" font-family="Helvetica,sans-Serif" font-size="10.00"> Hogeschool/Minor/PRO</text>
<text text-anchor="start" x="8" y="-197.5" font-family="Helvetica,sans-Serif" font-size="10.00"> Smart Roofs/Software</text>
<text text-anchor="start" x="8" y="-186.5" font-family="Helvetica,sans-Serif" font-size="10.00">/GreenRoof_Base/include</text>
<text text-anchor="middle" x="100" y="-175.5" font-family="Helvetica,sans-Serif" font-size="10.00">/Sensors/Com/OneWireTemperatureBus.h</text>
</a>
</g>
</g>
<!-- Node2 -->
<g id="node2" class="node">
<title>Node2</title>
<g id="a_node2"><a xlink:title=" ">
<polygon fill="white" stroke="#bfbfbf" points="99,-0.5 99,-19.5 157,-19.5 157,-0.5 99,-0.5"/>
<text text-anchor="middle" x="128" y="-7.5" font-family="Helvetica,sans-Serif" font-size="10.00">Arduino.h</text>
</a>
</g>
</g>
<!-- Node1&#45;&gt;Node2 -->
<g id="edge1" class="edge">
<title>Node1&#45;&gt;Node2</title>
<path fill="none" stroke="midnightblue" d="M35.27,-168.38C13.78,-153.59 -2.34,-134.22 8,-112 27.08,-71.01 71.88,-40.71 101.02,-24.47"/>
<polygon fill="midnightblue" stroke="midnightblue" points="102.74,-27.52 109.88,-19.69 99.42,-21.36 102.74,-27.52"/>
</g>
<!-- Node3 -->
<g id="node3" class="node">
<title>Node3</title>
<g id="a_node3"><a xlink:title=" ">
<polygon fill="white" stroke="#bfbfbf" points="17.5,-112.5 17.5,-131.5 80.5,-131.5 80.5,-112.5 17.5,-112.5"/>
<text text-anchor="middle" x="49" y="-119.5" font-family="Helvetica,sans-Serif" font-size="10.00">OneWire.h</text>
</a>
</g>
</g>
<!-- Node1&#45;&gt;Node3 -->
<g id="edge2" class="edge">
<title>Node1&#45;&gt;Node3</title>
<path fill="none" stroke="midnightblue" d="M79.26,-168.09C72.84,-158.53 66.02,-148.36 60.47,-140.1"/>
<polygon fill="midnightblue" stroke="midnightblue" points="63.33,-138.07 54.85,-131.72 57.52,-141.97 63.33,-138.07"/>
</g>
<!-- Node4 -->
<g id="node4" class="node">
<title>Node4</title>
<g id="a_node4"><a xlink:title=" ">
<polygon fill="white" stroke="#bfbfbf" points="99,-112.5 99,-131.5 205,-131.5 205,-112.5 99,-112.5"/>
<text text-anchor="middle" x="152" y="-119.5" font-family="Helvetica,sans-Serif" font-size="10.00">DallasTemperature.h</text>
</a>
</g>
</g>
<!-- Node1&#45;&gt;Node4 -->
<g id="edge3" class="edge">
<title>Node1&#45;&gt;Node4</title>
<path fill="none" stroke="midnightblue" d="M121.15,-168.09C127.69,-158.53 134.65,-148.36 140.3,-140.1"/>
<polygon fill="midnightblue" stroke="midnightblue" points="143.28,-141.95 146.03,-131.72 137.5,-137.99 143.28,-141.95"/>
</g>
<!-- Node5 -->
<g id="node5" class="node">
<title>Node5</title>
<g id="a_node5"><a xlink:href="config_8h.html" target="_top" xlink:title="System configuration.">
<polygon fill="white" stroke="black" points="223.5,-112.5 223.5,-131.5 312.5,-131.5 312.5,-112.5 223.5,-112.5"/>
<text text-anchor="middle" x="268" y="-119.5" font-family="Helvetica,sans-Serif" font-size="10.00">Settings/config.h</text>
</a>
</g>
</g>
<!-- Node1&#45;&gt;Node5 -->
<g id="edge4" class="edge">
<title>Node1&#45;&gt;Node5</title>
<path fill="none" stroke="midnightblue" d="M167.85,-168.31C192.93,-156.96 220.02,-144.71 239.69,-135.81"/>
<polygon fill="midnightblue" stroke="midnightblue" points="241.31,-138.92 248.97,-131.61 238.42,-132.54 241.31,-138.92"/>
</g>
<!-- Node6 -->
<g id="node6" class="node">
<title>Node6</title>
<g id="a_node6"><a xlink:href="keys_8h.html" target="_top" xlink:title="Security keys.">
<polygon fill="white" stroke="black" points="177,-56.5 177,-75.5 223,-75.5 223,-56.5 177,-56.5"/>
<text text-anchor="middle" x="200" y="-63.5" font-family="Helvetica,sans-Serif" font-size="10.00">keys.h</text>
</a>
</g>
</g>
<!-- Node5&#45;&gt;Node6 -->
<g id="edge5" class="edge">
<title>Node5&#45;&gt;Node6</title>
<path fill="none" stroke="midnightblue" d="M257.07,-112.32C246.83,-104.18 231.28,-91.84 219,-82.09"/>
<polygon fill="midnightblue" stroke="midnightblue" points="221.13,-79.31 211.12,-75.83 216.78,-84.79 221.13,-79.31"/>
</g>
<!-- Node7 -->
<g id="node7" class="node">
<title>Node7</title>
<g id="a_node7"><a xlink:href="_debug_8h.html" target="_top" xlink:title=" ">
<polygon fill="white" stroke="black" points="241.5,-56.5 241.5,-75.5 294.5,-75.5 294.5,-56.5 241.5,-56.5"/>
<text text-anchor="middle" x="268" y="-63.5" font-family="Helvetica,sans-Serif" font-size="10.00">Debug.h</text>
</a>
</g>
</g>
<!-- Node5&#45;&gt;Node7 -->
<g id="edge6" class="edge">
<title>Node5&#45;&gt;Node7</title>
<path fill="none" stroke="midnightblue" d="M268,-112.08C268,-105.01 268,-94.86 268,-85.99"/>
<polygon fill="midnightblue" stroke="midnightblue" points="271.5,-85.75 268,-75.75 264.5,-85.75 271.5,-85.75"/>
</g>
<!-- Node7&#45;&gt;Node2 -->
<g id="edge7" class="edge">
<title>Node7&#45;&gt;Node2</title>
<path fill="none" stroke="midnightblue" d="M245.82,-56.44C222.57,-47.48 185.85,-33.31 159.58,-23.18"/>
<polygon fill="midnightblue" stroke="midnightblue" points="160.67,-19.85 150.08,-19.52 158.15,-26.38 160.67,-19.85"/>
</g>
</g>
</svg>
