<?xml version="1.0" encoding="UTF-8" standalone="no"?>
<!DOCTYPE svg PUBLIC "-//W3C//DTD SVG 1.1//EN"
 "http://www.w3.org/Graphics/SVG/1.1/DTD/svg11.dtd">
<!-- Generated by graphviz version 4.0.0 (20220529.0937)
 -->
<!-- Title: D:/OneDrive &#45; Avans Hogeschool/Minor/PRO Smart Roofs/Software/GreenRoof_Base/src/Sensors/Com/OneWireTemperatureBus.cpp Pages: 1 -->
<svg width="315pt" height="307pt"
 viewBox="0.00 0.00 315.44 307.00" xmlns="http://www.w3.org/2000/svg" xmlns:xlink="http://www.w3.org/1999/xlink">
<g id="graph0" class="graph" transform="scale(1 1) rotate(0) translate(4 303)">
<title>D:/OneDrive &#45; Avans Hogeschool/Minor/PRO Smart Roofs/Software/GreenRoof_Base/src/Sensors/Com/OneWireTemperatureBus.cpp</title>
<polygon fill="white" stroke="transparent" points="-4,4 -4,-303 311.44,-303 311.44,4 -4,4"/>
<!-- Node1 -->
<g id="node1" class="node">
<title>Node1</title>
<g id="a_node1"><a xlink:title="Class for shared bus instance of temperature bus.">
<polygon fill="#bfbfbf" stroke="black" points="9.44,-235.5 9.44,-298.5 180.44,-298.5 180.44,-235.5 9.44,-235.5"/>
<text text-anchor="start" x="17.44" y="-286.5" font-family="Helvetica,sans-Serif" font-size="10.00">D:/OneDrive &#45; Avans</text>
<text text-anchor="start" x="17.44" y="-275.5" font-family="Helvetica,sans-Serif" font-size="10.00"> Hogeschool/Minor/PRO</text>
<text text-anchor="start" x="17.44" y="-264.5" font-family="Helvetica,sans-Serif" font-size="10.00"> Smart Roofs/Software</text>
<text text-anchor="start" x="17.44" y="-253.5" font-family="Helvetica,sans-Serif" font-size="10.00">/GreenRoof_Base/src/Sensors</text>
<text text-anchor="middle" x="94.94" y="-242.5" font-family="Helvetica,sans-Serif" font-size="10.00">/Com/OneWireTemperatureBus.cpp</text>
</a>
</g>
</g>
<!-- Node2 -->
<g id="node2" class="node">
<title>Node2</title>
<g id="a_node2"><a xlink:href="_one_wire_temperature_bus_8h.html" target="_top" xlink:title="Class for shared bus instance of temperature bus.">
<polygon fill="white" stroke="black" points="9.44,-168.5 9.44,-198.5 180.44,-198.5 180.44,-168.5 9.44,-168.5"/>
<text text-anchor="start" x="17.44" y="-186.5" font-family="Helvetica,sans-Serif" font-size="10.00">Sensors/Com/OneWireTemperature</text>
<text text-anchor="middle" x="94.94" y="-175.5" font-family="Helvetica,sans-Serif" font-size="10.00">Bus.h</text>
</a>
</g>
</g>
<!-- Node1&#45;&gt;Node2 -->
<g id="edge1" class="edge">
<title>Node1&#45;&gt;Node2</title>
<path fill="none" stroke="midnightblue" d="M94.94,-235.19C94.94,-226.41 94.94,-216.98 94.94,-208.66"/>
<polygon fill="midnightblue" stroke="midnightblue" points="98.44,-208.52 94.94,-198.52 91.44,-208.52 98.44,-208.52"/>
</g>
<!-- Node3 -->
<g id="node3" class="node">
<title>Node3</title>
<g id="a_node3"><a xlink:title=" ">
<polygon fill="white" stroke="#bfbfbf" points="93.94,-0.5 93.94,-19.5 151.94,-19.5 151.94,-0.5 93.94,-0.5"/>
<text text-anchor="middle" x="122.94" y="-7.5" font-family="Helvetica,sans-Serif" font-size="10.00">Arduino.h</text>
</a>
</g>
</g>
<!-- Node2&#45;&gt;Node3 -->
<g id="edge2" class="edge">
<title>Node2&#45;&gt;Node3</title>
<path fill="none" stroke="midnightblue" d="M49.28,-168.42C20.51,-156.76 -9.12,-137.91 2.94,-112 22.01,-71.01 66.82,-40.71 95.96,-24.47"/>
<polygon fill="midnightblue" stroke="midnightblue" points="97.68,-27.52 104.82,-19.69 94.35,-21.36 97.68,-27.52"/>
</g>
<!-- Node4 -->
<g id="node4" class="node">
<title>Node4</title>
<g id="a_node4"><a xlink:title=" ">
<polygon fill="white" stroke="#bfbfbf" points="12.44,-112.5 12.44,-131.5 75.44,-131.5 75.44,-112.5 12.44,-112.5"/>
<text text-anchor="middle" x="43.94" y="-119.5" font-family="Helvetica,sans-Serif" font-size="10.00">OneWire.h</text>
</a>
</g>
</g>
<!-- Node2&#45;&gt;Node4 -->
<g id="edge3" class="edge">
<title>Node2&#45;&gt;Node4</title>
<path fill="none" stroke="midnightblue" d="M82.85,-168.4C75.36,-159.66 65.72,-148.41 57.91,-139.3"/>
<polygon fill="midnightblue" stroke="midnightblue" points="60.52,-136.97 51.36,-131.66 55.21,-141.53 60.52,-136.97"/>
</g>
<!-- Node5 -->
<g id="node5" class="node">
<title>Node5</title>
<g id="a_node5"><a xlink:title=" ">
<polygon fill="white" stroke="#bfbfbf" points="93.94,-112.5 93.94,-131.5 199.94,-131.5 199.94,-112.5 93.94,-112.5"/>
<text text-anchor="middle" x="146.94" y="-119.5" font-family="Helvetica,sans-Serif" font-size="10.00">DallasTemperature.h</text>
</a>
</g>
</g>
<!-- Node2&#45;&gt;Node5 -->
<g id="edge4" class="edge">
<title>Node2&#45;&gt;Node5</title>
<path fill="none" stroke="midnightblue" d="M107.26,-168.4C114.9,-159.66 124.73,-148.41 132.7,-139.3"/>
<polygon fill="midnightblue" stroke="midnightblue" points="135.43,-141.49 139.37,-131.66 130.16,-136.88 135.43,-141.49"/>
</g>
<!-- Node6 -->
<g id="node6" class="node">
<title>Node6</title>
<g id="a_node6"><a xlink:href="config_8h.html" target="_top" xlink:title="System configuration.">
<polygon fill="white" stroke="black" points="218.44,-112.5 218.44,-131.5 307.44,-131.5 307.44,-112.5 218.44,-112.5"/>
<text text-anchor="middle" x="262.94" y="-119.5" font-family="Helvetica,sans-Serif" font-size="10.00">Settings/config.h</text>
</a>
</g>
</g>
<!-- Node2&#45;&gt;Node6 -->
<g id="edge5" class="edge">
<title>Node2&#45;&gt;Node6</title>
<path fill="none" stroke="midnightblue" d="M134.75,-168.4C163.44,-158.24 201.75,-144.67 228.99,-135.02"/>
<polygon fill="midnightblue" stroke="midnightblue" points="230.23,-138.3 238.49,-131.66 227.9,-131.7 230.23,-138.3"/>
</g>
<!-- Node7 -->
<g id="node7" class="node">
<title>Node7</title>
<g id="a_node7"><a xlink:href="keys_8h.html" target="_top" xlink:title="Security keys.">
<polygon fill="white" stroke="black" points="171.94,-56.5 171.94,-75.5 217.94,-75.5 217.94,-56.5 171.94,-56.5"/>
<text text-anchor="middle" x="194.94" y="-63.5" font-family="Helvetica,sans-Serif" font-size="10.00">keys.h</text>
</a>
</g>
</g>
<!-- Node6&#45;&gt;Node7 -->
<g id="edge6" class="edge">
<title>Node6&#45;&gt;Node7</title>
<path fill="none" stroke="midnightblue" d="M252.01,-112.32C241.76,-104.18 226.22,-91.84 213.94,-82.09"/>
<polygon fill="midnightblue" stroke="midnightblue" points="216.07,-79.31 206.06,-75.83 211.72,-84.79 216.07,-79.31"/>
</g>
<!-- Node8 -->
<g id="node8" class="node">
<title>Node8</title>
<g id="a_node8"><a xlink:href="_debug_8h.html" target="_top" xlink:title=" ">
<polygon fill="white" stroke="black" points="236.44,-56.5 236.44,-75.5 289.44,-75.5 289.44,-56.5 236.44,-56.5"/>
<text text-anchor="middle" x="262.94" y="-63.5" font-family="Helvetica,sans-Serif" font-size="10.00">Debug.h</text>
</a>
</g>
</g>
<!-- Node6&#45;&gt;Node8 -->
<g id="edge7" class="edge">
<title>Node6&#45;&gt;Node8</title>
<path fill="none" stroke="midnightblue" d="M262.94,-112.08C262.94,-105.01 262.94,-94.86 262.94,-85.99"/>
<polygon fill="midnightblue" stroke="midnightblue" points="266.44,-85.75 262.94,-75.75 259.44,-85.75 266.44,-85.75"/>
</g>
<!-- Node8&#45;&gt;Node3 -->
<g id="edge8" class="edge">
<title>Node8&#45;&gt;Node3</title>
<path fill="none" stroke="midnightblue" d="M240.75,-56.44C217.51,-47.48 180.79,-33.31 154.52,-23.18"/>
<polygon fill="midnightblue" stroke="midnightblue" points="155.61,-19.85 145.02,-19.52 153.09,-26.38 155.61,-19.85"/>
</g>
</g>
</svg>
