<?xml version="1.0" encoding="UTF-8" standalone="no"?>
<!DOCTYPE svg PUBLIC "-//W3C//DTD SVG 1.1//EN"
 "http://www.w3.org/Graphics/SVG/1.1/DTD/svg11.dtd">
<!-- Generated by graphviz version 4.0.0 (20220529.0937)
 -->
<!-- Title: D:/OneDrive &#45; Avans Hogeschool/Minor/PRO Smart Roofs/Software/GreenRoof_Base/include/Sensors/SensorBase.h Pages: 1 -->
<svg width="181pt" height="240pt"
 viewBox="0.00 0.00 181.00 240.00" xmlns="http://www.w3.org/2000/svg" xmlns:xlink="http://www.w3.org/1999/xlink">
<g id="graph0" class="graph" transform="scale(1 1) rotate(0) translate(4 236)">
<title>D:/OneDrive &#45; Avans Hogeschool/Minor/PRO Smart Roofs/Software/GreenRoof_Base/include/Sensors/SensorBase.h</title>
<polygon fill="white" stroke="transparent" points="-4,4 -4,-236 177,-236 177,4 -4,4"/>
<!-- Node1 -->
<g id="node1" class="node">
<title>Node1</title>
<g id="a_node1"><a xlink:title="Sensor base object Interface.">
<polygon fill="#bfbfbf" stroke="black" points="0,-168.5 0,-231.5 127,-231.5 127,-168.5 0,-168.5"/>
<text text-anchor="start" x="8" y="-219.5" font-family="Helvetica,sans-Serif" font-size="10.00">D:/OneDrive &#45; Avans</text>
<text text-anchor="start" x="8" y="-208.5" font-family="Helvetica,sans-Serif" font-size="10.00"> Hogeschool/Minor/PRO</text>
<text text-anchor="start" x="8" y="-197.5" font-family="Helvetica,sans-Serif" font-size="10.00"> Smart Roofs/Software</text>
<text text-anchor="start" x="8" y="-186.5" font-family="Helvetica,sans-Serif" font-size="10.00">/GreenRoof_Base/include</text>
<text text-anchor="middle" x="63.5" y="-175.5" font-family="Helvetica,sans-Serif" font-size="10.00">/Sensors/SensorBase.h</text>
</a>
</g>
</g>
<!-- Node2 -->
<g id="node2" class="node">
<title>Node2</title>
<g id="a_node2"><a xlink:title=" ">
<polygon fill="white" stroke="#bfbfbf" points="57.5,-0.5 57.5,-19.5 115.5,-19.5 115.5,-0.5 57.5,-0.5"/>
<text text-anchor="middle" x="86.5" y="-7.5" font-family="Helvetica,sans-Serif" font-size="10.00">Arduino.h</text>
</a>
</g>
</g>
<!-- Node1&#45;&gt;Node2 -->
<g id="edge1" class="edge">
<title>Node1&#45;&gt;Node2</title>
<path fill="none" stroke="midnightblue" d="M51.76,-168.41C42.23,-138.74 32.46,-92.92 46.5,-56 50.84,-44.6 59.53,-34.24 67.71,-26.34"/>
<polygon fill="midnightblue" stroke="midnightblue" points="70.14,-28.86 75.23,-19.57 65.46,-23.66 70.14,-28.86"/>
</g>
<!-- Node3 -->
<g id="node3" class="node">
<title>Node3</title>
<g id="a_node3"><a xlink:href="config_8h.html" target="_top" xlink:title="System configuration.">
<polygon fill="white" stroke="black" points="56,-112.5 56,-131.5 145,-131.5 145,-112.5 56,-112.5"/>
<text text-anchor="middle" x="100.5" y="-119.5" font-family="Helvetica,sans-Serif" font-size="10.00">Settings/config.h</text>
</a>
</g>
</g>
<!-- Node1&#45;&gt;Node3 -->
<g id="edge2" class="edge">
<title>Node1&#45;&gt;Node3</title>
<path fill="none" stroke="midnightblue" d="M78.55,-168.09C83.05,-158.84 87.84,-149.01 91.78,-140.9"/>
<polygon fill="midnightblue" stroke="midnightblue" points="95.03,-142.24 96.26,-131.72 88.73,-139.18 95.03,-142.24"/>
</g>
<!-- Node4 -->
<g id="node4" class="node">
<title>Node4</title>
<g id="a_node4"><a xlink:href="keys_8h.html" target="_top" xlink:title="Security keys.">
<polygon fill="white" stroke="black" points="55.5,-56.5 55.5,-75.5 101.5,-75.5 101.5,-56.5 55.5,-56.5"/>
<text text-anchor="middle" x="78.5" y="-63.5" font-family="Helvetica,sans-Serif" font-size="10.00">keys.h</text>
</a>
</g>
</g>
<!-- Node3&#45;&gt;Node4 -->
<g id="edge3" class="edge">
<title>Node3&#45;&gt;Node4</title>
<path fill="none" stroke="midnightblue" d="M96.87,-112.08C93.89,-104.77 89.57,-94.18 85.88,-85.1"/>
<polygon fill="midnightblue" stroke="midnightblue" points="89.08,-83.69 82.07,-75.75 82.6,-86.33 89.08,-83.69"/>
</g>
<!-- Node5 -->
<g id="node5" class="node">
<title>Node5</title>
<g id="a_node5"><a xlink:href="_debug_8h.html" target="_top" xlink:title=" ">
<polygon fill="white" stroke="black" points="120,-56.5 120,-75.5 173,-75.5 173,-56.5 120,-56.5"/>
<text text-anchor="middle" x="146.5" y="-63.5" font-family="Helvetica,sans-Serif" font-size="10.00">Debug.h</text>
</a>
</g>
</g>
<!-- Node3&#45;&gt;Node5 -->
<g id="edge4" class="edge">
<title>Node3&#45;&gt;Node5</title>
<path fill="none" stroke="midnightblue" d="M108.1,-112.08C114.73,-104.3 124.52,-92.8 132.56,-83.37"/>
<polygon fill="midnightblue" stroke="midnightblue" points="135.23,-85.63 139.05,-75.75 129.9,-81.09 135.23,-85.63"/>
</g>
<!-- Node5&#45;&gt;Node2 -->
<g id="edge5" class="edge">
<title>Node5&#45;&gt;Node2</title>
<path fill="none" stroke="midnightblue" d="M136.86,-56.32C127.99,-48.34 114.63,-36.31 103.89,-26.65"/>
<polygon fill="midnightblue" stroke="midnightblue" points="106.09,-23.92 96.32,-19.83 101.41,-29.13 106.09,-23.92"/>
</g>
</g>
</svg>
