<?xml version="1.0" encoding="UTF-8" standalone="no"?>
<!DOCTYPE svg PUBLIC "-//W3C//DTD SVG 1.1//EN"
 "http://www.w3.org/Graphics/SVG/1.1/DTD/svg11.dtd">
<!-- Generated by graphviz version 4.0.0 (20220529.0937)
 -->
<!-- Title: D:/OneDrive &#45; Avans Hogeschool/Minor/PRO Smart Roofs/Software/GreenRoof_Base/include/Sensors/SensorBase.h Pages: 1 -->
<svg width="1020pt" height="272pt"
 viewBox="0.00 0.00 1019.50 272.00" xmlns="http://www.w3.org/2000/svg" xmlns:xlink="http://www.w3.org/1999/xlink">
<g id="graph0" class="graph" transform="scale(1 1) rotate(0) translate(4 268)">
<title>D:/OneDrive &#45; Avans Hogeschool/Minor/PRO Smart Roofs/Software/GreenRoof_Base/include/Sensors/SensorBase.h</title>
<polygon fill="white" stroke="transparent" points="-4,4 -4,-268 1015.5,-268 1015.5,4 -4,4"/>
<!-- Node1 -->
<g id="node1" class="node">
<title>Node1</title>
<g id="a_node1"><a xlink:title="Sensor base object Interface.">
<polygon fill="#bfbfbf" stroke="black" points="393,-200.5 393,-263.5 520,-263.5 520,-200.5 393,-200.5"/>
<text text-anchor="start" x="401" y="-251.5" font-family="Helvetica,sans-Serif" font-size="10.00">D:/OneDrive &#45; Avans</text>
<text text-anchor="start" x="401" y="-240.5" font-family="Helvetica,sans-Serif" font-size="10.00"> Hogeschool/Minor/PRO</text>
<text text-anchor="start" x="401" y="-229.5" font-family="Helvetica,sans-Serif" font-size="10.00"> Smart Roofs/Software</text>
<text text-anchor="start" x="401" y="-218.5" font-family="Helvetica,sans-Serif" font-size="10.00">/GreenRoof_Base/include</text>
<text text-anchor="middle" x="456.5" y="-207.5" font-family="Helvetica,sans-Serif" font-size="10.00">/Sensors/SensorBase.h</text>
</a>
</g>
</g>
<!-- Node2 -->
<g id="node2" class="node">
<title>Node2</title>
<g id="a_node2"><a xlink:href="_measurement_controller_8h.html" target="_top" xlink:title="Main measurement and communication controller.">
<polygon fill="white" stroke="black" points="748.5,-100.5 748.5,-163.5 876.5,-163.5 876.5,-100.5 748.5,-100.5"/>
<text text-anchor="start" x="756.5" y="-151.5" font-family="Helvetica,sans-Serif" font-size="10.00">D:/OneDrive &#45; Avans</text>
<text text-anchor="start" x="756.5" y="-140.5" font-family="Helvetica,sans-Serif" font-size="10.00"> Hogeschool/Minor/PRO</text>
<text text-anchor="start" x="756.5" y="-129.5" font-family="Helvetica,sans-Serif" font-size="10.00"> Smart Roofs/Software</text>
<text text-anchor="start" x="756.5" y="-118.5" font-family="Helvetica,sans-Serif" font-size="10.00">/GreenRoof_Base/include</text>
<text text-anchor="middle" x="812.5" y="-107.5" font-family="Helvetica,sans-Serif" font-size="10.00">/MeasurementController.h</text>
</a>
</g>
</g>
<!-- Node1&#45;&gt;Node2 -->
<g id="edge1" class="edge">
<title>Node1&#45;&gt;Node2</title>
<path fill="none" stroke="midnightblue" d="M530.13,-217.13C587.81,-205.42 669.69,-186.9 739.5,-164 742.38,-163.06 745.3,-162.04 748.24,-160.99"/>
<polygon fill="midnightblue" stroke="midnightblue" points="529.13,-213.76 520.01,-219.17 530.51,-220.63 529.13,-213.76"/>
</g>
<!-- Node3 -->
<g id="node3" class="node">
<title>Node3</title>
<g id="a_node3"><a xlink:href="main_8cpp.html" target="_top" xlink:title="Main runnable.">
<polygon fill="white" stroke="black" points="334.5,-6 334.5,-58 486.5,-58 486.5,-6 334.5,-6"/>
<text text-anchor="start" x="342.5" y="-46" font-family="Helvetica,sans-Serif" font-size="10.00">D:/OneDrive &#45; Avans</text>
<text text-anchor="start" x="342.5" y="-35" font-family="Helvetica,sans-Serif" font-size="10.00"> Hogeschool/Minor/PRO</text>
<text text-anchor="start" x="342.5" y="-24" font-family="Helvetica,sans-Serif" font-size="10.00"> Smart Roofs/Software</text>
<text text-anchor="middle" x="410.5" y="-13" font-family="Helvetica,sans-Serif" font-size="10.00">/GreenRoof_Base/src/main.cpp</text>
</a>
</g>
</g>
<!-- Node1&#45;&gt;Node3 -->
<g id="edge16" class="edge">
<title>Node1&#45;&gt;Node3</title>
<path fill="none" stroke="midnightblue" d="M438.44,-190.66C435.07,-182 431.87,-172.8 429.5,-164 419.8,-128.06 414.77,-85.14 412.38,-58.48"/>
<polygon fill="midnightblue" stroke="midnightblue" points="435.29,-192.21 442.28,-200.17 441.78,-189.59 435.29,-192.21"/>
</g>
<!-- Node5 -->
<g id="node5" class="node">
<title>Node5</title>
<g id="a_node5"><a xlink:href="_d_s18_b20_sensor_8h.html" target="_top" xlink:title=" ">
<polygon fill="white" stroke="black" points="90,-100.5 90,-163.5 229,-163.5 229,-100.5 90,-100.5"/>
<text text-anchor="start" x="98" y="-151.5" font-family="Helvetica,sans-Serif" font-size="10.00">D:/OneDrive &#45; Avans</text>
<text text-anchor="start" x="98" y="-140.5" font-family="Helvetica,sans-Serif" font-size="10.00"> Hogeschool/Minor/PRO</text>
<text text-anchor="start" x="98" y="-129.5" font-family="Helvetica,sans-Serif" font-size="10.00"> Smart Roofs/Software</text>
<text text-anchor="start" x="98" y="-118.5" font-family="Helvetica,sans-Serif" font-size="10.00">/GreenRoof_Base/include</text>
<text text-anchor="middle" x="159.5" y="-107.5" font-family="Helvetica,sans-Serif" font-size="10.00">/Sensors/DS18B20Sensor.h</text>
</a>
</g>
</g>
<!-- Node1&#45;&gt;Node5 -->
<g id="edge4" class="edge">
<title>Node1&#45;&gt;Node5</title>
<path fill="none" stroke="midnightblue" d="M383.04,-210.15C340.29,-197.61 285.53,-180.86 237.5,-164 234.75,-163.03 231.95,-162.03 229.14,-161"/>
<polygon fill="midnightblue" stroke="midnightblue" points="382.22,-213.56 392.8,-213 384.19,-206.84 382.22,-213.56"/>
</g>
<!-- Node7 -->
<g id="node7" class="node">
<title>Node7</title>
<g id="a_node7"><a xlink:href="_moisture_sensor_8h.html" target="_top" xlink:title="Moisture sensor class.">
<polygon fill="white" stroke="black" points="247,-100.5 247,-163.5 382,-163.5 382,-100.5 247,-100.5"/>
<text text-anchor="start" x="255" y="-151.5" font-family="Helvetica,sans-Serif" font-size="10.00">D:/OneDrive &#45; Avans</text>
<text text-anchor="start" x="255" y="-140.5" font-family="Helvetica,sans-Serif" font-size="10.00"> Hogeschool/Minor/PRO</text>
<text text-anchor="start" x="255" y="-129.5" font-family="Helvetica,sans-Serif" font-size="10.00"> Smart Roofs/Software</text>
<text text-anchor="start" x="255" y="-118.5" font-family="Helvetica,sans-Serif" font-size="10.00">/GreenRoof_Base/include</text>
<text text-anchor="middle" x="314.5" y="-107.5" font-family="Helvetica,sans-Serif" font-size="10.00">/Sensors/MoistureSensor.h</text>
</a>
</g>
</g>
<!-- Node1&#45;&gt;Node7 -->
<g id="edge7" class="edge">
<title>Node1&#45;&gt;Node7</title>
<path fill="none" stroke="midnightblue" d="M403.47,-194.4C388.79,-184.27 373.01,-173.38 358.88,-163.63"/>
<polygon fill="midnightblue" stroke="midnightblue" points="401.74,-197.46 411.96,-200.26 405.72,-191.7 401.74,-197.46"/>
</g>
<!-- Node9 -->
<g id="node9" class="node">
<title>Node9</title>
<g id="a_node9"><a xlink:href="_test_sensor_8h.html" target="_top" xlink:title="Test sensor class.">
<polygon fill="white" stroke="black" points="439,-100.5 439,-163.5 566,-163.5 566,-100.5 439,-100.5"/>
<text text-anchor="start" x="447" y="-151.5" font-family="Helvetica,sans-Serif" font-size="10.00">D:/OneDrive &#45; Avans</text>
<text text-anchor="start" x="447" y="-140.5" font-family="Helvetica,sans-Serif" font-size="10.00"> Hogeschool/Minor/PRO</text>
<text text-anchor="start" x="447" y="-129.5" font-family="Helvetica,sans-Serif" font-size="10.00"> Smart Roofs/Software</text>
<text text-anchor="start" x="447" y="-118.5" font-family="Helvetica,sans-Serif" font-size="10.00">/GreenRoof_Base/include</text>
<text text-anchor="middle" x="502.5" y="-107.5" font-family="Helvetica,sans-Serif" font-size="10.00">/Sensors/TestSensor.h</text>
</a>
</g>
</g>
<!-- Node1&#45;&gt;Node9 -->
<g id="edge10" class="edge">
<title>Node1&#45;&gt;Node9</title>
<path fill="none" stroke="midnightblue" d="M475.29,-190.96C479.57,-181.84 484.06,-172.29 488.12,-163.63"/>
<polygon fill="midnightblue" stroke="midnightblue" points="472.01,-189.72 470.93,-200.26 478.35,-192.7 472.01,-189.72"/>
</g>
<!-- Node11 -->
<g id="node11" class="node">
<title>Node11</title>
<g id="a_node11"><a xlink:href="_water_level_sensor_8h.html" target="_top" xlink:title="Water level sensor class.">
<polygon fill="white" stroke="black" points="584.5,-100.5 584.5,-163.5 730.5,-163.5 730.5,-100.5 584.5,-100.5"/>
<text text-anchor="start" x="592.5" y="-151.5" font-family="Helvetica,sans-Serif" font-size="10.00">D:/OneDrive &#45; Avans</text>
<text text-anchor="start" x="592.5" y="-140.5" font-family="Helvetica,sans-Serif" font-size="10.00"> Hogeschool/Minor/PRO</text>
<text text-anchor="start" x="592.5" y="-129.5" font-family="Helvetica,sans-Serif" font-size="10.00"> Smart Roofs/Software</text>
<text text-anchor="start" x="592.5" y="-118.5" font-family="Helvetica,sans-Serif" font-size="10.00">/GreenRoof_Base/include</text>
<text text-anchor="middle" x="657.5" y="-107.5" font-family="Helvetica,sans-Serif" font-size="10.00">/Sensors/WaterLevelSensor.h</text>
</a>
</g>
</g>
<!-- Node1&#45;&gt;Node11 -->
<g id="edge13" class="edge">
<title>Node1&#45;&gt;Node11</title>
<path fill="none" stroke="midnightblue" d="M528.44,-195.92C550.16,-185.34 573.81,-173.81 594.86,-163.54"/>
<polygon fill="midnightblue" stroke="midnightblue" points="526.73,-192.87 519.27,-200.4 529.79,-199.16 526.73,-192.87"/>
</g>
<!-- Node2&#45;&gt;Node3 -->
<g id="edge2" class="edge">
<title>Node2&#45;&gt;Node3</title>
<path fill="none" stroke="midnightblue" d="M738.53,-100C632.46,-71.57 599.28,-89.86 496.5,-64 489.73,-62.3 482.74,-60.26 475.82,-58.06"/>
<polygon fill="midnightblue" stroke="midnightblue" points="737.76,-103.42 748.33,-102.7 739.62,-96.67 737.76,-103.42"/>
</g>
<!-- Node4 -->
<g id="node4" class="node">
<title>Node4</title>
<g id="a_node4"><a xlink:href="_measurement_controller_8cpp.html" target="_top" xlink:title="Main measurement and communication controller.">
<polygon fill="white" stroke="black" points="839.5,-0.5 839.5,-63.5 1011.5,-63.5 1011.5,-0.5 839.5,-0.5"/>
<text text-anchor="start" x="847.5" y="-51.5" font-family="Helvetica,sans-Serif" font-size="10.00">D:/OneDrive &#45; Avans</text>
<text text-anchor="start" x="847.5" y="-40.5" font-family="Helvetica,sans-Serif" font-size="10.00"> Hogeschool/Minor/PRO</text>
<text text-anchor="start" x="847.5" y="-29.5" font-family="Helvetica,sans-Serif" font-size="10.00"> Smart Roofs/Software</text>
<text text-anchor="start" x="847.5" y="-18.5" font-family="Helvetica,sans-Serif" font-size="10.00">/GreenRoof_Base/src/Measurement</text>
<text text-anchor="middle" x="925.5" y="-7.5" font-family="Helvetica,sans-Serif" font-size="10.00">Controller.cpp</text>
</a>
</g>
</g>
<!-- Node2&#45;&gt;Node4 -->
<g id="edge3" class="edge">
<title>Node2&#45;&gt;Node4</title>
<path fill="none" stroke="midnightblue" d="M855.69,-93.54C867.09,-83.66 879.25,-73.11 890.18,-63.63"/>
<polygon fill="midnightblue" stroke="midnightblue" points="853.21,-91.07 847.94,-100.26 857.79,-96.35 853.21,-91.07"/>
</g>
<!-- Node5&#45;&gt;Node3 -->
<g id="edge5" class="edge">
<title>Node5&#45;&gt;Node3</title>
<path fill="none" stroke="midnightblue" d="M238.66,-99.55C278.73,-83.85 315.08,-69.77 345.14,-58.16"/>
<polygon fill="midnightblue" stroke="midnightblue" points="237.26,-96.34 229.23,-103.25 239.82,-102.86 237.26,-96.34"/>
</g>
<!-- Node6 -->
<g id="node6" class="node">
<title>Node6</title>
<g id="a_node6"><a xlink:href="_d_s18_b20_sensor_8cpp.html" target="_top" xlink:title="Temperature sensor class.">
<polygon fill="white" stroke="black" points="0,-0.5 0,-63.5 149,-63.5 149,-0.5 0,-0.5"/>
<text text-anchor="start" x="8" y="-51.5" font-family="Helvetica,sans-Serif" font-size="10.00">D:/OneDrive &#45; Avans</text>
<text text-anchor="start" x="8" y="-40.5" font-family="Helvetica,sans-Serif" font-size="10.00"> Hogeschool/Minor/PRO</text>
<text text-anchor="start" x="8" y="-29.5" font-family="Helvetica,sans-Serif" font-size="10.00"> Smart Roofs/Software</text>
<text text-anchor="start" x="8" y="-18.5" font-family="Helvetica,sans-Serif" font-size="10.00">/GreenRoof_Base/src/Sensors</text>
<text text-anchor="middle" x="74.5" y="-7.5" font-family="Helvetica,sans-Serif" font-size="10.00">/DS18B20Sensor.cpp</text>
</a>
</g>
</g>
<!-- Node5&#45;&gt;Node6 -->
<g id="edge6" class="edge">
<title>Node5&#45;&gt;Node6</title>
<path fill="none" stroke="midnightblue" d="M126.27,-92.69C117.91,-83.05 109.05,-72.83 101.07,-63.63"/>
<polygon fill="midnightblue" stroke="midnightblue" points="123.64,-95 132.84,-100.26 128.93,-90.41 123.64,-95"/>
</g>
<!-- Node7&#45;&gt;Node3 -->
<g id="edge8" class="edge">
<title>Node7&#45;&gt;Node3</title>
<path fill="none" stroke="midnightblue" d="M351.64,-93.09C363.14,-81.34 375.53,-68.7 385.96,-58.05"/>
<polygon fill="midnightblue" stroke="midnightblue" points="349.11,-90.67 344.61,-100.26 354.11,-95.57 349.11,-90.67"/>
</g>
<!-- Node8 -->
<g id="node8" class="node">
<title>Node8</title>
<g id="a_node8"><a xlink:href="_moisture_sensor_8cpp.html" target="_top" xlink:title="Moisture sensor class.">
<polygon fill="white" stroke="black" points="167,-0.5 167,-63.5 316,-63.5 316,-0.5 167,-0.5"/>
<text text-anchor="start" x="175" y="-51.5" font-family="Helvetica,sans-Serif" font-size="10.00">D:/OneDrive &#45; Avans</text>
<text text-anchor="start" x="175" y="-40.5" font-family="Helvetica,sans-Serif" font-size="10.00"> Hogeschool/Minor/PRO</text>
<text text-anchor="start" x="175" y="-29.5" font-family="Helvetica,sans-Serif" font-size="10.00"> Smart Roofs/Software</text>
<text text-anchor="start" x="175" y="-18.5" font-family="Helvetica,sans-Serif" font-size="10.00">/GreenRoof_Base/src/Sensors</text>
<text text-anchor="middle" x="241.5" y="-7.5" font-family="Helvetica,sans-Serif" font-size="10.00">/MoistureSensor.cpp</text>
</a>
</g>
</g>
<!-- Node7&#45;&gt;Node8 -->
<g id="edge9" class="edge">
<title>Node7&#45;&gt;Node8</title>
<path fill="none" stroke="midnightblue" d="M285.53,-92.11C278.48,-82.65 271.04,-72.65 264.32,-63.63"/>
<polygon fill="midnightblue" stroke="midnightblue" points="282.82,-94.33 291.6,-100.26 288.44,-90.15 282.82,-94.33"/>
</g>
<!-- Node9&#45;&gt;Node3 -->
<g id="edge11" class="edge">
<title>Node9&#45;&gt;Node3</title>
<path fill="none" stroke="midnightblue" d="M466.6,-92.76C455.66,-81.1 443.92,-68.6 434.02,-58.05"/>
<polygon fill="midnightblue" stroke="midnightblue" points="464.25,-95.37 473.64,-100.26 469.35,-90.57 464.25,-95.37"/>
</g>
<!-- Node10 -->
<g id="node10" class="node">
<title>Node10</title>
<g id="a_node10"><a xlink:href="_test_sensor_8cpp.html" target="_top" xlink:title="Test sensor class.">
<polygon fill="white" stroke="black" points="505,-0.5 505,-63.5 654,-63.5 654,-0.5 505,-0.5"/>
<text text-anchor="start" x="513" y="-51.5" font-family="Helvetica,sans-Serif" font-size="10.00">D:/OneDrive &#45; Avans</text>
<text text-anchor="start" x="513" y="-40.5" font-family="Helvetica,sans-Serif" font-size="10.00"> Hogeschool/Minor/PRO</text>
<text text-anchor="start" x="513" y="-29.5" font-family="Helvetica,sans-Serif" font-size="10.00"> Smart Roofs/Software</text>
<text text-anchor="start" x="513" y="-18.5" font-family="Helvetica,sans-Serif" font-size="10.00">/GreenRoof_Base/src/Sensors</text>
<text text-anchor="middle" x="579.5" y="-7.5" font-family="Helvetica,sans-Serif" font-size="10.00">/TestSensor.cpp</text>
</a>
</g>
</g>
<!-- Node9&#45;&gt;Node10 -->
<g id="edge12" class="edge">
<title>Node9&#45;&gt;Node10</title>
<path fill="none" stroke="midnightblue" d="M533.05,-92.11C540.49,-82.65 548.34,-72.65 555.43,-63.63"/>
<polygon fill="midnightblue" stroke="midnightblue" points="530.08,-90.24 526.65,-100.26 535.58,-94.56 530.08,-90.24"/>
</g>
<!-- Node11&#45;&gt;Node3 -->
<g id="edge14" class="edge">
<title>Node11&#45;&gt;Node3</title>
<path fill="none" stroke="midnightblue" d="M574.78,-98.18C541.83,-85.11 504.52,-70.3 473.79,-58.11"/>
<polygon fill="midnightblue" stroke="midnightblue" points="573.81,-101.56 584.39,-101.99 576.39,-95.05 573.81,-101.56"/>
</g>
<!-- Node12 -->
<g id="node12" class="node">
<title>Node12</title>
<g id="a_node12"><a xlink:href="_water_level_sensor_8cpp.html" target="_top" xlink:title="Water level sensor class.">
<polygon fill="white" stroke="black" points="672,-0.5 672,-63.5 821,-63.5 821,-0.5 672,-0.5"/>
<text text-anchor="start" x="680" y="-51.5" font-family="Helvetica,sans-Serif" font-size="10.00">D:/OneDrive &#45; Avans</text>
<text text-anchor="start" x="680" y="-40.5" font-family="Helvetica,sans-Serif" font-size="10.00"> Hogeschool/Minor/PRO</text>
<text text-anchor="start" x="680" y="-29.5" font-family="Helvetica,sans-Serif" font-size="10.00"> Smart Roofs/Software</text>
<text text-anchor="start" x="680" y="-18.5" font-family="Helvetica,sans-Serif" font-size="10.00">/GreenRoof_Base/src/Sensors</text>
<text text-anchor="middle" x="746.5" y="-7.5" font-family="Helvetica,sans-Serif" font-size="10.00">/WaterLevelSensor.cpp</text>
</a>
</g>
</g>
<!-- Node11&#45;&gt;Node12 -->
<g id="edge15" class="edge">
<title>Node11&#45;&gt;Node12</title>
<path fill="none" stroke="midnightblue" d="M692.29,-92.69C701.05,-83.05 710.32,-72.83 718.68,-63.63"/>
<polygon fill="midnightblue" stroke="midnightblue" points="689.55,-90.51 685.42,-100.26 694.73,-95.21 689.55,-90.51"/>
</g>
</g>
</svg>
