<?xml version="1.0" encoding="UTF-8" standalone="no"?>
<!DOCTYPE svg PUBLIC "-//W3C//DTD SVG 1.1//EN"
 "http://www.w3.org/Graphics/SVG/1.1/DTD/svg11.dtd">
<!-- Generated by graphviz version 4.0.0 (20220529.0937)
 -->
<!-- Title: D:/OneDrive &#45; Avans Hogeschool/Minor/PRO Smart Roofs/Software/GreenRoof_Base/include/Transmit/TransmissionBase.h Pages: 1 -->
<svg width="170pt" height="296pt"
 viewBox="0.00 0.00 170.00 296.00" xmlns="http://www.w3.org/2000/svg" xmlns:xlink="http://www.w3.org/1999/xlink">
<g id="graph0" class="graph" transform="scale(1 1) rotate(0) translate(4 292)">
<title>D:/OneDrive &#45; Avans Hogeschool/Minor/PRO Smart Roofs/Software/GreenRoof_Base/include/Transmit/TransmissionBase.h</title>
<polygon fill="white" stroke="transparent" points="-4,4 -4,-292 166,-292 166,4 -4,4"/>
<!-- Node1 -->
<g id="node1" class="node">
<title>Node1</title>
<g id="a_node1"><a xlink:title="Transmission base object.">
<polygon fill="#bfbfbf" stroke="black" points="0,-224.5 0,-287.5 149,-287.5 149,-224.5 0,-224.5"/>
<text text-anchor="start" x="8" y="-275.5" font-family="Helvetica,sans-Serif" font-size="10.00">D:/OneDrive &#45; Avans</text>
<text text-anchor="start" x="8" y="-264.5" font-family="Helvetica,sans-Serif" font-size="10.00"> Hogeschool/Minor/PRO</text>
<text text-anchor="start" x="8" y="-253.5" font-family="Helvetica,sans-Serif" font-size="10.00"> Smart Roofs/Software</text>
<text text-anchor="start" x="8" y="-242.5" font-family="Helvetica,sans-Serif" font-size="10.00">/GreenRoof_Base/include</text>
<text text-anchor="middle" x="74.5" y="-231.5" font-family="Helvetica,sans-Serif" font-size="10.00">/Transmit/TransmissionBase.h</text>
</a>
</g>
</g>
<!-- Node2 -->
<g id="node2" class="node">
<title>Node2</title>
<g id="a_node2"><a xlink:href="_data_object_8h.html" target="_top" xlink:title="Data objects used for sensor data storage.">
<polygon fill="white" stroke="black" points="5.5,-168.5 5.5,-187.5 79.5,-187.5 79.5,-168.5 5.5,-168.5"/>
<text text-anchor="middle" x="42.5" y="-175.5" font-family="Helvetica,sans-Serif" font-size="10.00">DataObject.h</text>
</a>
</g>
</g>
<!-- Node1&#45;&gt;Node2 -->
<g id="edge1" class="edge">
<title>Node1&#45;&gt;Node2</title>
<path fill="none" stroke="midnightblue" d="M61.48,-224.09C57.63,-214.94 53.55,-205.23 50.15,-197.17"/>
<polygon fill="midnightblue" stroke="midnightblue" points="53.28,-195.58 46.17,-187.72 46.83,-198.29 53.28,-195.58"/>
</g>
<!-- Node5 -->
<g id="node5" class="node">
<title>Node5</title>
<g id="a_node5"><a xlink:href="config_8h.html" target="_top" xlink:title="System configuration.">
<polygon fill="white" stroke="black" points="73,-112.5 73,-131.5 162,-131.5 162,-112.5 73,-112.5"/>
<text text-anchor="middle" x="117.5" y="-119.5" font-family="Helvetica,sans-Serif" font-size="10.00">Settings/config.h</text>
</a>
</g>
</g>
<!-- Node1&#45;&gt;Node5 -->
<g id="edge8" class="edge">
<title>Node1&#45;&gt;Node5</title>
<path fill="none" stroke="midnightblue" d="M84.47,-224.38C92.84,-198.7 104.51,-162.87 111.51,-141.4"/>
<polygon fill="midnightblue" stroke="midnightblue" points="114.93,-142.2 114.7,-131.61 108.27,-140.03 114.93,-142.2"/>
</g>
<!-- Node3 -->
<g id="node3" class="node">
<title>Node3</title>
<g id="a_node3"><a xlink:title=" ">
<polygon fill="white" stroke="#bfbfbf" points="21.5,-0.5 21.5,-19.5 79.5,-19.5 79.5,-0.5 21.5,-0.5"/>
<text text-anchor="middle" x="50.5" y="-7.5" font-family="Helvetica,sans-Serif" font-size="10.00">Arduino.h</text>
</a>
</g>
</g>
<!-- Node2&#45;&gt;Node3 -->
<g id="edge2" class="edge">
<title>Node2&#45;&gt;Node3</title>
<path fill="none" stroke="midnightblue" d="M31.51,-168.37C22.05,-160.17 9.06,-146.92 3.5,-132 0.39,-123.67 2.41,-120.82 3.5,-112 6.63,-86.54 6.6,-79.22 17.5,-56 22.28,-45.82 29.5,-35.63 35.98,-27.52"/>
<polygon fill="midnightblue" stroke="midnightblue" points="38.83,-29.56 42.55,-19.64 33.46,-25.08 38.83,-29.56"/>
</g>
<!-- Node4 -->
<g id="node4" class="node">
<title>Node4</title>
<g id="a_node4"><a xlink:title=" ">
<polygon fill="white" stroke="#bfbfbf" points="12.5,-112.5 12.5,-131.5 54.5,-131.5 54.5,-112.5 12.5,-112.5"/>
<text text-anchor="middle" x="33.5" y="-119.5" font-family="Helvetica,sans-Serif" font-size="10.00">vector</text>
</a>
</g>
</g>
<!-- Node2&#45;&gt;Node4 -->
<g id="edge3" class="edge">
<title>Node2&#45;&gt;Node4</title>
<path fill="none" stroke="midnightblue" d="M41.01,-168.08C39.82,-160.93 38.11,-150.64 36.62,-141.69"/>
<polygon fill="midnightblue" stroke="midnightblue" points="40.05,-141.04 34.96,-131.75 33.15,-142.19 40.05,-141.04"/>
</g>
<!-- Node2&#45;&gt;Node5 -->
<g id="edge4" class="edge">
<title>Node2&#45;&gt;Node5</title>
<path fill="none" stroke="midnightblue" d="M54.55,-168.32C65.96,-160.11 83.33,-147.6 96.93,-137.81"/>
<polygon fill="midnightblue" stroke="midnightblue" points="99.16,-140.52 105.23,-131.83 95.07,-134.84 99.16,-140.52"/>
</g>
<!-- Node6 -->
<g id="node6" class="node">
<title>Node6</title>
<g id="a_node6"><a xlink:href="keys_8h.html" target="_top" xlink:title="Security keys.">
<polygon fill="white" stroke="black" points="26.5,-56.5 26.5,-75.5 72.5,-75.5 72.5,-56.5 26.5,-56.5"/>
<text text-anchor="middle" x="49.5" y="-63.5" font-family="Helvetica,sans-Serif" font-size="10.00">keys.h</text>
</a>
</g>
</g>
<!-- Node5&#45;&gt;Node6 -->
<g id="edge5" class="edge">
<title>Node5&#45;&gt;Node6</title>
<path fill="none" stroke="midnightblue" d="M106.57,-112.32C96.33,-104.18 80.78,-91.84 68.5,-82.09"/>
<polygon fill="midnightblue" stroke="midnightblue" points="70.63,-79.31 60.62,-75.83 66.28,-84.79 70.63,-79.31"/>
</g>
<!-- Node7 -->
<g id="node7" class="node">
<title>Node7</title>
<g id="a_node7"><a xlink:href="_debug_8h.html" target="_top" xlink:title=" ">
<polygon fill="white" stroke="black" points="91,-56.5 91,-75.5 144,-75.5 144,-56.5 91,-56.5"/>
<text text-anchor="middle" x="117.5" y="-63.5" font-family="Helvetica,sans-Serif" font-size="10.00">Debug.h</text>
</a>
</g>
</g>
<!-- Node5&#45;&gt;Node7 -->
<g id="edge6" class="edge">
<title>Node5&#45;&gt;Node7</title>
<path fill="none" stroke="midnightblue" d="M117.5,-112.08C117.5,-105.01 117.5,-94.86 117.5,-85.99"/>
<polygon fill="midnightblue" stroke="midnightblue" points="121,-85.75 117.5,-75.75 114,-85.75 121,-85.75"/>
</g>
<!-- Node7&#45;&gt;Node3 -->
<g id="edge7" class="edge">
<title>Node7&#45;&gt;Node3</title>
<path fill="none" stroke="midnightblue" d="M106.74,-56.32C96.73,-48.26 81.61,-36.08 69.57,-26.37"/>
<polygon fill="midnightblue" stroke="midnightblue" points="71.44,-23.38 61.46,-19.83 67.05,-28.83 71.44,-23.38"/>
</g>
</g>
</svg>
