<?xml version="1.0" encoding="UTF-8" standalone="no"?>
<!DOCTYPE svg PUBLIC "-//W3C//DTD SVG 1.1//EN"
 "http://www.w3.org/Graphics/SVG/1.1/DTD/svg11.dtd">
<!-- Generated by graphviz version 4.0.0 (20220529.0937)
 -->
<!-- Title: D:/OneDrive &#45; Avans Hogeschool/Minor/PRO Smart Roofs/Software/GreenRoof_Base/include/Transmit/TransmissionBase.h Pages: 1 -->
<svg width="1180pt" height="472pt"
 viewBox="0.00 0.00 1180.00 472.00" xmlns="http://www.w3.org/2000/svg" xmlns:xlink="http://www.w3.org/1999/xlink">
<g id="graph0" class="graph" transform="scale(1 1) rotate(0) translate(4 468)">
<title>D:/OneDrive &#45; Avans Hogeschool/Minor/PRO Smart Roofs/Software/GreenRoof_Base/include/Transmit/TransmissionBase.h</title>
<polygon fill="white" stroke="transparent" points="-4,4 -4,-468 1176,-468 1176,4 -4,4"/>
<!-- Node1 -->
<g id="node1" class="node">
<title>Node1</title>
<g id="a_node1"><a xlink:title="Transmission base object.">
<polygon fill="#bfbfbf" stroke="black" points="548.5,-400.5 548.5,-463.5 697.5,-463.5 697.5,-400.5 548.5,-400.5"/>
<text text-anchor="start" x="556.5" y="-451.5" font-family="Helvetica,sans-Serif" font-size="10.00">D:/OneDrive &#45; Avans</text>
<text text-anchor="start" x="556.5" y="-440.5" font-family="Helvetica,sans-Serif" font-size="10.00"> Hogeschool/Minor/PRO</text>
<text text-anchor="start" x="556.5" y="-429.5" font-family="Helvetica,sans-Serif" font-size="10.00"> Smart Roofs/Software</text>
<text text-anchor="start" x="556.5" y="-418.5" font-family="Helvetica,sans-Serif" font-size="10.00">/GreenRoof_Base/include</text>
<text text-anchor="middle" x="623" y="-407.5" font-family="Helvetica,sans-Serif" font-size="10.00">/Transmit/TransmissionBase.h</text>
</a>
</g>
</g>
<!-- Node2 -->
<g id="node2" class="node">
<title>Node2</title>
<g id="a_node2"><a xlink:href="_data_publisher_8h.html" target="_top" xlink:title="Data parser and management for transmission and storage of sensor data.">
<polygon fill="white" stroke="black" points="310.5,-200.5 310.5,-263.5 437.5,-263.5 437.5,-200.5 310.5,-200.5"/>
<text text-anchor="start" x="318.5" y="-251.5" font-family="Helvetica,sans-Serif" font-size="10.00">D:/OneDrive &#45; Avans</text>
<text text-anchor="start" x="318.5" y="-240.5" font-family="Helvetica,sans-Serif" font-size="10.00"> Hogeschool/Minor/PRO</text>
<text text-anchor="start" x="318.5" y="-229.5" font-family="Helvetica,sans-Serif" font-size="10.00"> Smart Roofs/Software</text>
<text text-anchor="start" x="318.5" y="-218.5" font-family="Helvetica,sans-Serif" font-size="10.00">/GreenRoof_Base/include</text>
<text text-anchor="middle" x="374" y="-207.5" font-family="Helvetica,sans-Serif" font-size="10.00">/DataPublisher.h</text>
</a>
</g>
</g>
<!-- Node1&#45;&gt;Node2 -->
<g id="edge1" class="edge">
<title>Node1&#45;&gt;Node2</title>
<path fill="none" stroke="midnightblue" d="M538.32,-427.92C489.05,-421.48 429.79,-404.9 394,-364 369.99,-336.56 368.04,-292.88 370.04,-263.59"/>
<polygon fill="midnightblue" stroke="midnightblue" points="538.01,-431.41 548.35,-429.11 538.83,-424.45 538.01,-431.41"/>
</g>
<!-- Node8 -->
<g id="node8" class="node">
<title>Node8</title>
<g id="a_node8"><a xlink:href="_data_store_8h.html" target="_top" xlink:title="Local data storage object.">
<polygon fill="white" stroke="black" points="402.5,-300.5 402.5,-363.5 529.5,-363.5 529.5,-300.5 402.5,-300.5"/>
<text text-anchor="start" x="410.5" y="-351.5" font-family="Helvetica,sans-Serif" font-size="10.00">D:/OneDrive &#45; Avans</text>
<text text-anchor="start" x="410.5" y="-340.5" font-family="Helvetica,sans-Serif" font-size="10.00"> Hogeschool/Minor/PRO</text>
<text text-anchor="start" x="410.5" y="-329.5" font-family="Helvetica,sans-Serif" font-size="10.00"> Smart Roofs/Software</text>
<text text-anchor="start" x="410.5" y="-318.5" font-family="Helvetica,sans-Serif" font-size="10.00">/GreenRoof_Base/include</text>
<text text-anchor="middle" x="466" y="-307.5" font-family="Helvetica,sans-Serif" font-size="10.00">/DataStore.h</text>
</a>
</g>
</g>
<!-- Node1&#45;&gt;Node8 -->
<g id="edge7" class="edge">
<title>Node1&#45;&gt;Node8</title>
<path fill="none" stroke="midnightblue" d="M565.27,-394.97C548.79,-384.68 530.98,-373.56 515.07,-363.63"/>
<polygon fill="midnightblue" stroke="midnightblue" points="563.42,-397.93 573.75,-400.26 567.13,-392 563.42,-397.93"/>
</g>
<!-- Node9 -->
<g id="node9" class="node">
<title>Node9</title>
<g id="a_node9"><a xlink:href="_h_t_t_p_transmission_8h.html" target="_top" xlink:title="Transmission method for HTTP post transfers.">
<polygon fill="white" stroke="black" points="548,-300.5 548,-363.5 698,-363.5 698,-300.5 548,-300.5"/>
<text text-anchor="start" x="556" y="-351.5" font-family="Helvetica,sans-Serif" font-size="10.00">D:/OneDrive &#45; Avans</text>
<text text-anchor="start" x="556" y="-340.5" font-family="Helvetica,sans-Serif" font-size="10.00"> Hogeschool/Minor/PRO</text>
<text text-anchor="start" x="556" y="-329.5" font-family="Helvetica,sans-Serif" font-size="10.00"> Smart Roofs/Software</text>
<text text-anchor="start" x="556" y="-318.5" font-family="Helvetica,sans-Serif" font-size="10.00">/GreenRoof_Base/include</text>
<text text-anchor="middle" x="623" y="-307.5" font-family="Helvetica,sans-Serif" font-size="10.00">/Transmit/HTTPTransmission.h</text>
</a>
</g>
</g>
<!-- Node1&#45;&gt;Node9 -->
<g id="edge10" class="edge">
<title>Node1&#45;&gt;Node9</title>
<path fill="none" stroke="midnightblue" d="M623,-390.1C623,-381.24 623,-372.01 623,-363.63"/>
<polygon fill="midnightblue" stroke="midnightblue" points="619.5,-390.26 623,-400.26 626.5,-390.26 619.5,-390.26"/>
</g>
<!-- Node11 -->
<g id="node11" class="node">
<title>Node11</title>
<g id="a_node11"><a xlink:href="_i_o_t_hub_transmission_8h.html" target="_top" xlink:title="IOT Hub based transmission method.">
<polygon fill="white" stroke="black" points="716,-300.5 716,-363.5 874,-363.5 874,-300.5 716,-300.5"/>
<text text-anchor="start" x="724" y="-351.5" font-family="Helvetica,sans-Serif" font-size="10.00">D:/OneDrive &#45; Avans</text>
<text text-anchor="start" x="724" y="-340.5" font-family="Helvetica,sans-Serif" font-size="10.00"> Hogeschool/Minor/PRO</text>
<text text-anchor="start" x="724" y="-329.5" font-family="Helvetica,sans-Serif" font-size="10.00"> Smart Roofs/Software</text>
<text text-anchor="start" x="724" y="-318.5" font-family="Helvetica,sans-Serif" font-size="10.00">/GreenRoof_Base/include</text>
<text text-anchor="middle" x="795" y="-307.5" font-family="Helvetica,sans-Serif" font-size="10.00">/Transmit/IOTHubTransmission.h</text>
</a>
</g>
</g>
<!-- Node1&#45;&gt;Node11 -->
<g id="edge13" class="edge">
<title>Node1&#45;&gt;Node11</title>
<path fill="none" stroke="midnightblue" d="M685.75,-395.25C703.95,-384.88 723.65,-373.65 741.24,-363.63"/>
<polygon fill="midnightblue" stroke="midnightblue" points="683.91,-392.27 676.95,-400.26 687.37,-398.35 683.91,-392.27"/>
</g>
<!-- Node13 -->
<g id="node13" class="node">
<title>Node13</title>
<g id="a_node13"><a xlink:href="_u_d_p_transmission_8h.html" target="_top" xlink:title="Transmission class for publishing to Urban Data Platform.">
<polygon fill="white" stroke="black" points="921,-300.5 921,-363.5 1067,-363.5 1067,-300.5 921,-300.5"/>
<text text-anchor="start" x="929" y="-351.5" font-family="Helvetica,sans-Serif" font-size="10.00">D:/OneDrive &#45; Avans</text>
<text text-anchor="start" x="929" y="-340.5" font-family="Helvetica,sans-Serif" font-size="10.00"> Hogeschool/Minor/PRO</text>
<text text-anchor="start" x="929" y="-329.5" font-family="Helvetica,sans-Serif" font-size="10.00"> Smart Roofs/Software</text>
<text text-anchor="start" x="929" y="-318.5" font-family="Helvetica,sans-Serif" font-size="10.00">/GreenRoof_Base/include</text>
<text text-anchor="middle" x="994" y="-307.5" font-family="Helvetica,sans-Serif" font-size="10.00">/Transmit/UDPTransmission.h</text>
</a>
</g>
</g>
<!-- Node1&#45;&gt;Node13 -->
<g id="edge16" class="edge">
<title>Node1&#45;&gt;Node13</title>
<path fill="none" stroke="midnightblue" d="M707.6,-409.66C758.5,-396.7 824.54,-379.69 883,-364 895.27,-360.71 908.28,-357.14 920.92,-353.64"/>
<polygon fill="midnightblue" stroke="midnightblue" points="706.46,-406.34 697.63,-412.19 708.19,-413.12 706.46,-406.34"/>
</g>
<!-- Node3 -->
<g id="node3" class="node">
<title>Node3</title>
<g id="a_node3"><a xlink:href="_measurement_controller_8h.html" target="_top" xlink:title="Main measurement and communication controller.">
<polygon fill="white" stroke="black" points="22,-100.5 22,-163.5 150,-163.5 150,-100.5 22,-100.5"/>
<text text-anchor="start" x="30" y="-151.5" font-family="Helvetica,sans-Serif" font-size="10.00">D:/OneDrive &#45; Avans</text>
<text text-anchor="start" x="30" y="-140.5" font-family="Helvetica,sans-Serif" font-size="10.00"> Hogeschool/Minor/PRO</text>
<text text-anchor="start" x="30" y="-129.5" font-family="Helvetica,sans-Serif" font-size="10.00"> Smart Roofs/Software</text>
<text text-anchor="start" x="30" y="-118.5" font-family="Helvetica,sans-Serif" font-size="10.00">/GreenRoof_Base/include</text>
<text text-anchor="middle" x="86" y="-107.5" font-family="Helvetica,sans-Serif" font-size="10.00">/MeasurementController.h</text>
</a>
</g>
</g>
<!-- Node2&#45;&gt;Node3 -->
<g id="edge2" class="edge">
<title>Node2&#45;&gt;Node3</title>
<path fill="none" stroke="midnightblue" d="M300.58,-210.09C258.75,-197.69 205.55,-181.09 159,-164 156.16,-162.96 153.26,-161.86 150.35,-160.74"/>
<polygon fill="midnightblue" stroke="midnightblue" points="299.83,-213.52 310.41,-212.99 301.81,-206.81 299.83,-213.52"/>
</g>
<!-- Node6 -->
<g id="node6" class="node">
<title>Node6</title>
<g id="a_node6"><a xlink:href="_data_publisher_8cpp.html" target="_top" xlink:title="Data parser and management for transmission and storage of sensor data.">
<polygon fill="white" stroke="black" points="168,-106 168,-158 360,-158 360,-106 168,-106"/>
<text text-anchor="start" x="176" y="-146" font-family="Helvetica,sans-Serif" font-size="10.00">D:/OneDrive &#45; Avans</text>
<text text-anchor="start" x="176" y="-135" font-family="Helvetica,sans-Serif" font-size="10.00"> Hogeschool/Minor/PRO</text>
<text text-anchor="start" x="176" y="-124" font-family="Helvetica,sans-Serif" font-size="10.00"> Smart Roofs/Software</text>
<text text-anchor="middle" x="264" y="-113" font-family="Helvetica,sans-Serif" font-size="10.00">/GreenRoof_Base/src/DataPublisher.cpp</text>
</a>
</g>
</g>
<!-- Node2&#45;&gt;Node6 -->
<g id="edge5" class="edge">
<title>Node2&#45;&gt;Node6</title>
<path fill="none" stroke="midnightblue" d="M331.82,-193.42C318.53,-181.58 304.18,-168.8 292.12,-158.05"/>
<polygon fill="midnightblue" stroke="midnightblue" points="329.7,-196.22 339.5,-200.26 334.36,-191 329.7,-196.22"/>
</g>
<!-- Node7 -->
<g id="node7" class="node">
<title>Node7</title>
<g id="a_node7"><a xlink:href="_data_store_8cpp.html" target="_top" xlink:title="Local data storage object.">
<polygon fill="white" stroke="black" points="378.5,-106 378.5,-158 553.5,-158 553.5,-106 378.5,-106"/>
<text text-anchor="start" x="386.5" y="-146" font-family="Helvetica,sans-Serif" font-size="10.00">D:/OneDrive &#45; Avans</text>
<text text-anchor="start" x="386.5" y="-135" font-family="Helvetica,sans-Serif" font-size="10.00"> Hogeschool/Minor/PRO</text>
<text text-anchor="start" x="386.5" y="-124" font-family="Helvetica,sans-Serif" font-size="10.00"> Smart Roofs/Software</text>
<text text-anchor="middle" x="466" y="-113" font-family="Helvetica,sans-Serif" font-size="10.00">/GreenRoof_Base/src/DataStore.cpp</text>
</a>
</g>
</g>
<!-- Node2&#45;&gt;Node7 -->
<g id="edge6" class="edge">
<title>Node2&#45;&gt;Node7</title>
<path fill="none" stroke="midnightblue" d="M409.9,-192.76C420.84,-181.1 432.58,-168.6 442.48,-158.05"/>
<polygon fill="midnightblue" stroke="midnightblue" points="407.15,-190.57 402.86,-200.26 412.25,-195.37 407.15,-190.57"/>
</g>
<!-- Node4 -->
<g id="node4" class="node">
<title>Node4</title>
<g id="a_node4"><a xlink:href="main_8cpp.html" target="_top" xlink:title="Main runnable.">
<polygon fill="white" stroke="black" points="609,-6 609,-58 761,-58 761,-6 609,-6"/>
<text text-anchor="start" x="617" y="-46" font-family="Helvetica,sans-Serif" font-size="10.00">D:/OneDrive &#45; Avans</text>
<text text-anchor="start" x="617" y="-35" font-family="Helvetica,sans-Serif" font-size="10.00"> Hogeschool/Minor/PRO</text>
<text text-anchor="start" x="617" y="-24" font-family="Helvetica,sans-Serif" font-size="10.00"> Smart Roofs/Software</text>
<text text-anchor="middle" x="685" y="-13" font-family="Helvetica,sans-Serif" font-size="10.00">/GreenRoof_Base/src/main.cpp</text>
</a>
</g>
</g>
<!-- Node3&#45;&gt;Node4 -->
<g id="edge3" class="edge">
<title>Node3&#45;&gt;Node4</title>
<path fill="none" stroke="midnightblue" d="M159.86,-100.03C322.79,-57.09 507.39,-41.78 608.82,-36.15"/>
<polygon fill="midnightblue" stroke="midnightblue" points="158.9,-96.66 150.15,-102.63 160.71,-103.42 158.9,-96.66"/>
</g>
<!-- Node5 -->
<g id="node5" class="node">
<title>Node5</title>
<g id="a_node5"><a xlink:href="_measurement_controller_8cpp.html" target="_top" xlink:title="Main measurement and communication controller.">
<polygon fill="white" stroke="black" points="0,-0.5 0,-63.5 172,-63.5 172,-0.5 0,-0.5"/>
<text text-anchor="start" x="8" y="-51.5" font-family="Helvetica,sans-Serif" font-size="10.00">D:/OneDrive &#45; Avans</text>
<text text-anchor="start" x="8" y="-40.5" font-family="Helvetica,sans-Serif" font-size="10.00"> Hogeschool/Minor/PRO</text>
<text text-anchor="start" x="8" y="-29.5" font-family="Helvetica,sans-Serif" font-size="10.00"> Smart Roofs/Software</text>
<text text-anchor="start" x="8" y="-18.5" font-family="Helvetica,sans-Serif" font-size="10.00">/GreenRoof_Base/src/Measurement</text>
<text text-anchor="middle" x="86" y="-7.5" font-family="Helvetica,sans-Serif" font-size="10.00">Controller.cpp</text>
</a>
</g>
</g>
<!-- Node3&#45;&gt;Node5 -->
<g id="edge4" class="edge">
<title>Node3&#45;&gt;Node5</title>
<path fill="none" stroke="midnightblue" d="M86,-90.1C86,-81.24 86,-72.01 86,-63.63"/>
<polygon fill="midnightblue" stroke="midnightblue" points="82.5,-90.26 86,-100.26 89.5,-90.26 82.5,-90.26"/>
</g>
<!-- Node8&#45;&gt;Node2 -->
<g id="edge8" class="edge">
<title>Node8&#45;&gt;Node2</title>
<path fill="none" stroke="midnightblue" d="M430.03,-292.69C420.99,-283.05 411.4,-272.83 402.75,-263.63"/>
<polygon fill="midnightblue" stroke="midnightblue" points="427.75,-295.37 437.14,-300.26 432.85,-290.57 427.75,-295.37"/>
</g>
<!-- Node8&#45;&gt;Node7 -->
<g id="edge9" class="edge">
<title>Node8&#45;&gt;Node7</title>
<path fill="none" stroke="midnightblue" d="M466,-290.36C466,-250.67 466,-191.52 466,-158.2"/>
<polygon fill="midnightblue" stroke="midnightblue" points="462.5,-290.5 466,-300.5 469.5,-290.5 462.5,-290.5"/>
</g>
<!-- Node9&#45;&gt;Node4 -->
<g id="edge11" class="edge">
<title>Node9&#45;&gt;Node4</title>
<path fill="none" stroke="midnightblue" d="M607.55,-290.9C604.83,-282.16 602.42,-272.87 601,-264 596.51,-235.91 594.43,-227.68 601,-200 613.82,-146 646.99,-89.63 667.61,-58.15"/>
<polygon fill="midnightblue" stroke="midnightblue" points="604.26,-292.09 610.72,-300.49 610.91,-289.89 604.26,-292.09"/>
</g>
<!-- Node10 -->
<g id="node10" class="node">
<title>Node10</title>
<g id="a_node10"><a xlink:href="_h_t_t_p_transmission_8cpp.html" target="_top" xlink:title="Transmission method for HTTP post transfers.">
<polygon fill="white" stroke="black" points="610,-200.5 610,-263.5 760,-263.5 760,-200.5 610,-200.5"/>
<text text-anchor="start" x="618" y="-251.5" font-family="Helvetica,sans-Serif" font-size="10.00">D:/OneDrive &#45; Avans</text>
<text text-anchor="start" x="618" y="-240.5" font-family="Helvetica,sans-Serif" font-size="10.00"> Hogeschool/Minor/PRO</text>
<text text-anchor="start" x="618" y="-229.5" font-family="Helvetica,sans-Serif" font-size="10.00"> Smart Roofs/Software</text>
<text text-anchor="start" x="618" y="-218.5" font-family="Helvetica,sans-Serif" font-size="10.00">/GreenRoof_Base/src/Transmit</text>
<text text-anchor="middle" x="685" y="-207.5" font-family="Helvetica,sans-Serif" font-size="10.00">/HTTPTransmission.cpp</text>
</a>
</g>
</g>
<!-- Node9&#45;&gt;Node10 -->
<g id="edge12" class="edge">
<title>Node9&#45;&gt;Node10</title>
<path fill="none" stroke="midnightblue" d="M647.96,-291.54C653.85,-282.24 660.03,-272.47 665.62,-263.63"/>
<polygon fill="midnightblue" stroke="midnightblue" points="644.84,-289.94 642.45,-300.26 650.75,-293.68 644.84,-289.94"/>
</g>
<!-- Node11&#45;&gt;Node4 -->
<g id="edge14" class="edge">
<title>Node11&#45;&gt;Node4</title>
<path fill="none" stroke="midnightblue" d="M789.85,-290.49C785.81,-264.22 779.14,-229.52 769,-200 750.86,-147.21 719.18,-89.97 700.34,-58.09"/>
<polygon fill="midnightblue" stroke="midnightblue" points="786.4,-291.09 791.32,-300.47 793.33,-290.07 786.4,-291.09"/>
</g>
<!-- Node12 -->
<g id="node12" class="node">
<title>Node12</title>
<g id="a_node12"><a xlink:href="_i_o_t_hub_transmission_8cpp.html" target="_top" xlink:title="IOT Hub based transmission method.">
<polygon fill="white" stroke="black" points="816,-200.5 816,-263.5 966,-263.5 966,-200.5 816,-200.5"/>
<text text-anchor="start" x="824" y="-251.5" font-family="Helvetica,sans-Serif" font-size="10.00">D:/OneDrive &#45; Avans</text>
<text text-anchor="start" x="824" y="-240.5" font-family="Helvetica,sans-Serif" font-size="10.00"> Hogeschool/Minor/PRO</text>
<text text-anchor="start" x="824" y="-229.5" font-family="Helvetica,sans-Serif" font-size="10.00"> Smart Roofs/Software</text>
<text text-anchor="start" x="824" y="-218.5" font-family="Helvetica,sans-Serif" font-size="10.00">/GreenRoof_Base/src/Transmit</text>
<text text-anchor="middle" x="891" y="-207.5" font-family="Helvetica,sans-Serif" font-size="10.00">/IOTHubTransmission.cpp</text>
</a>
</g>
</g>
<!-- Node11&#45;&gt;Node12 -->
<g id="edge15" class="edge">
<title>Node11&#45;&gt;Node12</title>
<path fill="none" stroke="midnightblue" d="M832.25,-292.97C841.77,-283.25 851.89,-272.93 861,-263.63"/>
<polygon fill="midnightblue" stroke="midnightblue" points="829.61,-290.67 825.11,-300.26 834.61,-295.57 829.61,-290.67"/>
</g>
<!-- Node13&#45;&gt;Node4 -->
<g id="edge17" class="edge">
<title>Node13&#45;&gt;Node4</title>
<path fill="none" stroke="midnightblue" d="M996.96,-290.08C996.96,-262.43 992.85,-226.31 975,-200 924.44,-125.48 828.79,-79.98 761.19,-55.67"/>
<polygon fill="midnightblue" stroke="midnightblue" points="993.46,-290.17 996.78,-300.23 1000.46,-290.29 993.46,-290.17"/>
</g>
<!-- Node14 -->
<g id="node14" class="node">
<title>Node14</title>
<g id="a_node14"><a xlink:href="_u_d_p_transmission_8cpp.html" target="_top" xlink:title="Transmission class for publishing to Urban Data Platform.">
<polygon fill="white" stroke="black" points="1022,-200.5 1022,-263.5 1172,-263.5 1172,-200.5 1022,-200.5"/>
<text text-anchor="start" x="1030" y="-251.5" font-family="Helvetica,sans-Serif" font-size="10.00">D:/OneDrive &#45; Avans</text>
<text text-anchor="start" x="1030" y="-240.5" font-family="Helvetica,sans-Serif" font-size="10.00"> Hogeschool/Minor/PRO</text>
<text text-anchor="start" x="1030" y="-229.5" font-family="Helvetica,sans-Serif" font-size="10.00"> Smart Roofs/Software</text>
<text text-anchor="start" x="1030" y="-218.5" font-family="Helvetica,sans-Serif" font-size="10.00">/GreenRoof_Base/src/Transmit</text>
<text text-anchor="middle" x="1097" y="-207.5" font-family="Helvetica,sans-Serif" font-size="10.00">/UDPTransmission.cpp</text>
</a>
</g>
</g>
<!-- Node13&#45;&gt;Node14 -->
<g id="edge18" class="edge">
<title>Node13&#45;&gt;Node14</title>
<path fill="none" stroke="midnightblue" d="M1033.67,-293.26C1043.97,-283.46 1054.94,-273.02 1064.81,-263.63"/>
<polygon fill="midnightblue" stroke="midnightblue" points="1031.14,-290.83 1026.31,-300.26 1035.96,-295.9 1031.14,-290.83"/>
</g>
</g>
</svg>
