<?xml version="1.0" encoding="UTF-8" standalone="no"?>
<!DOCTYPE svg PUBLIC "-//W3C//DTD SVG 1.1//EN"
 "http://www.w3.org/Graphics/SVG/1.1/DTD/svg11.dtd">
<!-- Generated by graphviz version 4.0.0 (20220529.0937)
 -->
<!-- Title: D:/OneDrive &#45; Avans Hogeschool/Minor/PRO Smart Roofs/Software/GreenRoof_Base/src/Transmit/UDPTransmission.cpp Pages: 1 -->
<svg width="322pt" height="408pt"
 viewBox="0.00 0.00 321.82 408.00" xmlns="http://www.w3.org/2000/svg" xmlns:xlink="http://www.w3.org/1999/xlink">
<g id="graph0" class="graph" transform="scale(1 1) rotate(0) translate(4 404)">
<title>D:/OneDrive &#45; Avans Hogeschool/Minor/PRO Smart Roofs/Software/GreenRoof_Base/src/Transmit/UDPTransmission.cpp</title>
<polygon fill="white" stroke="transparent" points="-4,4 -4,-404 317.82,-404 317.82,4 -4,4"/>
<!-- Node1 -->
<g id="node1" class="node">
<title>Node1</title>
<g id="a_node1"><a xlink:title="Transmission class for publishing to Urban Data Platform.">
<polygon fill="#bfbfbf" stroke="black" points="105.82,-336.5 105.82,-399.5 255.82,-399.5 255.82,-336.5 105.82,-336.5"/>
<text text-anchor="start" x="113.82" y="-387.5" font-family="Helvetica,sans-Serif" font-size="10.00">D:/OneDrive &#45; Avans</text>
<text text-anchor="start" x="113.82" y="-376.5" font-family="Helvetica,sans-Serif" font-size="10.00"> Hogeschool/Minor/PRO</text>
<text text-anchor="start" x="113.82" y="-365.5" font-family="Helvetica,sans-Serif" font-size="10.00"> Smart Roofs/Software</text>
<text text-anchor="start" x="113.82" y="-354.5" font-family="Helvetica,sans-Serif" font-size="10.00">/GreenRoof_Base/src/Transmit</text>
<text text-anchor="middle" x="180.82" y="-343.5" font-family="Helvetica,sans-Serif" font-size="10.00">/UDPTransmission.cpp</text>
</a>
</g>
</g>
<!-- Node2 -->
<g id="node2" class="node">
<title>Node2</title>
<g id="a_node2"><a xlink:href="_u_d_p_transmission_8h.html" target="_top" xlink:title="Transmission class for publishing to Urban Data Platform.">
<polygon fill="white" stroke="black" points="109.32,-280.5 109.32,-299.5 252.32,-299.5 252.32,-280.5 109.32,-280.5"/>
<text text-anchor="middle" x="180.82" y="-287.5" font-family="Helvetica,sans-Serif" font-size="10.00">Transmit/UDPTransmission.h</text>
</a>
</g>
</g>
<!-- Node1&#45;&gt;Node2 -->
<g id="edge1" class="edge">
<title>Node1&#45;&gt;Node2</title>
<path fill="none" stroke="midnightblue" d="M180.82,-336.09C180.82,-327.15 180.82,-317.67 180.82,-309.72"/>
<polygon fill="midnightblue" stroke="midnightblue" points="184.32,-309.72 180.82,-299.72 177.32,-309.72 184.32,-309.72"/>
</g>
<!-- Node3 -->
<g id="node3" class="node">
<title>Node3</title>
<g id="a_node3"><a xlink:href="_transmission_base_8h.html" target="_top" xlink:title="Transmission base object.">
<polygon fill="white" stroke="black" points="20.32,-224.5 20.32,-243.5 125.32,-243.5 125.32,-224.5 20.32,-224.5"/>
<text text-anchor="middle" x="72.82" y="-231.5" font-family="Helvetica,sans-Serif" font-size="10.00">TransmissionBase.h</text>
</a>
</g>
</g>
<!-- Node2&#45;&gt;Node3 -->
<g id="edge2" class="edge">
<title>Node2&#45;&gt;Node3</title>
<path fill="none" stroke="midnightblue" d="M163.47,-280.32C146.15,-271.66 119.31,-258.24 99.32,-248.25"/>
<polygon fill="midnightblue" stroke="midnightblue" points="100.64,-245 90.13,-243.65 97.51,-251.26 100.64,-245"/>
</g>
<!-- Node10 -->
<g id="node10" class="node">
<title>Node10</title>
<g id="a_node10"><a xlink:title=" ">
<polygon fill="white" stroke="#bfbfbf" points="143.82,-224.5 143.82,-243.5 217.82,-243.5 217.82,-224.5 143.82,-224.5"/>
<text text-anchor="middle" x="180.82" y="-231.5" font-family="Helvetica,sans-Serif" font-size="10.00">HTTPClient.h</text>
</a>
</g>
</g>
<!-- Node2&#45;&gt;Node10 -->
<g id="edge11" class="edge">
<title>Node2&#45;&gt;Node10</title>
<path fill="none" stroke="midnightblue" d="M180.82,-280.08C180.82,-273.01 180.82,-262.86 180.82,-253.99"/>
<polygon fill="midnightblue" stroke="midnightblue" points="184.32,-253.75 180.82,-243.75 177.32,-253.75 184.32,-253.75"/>
</g>
<!-- Node11 -->
<g id="node11" class="node">
<title>Node11</title>
<g id="a_node11"><a xlink:title=" ">
<polygon fill="white" stroke="#bfbfbf" points="235.82,-224.5 235.82,-243.5 313.82,-243.5 313.82,-224.5 235.82,-224.5"/>
<text text-anchor="middle" x="274.82" y="-231.5" font-family="Helvetica,sans-Serif" font-size="10.00">ArduinoJson.h</text>
</a>
</g>
</g>
<!-- Node2&#45;&gt;Node11 -->
<g id="edge12" class="edge">
<title>Node2&#45;&gt;Node11</title>
<path fill="none" stroke="midnightblue" d="M195.93,-280.32C210.73,-271.82 233.52,-258.73 250.81,-248.8"/>
<polygon fill="midnightblue" stroke="midnightblue" points="252.83,-251.67 259.76,-243.65 249.35,-245.6 252.83,-251.67"/>
</g>
<!-- Node4 -->
<g id="node4" class="node">
<title>Node4</title>
<g id="a_node4"><a xlink:href="_data_object_8h.html" target="_top" xlink:title="Data objects used for sensor data storage.">
<polygon fill="white" stroke="black" points="3.82,-168.5 3.82,-187.5 77.82,-187.5 77.82,-168.5 3.82,-168.5"/>
<text text-anchor="middle" x="40.82" y="-175.5" font-family="Helvetica,sans-Serif" font-size="10.00">DataObject.h</text>
</a>
</g>
</g>
<!-- Node3&#45;&gt;Node4 -->
<g id="edge3" class="edge">
<title>Node3&#45;&gt;Node4</title>
<path fill="none" stroke="midnightblue" d="M67.54,-224.08C63.11,-216.61 56.66,-205.72 51.21,-196.52"/>
<polygon fill="midnightblue" stroke="midnightblue" points="54.12,-194.57 46.01,-187.75 48.1,-198.14 54.12,-194.57"/>
</g>
<!-- Node7 -->
<g id="node7" class="node">
<title>Node7</title>
<g id="a_node7"><a xlink:href="config_8h.html" target="_top" xlink:title="System configuration.">
<polygon fill="white" stroke="black" points="71.32,-112.5 71.32,-131.5 160.32,-131.5 160.32,-112.5 71.32,-112.5"/>
<text text-anchor="middle" x="115.82" y="-119.5" font-family="Helvetica,sans-Serif" font-size="10.00">Settings/config.h</text>
</a>
</g>
</g>
<!-- Node3&#45;&gt;Node7 -->
<g id="edge10" class="edge">
<title>Node3&#45;&gt;Node7</title>
<path fill="none" stroke="midnightblue" d="M76.2,-224.37C83.2,-206.46 99.44,-164.92 108.81,-140.95"/>
<polygon fill="midnightblue" stroke="midnightblue" points="112.09,-142.18 112.47,-131.59 105.57,-139.63 112.09,-142.18"/>
</g>
<!-- Node5 -->
<g id="node5" class="node">
<title>Node5</title>
<g id="a_node5"><a xlink:title=" ">
<polygon fill="white" stroke="#bfbfbf" points="19.82,-0.5 19.82,-19.5 77.82,-19.5 77.82,-0.5 19.82,-0.5"/>
<text text-anchor="middle" x="48.82" y="-7.5" font-family="Helvetica,sans-Serif" font-size="10.00">Arduino.h</text>
</a>
</g>
</g>
<!-- Node4&#45;&gt;Node5 -->
<g id="edge4" class="edge">
<title>Node4&#45;&gt;Node5</title>
<path fill="none" stroke="midnightblue" d="M29.83,-168.37C20.37,-160.17 7.39,-146.92 1.82,-132 -1.28,-123.67 0.74,-120.82 1.82,-112 4.96,-86.54 4.92,-79.22 15.82,-56 20.6,-45.82 27.83,-35.63 34.3,-27.52"/>
<polygon fill="midnightblue" stroke="midnightblue" points="37.16,-29.56 40.88,-19.64 31.78,-25.08 37.16,-29.56"/>
</g>
<!-- Node6 -->
<g id="node6" class="node">
<title>Node6</title>
<g id="a_node6"><a xlink:title=" ">
<polygon fill="white" stroke="#bfbfbf" points="10.82,-112.5 10.82,-131.5 52.82,-131.5 52.82,-112.5 10.82,-112.5"/>
<text text-anchor="middle" x="31.82" y="-119.5" font-family="Helvetica,sans-Serif" font-size="10.00">vector</text>
</a>
</g>
</g>
<!-- Node4&#45;&gt;Node6 -->
<g id="edge5" class="edge">
<title>Node4&#45;&gt;Node6</title>
<path fill="none" stroke="midnightblue" d="M39.34,-168.08C38.15,-160.93 36.43,-150.64 34.94,-141.69"/>
<polygon fill="midnightblue" stroke="midnightblue" points="38.38,-141.04 33.28,-131.75 31.48,-142.19 38.38,-141.04"/>
</g>
<!-- Node4&#45;&gt;Node7 -->
<g id="edge6" class="edge">
<title>Node4&#45;&gt;Node7</title>
<path fill="none" stroke="midnightblue" d="M52.87,-168.32C64.29,-160.11 81.66,-147.6 95.26,-137.81"/>
<polygon fill="midnightblue" stroke="midnightblue" points="97.49,-140.52 103.56,-131.83 93.4,-134.84 97.49,-140.52"/>
</g>
<!-- Node8 -->
<g id="node8" class="node">
<title>Node8</title>
<g id="a_node8"><a xlink:href="keys_8h.html" target="_top" xlink:title="Security keys.">
<polygon fill="white" stroke="black" points="24.82,-56.5 24.82,-75.5 70.82,-75.5 70.82,-56.5 24.82,-56.5"/>
<text text-anchor="middle" x="47.82" y="-63.5" font-family="Helvetica,sans-Serif" font-size="10.00">keys.h</text>
</a>
</g>
</g>
<!-- Node7&#45;&gt;Node8 -->
<g id="edge7" class="edge">
<title>Node7&#45;&gt;Node8</title>
<path fill="none" stroke="midnightblue" d="M104.9,-112.32C94.65,-104.18 79.1,-91.84 66.82,-82.09"/>
<polygon fill="midnightblue" stroke="midnightblue" points="68.96,-79.31 58.95,-75.83 64.6,-84.79 68.96,-79.31"/>
</g>
<!-- Node9 -->
<g id="node9" class="node">
<title>Node9</title>
<g id="a_node9"><a xlink:href="_debug_8h.html" target="_top" xlink:title=" ">
<polygon fill="white" stroke="black" points="89.32,-56.5 89.32,-75.5 142.32,-75.5 142.32,-56.5 89.32,-56.5"/>
<text text-anchor="middle" x="115.82" y="-63.5" font-family="Helvetica,sans-Serif" font-size="10.00">Debug.h</text>
</a>
</g>
</g>
<!-- Node7&#45;&gt;Node9 -->
<g id="edge8" class="edge">
<title>Node7&#45;&gt;Node9</title>
<path fill="none" stroke="midnightblue" d="M115.82,-112.08C115.82,-105.01 115.82,-94.86 115.82,-85.99"/>
<polygon fill="midnightblue" stroke="midnightblue" points="119.32,-85.75 115.82,-75.75 112.32,-85.75 119.32,-85.75"/>
</g>
<!-- Node9&#45;&gt;Node5 -->
<g id="edge9" class="edge">
<title>Node9&#45;&gt;Node5</title>
<path fill="none" stroke="midnightblue" d="M105.06,-56.32C95.06,-48.26 79.94,-36.08 67.89,-26.37"/>
<polygon fill="midnightblue" stroke="midnightblue" points="69.77,-23.38 59.79,-19.83 65.38,-28.83 69.77,-23.38"/>
</g>
</g>
</svg>
