<?xml version="1.0" encoding="UTF-8" standalone="no"?>
<!DOCTYPE svg PUBLIC "-//W3C//DTD SVG 1.1//EN"
 "http://www.w3.org/Graphics/SVG/1.1/DTD/svg11.dtd">
<!-- Generated by graphviz version 4.0.0 (20220529.0937)
 -->
<!-- Title: D:/OneDrive &#45; Avans Hogeschool/Minor/PRO Smart Roofs/Software/GreenRoof_Base/src/Sensors/WaterLevelSensor.cpp Pages: 1 -->
<svg width="258pt" height="352pt"
 viewBox="0.00 0.00 258.00 352.00" xmlns="http://www.w3.org/2000/svg" xmlns:xlink="http://www.w3.org/1999/xlink">
<g id="graph0" class="graph" transform="scale(1 1) rotate(0) translate(4 348)">
<title>D:/OneDrive &#45; Avans Hogeschool/Minor/PRO Smart Roofs/Software/GreenRoof_Base/src/Sensors/WaterLevelSensor.cpp</title>
<polygon fill="white" stroke="transparent" points="-4,4 -4,-348 254,-348 254,4 -4,4"/>
<!-- Node1 -->
<g id="node1" class="node">
<title>Node1</title>
<g id="a_node1"><a xlink:title="Water level sensor class.">
<polygon fill="#bfbfbf" stroke="black" points="0,-280.5 0,-343.5 149,-343.5 149,-280.5 0,-280.5"/>
<text text-anchor="start" x="8" y="-331.5" font-family="Helvetica,sans-Serif" font-size="10.00">D:/OneDrive &#45; Avans</text>
<text text-anchor="start" x="8" y="-320.5" font-family="Helvetica,sans-Serif" font-size="10.00"> Hogeschool/Minor/PRO</text>
<text text-anchor="start" x="8" y="-309.5" font-family="Helvetica,sans-Serif" font-size="10.00"> Smart Roofs/Software</text>
<text text-anchor="start" x="8" y="-298.5" font-family="Helvetica,sans-Serif" font-size="10.00">/GreenRoof_Base/src/Sensors</text>
<text text-anchor="middle" x="74.5" y="-287.5" font-family="Helvetica,sans-Serif" font-size="10.00">/WaterLevelSensor.cpp</text>
</a>
</g>
</g>
<!-- Node2 -->
<g id="node2" class="node">
<title>Node2</title>
<g id="a_node2"><a xlink:href="_water_level_sensor_8h.html" target="_top" xlink:title="Water level sensor class.">
<polygon fill="white" stroke="black" points="3,-224.5 3,-243.5 146,-243.5 146,-224.5 3,-224.5"/>
<text text-anchor="middle" x="74.5" y="-231.5" font-family="Helvetica,sans-Serif" font-size="10.00">Sensors/WaterLevelSensor.h</text>
</a>
</g>
</g>
<!-- Node1&#45;&gt;Node2 -->
<g id="edge1" class="edge">
<title>Node1&#45;&gt;Node2</title>
<path fill="none" stroke="midnightblue" d="M74.5,-280.09C74.5,-271.15 74.5,-261.67 74.5,-253.72"/>
<polygon fill="midnightblue" stroke="midnightblue" points="78,-253.72 74.5,-243.72 71,-253.72 78,-253.72"/>
</g>
<!-- Node3 -->
<g id="node3" class="node">
<title>Node3</title>
<g id="a_node3"><a xlink:title=" ">
<polygon fill="white" stroke="#bfbfbf" points="75.5,-0.5 75.5,-19.5 133.5,-19.5 133.5,-0.5 75.5,-0.5"/>
<text text-anchor="middle" x="104.5" y="-7.5" font-family="Helvetica,sans-Serif" font-size="10.00">Arduino.h</text>
</a>
</g>
</g>
<!-- Node2&#45;&gt;Node3 -->
<g id="edge2" class="edge">
<title>Node2&#45;&gt;Node3</title>
<path fill="none" stroke="midnightblue" d="M50.71,-224.5C34.78,-217.41 15.04,-205.61 5.5,-188 1.27,-180.18 3.03,-176.54 5.5,-168 22.05,-110.74 66.37,-54.25 89.69,-27.32"/>
<polygon fill="midnightblue" stroke="midnightblue" points="92.47,-29.47 96.46,-19.65 87.22,-24.83 92.47,-29.47"/>
</g>
<!-- Node4 -->
<g id="node4" class="node">
<title>Node4</title>
<g id="a_node4"><a xlink:title=" ">
<polygon fill="white" stroke="#bfbfbf" points="15,-168.5 15,-187.5 62,-187.5 62,-168.5 15,-168.5"/>
<text text-anchor="middle" x="38.5" y="-175.5" font-family="Helvetica,sans-Serif" font-size="10.00">math.h</text>
</a>
</g>
</g>
<!-- Node2&#45;&gt;Node4 -->
<g id="edge3" class="edge">
<title>Node2&#45;&gt;Node4</title>
<path fill="none" stroke="midnightblue" d="M68.56,-224.08C63.52,-216.53 56.16,-205.49 49.99,-196.23"/>
<polygon fill="midnightblue" stroke="midnightblue" points="52.79,-194.13 44.33,-187.75 46.97,-198.01 52.79,-194.13"/>
</g>
<!-- Node5 -->
<g id="node5" class="node">
<title>Node5</title>
<g id="a_node5"><a xlink:title=" ">
<polygon fill="white" stroke="#bfbfbf" points="80,-168.5 80,-187.5 143,-187.5 143,-168.5 80,-168.5"/>
<text text-anchor="middle" x="111.5" y="-175.5" font-family="Helvetica,sans-Serif" font-size="10.00">NewPing.h</text>
</a>
</g>
</g>
<!-- Node2&#45;&gt;Node5 -->
<g id="edge4" class="edge">
<title>Node2&#45;&gt;Node5</title>
<path fill="none" stroke="midnightblue" d="M80.61,-224.08C85.78,-216.53 93.35,-205.49 99.69,-196.23"/>
<polygon fill="midnightblue" stroke="midnightblue" points="102.74,-197.98 105.5,-187.75 96.96,-194.02 102.74,-197.98"/>
</g>
<!-- Node6 -->
<g id="node6" class="node">
<title>Node6</title>
<g id="a_node6"><a xlink:href="_sensor_base_8h.html" target="_top" xlink:title="Sensor base object Interface.">
<polygon fill="white" stroke="black" points="161.5,-168.5 161.5,-187.5 239.5,-187.5 239.5,-168.5 161.5,-168.5"/>
<text text-anchor="middle" x="200.5" y="-175.5" font-family="Helvetica,sans-Serif" font-size="10.00">SensorBase.h</text>
</a>
</g>
</g>
<!-- Node2&#45;&gt;Node6 -->
<g id="edge5" class="edge">
<title>Node2&#45;&gt;Node6</title>
<path fill="none" stroke="midnightblue" d="M94.47,-224.44C115.11,-215.6 147.56,-201.69 171.13,-191.59"/>
<polygon fill="midnightblue" stroke="midnightblue" points="172.82,-194.67 180.63,-187.52 170.06,-188.24 172.82,-194.67"/>
</g>
<!-- Node6&#45;&gt;Node3 -->
<g id="edge6" class="edge">
<title>Node6&#45;&gt;Node3</title>
<path fill="none" stroke="midnightblue" d="M186.91,-168.48C174.9,-160.36 157.62,-147.15 146.5,-132 123.35,-100.44 112.18,-55.07 107.46,-29.8"/>
<polygon fill="midnightblue" stroke="midnightblue" points="110.87,-28.99 105.72,-19.73 103.97,-30.18 110.87,-28.99"/>
</g>
<!-- Node7 -->
<g id="node7" class="node">
<title>Node7</title>
<g id="a_node7"><a xlink:href="config_8h.html" target="_top" xlink:title="System configuration.">
<polygon fill="white" stroke="black" points="156,-112.5 156,-131.5 245,-131.5 245,-112.5 156,-112.5"/>
<text text-anchor="middle" x="200.5" y="-119.5" font-family="Helvetica,sans-Serif" font-size="10.00">Settings/config.h</text>
</a>
</g>
</g>
<!-- Node6&#45;&gt;Node7 -->
<g id="edge7" class="edge">
<title>Node6&#45;&gt;Node7</title>
<path fill="none" stroke="midnightblue" d="M200.5,-168.08C200.5,-161.01 200.5,-150.86 200.5,-141.99"/>
<polygon fill="midnightblue" stroke="midnightblue" points="204,-141.75 200.5,-131.75 197,-141.75 204,-141.75"/>
</g>
<!-- Node8 -->
<g id="node8" class="node">
<title>Node8</title>
<g id="a_node8"><a xlink:href="keys_8h.html" target="_top" xlink:title="Security keys.">
<polygon fill="white" stroke="black" points="132.5,-56.5 132.5,-75.5 178.5,-75.5 178.5,-56.5 132.5,-56.5"/>
<text text-anchor="middle" x="155.5" y="-63.5" font-family="Helvetica,sans-Serif" font-size="10.00">keys.h</text>
</a>
</g>
</g>
<!-- Node7&#45;&gt;Node8 -->
<g id="edge8" class="edge">
<title>Node7&#45;&gt;Node8</title>
<path fill="none" stroke="midnightblue" d="M193.07,-112.08C186.65,-104.38 177.19,-93.03 169.38,-83.65"/>
<polygon fill="midnightblue" stroke="midnightblue" points="171.88,-81.19 162.79,-75.75 166.51,-85.67 171.88,-81.19"/>
</g>
<!-- Node9 -->
<g id="node9" class="node">
<title>Node9</title>
<g id="a_node9"><a xlink:href="_debug_8h.html" target="_top" xlink:title=" ">
<polygon fill="white" stroke="black" points="197,-56.5 197,-75.5 250,-75.5 250,-56.5 197,-56.5"/>
<text text-anchor="middle" x="223.5" y="-63.5" font-family="Helvetica,sans-Serif" font-size="10.00">Debug.h</text>
</a>
</g>
</g>
<!-- Node7&#45;&gt;Node9 -->
<g id="edge9" class="edge">
<title>Node7&#45;&gt;Node9</title>
<path fill="none" stroke="midnightblue" d="M204.3,-112.08C207.41,-104.77 211.92,-94.18 215.79,-85.1"/>
<polygon fill="midnightblue" stroke="midnightblue" points="219.07,-86.32 219.77,-75.75 212.63,-83.58 219.07,-86.32"/>
</g>
<!-- Node9&#45;&gt;Node3 -->
<g id="edge10" class="edge">
<title>Node9&#45;&gt;Node3</title>
<path fill="none" stroke="midnightblue" d="M204.64,-56.44C185.23,-47.64 154.77,-33.81 132.54,-23.72"/>
<polygon fill="midnightblue" stroke="midnightblue" points="133.82,-20.46 123.27,-19.52 130.93,-26.84 133.82,-20.46"/>
</g>
</g>
</svg>
