<?xml version="1.0" encoding="UTF-8" standalone="no"?>
<!DOCTYPE svg PUBLIC "-//W3C//DTD SVG 1.1//EN"
 "http://www.w3.org/Graphics/SVG/1.1/DTD/svg11.dtd">
<!-- Generated by graphviz version 4.0.0 (20220529.0937)
 -->
<!-- Title: D:/OneDrive &#45; Avans Hogeschool/Minor/PRO Smart Roofs/Software/GreenRoof_Base/include/Sensors/WaterLevelSensor.h Pages: 1 -->
<svg width="257pt" height="296pt"
 viewBox="0.00 0.00 256.50 296.00" xmlns="http://www.w3.org/2000/svg" xmlns:xlink="http://www.w3.org/1999/xlink">
<g id="graph0" class="graph" transform="scale(1 1) rotate(0) translate(4 292)">
<title>D:/OneDrive &#45; Avans Hogeschool/Minor/PRO Smart Roofs/Software/GreenRoof_Base/include/Sensors/WaterLevelSensor.h</title>
<polygon fill="white" stroke="transparent" points="-4,4 -4,-292 252.5,-292 252.5,4 -4,4"/>
<!-- Node1 -->
<g id="node1" class="node">
<title>Node1</title>
<g id="a_node1"><a xlink:title="Water level sensor class.">
<polygon fill="#bfbfbf" stroke="black" points="0,-224.5 0,-287.5 146,-287.5 146,-224.5 0,-224.5"/>
<text text-anchor="start" x="8" y="-275.5" font-family="Helvetica,sans-Serif" font-size="10.00">D:/OneDrive &#45; Avans</text>
<text text-anchor="start" x="8" y="-264.5" font-family="Helvetica,sans-Serif" font-size="10.00"> Hogeschool/Minor/PRO</text>
<text text-anchor="start" x="8" y="-253.5" font-family="Helvetica,sans-Serif" font-size="10.00"> Smart Roofs/Software</text>
<text text-anchor="start" x="8" y="-242.5" font-family="Helvetica,sans-Serif" font-size="10.00">/GreenRoof_Base/include</text>
<text text-anchor="middle" x="73" y="-231.5" font-family="Helvetica,sans-Serif" font-size="10.00">/Sensors/WaterLevelSensor.h</text>
</a>
</g>
</g>
<!-- Node2 -->
<g id="node2" class="node">
<title>Node2</title>
<g id="a_node2"><a xlink:title=" ">
<polygon fill="white" stroke="#bfbfbf" points="74,-0.5 74,-19.5 132,-19.5 132,-0.5 74,-0.5"/>
<text text-anchor="middle" x="103" y="-7.5" font-family="Helvetica,sans-Serif" font-size="10.00">Arduino.h</text>
</a>
</g>
</g>
<!-- Node1&#45;&gt;Node2 -->
<g id="edge1" class="edge">
<title>Node1&#45;&gt;Node2</title>
<path fill="none" stroke="midnightblue" d="M27.66,-224.28C11.14,-209.02 -2.15,-189.3 4,-168 20.55,-110.74 64.87,-54.25 88.19,-27.32"/>
<polygon fill="midnightblue" stroke="midnightblue" points="90.97,-29.47 94.96,-19.65 85.72,-24.83 90.97,-29.47"/>
</g>
<!-- Node3 -->
<g id="node3" class="node">
<title>Node3</title>
<g id="a_node3"><a xlink:title=" ">
<polygon fill="white" stroke="#bfbfbf" points="13.5,-168.5 13.5,-187.5 60.5,-187.5 60.5,-168.5 13.5,-168.5"/>
<text text-anchor="middle" x="37" y="-175.5" font-family="Helvetica,sans-Serif" font-size="10.00">math.h</text>
</a>
</g>
</g>
<!-- Node1&#45;&gt;Node3 -->
<g id="edge2" class="edge">
<title>Node1&#45;&gt;Node3</title>
<path fill="none" stroke="midnightblue" d="M58.36,-224.09C53.98,-214.84 49.32,-205.01 45.48,-196.9"/>
<polygon fill="midnightblue" stroke="midnightblue" points="48.57,-195.26 41.13,-187.72 42.25,-198.25 48.57,-195.26"/>
</g>
<!-- Node4 -->
<g id="node4" class="node">
<title>Node4</title>
<g id="a_node4"><a xlink:title=" ">
<polygon fill="white" stroke="#bfbfbf" points="78.5,-168.5 78.5,-187.5 141.5,-187.5 141.5,-168.5 78.5,-168.5"/>
<text text-anchor="middle" x="110" y="-175.5" font-family="Helvetica,sans-Serif" font-size="10.00">NewPing.h</text>
</a>
</g>
</g>
<!-- Node1&#45;&gt;Node4 -->
<g id="edge3" class="edge">
<title>Node1&#45;&gt;Node4</title>
<path fill="none" stroke="midnightblue" d="M88.05,-224.09C92.55,-214.84 97.34,-205.01 101.28,-196.9"/>
<polygon fill="midnightblue" stroke="midnightblue" points="104.53,-198.24 105.76,-187.72 98.23,-195.18 104.53,-198.24"/>
</g>
<!-- Node5 -->
<g id="node5" class="node">
<title>Node5</title>
<g id="a_node5"><a xlink:href="_sensor_base_8h.html" target="_top" xlink:title="Sensor base object Interface.">
<polygon fill="white" stroke="black" points="160,-168.5 160,-187.5 238,-187.5 238,-168.5 160,-168.5"/>
<text text-anchor="middle" x="199" y="-175.5" font-family="Helvetica,sans-Serif" font-size="10.00">SensorBase.h</text>
</a>
</g>
</g>
<!-- Node1&#45;&gt;Node5 -->
<g id="edge4" class="edge">
<title>Node1&#45;&gt;Node5</title>
<path fill="none" stroke="midnightblue" d="M123.89,-224.31C141.93,-213.43 161.34,-201.71 175.92,-192.92"/>
<polygon fill="midnightblue" stroke="midnightblue" points="177.98,-195.77 184.73,-187.61 174.36,-189.77 177.98,-195.77"/>
</g>
<!-- Node5&#45;&gt;Node2 -->
<g id="edge5" class="edge">
<title>Node5&#45;&gt;Node2</title>
<path fill="none" stroke="midnightblue" d="M185.41,-168.48C173.4,-160.36 156.12,-147.15 145,-132 121.85,-100.44 110.68,-55.07 105.96,-29.8"/>
<polygon fill="midnightblue" stroke="midnightblue" points="109.37,-28.99 104.22,-19.73 102.47,-30.18 109.37,-28.99"/>
</g>
<!-- Node6 -->
<g id="node6" class="node">
<title>Node6</title>
<g id="a_node6"><a xlink:href="config_8h.html" target="_top" xlink:title="System configuration.">
<polygon fill="white" stroke="black" points="154.5,-112.5 154.5,-131.5 243.5,-131.5 243.5,-112.5 154.5,-112.5"/>
<text text-anchor="middle" x="199" y="-119.5" font-family="Helvetica,sans-Serif" font-size="10.00">Settings/config.h</text>
</a>
</g>
</g>
<!-- Node5&#45;&gt;Node6 -->
<g id="edge6" class="edge">
<title>Node5&#45;&gt;Node6</title>
<path fill="none" stroke="midnightblue" d="M199,-168.08C199,-161.01 199,-150.86 199,-141.99"/>
<polygon fill="midnightblue" stroke="midnightblue" points="202.5,-141.75 199,-131.75 195.5,-141.75 202.5,-141.75"/>
</g>
<!-- Node7 -->
<g id="node7" class="node">
<title>Node7</title>
<g id="a_node7"><a xlink:href="keys_8h.html" target="_top" xlink:title="Security keys.">
<polygon fill="white" stroke="black" points="131,-56.5 131,-75.5 177,-75.5 177,-56.5 131,-56.5"/>
<text text-anchor="middle" x="154" y="-63.5" font-family="Helvetica,sans-Serif" font-size="10.00">keys.h</text>
</a>
</g>
</g>
<!-- Node6&#45;&gt;Node7 -->
<g id="edge7" class="edge">
<title>Node6&#45;&gt;Node7</title>
<path fill="none" stroke="midnightblue" d="M191.57,-112.08C185.15,-104.38 175.69,-93.03 167.88,-83.65"/>
<polygon fill="midnightblue" stroke="midnightblue" points="170.38,-81.19 161.29,-75.75 165.01,-85.67 170.38,-81.19"/>
</g>
<!-- Node8 -->
<g id="node8" class="node">
<title>Node8</title>
<g id="a_node8"><a xlink:href="_debug_8h.html" target="_top" xlink:title=" ">
<polygon fill="white" stroke="black" points="195.5,-56.5 195.5,-75.5 248.5,-75.5 248.5,-56.5 195.5,-56.5"/>
<text text-anchor="middle" x="222" y="-63.5" font-family="Helvetica,sans-Serif" font-size="10.00">Debug.h</text>
</a>
</g>
</g>
<!-- Node6&#45;&gt;Node8 -->
<g id="edge8" class="edge">
<title>Node6&#45;&gt;Node8</title>
<path fill="none" stroke="midnightblue" d="M202.8,-112.08C205.91,-104.77 210.42,-94.18 214.29,-85.1"/>
<polygon fill="midnightblue" stroke="midnightblue" points="217.57,-86.32 218.27,-75.75 211.13,-83.58 217.57,-86.32"/>
</g>
<!-- Node8&#45;&gt;Node2 -->
<g id="edge9" class="edge">
<title>Node8&#45;&gt;Node2</title>
<path fill="none" stroke="midnightblue" d="M203.14,-56.44C183.73,-47.64 153.27,-33.81 131.04,-23.72"/>
<polygon fill="midnightblue" stroke="midnightblue" points="132.32,-20.46 121.77,-19.52 129.43,-26.84 132.32,-20.46"/>
</g>
</g>
</svg>
