<?xml version="1.0" encoding="UTF-8" standalone="no"?>
<!DOCTYPE svg PUBLIC "-//W3C//DTD SVG 1.1//EN"
 "http://www.w3.org/Graphics/SVG/1.1/DTD/svg11.dtd">
<!-- Generated by graphviz version 4.0.0 (20220529.0937)
 -->
<!-- Title: HTTPTransmission Pages: 1 -->
<svg width="129pt" height="354pt"
 viewBox="0.00 0.00 128.50 354.00" xmlns="http://www.w3.org/2000/svg" xmlns:xlink="http://www.w3.org/1999/xlink">
<g id="graph0" class="graph" transform="scale(1 1) rotate(0) translate(4 350)">
<title>HTTPTransmission</title>
<polygon fill="white" stroke="transparent" points="-4,4 -4,-350 124.5,-350 124.5,4 -4,4"/>
<!-- Node1 -->
<g id="node1" class="node">
<title>Node1</title>
<g id="a_node1"><a xlink:title="HTTP Post transmission.">
<polygon fill="#bfbfbf" stroke="black" points="0,-0.5 0,-90.5 119,-90.5 119,-0.5 0,-0.5"/>
<text text-anchor="middle" x="59.5" y="-78.5" font-family="Helvetica,sans-Serif" font-size="10.00">HTTPTransmission</text>
<polyline fill="none" stroke="black" points="0,-71.5 119,-71.5 "/>
<text text-anchor="start" x="8" y="-59.5" font-family="Helvetica,sans-Serif" font-size="10.00">&#45; _httpClient</text>
<polyline fill="none" stroke="black" points="0,-52.5 119,-52.5 "/>
<text text-anchor="start" x="8" y="-40.5" font-family="Helvetica,sans-Serif" font-size="10.00">+ HTTPTransmission()</text>
<text text-anchor="start" x="8" y="-29.5" font-family="Helvetica,sans-Serif" font-size="10.00">+ ~HTTPTransmission()</text>
<text text-anchor="start" x="8" y="-18.5" font-family="Helvetica,sans-Serif" font-size="10.00">+ transmitData()</text>
<text text-anchor="start" x="8" y="-7.5" font-family="Helvetica,sans-Serif" font-size="10.00">&#45; parseData()</text>
</a>
</g>
</g>
<!-- Node2 -->
<g id="node2" class="node">
<title>Node2</title>
<g id="a_node2"><a xlink:href="class_transmission_base.html" target="_top" xlink:title="Base class for sending data to one of the endpoints.">
<polygon fill="white" stroke="black" points="0.5,-128.5 0.5,-229.5 118.5,-229.5 118.5,-128.5 0.5,-128.5"/>
<text text-anchor="middle" x="59.5" y="-217.5" font-family="Helvetica,sans-Serif" font-size="10.00">TransmissionBase</text>
<polyline fill="none" stroke="black" points="0.5,-210.5 118.5,-210.5 "/>
<text text-anchor="start" x="8.5" y="-198.5" font-family="Helvetica,sans-Serif" font-size="10.00"># _parsedData</text>
<polyline fill="none" stroke="black" points="0.5,-191.5 118.5,-191.5 "/>
<text text-anchor="start" x="8.5" y="-179.5" font-family="Helvetica,sans-Serif" font-size="10.00">+ TransmissionBase()</text>
<text text-anchor="start" x="8.5" y="-168.5" font-family="Helvetica,sans-Serif" font-size="10.00">+ ~TransmissionBase()</text>
<text text-anchor="start" x="8.5" y="-157.5" font-family="Helvetica,sans-Serif" font-size="10.00">+ transmitData()</text>
<text text-anchor="start" x="8.5" y="-146.5" font-family="Helvetica,sans-Serif" font-size="10.00">+ close()</text>
<text text-anchor="start" x="8.5" y="-135.5" font-family="Helvetica,sans-Serif" font-size="10.00">&#45; parseData()</text>
</a>
</g>
</g>
<!-- Node2&#45;&gt;Node1 -->
<g id="edge1" class="edge">
<title>Node2&#45;&gt;Node1</title>
<path fill="none" stroke="midnightblue" d="M59.5,-118C59.5,-108.8 59.5,-99.45 59.5,-90.67"/>
<polygon fill="none" stroke="midnightblue" points="56,-118.29 59.5,-128.29 63,-118.29 56,-118.29"/>
</g>
<!-- Node3 -->
<g id="node3" class="node">
<title>Node3</title>
<g id="a_node3"><a xlink:href="struct_data_object.html" target="_top" xlink:title="Data object.">
<polygon fill="white" stroke="black" points="24,-277.5 24,-345.5 95,-345.5 95,-277.5 24,-277.5"/>
<text text-anchor="middle" x="59.5" y="-333.5" font-family="Helvetica,sans-Serif" font-size="10.00">DataObject</text>
<polyline fill="none" stroke="black" points="24,-326.5 95,-326.5 "/>
<text text-anchor="start" x="32" y="-314.5" font-family="Helvetica,sans-Serif" font-size="10.00">+ timestamp</text>
<text text-anchor="start" x="32" y="-303.5" font-family="Helvetica,sans-Serif" font-size="10.00">+ items</text>
<polyline fill="none" stroke="black" points="24,-296.5 95,-296.5 "/>
<text text-anchor="middle" x="59.5" y="-284.5" font-family="Helvetica,sans-Serif" font-size="10.00"> </text>
</a>
</g>
</g>
<!-- Node3&#45;&gt;Node2 -->
<g id="edge2" class="edge">
<title>Node3&#45;&gt;Node2</title>
<path fill="none" stroke="#404040" d="M59.5,-277.23C59.5,-266.47 59.5,-254.17 59.5,-242.02"/>
<polygon fill="none" stroke="#404040" points="59.5,-241.98 55.5,-235.98 59.5,-229.98 63.5,-235.98 59.5,-241.98"/>
<text text-anchor="middle" x="90" y="-251" font-family="Helvetica,sans-Serif" font-size="10.00"> #_dataObject</text>
</g>
</g>
</svg>
