<?xml version="1.0" encoding="UTF-8" standalone="no"?>
<!DOCTYPE svg PUBLIC "-//W3C//DTD SVG 1.1//EN"
 "http://www.w3.org/Graphics/SVG/1.1/DTD/svg11.dtd">
<!-- Generated by graphviz version 4.0.0 (20220529.0937)
 -->
<!-- Title: DataPublisher::wirelessEvent Pages: 1 -->
<svg width="725pt" height="39pt"
 viewBox="0.00 0.00 725.00 39.00" xmlns="http://www.w3.org/2000/svg" xmlns:xlink="http://www.w3.org/1999/xlink">
<g id="graph0" class="graph" transform="scale(1 1) rotate(0) translate(4 35)">
<title>DataPublisher::wirelessEvent</title>
<polygon fill="white" stroke="transparent" points="-4,4 -4,-35 721,-35 721,4 -4,4"/>
<!-- Node1 -->
<g id="node1" class="node">
<title>Node1</title>
<g id="a_node1"><a xlink:title="Wireless event callback method.">
<polygon fill="#bfbfbf" stroke="black" points="574,-6 574,-25 717,-25 717,-6 574,-6"/>
<text text-anchor="middle" x="645.5" y="-13" font-family="Helvetica,sans-Serif" font-size="10.00">DataPublisher::wirelessEvent</text>
</a>
</g>
</g>
<!-- Node2 -->
<g id="node2" class="node">
<title>Node2</title>
<g id="a_node2"><a xlink:href="class_data_publisher.html#a4740f93775ead74b0bd4341dadac8b73" target="_top" xlink:title="Connect to the wireless network.">
<polygon fill="white" stroke="black" points="383,-6 383,-25 538,-25 538,-6 383,-6"/>
<text text-anchor="middle" x="460.5" y="-13" font-family="Helvetica,sans-Serif" font-size="10.00">DataPublisher::wirelessConnect</text>
</a>
</g>
</g>
<!-- Node1&#45;&gt;Node2 -->
<g id="edge1" class="edge">
<title>Node1&#45;&gt;Node2</title>
<path fill="none" stroke="midnightblue" d="M563.53,-15.5C555.09,-15.5 546.53,-15.5 538.14,-15.5"/>
<polygon fill="midnightblue" stroke="midnightblue" points="563.75,-19 573.75,-15.5 563.75,-12 563.75,-19"/>
</g>
<!-- Node3 -->
<g id="node3" class="node">
<title>Node3</title>
<g id="a_node3"><a xlink:href="class_measurement_controller.html#a1ffafc43dd499e1f52f0b72d712eb548" target="_top" xlink:title="Setup Data publisher connection.">
<polygon fill="white" stroke="black" points="230,-0.5 230,-30.5 347,-30.5 347,-0.5 230,-0.5"/>
<text text-anchor="start" x="238" y="-18.5" font-family="Helvetica,sans-Serif" font-size="10.00">MeasurementController</text>
<text text-anchor="middle" x="288.5" y="-7.5" font-family="Helvetica,sans-Serif" font-size="10.00">::connect</text>
</a>
</g>
</g>
<!-- Node2&#45;&gt;Node3 -->
<g id="edge2" class="edge">
<title>Node2&#45;&gt;Node3</title>
<path fill="none" stroke="midnightblue" d="M372.73,-15.5C364.02,-15.5 355.33,-15.5 347.03,-15.5"/>
<polygon fill="midnightblue" stroke="midnightblue" points="372.95,-19 382.95,-15.5 372.95,-12 372.95,-19"/>
</g>
<!-- Node4 -->
<g id="node4" class="node">
<title>Node4</title>
<g id="a_node4"><a xlink:href="class_measurement_controller.html#abeba7c187f196061dd3ac727746a3971" target="_top" xlink:title="Run threaded process for measurements.">
<polygon fill="white" stroke="black" points="77,-0.5 77,-30.5 194,-30.5 194,-0.5 77,-0.5"/>
<text text-anchor="start" x="85" y="-18.5" font-family="Helvetica,sans-Serif" font-size="10.00">MeasurementController</text>
<text text-anchor="middle" x="135.5" y="-7.5" font-family="Helvetica,sans-Serif" font-size="10.00">::runProcess</text>
</a>
</g>
</g>
<!-- Node3&#45;&gt;Node4 -->
<g id="edge3" class="edge">
<title>Node3&#45;&gt;Node4</title>
<path fill="none" stroke="midnightblue" d="M219.95,-15.5C211.32,-15.5 202.56,-15.5 194.11,-15.5"/>
<polygon fill="midnightblue" stroke="midnightblue" points="219.98,-19 229.98,-15.5 219.98,-12 219.98,-19"/>
</g>
<!-- Node5 -->
<g id="node5" class="node">
<title>Node5</title>
<g id="a_node5"><a xlink:href="main_8cpp.html#a4fc01d736fe50cf5b977f755b675f11d" target="_top" xlink:title="Single run function on startup.">
<polygon fill="white" stroke="black" points="0,-6 0,-25 41,-25 41,-6 0,-6"/>
<text text-anchor="middle" x="20.5" y="-13" font-family="Helvetica,sans-Serif" font-size="10.00">setup</text>
</a>
</g>
</g>
<!-- Node4&#45;&gt;Node5 -->
<g id="edge4" class="edge">
<title>Node4&#45;&gt;Node5</title>
<path fill="none" stroke="midnightblue" d="M66.53,-15.5C57.29,-15.5 48.48,-15.5 41.14,-15.5"/>
<polygon fill="midnightblue" stroke="midnightblue" points="66.68,-19 76.68,-15.5 66.68,-12 66.68,-19"/>
</g>
</g>
</svg>
