<?xml version="1.0" encoding="UTF-8" standalone="no"?>
<!DOCTYPE svg PUBLIC "-//W3C//DTD SVG 1.1//EN"
 "http://www.w3.org/Graphics/SVG/1.1/DTD/svg11.dtd">
<!-- Generated by graphviz version 4.0.0 (20220529.0937)
 -->
<!-- Title: AzIoTSasToken::Generate Pages: 1 -->
<svg width="429pt" height="50pt"
 viewBox="0.00 0.00 429.00 50.00" xmlns="http://www.w3.org/2000/svg" xmlns:xlink="http://www.w3.org/1999/xlink">
<g id="graph0" class="graph" transform="scale(1 1) rotate(0) translate(4 46)">
<title>AzIoTSasToken::Generate</title>
<polygon fill="white" stroke="transparent" points="-4,4 -4,-46 425,-46 425,4 -4,4"/>
<!-- Node1 -->
<g id="node1" class="node">
<title>Node1</title>
<g id="a_node1"><a xlink:title="Generate SAS token.">
<polygon fill="#bfbfbf" stroke="black" points="0,-11.5 0,-30.5 131,-30.5 131,-11.5 0,-11.5"/>
<text text-anchor="middle" x="65.5" y="-18.5" font-family="Helvetica,sans-Serif" font-size="10.00">AzIoTSasToken::Generate</text>
</a>
</g>
</g>
<!-- Node2 -->
<g id="node2" class="node">
<title>Node2</title>
<g id="a_node2"><a xlink:href="_az_io_t_sas_token_8cpp.html#a9361b5ac49e244c3ea729d6e24b5619b" target="_top" xlink:title=" ">
<polygon fill="white" stroke="black" points="167,-11.5 167,-30.5 271,-30.5 271,-11.5 167,-11.5"/>
<text text-anchor="middle" x="219" y="-18.5" font-family="Helvetica,sans-Serif" font-size="10.00">generate_sas_token</text>
</a>
</g>
</g>
<!-- Node1&#45;&gt;Node2 -->
<g id="edge1" class="edge">
<title>Node1&#45;&gt;Node2</title>
<path fill="none" stroke="midnightblue" d="M131.19,-21C139.65,-21 148.3,-21 156.71,-21"/>
<polygon fill="midnightblue" stroke="midnightblue" points="156.8,-24.5 166.8,-21 156.8,-17.5 156.8,-24.5"/>
</g>
<!-- Node3 -->
<g id="node3" class="node">
<title>Node3</title>
<g id="a_node3"><a xlink:href="_az_io_t_sas_token_8cpp.html#ae0a4dcdbdc7bdbc6fc7d9657cce34940" target="_top" xlink:title=" ">
<polygon fill="white" stroke="black" points="307,-0.5 307,-41.5 421,-41.5 421,-0.5 307,-0.5"/>
<text text-anchor="start" x="315" y="-29.5" font-family="Helvetica,sans-Serif" font-size="10.00">iot_sample_get_epoch</text>
<text text-anchor="start" x="315" y="-18.5" font-family="Helvetica,sans-Serif" font-size="10.00">_expiration_time_from</text>
<text text-anchor="middle" x="364" y="-7.5" font-family="Helvetica,sans-Serif" font-size="10.00">_minutes</text>
</a>
</g>
</g>
<!-- Node2&#45;&gt;Node3 -->
<g id="edge2" class="edge">
<title>Node2&#45;&gt;Node3</title>
<path fill="none" stroke="midnightblue" d="M271.22,-21C279.52,-21 288.21,-21 296.8,-21"/>
<polygon fill="midnightblue" stroke="midnightblue" points="296.8,-24.5 306.8,-21 296.8,-17.5 296.8,-24.5"/>
</g>
</g>
</svg>
