<?xml version="1.0" encoding="UTF-8" standalone="no"?>
<!DOCTYPE svg PUBLIC "-//W3C//DTD SVG 1.1//EN"
 "http://www.w3.org/Graphics/SVG/1.1/DTD/svg11.dtd">
<!-- Generated by graphviz version 4.0.0 (20220529.0937)
 -->
<!-- Title: DS18B20Sensor Pages: 1 -->
<svg width="308pt" height="325pt"
 viewBox="0.00 0.00 307.50 325.00" xmlns="http://www.w3.org/2000/svg" xmlns:xlink="http://www.w3.org/1999/xlink">
<g id="graph0" class="graph" transform="scale(1 1) rotate(0) translate(4 321)">
<title>DS18B20Sensor</title>
<polygon fill="white" stroke="transparent" points="-4,4 -4,-321 303.5,-321 303.5,4 -4,4"/>
<!-- Node1 -->
<g id="node1" class="node">
<title>Node1</title>
<g id="a_node1"><a xlink:title="One wire temperature sensor implementation.">
<polygon fill="#bfbfbf" stroke="black" points="79,-0.5 79,-101.5 211,-101.5 211,-0.5 79,-0.5"/>
<text text-anchor="middle" x="145" y="-89.5" font-family="Helvetica,sans-Serif" font-size="10.00">DS18B20Sensor</text>
<polyline fill="none" stroke="black" points="79,-82.5 211,-82.5 "/>
<text text-anchor="start" x="87" y="-70.5" font-family="Helvetica,sans-Serif" font-size="10.00">&#45; _busAddress</text>
<polyline fill="none" stroke="black" points="79,-63.5 211,-63.5 "/>
<text text-anchor="start" x="87" y="-51.5" font-family="Helvetica,sans-Serif" font-size="10.00">+ DS18B20Sensor()</text>
<text text-anchor="start" x="87" y="-40.5" font-family="Helvetica,sans-Serif" font-size="10.00">+ DS18B20Sensor()</text>
<text text-anchor="start" x="87" y="-29.5" font-family="Helvetica,sans-Serif" font-size="10.00">+ ~DS18B20Sensor()</text>
<text text-anchor="start" x="87" y="-18.5" font-family="Helvetica,sans-Serif" font-size="10.00">+ startMeasurement()</text>
<text text-anchor="start" x="87" y="-7.5" font-family="Helvetica,sans-Serif" font-size="10.00">+ getMeasurementResult()</text>
</a>
</g>
</g>
<!-- Node2 -->
<g id="node2" class="node">
<title>Node2</title>
<g id="a_node2"><a xlink:href="class_sensor_base.html" target="_top" xlink:title="Sensor base class.">
<polygon fill="white" stroke="black" points="0,-188 0,-278 132,-278 132,-188 0,-188"/>
<text text-anchor="middle" x="66" y="-266" font-family="Helvetica,sans-Serif" font-size="10.00">SensorBase</text>
<polyline fill="none" stroke="black" points="0,-259 132,-259 "/>
<text text-anchor="start" x="8" y="-247" font-family="Helvetica,sans-Serif" font-size="10.00"># _sensorValue</text>
<polyline fill="none" stroke="black" points="0,-240 132,-240 "/>
<text text-anchor="start" x="8" y="-228" font-family="Helvetica,sans-Serif" font-size="10.00">+ SensorBase()</text>
<text text-anchor="start" x="8" y="-217" font-family="Helvetica,sans-Serif" font-size="10.00">+ ~SensorBase()</text>
<text text-anchor="start" x="8" y="-206" font-family="Helvetica,sans-Serif" font-size="10.00">+ startMeasurement()</text>
<text text-anchor="start" x="8" y="-195" font-family="Helvetica,sans-Serif" font-size="10.00">+ getMeasurementResult()</text>
</a>
</g>
</g>
<!-- Node2&#45;&gt;Node1 -->
<g id="edge1" class="edge">
<title>Node2&#45;&gt;Node1</title>
<path fill="none" stroke="midnightblue" d="M89.47,-178.51C100.17,-154.15 112.75,-125.49 123.23,-101.61"/>
<polygon fill="none" stroke="midnightblue" points="86.14,-177.4 85.33,-187.97 92.55,-180.22 86.14,-177.4"/>
</g>
<!-- Node3 -->
<g id="node3" class="node">
<title>Node3</title>
<g id="a_node3"><a xlink:href="class_one_wire_temperature_bus.html" target="_top" xlink:title="Shared OneWire temperature bus object.">
<polygon fill="white" stroke="black" points="150.5,-149.5 150.5,-316.5 299.5,-316.5 299.5,-149.5 150.5,-149.5"/>
<text text-anchor="middle" x="225" y="-304.5" font-family="Helvetica,sans-Serif" font-size="10.00">OneWireTemperatureBus</text>
<polyline fill="none" stroke="black" points="150.5,-297.5 299.5,-297.5 "/>
<text text-anchor="start" x="158.5" y="-285.5" font-family="Helvetica,sans-Serif" font-size="10.00">&#45; _oneWireBus</text>
<text text-anchor="start" x="158.5" y="-274.5" font-family="Helvetica,sans-Serif" font-size="10.00">&#45; _connectedSensors</text>
<text text-anchor="start" x="158.5" y="-263.5" font-family="Helvetica,sans-Serif" font-size="10.00">&#45; _deviceCount</text>
<text text-anchor="start" x="158.5" y="-252.5" font-family="Helvetica,sans-Serif" font-size="10.00">&#45; _lastMeasurementStamp</text>
<polyline fill="none" stroke="black" points="150.5,-245.5 299.5,-245.5 "/>
<text text-anchor="start" x="158.5" y="-233.5" font-family="Helvetica,sans-Serif" font-size="10.00">+ OneWireTemperatureBus()</text>
<text text-anchor="start" x="158.5" y="-222.5" font-family="Helvetica,sans-Serif" font-size="10.00">+ ~OneWireTemperatureBus()</text>
<text text-anchor="start" x="158.5" y="-211.5" font-family="Helvetica,sans-Serif" font-size="10.00">+ getTemperatureForIndex()</text>
<text text-anchor="start" x="158.5" y="-200.5" font-family="Helvetica,sans-Serif" font-size="10.00">+ getTemperatureForAddress()</text>
<text text-anchor="start" x="158.5" y="-189.5" font-family="Helvetica,sans-Serif" font-size="10.00">+ getTemperatureForAddress()</text>
<text text-anchor="start" x="158.5" y="-178.5" font-family="Helvetica,sans-Serif" font-size="10.00">&#45; runMeasurements()</text>
<text text-anchor="start" x="158.5" y="-167.5" font-family="Helvetica,sans-Serif" font-size="10.00">&#45; addressArrayToUint64()</text>
<text text-anchor="start" x="158.5" y="-156.5" font-family="Helvetica,sans-Serif" font-size="10.00">&#45; addressUint64ToArray()</text>
</a>
</g>
</g>
<!-- Node3&#45;&gt;Node1 -->
<g id="edge2" class="edge">
<title>Node3&#45;&gt;Node1</title>
<path fill="none" stroke="#404040" d="M188.28,-149.38C182.77,-136.98 177.18,-124.39 171.92,-112.57"/>
<polygon fill="none" stroke="#404040" points="171.87,-112.47 165.78,-108.61 167,-101.5 173.09,-105.36 171.87,-112.47"/>
<text text-anchor="middle" x="207" y="-123" font-family="Helvetica,sans-Serif" font-size="10.00"> &#45;_sharedBus</text>
</g>
</g>
</svg>
