<?xml version="1.0" encoding="UTF-8" standalone="no"?>
<!DOCTYPE svg PUBLIC "-//W3C//DTD SVG 1.1//EN"
 "http://www.w3.org/Graphics/SVG/1.1/DTD/svg11.dtd">
<!-- Generated by graphviz version 4.0.0 (20220529.0937)
 -->
<!-- Title: IOTHubTransmission Pages: 1 -->
<svg width="136pt" height="292pt"
 viewBox="0.00 0.00 136.00 292.00" xmlns="http://www.w3.org/2000/svg" xmlns:xlink="http://www.w3.org/1999/xlink">
<g id="graph0" class="graph" transform="scale(1 1) rotate(0) translate(4 288)">
<title>IOTHubTransmission</title>
<polygon fill="white" stroke="transparent" points="-4,4 -4,-288 132,-288 132,4 -4,4"/>
<!-- Node1 -->
<g id="node1" class="node">
<title>Node1</title>
<g id="a_node1"><a xlink:title=" ">
<polygon fill="#bfbfbf" stroke="black" points="0,-0.5 0,-134.5 128,-134.5 128,-0.5 0,-0.5"/>
<text text-anchor="middle" x="64" y="-122.5" font-family="Helvetica,sans-Serif" font-size="10.00">IOTHubTransmission</text>
<polyline fill="none" stroke="black" points="0,-115.5 128,-115.5 "/>
<text text-anchor="middle" x="64" y="-103.5" font-family="Helvetica,sans-Serif" font-size="10.00"> </text>
<polyline fill="none" stroke="black" points="0,-96.5 128,-96.5 "/>
<text text-anchor="start" x="8" y="-84.5" font-family="Helvetica,sans-Serif" font-size="10.00">+ IOTHubTransmission()</text>
<text text-anchor="start" x="8" y="-73.5" font-family="Helvetica,sans-Serif" font-size="10.00">+ ~IOTHubTransmission()</text>
<text text-anchor="start" x="8" y="-62.5" font-family="Helvetica,sans-Serif" font-size="10.00">+ transmitData()</text>
<text text-anchor="start" x="8" y="-51.5" font-family="Helvetica,sans-Serif" font-size="10.00">+ close()</text>
<text text-anchor="start" x="8" y="-40.5" font-family="Helvetica,sans-Serif" font-size="10.00">+ mqttEventHandler()</text>
<text text-anchor="start" x="8" y="-29.5" font-family="Helvetica,sans-Serif" font-size="10.00">&#45; parseData()</text>
<text text-anchor="start" x="8" y="-18.5" font-family="Helvetica,sans-Serif" font-size="10.00">&#45; initIotHubClient()</text>
<text text-anchor="start" x="8" y="-7.5" font-family="Helvetica,sans-Serif" font-size="10.00">&#45; initMqttClient()</text>
</a>
</g>
</g>
<!-- Node2 -->
<g id="node2" class="node">
<title>Node2</title>
<g id="a_node2"><a xlink:href="class_transmission_base.html" target="_top" xlink:title="Base class for sending data to one of the endpoints.">
<polygon fill="white" stroke="black" points="5,-171.5 5,-283.5 123,-283.5 123,-171.5 5,-171.5"/>
<text text-anchor="middle" x="64" y="-271.5" font-family="Helvetica,sans-Serif" font-size="10.00">TransmissionBase</text>
<polyline fill="none" stroke="black" points="5,-264.5 123,-264.5 "/>
<text text-anchor="start" x="13" y="-252.5" font-family="Helvetica,sans-Serif" font-size="10.00"># _dataObject</text>
<text text-anchor="start" x="13" y="-241.5" font-family="Helvetica,sans-Serif" font-size="10.00"># _parsedData</text>
<polyline fill="none" stroke="black" points="5,-234.5 123,-234.5 "/>
<text text-anchor="start" x="13" y="-222.5" font-family="Helvetica,sans-Serif" font-size="10.00">+ TransmissionBase()</text>
<text text-anchor="start" x="13" y="-211.5" font-family="Helvetica,sans-Serif" font-size="10.00">+ ~TransmissionBase()</text>
<text text-anchor="start" x="13" y="-200.5" font-family="Helvetica,sans-Serif" font-size="10.00">+ transmitData()</text>
<text text-anchor="start" x="13" y="-189.5" font-family="Helvetica,sans-Serif" font-size="10.00">+ close()</text>
<text text-anchor="start" x="13" y="-178.5" font-family="Helvetica,sans-Serif" font-size="10.00">&#45; parseData()</text>
</a>
</g>
</g>
<!-- Node2&#45;&gt;Node1 -->
<g id="edge1" class="edge">
<title>Node2&#45;&gt;Node1</title>
<path fill="none" stroke="midnightblue" d="M64,-161.09C64,-152.34 64,-143.35 64,-134.59"/>
<polygon fill="none" stroke="midnightblue" points="60.5,-161.24 64,-171.24 67.5,-161.24 60.5,-161.24"/>
</g>
</g>
</svg>
