<?xml version="1.0" encoding="UTF-8" standalone="no"?>
<!DOCTYPE svg PUBLIC "-//W3C//DTD SVG 1.1//EN"
 "http://www.w3.org/Graphics/SVG/1.1/DTD/svg11.dtd">
<!-- Generated by graphviz version 4.0.0 (20220529.0937)
 -->
<!-- Title: MoistureSensor Pages: 1 -->
<svg width="140pt" height="237pt"
 viewBox="0.00 0.00 140.00 237.00" xmlns="http://www.w3.org/2000/svg" xmlns:xlink="http://www.w3.org/1999/xlink">
<g id="graph0" class="graph" transform="scale(1 1) rotate(0) translate(4 233)">
<title>MoistureSensor</title>
<polygon fill="white" stroke="transparent" points="-4,4 -4,-233 136,-233 136,4 -4,4"/>
<!-- Node1 -->
<g id="node1" class="node">
<title>Node1</title>
<g id="a_node1"><a xlink:title="Analog moisture sensor implementation.">
<polygon fill="#bfbfbf" stroke="black" points="0,-0.5 0,-101.5 132,-101.5 132,-0.5 0,-0.5"/>
<text text-anchor="middle" x="66" y="-89.5" font-family="Helvetica,sans-Serif" font-size="10.00">MoistureSensor</text>
<polyline fill="none" stroke="black" points="0,-82.5 132,-82.5 "/>
<text text-anchor="start" x="8" y="-70.5" font-family="Helvetica,sans-Serif" font-size="10.00">&#45; _sensorPin</text>
<text text-anchor="start" x="8" y="-59.5" font-family="Helvetica,sans-Serif" font-size="10.00">&#45; _voltagePin</text>
<polyline fill="none" stroke="black" points="0,-52.5 132,-52.5 "/>
<text text-anchor="start" x="8" y="-40.5" font-family="Helvetica,sans-Serif" font-size="10.00">+ MoistureSensor()</text>
<text text-anchor="start" x="8" y="-29.5" font-family="Helvetica,sans-Serif" font-size="10.00">+ ~MoistureSensor()</text>
<text text-anchor="start" x="8" y="-18.5" font-family="Helvetica,sans-Serif" font-size="10.00">+ startMeasurement()</text>
<text text-anchor="start" x="8" y="-7.5" font-family="Helvetica,sans-Serif" font-size="10.00">+ getMeasurementResult()</text>
</a>
</g>
</g>
<!-- Node2 -->
<g id="node2" class="node">
<title>Node2</title>
<g id="a_node2"><a xlink:href="class_sensor_base.html" target="_top" xlink:title="Sensor base class.">
<polygon fill="white" stroke="black" points="0,-138.5 0,-228.5 132,-228.5 132,-138.5 0,-138.5"/>
<text text-anchor="middle" x="66" y="-216.5" font-family="Helvetica,sans-Serif" font-size="10.00">SensorBase</text>
<polyline fill="none" stroke="black" points="0,-209.5 132,-209.5 "/>
<text text-anchor="start" x="8" y="-197.5" font-family="Helvetica,sans-Serif" font-size="10.00"># _sensorValue</text>
<polyline fill="none" stroke="black" points="0,-190.5 132,-190.5 "/>
<text text-anchor="start" x="8" y="-178.5" font-family="Helvetica,sans-Serif" font-size="10.00">+ SensorBase()</text>
<text text-anchor="start" x="8" y="-167.5" font-family="Helvetica,sans-Serif" font-size="10.00">+ ~SensorBase()</text>
<text text-anchor="start" x="8" y="-156.5" font-family="Helvetica,sans-Serif" font-size="10.00">+ startMeasurement()</text>
<text text-anchor="start" x="8" y="-145.5" font-family="Helvetica,sans-Serif" font-size="10.00">+ getMeasurementResult()</text>
</a>
</g>
</g>
<!-- Node2&#45;&gt;Node1 -->
<g id="edge1" class="edge">
<title>Node2&#45;&gt;Node1</title>
<path fill="none" stroke="midnightblue" d="M66,-128.13C66,-119.31 66,-110.22 66,-101.52"/>
<polygon fill="none" stroke="midnightblue" points="62.5,-128.32 66,-138.32 69.5,-128.32 62.5,-128.32"/>
</g>
</g>
</svg>
