<?xml version="1.0" encoding="UTF-8" standalone="no"?>
<!DOCTYPE svg PUBLIC "-//W3C//DTD SVG 1.1//EN"
 "http://www.w3.org/Graphics/SVG/1.1/DTD/svg11.dtd">
<!-- Generated by graphviz version 4.0.0 (20220529.0937)
 -->
<!-- Title: MeasurementController Pages: 1 -->
<svg width="350pt" height="788pt"
 viewBox="0.00 0.00 350.00 788.00" xmlns="http://www.w3.org/2000/svg" xmlns:xlink="http://www.w3.org/1999/xlink">
<g id="graph0" class="graph" transform="scale(1 1) rotate(0) translate(4 784)">
<title>MeasurementController</title>
<polygon fill="white" stroke="transparent" points="-4,4 -4,-784 346,-784 346,4 -4,4"/>
<!-- Node1 -->
<g id="node1" class="node">
<title>Node1</title>
<g id="a_node1"><a xlink:title="Controller to execute the sensor measurements and publish the data to the DataPublisher.">
<polygon fill="#bfbfbf" stroke="black" points="74.5,-0.5 74.5,-134.5 212.5,-134.5 212.5,-0.5 74.5,-0.5"/>
<text text-anchor="middle" x="143.5" y="-122.5" font-family="Helvetica,sans-Serif" font-size="10.00">MeasurementController</text>
<polyline fill="none" stroke="black" points="74.5,-115.5 212.5,-115.5 "/>
<text text-anchor="start" x="82.5" y="-103.5" font-family="Helvetica,sans-Serif" font-size="10.00">&#45; _sensors</text>
<polyline fill="none" stroke="black" points="74.5,-96.5 212.5,-96.5 "/>
<text text-anchor="start" x="82.5" y="-84.5" font-family="Helvetica,sans-Serif" font-size="10.00">+ MeasurementController()</text>
<text text-anchor="start" x="82.5" y="-73.5" font-family="Helvetica,sans-Serif" font-size="10.00">+ ~MeasurementController()</text>
<text text-anchor="start" x="82.5" y="-62.5" font-family="Helvetica,sans-Serif" font-size="10.00">+ addSensor()</text>
<text text-anchor="start" x="82.5" y="-51.5" font-family="Helvetica,sans-Serif" font-size="10.00">+ addSensors()</text>
<text text-anchor="start" x="82.5" y="-40.5" font-family="Helvetica,sans-Serif" font-size="10.00">+ runProcess()</text>
<text text-anchor="start" x="82.5" y="-29.5" font-family="Helvetica,sans-Serif" font-size="10.00">&#45; connect()</text>
<text text-anchor="start" x="82.5" y="-18.5" font-family="Helvetica,sans-Serif" font-size="10.00">&#45; runMeasurements()</text>
<text text-anchor="start" x="82.5" y="-7.5" font-family="Helvetica,sans-Serif" font-size="10.00">&#45; publishMeasurements()</text>
</a>
</g>
</g>
<!-- Node2 -->
<g id="node2" class="node">
<title>Node2</title>
<g id="a_node2"><a xlink:href="class_data_publisher.html" target="_top" xlink:title="Wireless data parser and publisher.">
<polygon fill="white" stroke="black" points="55.5,-182.5 55.5,-437.5 231.5,-437.5 231.5,-182.5 55.5,-182.5"/>
<text text-anchor="middle" x="143.5" y="-425.5" font-family="Helvetica,sans-Serif" font-size="10.00">DataPublisher</text>
<polyline fill="none" stroke="black" points="55.5,-418.5 231.5,-418.5 "/>
<text text-anchor="start" x="63.5" y="-406.5" font-family="Helvetica,sans-Serif" font-size="10.00">&#45; _connected</text>
<text text-anchor="start" x="63.5" y="-395.5" font-family="Helvetica,sans-Serif" font-size="10.00">&#45; _disconnected</text>
<text text-anchor="start" x="63.5" y="-384.5" font-family="Helvetica,sans-Serif" font-size="10.00">&#45; _lastTimestamp</text>
<polyline fill="none" stroke="black" points="55.5,-377.5 231.5,-377.5 "/>
<text text-anchor="start" x="63.5" y="-365.5" font-family="Helvetica,sans-Serif" font-size="10.00">+ DataPublisher()</text>
<text text-anchor="start" x="63.5" y="-354.5" font-family="Helvetica,sans-Serif" font-size="10.00">+ operator=()</text>
<text text-anchor="start" x="63.5" y="-343.5" font-family="Helvetica,sans-Serif" font-size="10.00">+ wirelessConnect()</text>
<text text-anchor="start" x="63.5" y="-332.5" font-family="Helvetica,sans-Serif" font-size="10.00">+ wirelessGetConnected()</text>
<text text-anchor="start" x="63.5" y="-321.5" font-family="Helvetica,sans-Serif" font-size="10.00">+ wirelessDisconnect()</text>
<text text-anchor="start" x="63.5" y="-310.5" font-family="Helvetica,sans-Serif" font-size="10.00">+ setTransmissionMode()</text>
<text text-anchor="start" x="63.5" y="-299.5" font-family="Helvetica,sans-Serif" font-size="10.00">+ addSecondaryTransmissionMode()</text>
<text text-anchor="start" x="63.5" y="-288.5" font-family="Helvetica,sans-Serif" font-size="10.00">+ setData()</text>
<text text-anchor="start" x="63.5" y="-277.5" font-family="Helvetica,sans-Serif" font-size="10.00">+ addData()</text>
<text text-anchor="start" x="63.5" y="-266.5" font-family="Helvetica,sans-Serif" font-size="10.00">+ sendData()</text>
<text text-anchor="start" x="63.5" y="-255.5" font-family="Helvetica,sans-Serif" font-size="10.00">+ INSTANCE()</text>
<text text-anchor="start" x="63.5" y="-244.5" font-family="Helvetica,sans-Serif" font-size="10.00">+ wirelessEvent()</text>
<text text-anchor="start" x="63.5" y="-233.5" font-family="Helvetica,sans-Serif" font-size="10.00">&#45; DataPublisher()</text>
<text text-anchor="start" x="63.5" y="-222.5" font-family="Helvetica,sans-Serif" font-size="10.00">&#45; ~DataPublisher()</text>
<text text-anchor="start" x="63.5" y="-211.5" font-family="Helvetica,sans-Serif" font-size="10.00">&#45; updateTimestamp()</text>
<text text-anchor="start" x="63.5" y="-200.5" font-family="Helvetica,sans-Serif" font-size="10.00">&#45; showTime()</text>
<text text-anchor="start" x="63.5" y="-189.5" font-family="Helvetica,sans-Serif" font-size="10.00">&#45; map()</text>
</a>
</g>
</g>
<!-- Node2&#45;&gt;Node1 -->
<g id="edge1" class="edge">
<title>Node2&#45;&gt;Node1</title>
<path fill="none" stroke="#404040" d="M143.5,-182.41C143.5,-170.28 143.5,-158.23 143.5,-146.77"/>
<polygon fill="none" stroke="#404040" points="143.5,-146.58 139.5,-140.58 143.5,-134.58 147.5,-140.58 143.5,-146.58"/>
<text text-anchor="middle" x="169" y="-156" font-family="Helvetica,sans-Serif" font-size="10.00"> &#45;_publisher</text>
</g>
<!-- Node3 -->
<g id="node3" class="node">
<title>Node3</title>
<g id="a_node3"><a xlink:href="class_transmission_base.html" target="_top" xlink:title="Base class for sending data to one of the endpoints.">
<polygon fill="white" stroke="black" points="84.5,-529.5 84.5,-630.5 202.5,-630.5 202.5,-529.5 84.5,-529.5"/>
<text text-anchor="middle" x="143.5" y="-618.5" font-family="Helvetica,sans-Serif" font-size="10.00">TransmissionBase</text>
<polyline fill="none" stroke="black" points="84.5,-611.5 202.5,-611.5 "/>
<text text-anchor="start" x="92.5" y="-599.5" font-family="Helvetica,sans-Serif" font-size="10.00"># _parsedData</text>
<polyline fill="none" stroke="black" points="84.5,-592.5 202.5,-592.5 "/>
<text text-anchor="start" x="92.5" y="-580.5" font-family="Helvetica,sans-Serif" font-size="10.00">+ TransmissionBase()</text>
<text text-anchor="start" x="92.5" y="-569.5" font-family="Helvetica,sans-Serif" font-size="10.00">+ ~TransmissionBase()</text>
<text text-anchor="start" x="92.5" y="-558.5" font-family="Helvetica,sans-Serif" font-size="10.00">+ transmitData()</text>
<text text-anchor="start" x="92.5" y="-547.5" font-family="Helvetica,sans-Serif" font-size="10.00">+ close()</text>
<text text-anchor="start" x="92.5" y="-536.5" font-family="Helvetica,sans-Serif" font-size="10.00">&#45; parseData()</text>
</a>
</g>
</g>
<!-- Node3&#45;&gt;Node2 -->
<g id="edge2" class="edge">
<title>Node3&#45;&gt;Node2</title>
<path fill="none" stroke="#404040" d="M143.5,-529.22C143.5,-506.5 143.5,-478.36 143.5,-449.92"/>
<polygon fill="none" stroke="#404040" points="143.5,-449.72 139.5,-443.72 143.5,-437.72 147.5,-443.72 143.5,-449.72"/>
<text text-anchor="middle" x="199.5" y="-470" font-family="Helvetica,sans-Serif" font-size="10.00"> &#45;_dataEndpointPrimary</text>
<text text-anchor="middle" x="199.5" y="-459" font-family="Helvetica,sans-Serif" font-size="10.00">&#45;_dataEndpointSecondary</text>
</g>
<!-- Node4 -->
<g id="node4" class="node">
<title>Node4</title>
<g id="a_node4"><a xlink:href="struct_data_object.html" target="_top" xlink:title="Data object.">
<polygon fill="white" stroke="black" points="0,-711.5 0,-779.5 71,-779.5 71,-711.5 0,-711.5"/>
<text text-anchor="middle" x="35.5" y="-767.5" font-family="Helvetica,sans-Serif" font-size="10.00">DataObject</text>
<polyline fill="none" stroke="black" points="0,-760.5 71,-760.5 "/>
<text text-anchor="start" x="8" y="-748.5" font-family="Helvetica,sans-Serif" font-size="10.00">+ timestamp</text>
<text text-anchor="start" x="8" y="-737.5" font-family="Helvetica,sans-Serif" font-size="10.00">+ items</text>
<polyline fill="none" stroke="black" points="0,-730.5 71,-730.5 "/>
<text text-anchor="middle" x="35.5" y="-718.5" font-family="Helvetica,sans-Serif" font-size="10.00"> </text>
</a>
</g>
</g>
<!-- Node4&#45;&gt;Node2 -->
<g id="edge4" class="edge">
<title>Node4&#45;&gt;Node2</title>
<path fill="none" stroke="#404040" d="M28.3,-711.15C19.23,-662.7 7.23,-570.5 28.5,-496 33.66,-477.93 41.15,-459.91 49.87,-442.59"/>
<polygon fill="none" stroke="#404040" points="49.89,-442.54 49.12,-435.37 55.44,-431.91 56.21,-439.08 49.89,-442.54"/>
<text text-anchor="middle" x="52" y="-577.5" font-family="Helvetica,sans-Serif" font-size="10.00"> &#45;_rawData</text>
</g>
<!-- Node4&#45;&gt;Node3 -->
<g id="edge3" class="edge">
<title>Node4&#45;&gt;Node3</title>
<path fill="none" stroke="#404040" d="M57.36,-711.41C70.73,-691.16 88.24,-664.65 103.98,-640.83"/>
<polygon fill="none" stroke="#404040" points="103.99,-640.82 103.96,-633.61 110.6,-630.8 110.63,-638.02 103.99,-640.82"/>
<text text-anchor="middle" x="108" y="-685" font-family="Helvetica,sans-Serif" font-size="10.00"> #_dataObject</text>
</g>
<!-- Node5 -->
<g id="node5" class="node">
<title>Node5</title>
<g id="a_node5"><a xlink:href="class_data_store.html" target="_top" xlink:title="Local data storage class.">
<polygon fill="white" stroke="black" points="221,-496.5 221,-663.5 342,-663.5 342,-496.5 221,-496.5"/>
<text text-anchor="middle" x="281.5" y="-651.5" font-family="Helvetica,sans-Serif" font-size="10.00">DataStore</text>
<polyline fill="none" stroke="black" points="221,-644.5 342,-644.5 "/>
<text text-anchor="start" x="229" y="-632.5" font-family="Helvetica,sans-Serif" font-size="10.00">&#45; _retainedData</text>
<text text-anchor="start" x="229" y="-621.5" font-family="Helvetica,sans-Serif" font-size="10.00">&#45; _fileSystem</text>
<polyline fill="none" stroke="black" points="221,-614.5 342,-614.5 "/>
<text text-anchor="start" x="229" y="-602.5" font-family="Helvetica,sans-Serif" font-size="10.00">+ DataStore()</text>
<text text-anchor="start" x="229" y="-591.5" font-family="Helvetica,sans-Serif" font-size="10.00">+ ~DataStore()</text>
<text text-anchor="start" x="229" y="-580.5" font-family="Helvetica,sans-Serif" font-size="10.00">+ dataAvailable()</text>
<text text-anchor="start" x="229" y="-569.5" font-family="Helvetica,sans-Serif" font-size="10.00">+ storeDataObject()</text>
<text text-anchor="start" x="229" y="-558.5" font-family="Helvetica,sans-Serif" font-size="10.00">+ transmitDataStorage()</text>
<text text-anchor="start" x="229" y="-547.5" font-family="Helvetica,sans-Serif" font-size="10.00">&#45; formatData()</text>
<text text-anchor="start" x="229" y="-536.5" font-family="Helvetica,sans-Serif" font-size="10.00">&#45; reFormatData()</text>
<text text-anchor="start" x="229" y="-525.5" font-family="Helvetica,sans-Serif" font-size="10.00">&#45; appendData()</text>
<text text-anchor="start" x="229" y="-514.5" font-family="Helvetica,sans-Serif" font-size="10.00">&#45; loadDataStorage()</text>
<text text-anchor="start" x="229" y="-503.5" font-family="Helvetica,sans-Serif" font-size="10.00">&#45; deleteDataStorage()</text>
</a>
</g>
</g>
<!-- Node5&#45;&gt;Node2 -->
<g id="edge5" class="edge">
<title>Node5&#45;&gt;Node2</title>
<path fill="none" stroke="#404040" d="M272.54,-496.23C269.41,-482.43 265.19,-468.54 259.5,-456 253.67,-443.16 246.45,-430.47 238.48,-418.25"/>
<polygon fill="none" stroke="#404040" points="238.34,-418.06 231.67,-415.33 231.62,-408.12 238.3,-410.84 238.34,-418.06"/>
<text text-anchor="middle" x="298.5" y="-464.5" font-family="Helvetica,sans-Serif" font-size="10.00"> &#45;_dataStorage</text>
</g>
</g>
</svg>
