<?xml version="1.0" encoding="UTF-8" standalone="no"?>
<!DOCTYPE svg PUBLIC "-//W3C//DTD SVG 1.1//EN"
 "http://www.w3.org/Graphics/SVG/1.1/DTD/svg11.dtd">
<!-- Generated by graphviz version 4.0.0 (20220529.0937)
 -->
<!-- Title: DataStore::formatData Pages: 1 -->
<svg width="839pt" height="39pt"
 viewBox="0.00 0.00 839.00 39.00" xmlns="http://www.w3.org/2000/svg" xmlns:xlink="http://www.w3.org/1999/xlink">
<g id="graph0" class="graph" transform="scale(1 1) rotate(0) translate(4 35)">
<title>DataStore::formatData</title>
<polygon fill="white" stroke="transparent" points="-4,4 -4,-35 835,-35 835,4 -4,4"/>
<!-- Node1 -->
<g id="node1" class="node">
<title>Node1</title>
<g id="a_node1"><a xlink:title="Format data from raw data into storage data.">
<polygon fill="#bfbfbf" stroke="black" points="718,-6 718,-25 831,-25 831,-6 718,-6"/>
<text text-anchor="middle" x="774.5" y="-13" font-family="Helvetica,sans-Serif" font-size="10.00">DataStore::formatData</text>
</a>
</g>
</g>
<!-- Node2 -->
<g id="node2" class="node">
<title>Node2</title>
<g id="a_node2"><a xlink:href="class_data_store.html#a9f153c8de4863259737ba4b75869bf67" target="_top" xlink:title="Add data object to local storage.">
<polygon fill="white" stroke="black" points="545,-6 545,-25 682,-25 682,-6 545,-6"/>
<text text-anchor="middle" x="613.5" y="-13" font-family="Helvetica,sans-Serif" font-size="10.00">DataStore::storeDataObject</text>
</a>
</g>
</g>
<!-- Node1&#45;&gt;Node2 -->
<g id="edge1" class="edge">
<title>Node1&#45;&gt;Node2</title>
<path fill="none" stroke="midnightblue" d="M707.71,-15.5C699.26,-15.5 690.59,-15.5 682.11,-15.5"/>
<polygon fill="midnightblue" stroke="midnightblue" points="707.89,-19 717.89,-15.5 707.89,-12 707.89,-19"/>
</g>
<!-- Node3 -->
<g id="node3" class="node">
<title>Node3</title>
<g id="a_node3"><a xlink:href="class_data_publisher.html#a266411f687c44a946cbac8323903a3e5" target="_top" xlink:title="Send data to network.">
<polygon fill="white" stroke="black" points="384,-6 384,-25 509,-25 509,-6 384,-6"/>
<text text-anchor="middle" x="446.5" y="-13" font-family="Helvetica,sans-Serif" font-size="10.00">DataPublisher::sendData</text>
</a>
</g>
</g>
<!-- Node2&#45;&gt;Node3 -->
<g id="edge2" class="edge">
<title>Node2&#45;&gt;Node3</title>
<path fill="none" stroke="midnightblue" d="M534.85,-15.5C526.23,-15.5 517.53,-15.5 509.15,-15.5"/>
<polygon fill="midnightblue" stroke="midnightblue" points="534.91,-19 544.91,-15.5 534.91,-12 534.91,-19"/>
</g>
<!-- Node4 -->
<g id="node4" class="node">
<title>Node4</title>
<g id="a_node4"><a xlink:href="class_measurement_controller.html#a41a466efd3028ea2dcc7948530106ca4" target="_top" xlink:title="Publish measurements to the DataPublisher.">
<polygon fill="white" stroke="black" points="230,-0.5 230,-30.5 348,-30.5 348,-0.5 230,-0.5"/>
<text text-anchor="start" x="238" y="-18.5" font-family="Helvetica,sans-Serif" font-size="10.00">MeasurementController</text>
<text text-anchor="middle" x="289" y="-7.5" font-family="Helvetica,sans-Serif" font-size="10.00">::publishMeasurements</text>
</a>
</g>
</g>
<!-- Node3&#45;&gt;Node4 -->
<g id="edge3" class="edge">
<title>Node3&#45;&gt;Node4</title>
<path fill="none" stroke="midnightblue" d="M373.36,-15.5C364.91,-15.5 356.38,-15.5 348.15,-15.5"/>
<polygon fill="midnightblue" stroke="midnightblue" points="373.6,-19 383.6,-15.5 373.6,-12 373.6,-19"/>
</g>
<!-- Node5 -->
<g id="node5" class="node">
<title>Node5</title>
<g id="a_node5"><a xlink:href="class_measurement_controller.html#abeba7c187f196061dd3ac727746a3971" target="_top" xlink:title="Run threaded process for measurements.">
<polygon fill="white" stroke="black" points="77,-0.5 77,-30.5 194,-30.5 194,-0.5 77,-0.5"/>
<text text-anchor="start" x="85" y="-18.5" font-family="Helvetica,sans-Serif" font-size="10.00">MeasurementController</text>
<text text-anchor="middle" x="135.5" y="-7.5" font-family="Helvetica,sans-Serif" font-size="10.00">::runProcess</text>
</a>
</g>
</g>
<!-- Node4&#45;&gt;Node5 -->
<g id="edge4" class="edge">
<title>Node4&#45;&gt;Node5</title>
<path fill="none" stroke="midnightblue" d="M219.61,-15.5C211.13,-15.5 202.53,-15.5 194.23,-15.5"/>
<polygon fill="midnightblue" stroke="midnightblue" points="219.86,-19 229.86,-15.5 219.86,-12 219.86,-19"/>
</g>
<!-- Node6 -->
<g id="node6" class="node">
<title>Node6</title>
<g id="a_node6"><a xlink:href="main_8cpp.html#a4fc01d736fe50cf5b977f755b675f11d" target="_top" xlink:title="Single run function on startup.">
<polygon fill="white" stroke="black" points="0,-6 0,-25 41,-25 41,-6 0,-6"/>
<text text-anchor="middle" x="20.5" y="-13" font-family="Helvetica,sans-Serif" font-size="10.00">setup</text>
</a>
</g>
</g>
<!-- Node5&#45;&gt;Node6 -->
<g id="edge5" class="edge">
<title>Node5&#45;&gt;Node6</title>
<path fill="none" stroke="midnightblue" d="M66.53,-15.5C57.29,-15.5 48.48,-15.5 41.14,-15.5"/>
<polygon fill="midnightblue" stroke="midnightblue" points="66.68,-19 76.68,-15.5 66.68,-12 66.68,-19"/>
</g>
</g>
</svg>
