<?xml version="1.0" encoding="UTF-8" standalone="no"?>
<!DOCTYPE svg PUBLIC "-//W3C//DTD SVG 1.1//EN"
 "http://www.w3.org/Graphics/SVG/1.1/DTD/svg11.dtd">
<!-- Generated by graphviz version 4.0.0 (20220529.0937)
 -->
<!-- Title: UDPTransmission Pages: 1 -->
<svg width="128pt" height="354pt"
 viewBox="0.00 0.00 128.00 354.00" xmlns="http://www.w3.org/2000/svg" xmlns:xlink="http://www.w3.org/1999/xlink">
<g id="graph0" class="graph" transform="scale(1 1) rotate(0) translate(4 350)">
<title>UDPTransmission</title>
<polygon fill="white" stroke="transparent" points="-4,4 -4,-350 124,-350 124,4 -4,4"/>
<!-- Node1 -->
<g id="node1" class="node">
<title>Node1</title>
<g id="a_node1"><a xlink:title="UDP / HTTP post transmission.">
<polygon fill="#bfbfbf" stroke="black" points="1,-0.5 1,-90.5 117,-90.5 117,-0.5 1,-0.5"/>
<text text-anchor="middle" x="59" y="-78.5" font-family="Helvetica,sans-Serif" font-size="10.00">UDPTransmission</text>
<polyline fill="none" stroke="black" points="1,-71.5 117,-71.5 "/>
<text text-anchor="start" x="9" y="-59.5" font-family="Helvetica,sans-Serif" font-size="10.00">&#45; _httpClient</text>
<polyline fill="none" stroke="black" points="1,-52.5 117,-52.5 "/>
<text text-anchor="start" x="9" y="-40.5" font-family="Helvetica,sans-Serif" font-size="10.00">+ UDPTransmission()</text>
<text text-anchor="start" x="9" y="-29.5" font-family="Helvetica,sans-Serif" font-size="10.00">+ ~UDPTransmission()</text>
<text text-anchor="start" x="9" y="-18.5" font-family="Helvetica,sans-Serif" font-size="10.00">+ transmitData()</text>
<text text-anchor="start" x="9" y="-7.5" font-family="Helvetica,sans-Serif" font-size="10.00">&#45; parseData()</text>
</a>
</g>
</g>
<!-- Node2 -->
<g id="node2" class="node">
<title>Node2</title>
<g id="a_node2"><a xlink:href="class_transmission_base.html" target="_top" xlink:title="Base class for sending data to one of the endpoints.">
<polygon fill="white" stroke="black" points="0,-128.5 0,-229.5 118,-229.5 118,-128.5 0,-128.5"/>
<text text-anchor="middle" x="59" y="-217.5" font-family="Helvetica,sans-Serif" font-size="10.00">TransmissionBase</text>
<polyline fill="none" stroke="black" points="0,-210.5 118,-210.5 "/>
<text text-anchor="start" x="8" y="-198.5" font-family="Helvetica,sans-Serif" font-size="10.00"># _parsedData</text>
<polyline fill="none" stroke="black" points="0,-191.5 118,-191.5 "/>
<text text-anchor="start" x="8" y="-179.5" font-family="Helvetica,sans-Serif" font-size="10.00">+ TransmissionBase()</text>
<text text-anchor="start" x="8" y="-168.5" font-family="Helvetica,sans-Serif" font-size="10.00">+ ~TransmissionBase()</text>
<text text-anchor="start" x="8" y="-157.5" font-family="Helvetica,sans-Serif" font-size="10.00">+ transmitData()</text>
<text text-anchor="start" x="8" y="-146.5" font-family="Helvetica,sans-Serif" font-size="10.00">+ close()</text>
<text text-anchor="start" x="8" y="-135.5" font-family="Helvetica,sans-Serif" font-size="10.00">&#45; parseData()</text>
</a>
</g>
</g>
<!-- Node2&#45;&gt;Node1 -->
<g id="edge1" class="edge">
<title>Node2&#45;&gt;Node1</title>
<path fill="none" stroke="midnightblue" d="M59,-118C59,-108.8 59,-99.45 59,-90.67"/>
<polygon fill="none" stroke="midnightblue" points="55.5,-118.29 59,-128.29 62.5,-118.29 55.5,-118.29"/>
</g>
<!-- Node3 -->
<g id="node3" class="node">
<title>Node3</title>
<g id="a_node3"><a xlink:href="struct_data_object.html" target="_top" xlink:title="Data object.">
<polygon fill="white" stroke="black" points="23.5,-277.5 23.5,-345.5 94.5,-345.5 94.5,-277.5 23.5,-277.5"/>
<text text-anchor="middle" x="59" y="-333.5" font-family="Helvetica,sans-Serif" font-size="10.00">DataObject</text>
<polyline fill="none" stroke="black" points="23.5,-326.5 94.5,-326.5 "/>
<text text-anchor="start" x="31.5" y="-314.5" font-family="Helvetica,sans-Serif" font-size="10.00">+ timestamp</text>
<text text-anchor="start" x="31.5" y="-303.5" font-family="Helvetica,sans-Serif" font-size="10.00">+ items</text>
<polyline fill="none" stroke="black" points="23.5,-296.5 94.5,-296.5 "/>
<text text-anchor="middle" x="59" y="-284.5" font-family="Helvetica,sans-Serif" font-size="10.00"> </text>
</a>
</g>
</g>
<!-- Node3&#45;&gt;Node2 -->
<g id="edge2" class="edge">
<title>Node3&#45;&gt;Node2</title>
<path fill="none" stroke="#404040" d="M59,-277.23C59,-266.47 59,-254.17 59,-242.02"/>
<polygon fill="none" stroke="#404040" points="59,-241.98 55,-235.98 59,-229.98 63,-235.98 59,-241.98"/>
<text text-anchor="middle" x="89.5" y="-251" font-family="Helvetica,sans-Serif" font-size="10.00"> #_dataObject</text>
</g>
</g>
</svg>
