<?xml version="1.0" encoding="UTF-8" standalone="no"?>
<!DOCTYPE svg PUBLIC "-//W3C//DTD SVG 1.1//EN"
 "http://www.w3.org/Graphics/SVG/1.1/DTD/svg11.dtd">
<!-- Generated by graphviz version 4.0.0 (20220529.0937)
 -->
<!-- Title: OneWireTemperatureBus::getTemperatureForIndex Pages: 1 -->
<svg width="298pt" height="39pt"
 viewBox="0.00 0.00 298.00 39.00" xmlns="http://www.w3.org/2000/svg" xmlns:xlink="http://www.w3.org/1999/xlink">
<g id="graph0" class="graph" transform="scale(1 1) rotate(0) translate(4 35)">
<title>OneWireTemperatureBus::getTemperatureForIndex</title>
<polygon fill="white" stroke="transparent" points="-4,4 -4,-35 294,-35 294,4 -4,4"/>
<!-- Node1 -->
<g id="node1" class="node">
<title>Node1</title>
<g id="a_node1"><a xlink:title="Get the Temperature For Index object.">
<polygon fill="#bfbfbf" stroke="black" points="0,-0.5 0,-30.5 128,-30.5 128,-0.5 0,-0.5"/>
<text text-anchor="start" x="8" y="-18.5" font-family="Helvetica,sans-Serif" font-size="10.00">OneWireTemperatureBus</text>
<text text-anchor="middle" x="64" y="-7.5" font-family="Helvetica,sans-Serif" font-size="10.00">::getTemperatureForIndex</text>
</a>
</g>
</g>
<!-- Node2 -->
<g id="node2" class="node">
<title>Node2</title>
<g id="a_node2"><a xlink:href="class_one_wire_temperature_bus.html#a506ed0e8a2de83c44588eabae9aae89c" target="_top" xlink:title="Run and buffer measurements for all connected sensors.">
<polygon fill="white" stroke="black" points="164,-0.5 164,-30.5 290,-30.5 290,-0.5 164,-0.5"/>
<text text-anchor="start" x="172" y="-18.5" font-family="Helvetica,sans-Serif" font-size="10.00">OneWireTemperatureBus</text>
<text text-anchor="middle" x="227" y="-7.5" font-family="Helvetica,sans-Serif" font-size="10.00">::runMeasurements</text>
</a>
</g>
</g>
<!-- Node1&#45;&gt;Node2 -->
<g id="edge1" class="edge">
<title>Node1&#45;&gt;Node2</title>
<path fill="none" stroke="midnightblue" d="M128.17,-15.5C136.5,-15.5 145.09,-15.5 153.56,-15.5"/>
<polygon fill="midnightblue" stroke="midnightblue" points="153.8,-19 163.8,-15.5 153.8,-12 153.8,-19"/>
</g>
</g>
</svg>
