<?xml version="1.0" encoding="UTF-8" standalone="no"?>
<!DOCTYPE svg PUBLIC "-//W3C//DTD SVG 1.1//EN"
 "http://www.w3.org/Graphics/SVG/1.1/DTD/svg11.dtd">
<!-- Generated by graphviz version 4.0.0 (20220529.0937)
 -->
<!-- Title: DataStore::storeDataObject Pages: 1 -->
<svg width="299pt" height="66pt"
 viewBox="0.00 0.00 299.00 66.00" xmlns="http://www.w3.org/2000/svg" xmlns:xlink="http://www.w3.org/1999/xlink">
<g id="graph0" class="graph" transform="scale(1 1) rotate(0) translate(4 62)">
<title>DataStore::storeDataObject</title>
<polygon fill="white" stroke="transparent" points="-4,4 -4,-62 295,-62 295,4 -4,4"/>
<!-- Node1 -->
<g id="node1" class="node">
<title>Node1</title>
<g id="a_node1"><a xlink:title="Add data object to local storage.">
<polygon fill="#bfbfbf" stroke="black" points="0,-19.5 0,-38.5 137,-38.5 137,-19.5 0,-19.5"/>
<text text-anchor="middle" x="68.5" y="-26.5" font-family="Helvetica,sans-Serif" font-size="10.00">DataStore::storeDataObject</text>
</a>
</g>
</g>
<!-- Node2 -->
<g id="node2" class="node">
<title>Node2</title>
<g id="a_node2"><a xlink:href="class_data_store.html#a1b9b92814aaedb80943d875a464ea7d9" target="_top" xlink:title="Add data to local storage file.">
<polygon fill="white" stroke="black" points="173,-38.5 173,-57.5 291,-57.5 291,-38.5 173,-38.5"/>
<text text-anchor="middle" x="232" y="-45.5" font-family="Helvetica,sans-Serif" font-size="10.00">DataStore::appendData</text>
</a>
</g>
</g>
<!-- Node1&#45;&gt;Node2 -->
<g id="edge1" class="edge">
<title>Node1&#45;&gt;Node2</title>
<path fill="none" stroke="midnightblue" d="M137.05,-36.95C145.63,-37.96 154.41,-38.99 162.99,-40"/>
<polygon fill="midnightblue" stroke="midnightblue" points="162.6,-43.48 172.94,-41.17 163.42,-36.53 162.6,-43.48"/>
</g>
<!-- Node3 -->
<g id="node3" class="node">
<title>Node3</title>
<g id="a_node3"><a xlink:href="class_data_store.html#aeb526ffea5feb11fb3821aa5f6400c18" target="_top" xlink:title="Format data from raw data into storage data.">
<polygon fill="white" stroke="black" points="175.5,-0.5 175.5,-19.5 288.5,-19.5 288.5,-0.5 175.5,-0.5"/>
<text text-anchor="middle" x="232" y="-7.5" font-family="Helvetica,sans-Serif" font-size="10.00">DataStore::formatData</text>
</a>
</g>
</g>
<!-- Node1&#45;&gt;Node3 -->
<g id="edge2" class="edge">
<title>Node1&#45;&gt;Node3</title>
<path fill="none" stroke="midnightblue" d="M137.05,-21.05C146.45,-19.95 156.09,-18.81 165.45,-17.71"/>
<polygon fill="midnightblue" stroke="midnightblue" points="165.94,-21.18 175.46,-16.53 165.12,-14.23 165.94,-21.18"/>
</g>
</g>
</svg>
