<?xml version="1.0" encoding="UTF-8" standalone="no"?>
<!DOCTYPE svg PUBLIC "-//W3C//DTD SVG 1.1//EN"
 "http://www.w3.org/Graphics/SVG/1.1/DTD/svg11.dtd">
<!-- Generated by graphviz version 4.0.0 (20220529.0937)
 -->
<!-- Title: DataPublisher Pages: 1 -->
<svg width="350pt" height="606pt"
 viewBox="0.00 0.00 350.00 606.00" xmlns="http://www.w3.org/2000/svg" xmlns:xlink="http://www.w3.org/1999/xlink">
<g id="graph0" class="graph" transform="scale(1 1) rotate(0) translate(4 602)">
<title>DataPublisher</title>
<polygon fill="white" stroke="transparent" points="-4,4 -4,-602 346,-602 346,4 -4,4"/>
<!-- Node1 -->
<g id="node1" class="node">
<title>Node1</title>
<g id="a_node1"><a xlink:title="Wireless data parser and publisher.">
<polygon fill="#bfbfbf" stroke="black" points="55.5,-0.5 55.5,-255.5 231.5,-255.5 231.5,-0.5 55.5,-0.5"/>
<text text-anchor="middle" x="143.5" y="-243.5" font-family="Helvetica,sans-Serif" font-size="10.00">DataPublisher</text>
<polyline fill="none" stroke="black" points="55.5,-236.5 231.5,-236.5 "/>
<text text-anchor="start" x="63.5" y="-224.5" font-family="Helvetica,sans-Serif" font-size="10.00">&#45; _connected</text>
<text text-anchor="start" x="63.5" y="-213.5" font-family="Helvetica,sans-Serif" font-size="10.00">&#45; _disconnected</text>
<text text-anchor="start" x="63.5" y="-202.5" font-family="Helvetica,sans-Serif" font-size="10.00">&#45; _lastTimestamp</text>
<polyline fill="none" stroke="black" points="55.5,-195.5 231.5,-195.5 "/>
<text text-anchor="start" x="63.5" y="-183.5" font-family="Helvetica,sans-Serif" font-size="10.00">+ DataPublisher()</text>
<text text-anchor="start" x="63.5" y="-172.5" font-family="Helvetica,sans-Serif" font-size="10.00">+ operator=()</text>
<text text-anchor="start" x="63.5" y="-161.5" font-family="Helvetica,sans-Serif" font-size="10.00">+ wirelessConnect()</text>
<text text-anchor="start" x="63.5" y="-150.5" font-family="Helvetica,sans-Serif" font-size="10.00">+ wirelessGetConnected()</text>
<text text-anchor="start" x="63.5" y="-139.5" font-family="Helvetica,sans-Serif" font-size="10.00">+ wirelessDisconnect()</text>
<text text-anchor="start" x="63.5" y="-128.5" font-family="Helvetica,sans-Serif" font-size="10.00">+ setTransmissionMode()</text>
<text text-anchor="start" x="63.5" y="-117.5" font-family="Helvetica,sans-Serif" font-size="10.00">+ addSecondaryTransmissionMode()</text>
<text text-anchor="start" x="63.5" y="-106.5" font-family="Helvetica,sans-Serif" font-size="10.00">+ setData()</text>
<text text-anchor="start" x="63.5" y="-95.5" font-family="Helvetica,sans-Serif" font-size="10.00">+ addData()</text>
<text text-anchor="start" x="63.5" y="-84.5" font-family="Helvetica,sans-Serif" font-size="10.00">+ sendData()</text>
<text text-anchor="start" x="63.5" y="-73.5" font-family="Helvetica,sans-Serif" font-size="10.00">+ INSTANCE()</text>
<text text-anchor="start" x="63.5" y="-62.5" font-family="Helvetica,sans-Serif" font-size="10.00">+ wirelessEvent()</text>
<text text-anchor="start" x="63.5" y="-51.5" font-family="Helvetica,sans-Serif" font-size="10.00">&#45; DataPublisher()</text>
<text text-anchor="start" x="63.5" y="-40.5" font-family="Helvetica,sans-Serif" font-size="10.00">&#45; ~DataPublisher()</text>
<text text-anchor="start" x="63.5" y="-29.5" font-family="Helvetica,sans-Serif" font-size="10.00">&#45; updateTimestamp()</text>
<text text-anchor="start" x="63.5" y="-18.5" font-family="Helvetica,sans-Serif" font-size="10.00">&#45; showTime()</text>
<text text-anchor="start" x="63.5" y="-7.5" font-family="Helvetica,sans-Serif" font-size="10.00">&#45; map()</text>
</a>
</g>
</g>
<!-- Node2 -->
<g id="node2" class="node">
<title>Node2</title>
<g id="a_node2"><a xlink:href="class_transmission_base.html" target="_top" xlink:title="Base class for sending data to one of the endpoints.">
<polygon fill="white" stroke="black" points="84.5,-347.5 84.5,-448.5 202.5,-448.5 202.5,-347.5 84.5,-347.5"/>
<text text-anchor="middle" x="143.5" y="-436.5" font-family="Helvetica,sans-Serif" font-size="10.00">TransmissionBase</text>
<polyline fill="none" stroke="black" points="84.5,-429.5 202.5,-429.5 "/>
<text text-anchor="start" x="92.5" y="-417.5" font-family="Helvetica,sans-Serif" font-size="10.00"># _parsedData</text>
<polyline fill="none" stroke="black" points="84.5,-410.5 202.5,-410.5 "/>
<text text-anchor="start" x="92.5" y="-398.5" font-family="Helvetica,sans-Serif" font-size="10.00">+ TransmissionBase()</text>
<text text-anchor="start" x="92.5" y="-387.5" font-family="Helvetica,sans-Serif" font-size="10.00">+ ~TransmissionBase()</text>
<text text-anchor="start" x="92.5" y="-376.5" font-family="Helvetica,sans-Serif" font-size="10.00">+ transmitData()</text>
<text text-anchor="start" x="92.5" y="-365.5" font-family="Helvetica,sans-Serif" font-size="10.00">+ close()</text>
<text text-anchor="start" x="92.5" y="-354.5" font-family="Helvetica,sans-Serif" font-size="10.00">&#45; parseData()</text>
</a>
</g>
</g>
<!-- Node2&#45;&gt;Node1 -->
<g id="edge1" class="edge">
<title>Node2&#45;&gt;Node1</title>
<path fill="none" stroke="#404040" d="M143.5,-347.22C143.5,-324.5 143.5,-296.36 143.5,-267.92"/>
<polygon fill="none" stroke="#404040" points="143.5,-267.72 139.5,-261.72 143.5,-255.72 147.5,-261.72 143.5,-267.72"/>
<text text-anchor="middle" x="199.5" y="-288" font-family="Helvetica,sans-Serif" font-size="10.00"> &#45;_dataEndpointPrimary</text>
<text text-anchor="middle" x="199.5" y="-277" font-family="Helvetica,sans-Serif" font-size="10.00">&#45;_dataEndpointSecondary</text>
</g>
<!-- Node3 -->
<g id="node3" class="node">
<title>Node3</title>
<g id="a_node3"><a xlink:href="struct_data_object.html" target="_top" xlink:title="Data object.">
<polygon fill="white" stroke="black" points="0,-529.5 0,-597.5 71,-597.5 71,-529.5 0,-529.5"/>
<text text-anchor="middle" x="35.5" y="-585.5" font-family="Helvetica,sans-Serif" font-size="10.00">DataObject</text>
<polyline fill="none" stroke="black" points="0,-578.5 71,-578.5 "/>
<text text-anchor="start" x="8" y="-566.5" font-family="Helvetica,sans-Serif" font-size="10.00">+ timestamp</text>
<text text-anchor="start" x="8" y="-555.5" font-family="Helvetica,sans-Serif" font-size="10.00">+ items</text>
<polyline fill="none" stroke="black" points="0,-548.5 71,-548.5 "/>
<text text-anchor="middle" x="35.5" y="-536.5" font-family="Helvetica,sans-Serif" font-size="10.00"> </text>
</a>
</g>
</g>
<!-- Node3&#45;&gt;Node1 -->
<g id="edge3" class="edge">
<title>Node3&#45;&gt;Node1</title>
<path fill="none" stroke="#404040" d="M28.3,-529.15C19.23,-480.7 7.23,-388.5 28.5,-314 33.66,-295.93 41.15,-277.91 49.87,-260.59"/>
<polygon fill="none" stroke="#404040" points="49.89,-260.54 49.12,-253.37 55.44,-249.91 56.21,-257.08 49.89,-260.54"/>
<text text-anchor="middle" x="52" y="-395.5" font-family="Helvetica,sans-Serif" font-size="10.00"> &#45;_rawData</text>
</g>
<!-- Node3&#45;&gt;Node2 -->
<g id="edge2" class="edge">
<title>Node3&#45;&gt;Node2</title>
<path fill="none" stroke="#404040" d="M57.36,-529.41C70.73,-509.16 88.24,-482.65 103.98,-458.83"/>
<polygon fill="none" stroke="#404040" points="103.99,-458.82 103.96,-451.61 110.6,-448.8 110.63,-456.02 103.99,-458.82"/>
<text text-anchor="middle" x="108" y="-503" font-family="Helvetica,sans-Serif" font-size="10.00"> #_dataObject</text>
</g>
<!-- Node4 -->
<g id="node4" class="node">
<title>Node4</title>
<g id="a_node4"><a xlink:href="class_data_store.html" target="_top" xlink:title="Local data storage class.">
<polygon fill="white" stroke="black" points="221,-314.5 221,-481.5 342,-481.5 342,-314.5 221,-314.5"/>
<text text-anchor="middle" x="281.5" y="-469.5" font-family="Helvetica,sans-Serif" font-size="10.00">DataStore</text>
<polyline fill="none" stroke="black" points="221,-462.5 342,-462.5 "/>
<text text-anchor="start" x="229" y="-450.5" font-family="Helvetica,sans-Serif" font-size="10.00">&#45; _retainedData</text>
<text text-anchor="start" x="229" y="-439.5" font-family="Helvetica,sans-Serif" font-size="10.00">&#45; _fileSystem</text>
<polyline fill="none" stroke="black" points="221,-432.5 342,-432.5 "/>
<text text-anchor="start" x="229" y="-420.5" font-family="Helvetica,sans-Serif" font-size="10.00">+ DataStore()</text>
<text text-anchor="start" x="229" y="-409.5" font-family="Helvetica,sans-Serif" font-size="10.00">+ ~DataStore()</text>
<text text-anchor="start" x="229" y="-398.5" font-family="Helvetica,sans-Serif" font-size="10.00">+ dataAvailable()</text>
<text text-anchor="start" x="229" y="-387.5" font-family="Helvetica,sans-Serif" font-size="10.00">+ storeDataObject()</text>
<text text-anchor="start" x="229" y="-376.5" font-family="Helvetica,sans-Serif" font-size="10.00">+ transmitDataStorage()</text>
<text text-anchor="start" x="229" y="-365.5" font-family="Helvetica,sans-Serif" font-size="10.00">&#45; formatData()</text>
<text text-anchor="start" x="229" y="-354.5" font-family="Helvetica,sans-Serif" font-size="10.00">&#45; reFormatData()</text>
<text text-anchor="start" x="229" y="-343.5" font-family="Helvetica,sans-Serif" font-size="10.00">&#45; appendData()</text>
<text text-anchor="start" x="229" y="-332.5" font-family="Helvetica,sans-Serif" font-size="10.00">&#45; loadDataStorage()</text>
<text text-anchor="start" x="229" y="-321.5" font-family="Helvetica,sans-Serif" font-size="10.00">&#45; deleteDataStorage()</text>
</a>
</g>
</g>
<!-- Node4&#45;&gt;Node1 -->
<g id="edge4" class="edge">
<title>Node4&#45;&gt;Node1</title>
<path fill="none" stroke="#404040" d="M272.54,-314.23C269.41,-300.43 265.19,-286.54 259.5,-274 253.67,-261.16 246.45,-248.47 238.48,-236.25"/>
<polygon fill="none" stroke="#404040" points="238.34,-236.06 231.67,-233.33 231.62,-226.12 238.3,-228.84 238.34,-236.06"/>
<text text-anchor="middle" x="298.5" y="-282.5" font-family="Helvetica,sans-Serif" font-size="10.00"> &#45;_dataStorage</text>
</g>
</g>
</svg>
