<?xml version="1.0" encoding="UTF-8" standalone="no"?>
<!DOCTYPE svg PUBLIC "-//W3C//DTD SVG 1.1//EN"
 "http://www.w3.org/Graphics/SVG/1.1/DTD/svg11.dtd">
<!-- Generated by graphviz version 4.0.0 (20220529.0937)
 -->
<!-- Title: MeasurementController::runProcess Pages: 1 -->
<svg width="1028pt" height="332pt"
 viewBox="0.00 0.00 1028.00 332.00" xmlns="http://www.w3.org/2000/svg" xmlns:xlink="http://www.w3.org/1999/xlink">
<g id="graph0" class="graph" transform="scale(1 1) rotate(0) translate(4 328)">
<title>MeasurementController::runProcess</title>
<polygon fill="white" stroke="transparent" points="-4,4 -4,-328 1024,-328 1024,4 -4,4"/>
<!-- Node1 -->
<g id="node1" class="node">
<title>Node1</title>
<g id="a_node1"><a xlink:title="Run threaded process for measurements.">
<polygon fill="#bfbfbf" stroke="black" points="0,-227 0,-257 117,-257 117,-227 0,-227"/>
<text text-anchor="start" x="8" y="-245" font-family="Helvetica,sans-Serif" font-size="10.00">MeasurementController</text>
<text text-anchor="middle" x="58.5" y="-234" font-family="Helvetica,sans-Serif" font-size="10.00">::runProcess</text>
</a>
</g>
</g>
<!-- Node2 -->
<g id="node2" class="node">
<title>Node2</title>
<g id="a_node2"><a xlink:href="class_measurement_controller.html#a1ffafc43dd499e1f52f0b72d712eb548" target="_top" xlink:title="Setup Data publisher connection.">
<polygon fill="white" stroke="black" points="153.5,-287 153.5,-317 270.5,-317 270.5,-287 153.5,-287"/>
<text text-anchor="start" x="161.5" y="-305" font-family="Helvetica,sans-Serif" font-size="10.00">MeasurementController</text>
<text text-anchor="middle" x="212" y="-294" font-family="Helvetica,sans-Serif" font-size="10.00">::connect</text>
</a>
</g>
</g>
<!-- Node1&#45;&gt;Node2 -->
<g id="edge1" class="edge">
<title>Node1&#45;&gt;Node2</title>
<path fill="none" stroke="midnightblue" d="M97.73,-257.14C117.72,-265.06 142.38,-274.82 163.58,-283.22"/>
<polygon fill="midnightblue" stroke="midnightblue" points="162.46,-286.54 173.05,-286.97 165.04,-280.03 162.46,-286.54"/>
</g>
<!-- Node6 -->
<g id="node6" class="node">
<title>Node6</title>
<g id="a_node6"><a xlink:href="class_measurement_controller.html#a41a466efd3028ea2dcc7948530106ca4" target="_top" xlink:title="Publish measurements to the DataPublisher.">
<polygon fill="white" stroke="black" points="153,-227 153,-257 271,-257 271,-227 153,-227"/>
<text text-anchor="start" x="161" y="-245" font-family="Helvetica,sans-Serif" font-size="10.00">MeasurementController</text>
<text text-anchor="middle" x="212" y="-234" font-family="Helvetica,sans-Serif" font-size="10.00">::publishMeasurements</text>
</a>
</g>
</g>
<!-- Node1&#45;&gt;Node6 -->
<g id="edge5" class="edge">
<title>Node1&#45;&gt;Node6</title>
<path fill="none" stroke="midnightblue" d="M117.21,-242C125.62,-242 134.35,-242 142.95,-242"/>
<polygon fill="midnightblue" stroke="midnightblue" points="142.95,-245.5 152.95,-242 142.95,-238.5 142.95,-245.5"/>
</g>
<!-- Node22 -->
<g id="node22" class="node">
<title>Node22</title>
<g id="a_node22"><a xlink:href="class_measurement_controller.html#a14e9ca06a5759944210656cf4576b633" target="_top" xlink:title="Run measurements for all sensors.">
<polygon fill="white" stroke="black" points="153.5,-178 153.5,-208 270.5,-208 270.5,-178 153.5,-178"/>
<text text-anchor="start" x="161.5" y="-196" font-family="Helvetica,sans-Serif" font-size="10.00">MeasurementController</text>
<text text-anchor="middle" x="212" y="-185" font-family="Helvetica,sans-Serif" font-size="10.00">::runMeasurements</text>
</a>
</g>
</g>
<!-- Node1&#45;&gt;Node22 -->
<g id="edge23" class="edge">
<title>Node1&#45;&gt;Node22</title>
<path fill="none" stroke="midnightblue" d="M106.19,-226.9C121.53,-221.94 138.74,-216.37 154.71,-211.21"/>
<polygon fill="midnightblue" stroke="midnightblue" points="156.03,-214.46 164.46,-208.05 153.87,-207.8 156.03,-214.46"/>
</g>
<!-- Node3 -->
<g id="node3" class="node">
<title>Node3</title>
<g id="a_node3"><a xlink:href="class_data_publisher.html#a4740f93775ead74b0bd4341dadac8b73" target="_top" xlink:title="Connect to the wireless network.">
<polygon fill="white" stroke="black" points="307,-298.5 307,-317.5 462,-317.5 462,-298.5 307,-298.5"/>
<text text-anchor="middle" x="384.5" y="-305.5" font-family="Helvetica,sans-Serif" font-size="10.00">DataPublisher::wirelessConnect</text>
</a>
</g>
</g>
<!-- Node2&#45;&gt;Node3 -->
<g id="edge2" class="edge">
<title>Node2&#45;&gt;Node3</title>
<path fill="none" stroke="midnightblue" d="M270.72,-304.03C279.06,-304.32 287.78,-304.63 296.53,-304.94"/>
<polygon fill="midnightblue" stroke="midnightblue" points="296.67,-308.45 306.79,-305.3 296.92,-301.45 296.67,-308.45"/>
</g>
<!-- Node4 -->
<g id="node4" class="node">
<title>Node4</title>
<g id="a_node4"><a xlink:href="class_data_publisher.html#a27a0a8162505d891b324e4d5bfa057dc" target="_top" xlink:title="Wireless event callback method.">
<polygon fill="white" stroke="black" points="507,-304.5 507,-323.5 650,-323.5 650,-304.5 507,-304.5"/>
<text text-anchor="middle" x="578.5" y="-311.5" font-family="Helvetica,sans-Serif" font-size="10.00">DataPublisher::wirelessEvent</text>
</a>
</g>
</g>
<!-- Node3&#45;&gt;Node4 -->
<g id="edge3" class="edge">
<title>Node3&#45;&gt;Node4</title>
<path fill="none" stroke="midnightblue" d="M462.21,-310.4C473.49,-310.75 485.13,-311.11 496.49,-311.47"/>
<polygon fill="midnightblue" stroke="midnightblue" points="496.72,-314.98 506.82,-311.79 496.94,-307.98 496.72,-314.98"/>
</g>
<!-- Node5 -->
<g id="node5" class="node">
<title>Node5</title>
<g id="a_node5"><a xlink:href="class_data_publisher.html#a10b8b56b6889df477dfe9b1ee549988d" target="_top" xlink:title="Singleton class instance.">
<polygon fill="white" stroke="black" points="889,-171.5 889,-190.5 1020,-190.5 1020,-171.5 889,-171.5"/>
<text text-anchor="middle" x="954.5" y="-178.5" font-family="Helvetica,sans-Serif" font-size="10.00">DataPublisher::INSTANCE</text>
</a>
</g>
</g>
<!-- Node4&#45;&gt;Node5 -->
<g id="edge4" class="edge">
<title>Node4&#45;&gt;Node5</title>
<path fill="none" stroke="midnightblue" d="M650.14,-307.91C706.99,-301.01 787.87,-286.59 853,-257 885.62,-242.18 917.63,-215.22 936.46,-197.72"/>
<polygon fill="midnightblue" stroke="midnightblue" points="939.08,-200.06 943.92,-190.64 934.26,-194.99 939.08,-200.06"/>
</g>
<!-- Node7 -->
<g id="node7" class="node">
<title>Node7</title>
<g id="a_node7"><a xlink:href="class_data_publisher.html#a1e695b3453c48f2887fc9c4fa3699066" target="_top" xlink:title="Add datafield to data object.">
<polygon fill="white" stroke="black" points="325,-232.5 325,-251.5 444,-251.5 444,-232.5 325,-232.5"/>
<text text-anchor="middle" x="384.5" y="-239.5" font-family="Helvetica,sans-Serif" font-size="10.00">DataPublisher::addData</text>
</a>
</g>
</g>
<!-- Node6&#45;&gt;Node7 -->
<g id="edge6" class="edge">
<title>Node6&#45;&gt;Node7</title>
<path fill="none" stroke="midnightblue" d="M271.2,-242C285.17,-242 300.23,-242 314.63,-242"/>
<polygon fill="midnightblue" stroke="midnightblue" points="314.98,-245.5 324.98,-242 314.98,-238.5 314.98,-245.5"/>
</g>
<!-- Node8 -->
<g id="node8" class="node">
<title>Node8</title>
<g id="a_node8"><a xlink:href="class_data_publisher.html#a266411f687c44a946cbac8323903a3e5" target="_top" xlink:title="Send data to network.">
<polygon fill="white" stroke="black" points="322,-171.5 322,-190.5 447,-190.5 447,-171.5 322,-171.5"/>
<text text-anchor="middle" x="384.5" y="-178.5" font-family="Helvetica,sans-Serif" font-size="10.00">DataPublisher::sendData</text>
</a>
</g>
</g>
<!-- Node6&#45;&gt;Node8 -->
<g id="edge7" class="edge">
<title>Node6&#45;&gt;Node8</title>
<path fill="none" stroke="midnightblue" d="M255.15,-226.92C283.43,-216.8 320.3,-203.61 347.26,-193.97"/>
<polygon fill="midnightblue" stroke="midnightblue" points="348.47,-197.25 356.71,-190.58 346.12,-190.66 348.47,-197.25"/>
</g>
<!-- Node9 -->
<g id="node9" class="node">
<title>Node9</title>
<g id="a_node9"><a xlink:href="class_transmission_base.html#a8bda22d8af26bdab83608d288827f15c" target="_top" xlink:title="Default close method, can be overwritten.">
<polygon fill="white" stroke="black" points="515.5,-266.5 515.5,-285.5 641.5,-285.5 641.5,-266.5 515.5,-266.5"/>
<text text-anchor="middle" x="578.5" y="-273.5" font-family="Helvetica,sans-Serif" font-size="10.00">TransmissionBase::close</text>
</a>
</g>
</g>
<!-- Node8&#45;&gt;Node9 -->
<g id="edge8" class="edge">
<title>Node8&#45;&gt;Node9</title>
<path fill="none" stroke="midnightblue" d="M406.16,-190.55C422.06,-198.31 444.24,-210.07 462,-223 479.79,-235.96 478.64,-246.53 498,-257 502.22,-259.28 506.72,-261.3 511.35,-263.07"/>
<polygon fill="midnightblue" stroke="midnightblue" points="510.37,-266.44 520.97,-266.38 512.65,-259.82 510.37,-266.44"/>
</g>
<!-- Node10 -->
<g id="node10" class="node">
<title>Node10</title>
<g id="a_node10"><a xlink:href="class_data_store.html#ad2397fa823658daa46dadd0e510f5af2" target="_top" xlink:title="Check if data has been stored locally.">
<polygon fill="white" stroke="black" points="517,-228.5 517,-247.5 640,-247.5 640,-228.5 517,-228.5"/>
<text text-anchor="middle" x="578.5" y="-235.5" font-family="Helvetica,sans-Serif" font-size="10.00">DataStore::dataAvailable</text>
</a>
</g>
</g>
<!-- Node8&#45;&gt;Node10 -->
<g id="edge9" class="edge">
<title>Node8&#45;&gt;Node10</title>
<path fill="none" stroke="midnightblue" d="M411.65,-190.59C434.32,-198.72 468.08,-210.39 498,-219 506.52,-221.45 515.62,-223.84 524.5,-226.05"/>
<polygon fill="midnightblue" stroke="midnightblue" points="523.86,-229.49 534.4,-228.46 525.52,-222.69 523.86,-229.49"/>
</g>
<!-- Node11 -->
<g id="node11" class="node">
<title>Node11</title>
<g id="a_node11"><a xlink:href="class_data_store.html#a9f153c8de4863259737ba4b75869bf67" target="_top" xlink:title="Add data object to local storage.">
<polygon fill="white" stroke="black" points="510,-190.5 510,-209.5 647,-209.5 647,-190.5 510,-190.5"/>
<text text-anchor="middle" x="578.5" y="-197.5" font-family="Helvetica,sans-Serif" font-size="10.00">DataStore::storeDataObject</text>
</a>
</g>
</g>
<!-- Node8&#45;&gt;Node11 -->
<g id="edge10" class="edge">
<title>Node8&#45;&gt;Node11</title>
<path fill="none" stroke="midnightblue" d="M447.04,-187.09C463.82,-188.75 482.22,-190.57 499.77,-192.31"/>
<polygon fill="midnightblue" stroke="midnightblue" points="499.69,-195.82 509.99,-193.32 500.38,-188.85 499.69,-195.82"/>
</g>
<!-- Node14 -->
<g id="node14" class="node">
<title>Node14</title>
<g id="a_node14"><a xlink:href="class_transmission_base.html#a5f5167fe4e51db44b9070ca4c27e1961" target="_top" xlink:title="Transmit data using method.">
<polygon fill="white" stroke="black" points="695,-152.5 695,-171.5 853,-171.5 853,-152.5 695,-152.5"/>
<text text-anchor="middle" x="774" y="-159.5" font-family="Helvetica,sans-Serif" font-size="10.00">TransmissionBase::transmitData</text>
</a>
</g>
</g>
<!-- Node8&#45;&gt;Node14 -->
<g id="edge13" class="edge">
<title>Node8&#45;&gt;Node14</title>
<path fill="none" stroke="midnightblue" d="M447.33,-177.97C511.41,-174.83 612.15,-169.89 684.63,-166.33"/>
<polygon fill="midnightblue" stroke="midnightblue" points="684.84,-169.83 694.66,-165.84 684.5,-162.84 684.84,-169.83"/>
</g>
<!-- Node15 -->
<g id="node15" class="node">
<title>Node15</title>
<g id="a_node15"><a xlink:href="class_data_store.html#a07027b1feb1d9819d77a48322f9cd2a7" target="_top" xlink:title="Send retained data from local storage.">
<polygon fill="white" stroke="black" points="501,-114.5 501,-133.5 656,-133.5 656,-114.5 501,-114.5"/>
<text text-anchor="middle" x="578.5" y="-121.5" font-family="Helvetica,sans-Serif" font-size="10.00">DataStore::transmitDataStorage</text>
</a>
</g>
</g>
<!-- Node8&#45;&gt;Node15 -->
<g id="edge14" class="edge">
<title>Node8&#45;&gt;Node15</title>
<path fill="none" stroke="midnightblue" d="M417.64,-171.46C450.03,-161.84 500.19,-146.95 535.67,-136.42"/>
<polygon fill="midnightblue" stroke="midnightblue" points="536.67,-139.77 545.26,-133.57 534.68,-133.06 536.67,-139.77"/>
</g>
<!-- Node19 -->
<g id="node19" class="node">
<title>Node19</title>
<g id="a_node19"><a xlink:href="class_data_publisher.html#a36d4a0232251a0bf710d96be39f913af" target="_top" xlink:title="Update the current Timestamp for a measurement.">
<polygon fill="white" stroke="black" points="498,-76.5 498,-95.5 659,-95.5 659,-76.5 498,-76.5"/>
<text text-anchor="middle" x="578.5" y="-83.5" font-family="Helvetica,sans-Serif" font-size="10.00">DataPublisher::updateTimestamp</text>
</a>
</g>
</g>
<!-- Node8&#45;&gt;Node19 -->
<g id="edge20" class="edge">
<title>Node8&#45;&gt;Node19</title>
<path fill="none" stroke="midnightblue" d="M396.82,-171.28C416.22,-155.12 457.65,-122.75 498,-105 503.71,-102.49 509.81,-100.28 515.98,-98.34"/>
<polygon fill="midnightblue" stroke="midnightblue" points="517.09,-101.67 525.72,-95.52 515.14,-94.94 517.09,-101.67"/>
</g>
<!-- Node21 -->
<g id="node21" class="node">
<title>Node21</title>
<g id="a_node21"><a xlink:href="class_data_publisher.html#af6aeeea1fe0922eec7187094470c2ede" target="_top" xlink:title="Get connection status.">
<polygon fill="white" stroke="black" points="511.5,-27 511.5,-57 645.5,-57 645.5,-27 511.5,-27"/>
<text text-anchor="start" x="519.5" y="-45" font-family="Helvetica,sans-Serif" font-size="10.00">DataPublisher::wirelessGet</text>
<text text-anchor="middle" x="578.5" y="-34" font-family="Helvetica,sans-Serif" font-size="10.00">Connected</text>
</a>
</g>
</g>
<!-- Node8&#45;&gt;Node21 -->
<g id="edge22" class="edge">
<title>Node8&#45;&gt;Node21</title>
<path fill="none" stroke="midnightblue" d="M392.48,-171.18C408.57,-149.26 450.54,-95.99 498,-67 501.54,-64.84 505.29,-62.84 509.15,-61.01"/>
<polygon fill="midnightblue" stroke="midnightblue" points="510.55,-64.22 518.32,-57.02 507.76,-57.8 510.55,-64.22"/>
</g>
<!-- Node12 -->
<g id="node12" class="node">
<title>Node12</title>
<g id="a_node12"><a xlink:href="class_data_store.html#a1b9b92814aaedb80943d875a464ea7d9" target="_top" xlink:title="Add data to local storage file.">
<polygon fill="white" stroke="black" points="715,-228.5 715,-247.5 833,-247.5 833,-228.5 715,-228.5"/>
<text text-anchor="middle" x="774" y="-235.5" font-family="Helvetica,sans-Serif" font-size="10.00">DataStore::appendData</text>
</a>
</g>
</g>
<!-- Node11&#45;&gt;Node12 -->
<g id="edge11" class="edge">
<title>Node11&#45;&gt;Node12</title>
<path fill="none" stroke="midnightblue" d="M628.33,-209.59C654.55,-214.74 687.06,-221.12 714.62,-226.53"/>
<polygon fill="midnightblue" stroke="midnightblue" points="714.04,-229.99 724.52,-228.48 715.38,-223.12 714.04,-229.99"/>
</g>
<!-- Node13 -->
<g id="node13" class="node">
<title>Node13</title>
<g id="a_node13"><a xlink:href="class_data_store.html#aeb526ffea5feb11fb3821aa5f6400c18" target="_top" xlink:title="Format data from raw data into storage data.">
<polygon fill="white" stroke="black" points="717.5,-190.5 717.5,-209.5 830.5,-209.5 830.5,-190.5 717.5,-190.5"/>
<text text-anchor="middle" x="774" y="-197.5" font-family="Helvetica,sans-Serif" font-size="10.00">DataStore::formatData</text>
</a>
</g>
</g>
<!-- Node11&#45;&gt;Node13 -->
<g id="edge12" class="edge">
<title>Node11&#45;&gt;Node13</title>
<path fill="none" stroke="midnightblue" d="M647.18,-200C666.58,-200 687.7,-200 706.99,-200"/>
<polygon fill="midnightblue" stroke="midnightblue" points="707.2,-203.5 717.2,-200 707.2,-196.5 707.2,-203.5"/>
</g>
<!-- Node15&#45;&gt;Node14 -->
<g id="edge19" class="edge">
<title>Node15&#45;&gt;Node14</title>
<path fill="none" stroke="midnightblue" d="M628.33,-133.59C654.55,-138.74 687.06,-145.12 714.62,-150.53"/>
<polygon fill="midnightblue" stroke="midnightblue" points="714.04,-153.99 724.52,-152.48 715.38,-147.12 714.04,-153.99"/>
</g>
<!-- Node16 -->
<g id="node16" class="node">
<title>Node16</title>
<g id="a_node16"><a xlink:href="class_data_store.html#a10b2120afd567750d6117a266eb9207a" target="_top" xlink:title="Delete locally stored data.">
<polygon fill="white" stroke="black" points="701,-114.5 701,-133.5 847,-133.5 847,-114.5 701,-114.5"/>
<text text-anchor="middle" x="774" y="-121.5" font-family="Helvetica,sans-Serif" font-size="10.00">DataStore::deleteDataStorage</text>
</a>
</g>
</g>
<!-- Node15&#45;&gt;Node16 -->
<g id="edge15" class="edge">
<title>Node15&#45;&gt;Node16</title>
<path fill="none" stroke="midnightblue" d="M656.25,-124C667.48,-124 679.09,-124 690.43,-124"/>
<polygon fill="midnightblue" stroke="midnightblue" points="690.75,-127.5 700.75,-124 690.75,-120.5 690.75,-127.5"/>
</g>
<!-- Node17 -->
<g id="node17" class="node">
<title>Node17</title>
<g id="a_node17"><a xlink:href="class_data_store.html#a6724e2f03e4339881f7ee09b092a526c" target="_top" xlink:title="Load data stored in file into the local _retainedData vector.">
<polygon fill="white" stroke="black" points="705,-76.5 705,-95.5 843,-95.5 843,-76.5 705,-76.5"/>
<text text-anchor="middle" x="774" y="-83.5" font-family="Helvetica,sans-Serif" font-size="10.00">DataStore::loadDataStorage</text>
</a>
</g>
</g>
<!-- Node15&#45;&gt;Node17 -->
<g id="edge16" class="edge">
<title>Node15&#45;&gt;Node17</title>
<path fill="none" stroke="midnightblue" d="M628.33,-114.41C654.55,-109.26 687.06,-102.88 714.62,-97.47"/>
<polygon fill="midnightblue" stroke="midnightblue" points="715.38,-100.88 724.52,-95.52 714.04,-94.01 715.38,-100.88"/>
</g>
<!-- Node18 -->
<g id="node18" class="node">
<title>Node18</title>
<g id="a_node18"><a xlink:href="class_data_store.html#a4ac88a34f9a5f6ebc435bd1bf652e1c7" target="_top" xlink:title="Format data from storage data back to raw data.">
<polygon fill="white" stroke="black" points="711.5,-38.5 711.5,-57.5 836.5,-57.5 836.5,-38.5 711.5,-38.5"/>
<text text-anchor="middle" x="774" y="-45.5" font-family="Helvetica,sans-Serif" font-size="10.00">DataStore::reFormatData</text>
</a>
</g>
</g>
<!-- Node15&#45;&gt;Node18 -->
<g id="edge17" class="edge">
<title>Node15&#45;&gt;Node18</title>
<path fill="none" stroke="midnightblue" d="M637.07,-114.47C644.72,-112 652.24,-108.9 659,-105 679.15,-93.37 674.88,-78.67 695,-67 698.73,-64.84 702.7,-62.92 706.79,-61.22"/>
<polygon fill="midnightblue" stroke="midnightblue" points="708.34,-64.37 716.52,-57.63 705.92,-57.81 708.34,-64.37"/>
</g>
<!-- Node18&#45;&gt;Node5 -->
<g id="edge18" class="edge">
<title>Node18&#45;&gt;Node5</title>
<path fill="none" stroke="midnightblue" d="M832.02,-57.55C839.36,-60.01 846.56,-63.11 853,-67 893.25,-91.32 926.17,-137.03 942.45,-162.56"/>
<polygon fill="midnightblue" stroke="midnightblue" points="939.61,-164.62 947.86,-171.27 945.56,-160.93 939.61,-164.62"/>
</g>
<!-- Node20 -->
<g id="node20" class="node">
<title>Node20</title>
<g id="a_node20"><a xlink:href="class_data_publisher.html#a01a7b2d8788d7d8b7100a92c322a15a9" target="_top" xlink:title="Helper print function.">
<polygon fill="white" stroke="black" points="710.5,-0.5 710.5,-19.5 837.5,-19.5 837.5,-0.5 710.5,-0.5"/>
<text text-anchor="middle" x="774" y="-7.5" font-family="Helvetica,sans-Serif" font-size="10.00">DataPublisher::showTime</text>
</a>
</g>
</g>
<!-- Node19&#45;&gt;Node20 -->
<g id="edge21" class="edge">
<title>Node19&#45;&gt;Node20</title>
<path fill="none" stroke="midnightblue" d="M634.52,-76.41C643.03,-73.74 651.48,-70.33 659,-66 678.88,-54.54 675.08,-40.38 695,-29 698.92,-26.76 703.09,-24.79 707.4,-23.04"/>
<polygon fill="midnightblue" stroke="midnightblue" points="708.76,-26.27 716.97,-19.58 706.38,-19.69 708.76,-26.27"/>
</g>
</g>
</svg>
