<?xml version="1.0" encoding="UTF-8" standalone="no"?>
<!DOCTYPE svg PUBLIC "-//W3C//DTD SVG 1.1//EN"
 "http://www.w3.org/Graphics/SVG/1.1/DTD/svg11.dtd">
<!-- Generated by graphviz version 4.0.0 (20220529.0937)
 -->
<!-- Title: DataPublisher::INSTANCE Pages: 1 -->
<svg width="1054pt" height="150pt"
 viewBox="0.00 0.00 1054.00 149.56" xmlns="http://www.w3.org/2000/svg" xmlns:xlink="http://www.w3.org/1999/xlink">
<g id="graph0" class="graph" transform="scale(1 1) rotate(0) translate(4 145.56)">
<title>DataPublisher::INSTANCE</title>
<polygon fill="white" stroke="transparent" points="-4,4 -4,-145.56 1050,-145.56 1050,4 -4,4"/>
<!-- Node1 -->
<g id="node1" class="node">
<title>Node1</title>
<g id="a_node1"><a xlink:title="Singleton class instance.">
<polygon fill="#bfbfbf" stroke="black" points="915,-53.56 915,-72.56 1046,-72.56 1046,-53.56 915,-53.56"/>
<text text-anchor="middle" x="980.5" y="-60.56" font-family="Helvetica,sans-Serif" font-size="10.00">DataPublisher::INSTANCE</text>
</a>
</g>
</g>
<!-- Node2 -->
<g id="node2" class="node">
<title>Node2</title>
<g id="a_node2"><a xlink:href="class_measurement_controller.html#acce9d35c930dff42cc339e349efd5182" target="_top" xlink:title="Default constructor.">
<polygon fill="white" stroke="black" points="746,-111.06 746,-141.06 869,-141.06 869,-111.06 746,-111.06"/>
<text text-anchor="start" x="754" y="-129.06" font-family="Helvetica,sans-Serif" font-size="10.00">MeasurementController</text>
<text text-anchor="middle" x="807.5" y="-118.06" font-family="Helvetica,sans-Serif" font-size="10.00">::MeasurementController</text>
</a>
</g>
</g>
<!-- Node1&#45;&gt;Node2 -->
<g id="edge1" class="edge">
<title>Node1&#45;&gt;Node2</title>
<path fill="none" stroke="midnightblue" d="M945.43,-76.14C926,-83.55 901.18,-92.94 879,-101.06 870.1,-104.32 860.54,-107.75 851.43,-111"/>
<polygon fill="midnightblue" stroke="midnightblue" points="946.68,-79.41 954.77,-72.57 944.18,-72.87 946.68,-79.41"/>
</g>
<!-- Node3 -->
<g id="node3" class="node">
<title>Node3</title>
<g id="a_node3"><a xlink:href="class_data_store.html#a4ac88a34f9a5f6ebc435bd1bf652e1c7" target="_top" xlink:title="Format data from storage data back to raw data.">
<polygon fill="white" stroke="black" points="745,-34.56 745,-53.56 870,-53.56 870,-34.56 745,-34.56"/>
<text text-anchor="middle" x="807.5" y="-41.56" font-family="Helvetica,sans-Serif" font-size="10.00">DataStore::reFormatData</text>
</a>
</g>
</g>
<!-- Node1&#45;&gt;Node3 -->
<g id="edge2" class="edge">
<title>Node1&#45;&gt;Node3</title>
<path fill="none" stroke="midnightblue" d="M904.78,-54.76C893.21,-53.47 881.37,-52.16 870.13,-50.91"/>
<polygon fill="midnightblue" stroke="midnightblue" points="904.53,-58.25 914.85,-55.88 905.3,-51.29 904.53,-58.25"/>
</g>
<!-- Node8 -->
<g id="node8" class="node">
<title>Node8</title>
<g id="a_node8"><a xlink:href="main_8cpp.html#a4fc01d736fe50cf5b977f755b675f11d" target="_top" xlink:title="Single run function on startup.">
<polygon fill="white" stroke="black" points="0,-12.56 0,-31.56 41,-31.56 41,-12.56 0,-12.56"/>
<text text-anchor="middle" x="20.5" y="-19.56" font-family="Helvetica,sans-Serif" font-size="10.00">setup</text>
</a>
</g>
</g>
<!-- Node1&#45;&gt;Node8 -->
<g id="edge8" class="edge">
<title>Node1&#45;&gt;Node8</title>
<path fill="none" stroke="midnightblue" d="M949.5,-49.33C929.86,-40.94 903.4,-30.76 879,-25.06 767.89,0.9 737.6,-0.06 623.5,-0.06 623.5,-0.06 623.5,-0.06 288,-0.06 195.38,-0.06 85.27,-13.42 41.18,-19.32"/>
<polygon fill="midnightblue" stroke="midnightblue" points="948.26,-52.61 958.83,-53.4 951.06,-46.19 948.26,-52.61"/>
</g>
<!-- Node9 -->
<g id="node9" class="node">
<title>Node9</title>
<g id="a_node9"><a xlink:href="class_data_publisher.html#a27a0a8162505d891b324e4d5bfa057dc" target="_top" xlink:title="Wireless event callback method.">
<polygon fill="white" stroke="black" points="736,-72.56 736,-91.56 879,-91.56 879,-72.56 736,-72.56"/>
<text text-anchor="middle" x="807.5" y="-79.56" font-family="Helvetica,sans-Serif" font-size="10.00">DataPublisher::wirelessEvent</text>
</a>
</g>
</g>
<!-- Node1&#45;&gt;Node9 -->
<g id="edge9" class="edge">
<title>Node1&#45;&gt;Node9</title>
<path fill="none" stroke="midnightblue" d="M904.65,-71.38C896.21,-72.31 887.63,-73.27 879.24,-74.2"/>
<polygon fill="midnightblue" stroke="midnightblue" points="905.3,-74.83 914.85,-70.24 904.53,-67.87 905.3,-74.83"/>
</g>
<!-- Node4 -->
<g id="node4" class="node">
<title>Node4</title>
<g id="a_node4"><a xlink:href="class_data_store.html#a07027b1feb1d9819d77a48322f9cd2a7" target="_top" xlink:title="Send retained data from local storage.">
<polygon fill="white" stroke="black" points="545,-34.56 545,-53.56 700,-53.56 700,-34.56 545,-34.56"/>
<text text-anchor="middle" x="622.5" y="-41.56" font-family="Helvetica,sans-Serif" font-size="10.00">DataStore::transmitDataStorage</text>
</a>
</g>
</g>
<!-- Node3&#45;&gt;Node4 -->
<g id="edge3" class="edge">
<title>Node3&#45;&gt;Node4</title>
<path fill="none" stroke="midnightblue" d="M734.57,-44.06C723.29,-44.06 711.58,-44.06 700.19,-44.06"/>
<polygon fill="midnightblue" stroke="midnightblue" points="734.8,-47.56 744.8,-44.06 734.8,-40.56 734.8,-47.56"/>
</g>
<!-- Node5 -->
<g id="node5" class="node">
<title>Node5</title>
<g id="a_node5"><a xlink:href="class_data_publisher.html#a266411f687c44a946cbac8323903a3e5" target="_top" xlink:title="Send data to network.">
<polygon fill="white" stroke="black" points="384,-34.56 384,-53.56 509,-53.56 509,-34.56 384,-34.56"/>
<text text-anchor="middle" x="446.5" y="-41.56" font-family="Helvetica,sans-Serif" font-size="10.00">DataPublisher::sendData</text>
</a>
</g>
</g>
<!-- Node4&#45;&gt;Node5 -->
<g id="edge4" class="edge">
<title>Node4&#45;&gt;Node5</title>
<path fill="none" stroke="midnightblue" d="M534.81,-44.06C526.17,-44.06 517.52,-44.06 509.22,-44.06"/>
<polygon fill="midnightblue" stroke="midnightblue" points="534.93,-47.56 544.93,-44.06 534.93,-40.56 534.93,-47.56"/>
</g>
<!-- Node6 -->
<g id="node6" class="node">
<title>Node6</title>
<g id="a_node6"><a xlink:href="class_measurement_controller.html#a41a466efd3028ea2dcc7948530106ca4" target="_top" xlink:title="Publish measurements to the DataPublisher.">
<polygon fill="white" stroke="black" points="230,-29.06 230,-59.06 348,-59.06 348,-29.06 230,-29.06"/>
<text text-anchor="start" x="238" y="-47.06" font-family="Helvetica,sans-Serif" font-size="10.00">MeasurementController</text>
<text text-anchor="middle" x="289" y="-36.06" font-family="Helvetica,sans-Serif" font-size="10.00">::publishMeasurements</text>
</a>
</g>
</g>
<!-- Node5&#45;&gt;Node6 -->
<g id="edge5" class="edge">
<title>Node5&#45;&gt;Node6</title>
<path fill="none" stroke="midnightblue" d="M373.36,-44.06C364.91,-44.06 356.38,-44.06 348.15,-44.06"/>
<polygon fill="midnightblue" stroke="midnightblue" points="373.6,-47.56 383.6,-44.06 373.6,-40.56 373.6,-47.56"/>
</g>
<!-- Node7 -->
<g id="node7" class="node">
<title>Node7</title>
<g id="a_node7"><a xlink:href="class_measurement_controller.html#abeba7c187f196061dd3ac727746a3971" target="_top" xlink:title="Run threaded process for measurements.">
<polygon fill="white" stroke="black" points="77,-29.06 77,-59.06 194,-59.06 194,-29.06 77,-29.06"/>
<text text-anchor="start" x="85" y="-47.06" font-family="Helvetica,sans-Serif" font-size="10.00">MeasurementController</text>
<text text-anchor="middle" x="135.5" y="-36.06" font-family="Helvetica,sans-Serif" font-size="10.00">::runProcess</text>
</a>
</g>
</g>
<!-- Node6&#45;&gt;Node7 -->
<g id="edge6" class="edge">
<title>Node6&#45;&gt;Node7</title>
<path fill="none" stroke="midnightblue" d="M219.61,-44.06C211.13,-44.06 202.53,-44.06 194.23,-44.06"/>
<polygon fill="midnightblue" stroke="midnightblue" points="219.86,-47.56 229.86,-44.06 219.86,-40.56 219.86,-47.56"/>
</g>
<!-- Node7&#45;&gt;Node8 -->
<g id="edge7" class="edge">
<title>Node7&#45;&gt;Node8</title>
<path fill="none" stroke="midnightblue" d="M66.83,-30.88C57.48,-29.07 48.56,-27.33 41.14,-25.88"/>
<polygon fill="midnightblue" stroke="midnightblue" points="66.19,-34.33 76.68,-32.8 67.53,-27.46 66.19,-34.33"/>
</g>
<!-- Node10 -->
<g id="node10" class="node">
<title>Node10</title>
<g id="a_node10"><a xlink:href="class_data_publisher.html#a4740f93775ead74b0bd4341dadac8b73" target="_top" xlink:title="Connect to the wireless network.">
<polygon fill="white" stroke="black" points="545,-74.56 545,-93.56 700,-93.56 700,-74.56 545,-74.56"/>
<text text-anchor="middle" x="622.5" y="-81.56" font-family="Helvetica,sans-Serif" font-size="10.00">DataPublisher::wirelessConnect</text>
</a>
</g>
</g>
<!-- Node9&#45;&gt;Node10 -->
<g id="edge10" class="edge">
<title>Node9&#45;&gt;Node10</title>
<path fill="none" stroke="midnightblue" d="M725.53,-82.94C717.09,-83.04 708.53,-83.13 700.14,-83.22"/>
<polygon fill="midnightblue" stroke="midnightblue" points="725.79,-86.44 735.75,-82.83 725.71,-79.44 725.79,-86.44"/>
</g>
<!-- Node11 -->
<g id="node11" class="node">
<title>Node11</title>
<g id="a_node11"><a xlink:href="class_measurement_controller.html#a1ffafc43dd499e1f52f0b72d712eb548" target="_top" xlink:title="Setup Data publisher connection.">
<polygon fill="white" stroke="black" points="230.5,-78.06 230.5,-108.06 347.5,-108.06 347.5,-78.06 230.5,-78.06"/>
<text text-anchor="start" x="238.5" y="-96.06" font-family="Helvetica,sans-Serif" font-size="10.00">MeasurementController</text>
<text text-anchor="middle" x="289" y="-85.06" font-family="Helvetica,sans-Serif" font-size="10.00">::connect</text>
</a>
</g>
</g>
<!-- Node10&#45;&gt;Node11 -->
<g id="edge11" class="edge">
<title>Node10&#45;&gt;Node11</title>
<path fill="none" stroke="midnightblue" d="M534.55,-86.42C475.54,-88.02 399.15,-90.1 347.58,-91.5"/>
<polygon fill="midnightblue" stroke="midnightblue" points="534.71,-89.92 544.61,-86.15 534.52,-82.92 534.71,-89.92"/>
</g>
<!-- Node11&#45;&gt;Node7 -->
<g id="edge12" class="edge">
<title>Node11&#45;&gt;Node7</title>
<path fill="none" stroke="midnightblue" d="M231.55,-74.8C215.57,-69.63 198.36,-64.07 183.04,-59.11"/>
<polygon fill="midnightblue" stroke="midnightblue" points="230.72,-78.21 241.31,-77.96 232.87,-71.55 230.72,-78.21"/>
</g>
</g>
</svg>
