<?xml version="1.0" encoding="UTF-8" standalone="no"?>
<!DOCTYPE svg PUBLIC "-//W3C//DTD SVG 1.1//EN"
 "http://www.w3.org/Graphics/SVG/1.1/DTD/svg11.dtd">
<!-- Generated by graphviz version 4.0.0 (20220529.0937)
 -->
<!-- Title: HTTPTransmission Pages: 1 -->
<svg width="127pt" height="248pt"
 viewBox="0.00 0.00 127.00 248.00" xmlns="http://www.w3.org/2000/svg" xmlns:xlink="http://www.w3.org/1999/xlink">
<g id="graph0" class="graph" transform="scale(1 1) rotate(0) translate(4 244)">
<title>HTTPTransmission</title>
<polygon fill="white" stroke="transparent" points="-4,4 -4,-244 123,-244 123,4 -4,4"/>
<!-- Node1 -->
<g id="node1" class="node">
<title>Node1</title>
<g id="a_node1"><a xlink:title="HTTP Post transmission.">
<polygon fill="#bfbfbf" stroke="black" points="0,-0.5 0,-90.5 119,-90.5 119,-0.5 0,-0.5"/>
<text text-anchor="middle" x="59.5" y="-78.5" font-family="Helvetica,sans-Serif" font-size="10.00">HTTPTransmission</text>
<polyline fill="none" stroke="black" points="0,-71.5 119,-71.5 "/>
<text text-anchor="start" x="8" y="-59.5" font-family="Helvetica,sans-Serif" font-size="10.00">&#45; _httpClient</text>
<polyline fill="none" stroke="black" points="0,-52.5 119,-52.5 "/>
<text text-anchor="start" x="8" y="-40.5" font-family="Helvetica,sans-Serif" font-size="10.00">+ HTTPTransmission()</text>
<text text-anchor="start" x="8" y="-29.5" font-family="Helvetica,sans-Serif" font-size="10.00">+ ~HTTPTransmission()</text>
<text text-anchor="start" x="8" y="-18.5" font-family="Helvetica,sans-Serif" font-size="10.00">+ transmitData()</text>
<text text-anchor="start" x="8" y="-7.5" font-family="Helvetica,sans-Serif" font-size="10.00">&#45; parseData()</text>
</a>
</g>
</g>
<!-- Node2 -->
<g id="node2" class="node">
<title>Node2</title>
<g id="a_node2"><a xlink:href="class_transmission_base.html" target="_top" xlink:title="Base class for sending data to one of the endpoints.">
<polygon fill="white" stroke="black" points="0.5,-127.5 0.5,-239.5 118.5,-239.5 118.5,-127.5 0.5,-127.5"/>
<text text-anchor="middle" x="59.5" y="-227.5" font-family="Helvetica,sans-Serif" font-size="10.00">TransmissionBase</text>
<polyline fill="none" stroke="black" points="0.5,-220.5 118.5,-220.5 "/>
<text text-anchor="start" x="8.5" y="-208.5" font-family="Helvetica,sans-Serif" font-size="10.00"># _dataObject</text>
<text text-anchor="start" x="8.5" y="-197.5" font-family="Helvetica,sans-Serif" font-size="10.00"># _parsedData</text>
<polyline fill="none" stroke="black" points="0.5,-190.5 118.5,-190.5 "/>
<text text-anchor="start" x="8.5" y="-178.5" font-family="Helvetica,sans-Serif" font-size="10.00">+ TransmissionBase()</text>
<text text-anchor="start" x="8.5" y="-167.5" font-family="Helvetica,sans-Serif" font-size="10.00">+ ~TransmissionBase()</text>
<text text-anchor="start" x="8.5" y="-156.5" font-family="Helvetica,sans-Serif" font-size="10.00">+ transmitData()</text>
<text text-anchor="start" x="8.5" y="-145.5" font-family="Helvetica,sans-Serif" font-size="10.00">+ close()</text>
<text text-anchor="start" x="8.5" y="-134.5" font-family="Helvetica,sans-Serif" font-size="10.00">&#45; parseData()</text>
</a>
</g>
</g>
<!-- Node2&#45;&gt;Node1 -->
<g id="edge1" class="edge">
<title>Node2&#45;&gt;Node1</title>
<path fill="none" stroke="midnightblue" d="M59.5,-117.08C59.5,-108.07 59.5,-99.01 59.5,-90.51"/>
<polygon fill="none" stroke="midnightblue" points="56,-117.18 59.5,-127.18 63,-117.18 56,-117.18"/>
</g>
</g>
</svg>
