<?xml version="1.0" encoding="UTF-8" standalone="no"?>
<!DOCTYPE svg PUBLIC "-//W3C//DTD SVG 1.1//EN"
 "http://www.w3.org/Graphics/SVG/1.1/DTD/svg11.dtd">
<!-- Generated by graphviz version 4.0.0 (20220529.0937)
 -->
<!-- Title: IOTHubTransmission Pages: 1 -->
<svg width="136pt" height="398pt"
 viewBox="0.00 0.00 136.00 398.00" xmlns="http://www.w3.org/2000/svg" xmlns:xlink="http://www.w3.org/1999/xlink">
<g id="graph0" class="graph" transform="scale(1 1) rotate(0) translate(4 394)">
<title>IOTHubTransmission</title>
<polygon fill="white" stroke="transparent" points="-4,4 -4,-394 132,-394 132,4 -4,4"/>
<!-- Node1 -->
<g id="node1" class="node">
<title>Node1</title>
<g id="a_node1"><a xlink:title=" ">
<polygon fill="#bfbfbf" stroke="black" points="0,-0.5 0,-134.5 128,-134.5 128,-0.5 0,-0.5"/>
<text text-anchor="middle" x="64" y="-122.5" font-family="Helvetica,sans-Serif" font-size="10.00">IOTHubTransmission</text>
<polyline fill="none" stroke="black" points="0,-115.5 128,-115.5 "/>
<text text-anchor="middle" x="64" y="-103.5" font-family="Helvetica,sans-Serif" font-size="10.00"> </text>
<polyline fill="none" stroke="black" points="0,-96.5 128,-96.5 "/>
<text text-anchor="start" x="8" y="-84.5" font-family="Helvetica,sans-Serif" font-size="10.00">+ IOTHubTransmission()</text>
<text text-anchor="start" x="8" y="-73.5" font-family="Helvetica,sans-Serif" font-size="10.00">+ ~IOTHubTransmission()</text>
<text text-anchor="start" x="8" y="-62.5" font-family="Helvetica,sans-Serif" font-size="10.00">+ transmitData()</text>
<text text-anchor="start" x="8" y="-51.5" font-family="Helvetica,sans-Serif" font-size="10.00">+ close()</text>
<text text-anchor="start" x="8" y="-40.5" font-family="Helvetica,sans-Serif" font-size="10.00">+ mqttEventHandler()</text>
<text text-anchor="start" x="8" y="-29.5" font-family="Helvetica,sans-Serif" font-size="10.00">&#45; parseData()</text>
<text text-anchor="start" x="8" y="-18.5" font-family="Helvetica,sans-Serif" font-size="10.00">&#45; initIotHubClient()</text>
<text text-anchor="start" x="8" y="-7.5" font-family="Helvetica,sans-Serif" font-size="10.00">&#45; initMqttClient()</text>
</a>
</g>
</g>
<!-- Node2 -->
<g id="node2" class="node">
<title>Node2</title>
<g id="a_node2"><a xlink:href="class_transmission_base.html" target="_top" xlink:title="Base class for sending data to one of the endpoints.">
<polygon fill="white" stroke="black" points="5,-172.5 5,-273.5 123,-273.5 123,-172.5 5,-172.5"/>
<text text-anchor="middle" x="64" y="-261.5" font-family="Helvetica,sans-Serif" font-size="10.00">TransmissionBase</text>
<polyline fill="none" stroke="black" points="5,-254.5 123,-254.5 "/>
<text text-anchor="start" x="13" y="-242.5" font-family="Helvetica,sans-Serif" font-size="10.00"># _parsedData</text>
<polyline fill="none" stroke="black" points="5,-235.5 123,-235.5 "/>
<text text-anchor="start" x="13" y="-223.5" font-family="Helvetica,sans-Serif" font-size="10.00">+ TransmissionBase()</text>
<text text-anchor="start" x="13" y="-212.5" font-family="Helvetica,sans-Serif" font-size="10.00">+ ~TransmissionBase()</text>
<text text-anchor="start" x="13" y="-201.5" font-family="Helvetica,sans-Serif" font-size="10.00">+ transmitData()</text>
<text text-anchor="start" x="13" y="-190.5" font-family="Helvetica,sans-Serif" font-size="10.00">+ close()</text>
<text text-anchor="start" x="13" y="-179.5" font-family="Helvetica,sans-Serif" font-size="10.00">&#45; parseData()</text>
</a>
</g>
</g>
<!-- Node2&#45;&gt;Node1 -->
<g id="edge1" class="edge">
<title>Node2&#45;&gt;Node1</title>
<path fill="none" stroke="midnightblue" d="M64,-162.13C64,-153.09 64,-143.73 64,-134.57"/>
<polygon fill="none" stroke="midnightblue" points="60.5,-162.16 64,-172.16 67.5,-162.16 60.5,-162.16"/>
</g>
<!-- Node3 -->
<g id="node3" class="node">
<title>Node3</title>
<g id="a_node3"><a xlink:href="struct_data_object.html" target="_top" xlink:title="Data object.">
<polygon fill="white" stroke="black" points="28.5,-321.5 28.5,-389.5 99.5,-389.5 99.5,-321.5 28.5,-321.5"/>
<text text-anchor="middle" x="64" y="-377.5" font-family="Helvetica,sans-Serif" font-size="10.00">DataObject</text>
<polyline fill="none" stroke="black" points="28.5,-370.5 99.5,-370.5 "/>
<text text-anchor="start" x="36.5" y="-358.5" font-family="Helvetica,sans-Serif" font-size="10.00">+ timestamp</text>
<text text-anchor="start" x="36.5" y="-347.5" font-family="Helvetica,sans-Serif" font-size="10.00">+ items</text>
<polyline fill="none" stroke="black" points="28.5,-340.5 99.5,-340.5 "/>
<text text-anchor="middle" x="64" y="-328.5" font-family="Helvetica,sans-Serif" font-size="10.00"> </text>
</a>
</g>
</g>
<!-- Node3&#45;&gt;Node2 -->
<g id="edge2" class="edge">
<title>Node3&#45;&gt;Node2</title>
<path fill="none" stroke="#404040" d="M64,-321.23C64,-310.47 64,-298.17 64,-286.02"/>
<polygon fill="none" stroke="#404040" points="64,-285.98 60,-279.98 64,-273.98 68,-279.98 64,-285.98"/>
<text text-anchor="middle" x="94.5" y="-295" font-family="Helvetica,sans-Serif" font-size="10.00"> #_dataObject</text>
</g>
</g>
</svg>
