<?xml version="1.0" encoding="UTF-8" standalone="no"?>
<!DOCTYPE svg PUBLIC "-//W3C//DTD SVG 1.1//EN"
 "http://www.w3.org/Graphics/SVG/1.1/DTD/svg11.dtd">
<!-- Generated by graphviz version 4.0.0 (20220529.0937)
 -->
<!-- Title: MeasurementController::connect Pages: 1 -->
<svg width="662pt" height="39pt"
 viewBox="0.00 0.00 662.00 39.00" xmlns="http://www.w3.org/2000/svg" xmlns:xlink="http://www.w3.org/1999/xlink">
<g id="graph0" class="graph" transform="scale(1 1) rotate(0) translate(4 35)">
<title>MeasurementController::connect</title>
<polygon fill="white" stroke="transparent" points="-4,4 -4,-35 658,-35 658,4 -4,4"/>
<!-- Node1 -->
<g id="node1" class="node">
<title>Node1</title>
<g id="a_node1"><a xlink:title="Setup Data publisher connection.">
<polygon fill="#bfbfbf" stroke="black" points="0,-0.5 0,-30.5 117,-30.5 117,-0.5 0,-0.5"/>
<text text-anchor="start" x="8" y="-18.5" font-family="Helvetica,sans-Serif" font-size="10.00">MeasurementController</text>
<text text-anchor="middle" x="58.5" y="-7.5" font-family="Helvetica,sans-Serif" font-size="10.00">::connect</text>
</a>
</g>
</g>
<!-- Node2 -->
<g id="node2" class="node">
<title>Node2</title>
<g id="a_node2"><a xlink:href="class_data_publisher.html#a4740f93775ead74b0bd4341dadac8b73" target="_top" xlink:title="Connect to the wireless network.">
<polygon fill="white" stroke="black" points="153,-6 153,-25 308,-25 308,-6 153,-6"/>
<text text-anchor="middle" x="230.5" y="-13" font-family="Helvetica,sans-Serif" font-size="10.00">DataPublisher::wirelessConnect</text>
</a>
</g>
</g>
<!-- Node1&#45;&gt;Node2 -->
<g id="edge1" class="edge">
<title>Node1&#45;&gt;Node2</title>
<path fill="none" stroke="midnightblue" d="M117.05,-15.5C125.29,-15.5 133.92,-15.5 142.57,-15.5"/>
<polygon fill="midnightblue" stroke="midnightblue" points="142.71,-19 152.71,-15.5 142.71,-12 142.71,-19"/>
</g>
<!-- Node3 -->
<g id="node3" class="node">
<title>Node3</title>
<g id="a_node3"><a xlink:href="class_data_publisher.html#a27a0a8162505d891b324e4d5bfa057dc" target="_top" xlink:title="Wireless event callback method.">
<polygon fill="white" stroke="black" points="344,-6 344,-25 487,-25 487,-6 344,-6"/>
<text text-anchor="middle" x="415.5" y="-13" font-family="Helvetica,sans-Serif" font-size="10.00">DataPublisher::wirelessEvent</text>
</a>
</g>
</g>
<!-- Node2&#45;&gt;Node3 -->
<g id="edge2" class="edge">
<title>Node2&#45;&gt;Node3</title>
<path fill="none" stroke="midnightblue" d="M308.05,-15.5C316.47,-15.5 325.07,-15.5 333.55,-15.5"/>
<polygon fill="midnightblue" stroke="midnightblue" points="333.81,-19 343.81,-15.5 333.81,-12 333.81,-19"/>
</g>
<!-- Node4 -->
<g id="node4" class="node">
<title>Node4</title>
<g id="a_node4"><a xlink:href="class_data_publisher.html#a10b8b56b6889df477dfe9b1ee549988d" target="_top" xlink:title="Singleton class instance.">
<polygon fill="white" stroke="black" points="523,-6 523,-25 654,-25 654,-6 523,-6"/>
<text text-anchor="middle" x="588.5" y="-13" font-family="Helvetica,sans-Serif" font-size="10.00">DataPublisher::INSTANCE</text>
</a>
</g>
</g>
<!-- Node3&#45;&gt;Node4 -->
<g id="edge3" class="edge">
<title>Node3&#45;&gt;Node4</title>
<path fill="none" stroke="midnightblue" d="M487.04,-15.5C495.48,-15.5 504.11,-15.5 512.61,-15.5"/>
<polygon fill="midnightblue" stroke="midnightblue" points="512.88,-19 522.88,-15.5 512.88,-12 512.88,-19"/>
</g>
</g>
</svg>
