<?xml version="1.0" encoding="UTF-8" standalone="no"?>
<!DOCTYPE svg PUBLIC "-//W3C//DTD SVG 1.1//EN"
 "http://www.w3.org/Graphics/SVG/1.1/DTD/svg11.dtd">
<!-- Generated by graphviz version 4.0.0 (20220529.0937)
 -->
<!-- Title: UDPTransmission::parseTime Pages: 1 -->
<svg width="527pt" height="28pt"
 viewBox="0.00 0.00 527.00 28.00" xmlns="http://www.w3.org/2000/svg" xmlns:xlink="http://www.w3.org/1999/xlink">
<g id="graph0" class="graph" transform="scale(1 1) rotate(0) translate(4 24)">
<title>UDPTransmission::parseTime</title>
<polygon fill="white" stroke="transparent" points="-4,4 -4,-24 523,-24 523,4 -4,4"/>
<!-- Node1 -->
<g id="node1" class="node">
<title>Node1</title>
<g id="a_node1"><a xlink:title="Parse time to required ISO8601 format.">
<polygon fill="#bfbfbf" stroke="black" points="373,-0.5 373,-19.5 519,-19.5 519,-0.5 373,-0.5"/>
<text text-anchor="middle" x="446" y="-7.5" font-family="Helvetica,sans-Serif" font-size="10.00">UDPTransmission::parseTime</text>
</a>
</g>
</g>
<!-- Node2 -->
<g id="node2" class="node">
<title>Node2</title>
<g id="a_node2"><a xlink:href="class_u_d_p_transmission.html#ae083ab78aed1a3b8ee14c5b71e519bba" target="_top" xlink:title="Prase raw data into Json.">
<polygon fill="white" stroke="black" points="192,-0.5 192,-19.5 337,-19.5 337,-0.5 192,-0.5"/>
<text text-anchor="middle" x="264.5" y="-7.5" font-family="Helvetica,sans-Serif" font-size="10.00">UDPTransmission::parseData</text>
</a>
</g>
</g>
<!-- Node1&#45;&gt;Node2 -->
<g id="edge1" class="edge">
<title>Node1&#45;&gt;Node2</title>
<path fill="none" stroke="midnightblue" d="M362.74,-10C354.15,-10 345.46,-10 337,-10"/>
<polygon fill="midnightblue" stroke="midnightblue" points="362.77,-13.5 372.77,-10 362.77,-6.5 362.77,-13.5"/>
</g>
<!-- Node3 -->
<g id="node3" class="node">
<title>Node3</title>
<g id="a_node3"><a xlink:href="class_u_d_p_transmission.html#a941c929a03f4210cac6258bae047cb65" target="_top" xlink:title="Transmit data using HTTP Post method to UDP.">
<polygon fill="white" stroke="black" points="0,-0.5 0,-19.5 156,-19.5 156,-0.5 0,-0.5"/>
<text text-anchor="middle" x="78" y="-7.5" font-family="Helvetica,sans-Serif" font-size="10.00">UDPTransmission::transmitData</text>
</a>
</g>
</g>
<!-- Node2&#45;&gt;Node3 -->
<g id="edge2" class="edge">
<title>Node2&#45;&gt;Node3</title>
<path fill="none" stroke="midnightblue" d="M181.9,-10C173.31,-10 164.59,-10 156.06,-10"/>
<polygon fill="midnightblue" stroke="midnightblue" points="181.9,-13.5 191.9,-10 181.9,-6.5 181.9,-13.5"/>
</g>
</g>
</svg>
