<?xml version="1.0" encoding="UTF-8" standalone="no"?>
<!DOCTYPE svg PUBLIC "-//W3C//DTD SVG 1.1//EN"
 "http://www.w3.org/Graphics/SVG/1.1/DTD/svg11.dtd">
<!-- Generated by graphviz version 4.0.0 (20220529.0937)
 -->
<!-- Title: MeasurementController::addSensor Pages: 1 -->
<svg width="278pt" height="78pt"
 viewBox="0.00 0.00 278.00 77.50" xmlns="http://www.w3.org/2000/svg" xmlns:xlink="http://www.w3.org/1999/xlink">
<g id="graph0" class="graph" transform="scale(1 1) rotate(0) translate(4 73.5)">
<title>MeasurementController::addSensor</title>
<polygon fill="white" stroke="transparent" points="-4,4 -4,-73.5 274,-73.5 274,4 -4,4"/>
<!-- Node1 -->
<g id="node1" class="node">
<title>Node1</title>
<g id="a_node1"><a xlink:title="Add one sensor to the controller.">
<polygon fill="#bfbfbf" stroke="black" points="153,-17 153,-47 270,-47 270,-17 153,-17"/>
<text text-anchor="start" x="161" y="-35" font-family="Helvetica,sans-Serif" font-size="10.00">MeasurementController</text>
<text text-anchor="middle" x="211.5" y="-24" font-family="Helvetica,sans-Serif" font-size="10.00">::addSensor</text>
</a>
</g>
</g>
<!-- Node2 -->
<g id="node2" class="node">
<title>Node2</title>
<g id="a_node2"><a xlink:href="class_measurement_controller.html#a02a918b97cff1174c87af1962d7dac7e" target="_top" xlink:title="Add multiple sensors to the controller.">
<polygon fill="white" stroke="black" points="0,-39 0,-69 117,-69 117,-39 0,-39"/>
<text text-anchor="start" x="8" y="-57" font-family="Helvetica,sans-Serif" font-size="10.00">MeasurementController</text>
<text text-anchor="middle" x="58.5" y="-46" font-family="Helvetica,sans-Serif" font-size="10.00">::addSensors</text>
</a>
</g>
</g>
<!-- Node1&#45;&gt;Node2 -->
<g id="edge1" class="edge">
<title>Node1&#45;&gt;Node2</title>
<path fill="none" stroke="midnightblue" d="M142.95,-41.84C134.32,-43.1 125.56,-44.38 117.11,-45.61"/>
<polygon fill="midnightblue" stroke="midnightblue" points="143.59,-45.29 152.98,-40.38 142.58,-38.36 143.59,-45.29"/>
</g>
<!-- Node3 -->
<g id="node3" class="node">
<title>Node3</title>
<g id="a_node3"><a xlink:href="main_8cpp.html#a4fc01d736fe50cf5b977f755b675f11d" target="_top" xlink:title="Single run function on startup.">
<polygon fill="white" stroke="black" points="38,-0.5 38,-19.5 79,-19.5 79,-0.5 38,-0.5"/>
<text text-anchor="middle" x="58.5" y="-7.5" font-family="Helvetica,sans-Serif" font-size="10.00">setup</text>
</a>
</g>
</g>
<!-- Node1&#45;&gt;Node3 -->
<g id="edge2" class="edge">
<title>Node1&#45;&gt;Node3</title>
<path fill="none" stroke="midnightblue" d="M142.8,-22.14C119.67,-18.77 95.54,-15.25 79.25,-12.88"/>
<polygon fill="midnightblue" stroke="midnightblue" points="142.58,-25.64 152.98,-23.62 143.59,-18.71 142.58,-25.64"/>
</g>
</g>
</svg>
