<?xml version="1.0" encoding="UTF-8" standalone="no"?>
<!DOCTYPE svg PUBLIC "-//W3C//DTD SVG 1.1//EN"
 "http://www.w3.org/Graphics/SVG/1.1/DTD/svg11.dtd">
<!-- Generated by graphviz version 4.0.0 (20220529.0937)
 -->
<!-- Title: OneWireTemperatureBus::runMeasurements Pages: 1 -->
<svg width="519pt" height="88pt"
 viewBox="0.00 0.00 519.00 88.00" xmlns="http://www.w3.org/2000/svg" xmlns:xlink="http://www.w3.org/1999/xlink">
<g id="graph0" class="graph" transform="scale(1 1) rotate(0) translate(4 84)">
<title>OneWireTemperatureBus::runMeasurements</title>
<polygon fill="white" stroke="transparent" points="-4,4 -4,-84 515,-84 515,4 -4,4"/>
<!-- Node1 -->
<g id="node1" class="node">
<title>Node1</title>
<g id="a_node1"><a xlink:title="Run and buffer measurements for all connected sensors.">
<polygon fill="#bfbfbf" stroke="black" points="385,-24.5 385,-54.5 511,-54.5 511,-24.5 385,-24.5"/>
<text text-anchor="start" x="393" y="-42.5" font-family="Helvetica,sans-Serif" font-size="10.00">OneWireTemperatureBus</text>
<text text-anchor="middle" x="448" y="-31.5" font-family="Helvetica,sans-Serif" font-size="10.00">::runMeasurements</text>
</a>
</g>
</g>
<!-- Node2 -->
<g id="node2" class="node">
<title>Node2</title>
<g id="a_node2"><a xlink:href="class_one_wire_temperature_bus.html#af4620630cb93205d32b71725ff6602c4" target="_top" xlink:title="Get the Temperature for the sensor with Address.">
<polygon fill="white" stroke="black" points="209,-49.5 209,-79.5 349,-79.5 349,-49.5 209,-49.5"/>
<text text-anchor="start" x="217" y="-67.5" font-family="Helvetica,sans-Serif" font-size="10.00">OneWireTemperatureBus</text>
<text text-anchor="middle" x="279" y="-56.5" font-family="Helvetica,sans-Serif" font-size="10.00">::getTemperatureForAddress</text>
</a>
</g>
</g>
<!-- Node1&#45;&gt;Node2 -->
<g id="edge1" class="edge">
<title>Node1&#45;&gt;Node2</title>
<path fill="none" stroke="midnightblue" d="M374.92,-50.29C366.4,-51.57 357.73,-52.86 349.26,-54.13"/>
<polygon fill="midnightblue" stroke="midnightblue" points="375.44,-53.75 384.82,-48.81 374.41,-46.83 375.44,-53.75"/>
</g>
<!-- Node4 -->
<g id="node4" class="node">
<title>Node4</title>
<g id="a_node4"><a xlink:href="class_one_wire_temperature_bus.html#aeefa7d0dcbd14a3907b5f4a0396687fb" target="_top" xlink:title="Get the Temperature For Index object.">
<polygon fill="white" stroke="black" points="215,-0.5 215,-30.5 343,-30.5 343,-0.5 215,-0.5"/>
<text text-anchor="start" x="223" y="-18.5" font-family="Helvetica,sans-Serif" font-size="10.00">OneWireTemperatureBus</text>
<text text-anchor="middle" x="279" y="-7.5" font-family="Helvetica,sans-Serif" font-size="10.00">::getTemperatureForIndex</text>
</a>
</g>
</g>
<!-- Node1&#45;&gt;Node4 -->
<g id="edge3" class="edge">
<title>Node1&#45;&gt;Node4</title>
<path fill="none" stroke="midnightblue" d="M374.79,-29.12C364.23,-27.61 353.43,-26.05 343.07,-24.56"/>
<polygon fill="midnightblue" stroke="midnightblue" points="374.42,-32.61 384.82,-30.56 375.41,-25.68 374.42,-32.61"/>
</g>
<!-- Node3 -->
<g id="node3" class="node">
<title>Node3</title>
<g id="a_node3"><a xlink:href="class_d_s18_b20_sensor.html#acd9a94f7c2aefa944884e4b12c5075df" target="_top" xlink:title="Run sensor measurement steps.">
<polygon fill="white" stroke="black" points="0,-30 0,-49 173,-49 173,-30 0,-30"/>
<text text-anchor="middle" x="86.5" y="-37" font-family="Helvetica,sans-Serif" font-size="10.00">DS18B20Sensor::startMeasurement</text>
</a>
</g>
</g>
<!-- Node2&#45;&gt;Node3 -->
<g id="edge2" class="edge">
<title>Node2&#45;&gt;Node3</title>
<path fill="none" stroke="midnightblue" d="M198.79,-54.11C185.99,-52.43 172.8,-50.69 160.16,-49.04"/>
<polygon fill="midnightblue" stroke="midnightblue" points="198.59,-57.61 208.96,-55.44 199.5,-50.67 198.59,-57.61"/>
</g>
<!-- Node4&#45;&gt;Node3 -->
<g id="edge4" class="edge">
<title>Node4&#45;&gt;Node3</title>
<path fill="none" stroke="midnightblue" d="M204.57,-24.75C190.97,-26.46 176.74,-28.26 163.07,-29.98"/>
<polygon fill="midnightblue" stroke="midnightblue" points="205.35,-28.18 214.83,-23.46 204.47,-21.24 205.35,-28.18"/>
</g>
</g>
</svg>
