<?xml version="1.0" encoding="UTF-8" standalone="no"?>
<!DOCTYPE svg PUBLIC "-//W3C//DTD SVG 1.1//EN"
 "http://www.w3.org/Graphics/SVG/1.1/DTD/svg11.dtd">
<!-- Generated by graphviz version 4.0.0 (20220529.0937)
 -->
<!-- Title: DS18B20Sensor Pages: 1 -->
<svg width="140pt" height="248pt"
 viewBox="0.00 0.00 140.00 248.00" xmlns="http://www.w3.org/2000/svg" xmlns:xlink="http://www.w3.org/1999/xlink">
<g id="graph0" class="graph" transform="scale(1 1) rotate(0) translate(4 244)">
<title>DS18B20Sensor</title>
<polygon fill="white" stroke="transparent" points="-4,4 -4,-244 136,-244 136,4 -4,4"/>
<!-- Node1 -->
<g id="node1" class="node">
<title>Node1</title>
<g id="a_node1"><a xlink:title="One wire temperature sensor implementation.">
<polygon fill="#bfbfbf" stroke="black" points="0,-0.5 0,-112.5 132,-112.5 132,-0.5 0,-0.5"/>
<text text-anchor="middle" x="66" y="-100.5" font-family="Helvetica,sans-Serif" font-size="10.00">DS18B20Sensor</text>
<polyline fill="none" stroke="black" points="0,-93.5 132,-93.5 "/>
<text text-anchor="start" x="8" y="-81.5" font-family="Helvetica,sans-Serif" font-size="10.00">&#45; _sharedBus</text>
<text text-anchor="start" x="8" y="-70.5" font-family="Helvetica,sans-Serif" font-size="10.00">&#45; _busAddress</text>
<polyline fill="none" stroke="black" points="0,-63.5 132,-63.5 "/>
<text text-anchor="start" x="8" y="-51.5" font-family="Helvetica,sans-Serif" font-size="10.00">+ DS18B20Sensor()</text>
<text text-anchor="start" x="8" y="-40.5" font-family="Helvetica,sans-Serif" font-size="10.00">+ DS18B20Sensor()</text>
<text text-anchor="start" x="8" y="-29.5" font-family="Helvetica,sans-Serif" font-size="10.00">+ ~DS18B20Sensor()</text>
<text text-anchor="start" x="8" y="-18.5" font-family="Helvetica,sans-Serif" font-size="10.00">+ startMeasurement()</text>
<text text-anchor="start" x="8" y="-7.5" font-family="Helvetica,sans-Serif" font-size="10.00">+ getMeasurementResult()</text>
</a>
</g>
</g>
<!-- Node2 -->
<g id="node2" class="node">
<title>Node2</title>
<g id="a_node2"><a xlink:href="class_sensor_base.html" target="_top" xlink:title="Sensor base class.">
<polygon fill="white" stroke="black" points="0,-149.5 0,-239.5 132,-239.5 132,-149.5 0,-149.5"/>
<text text-anchor="middle" x="66" y="-227.5" font-family="Helvetica,sans-Serif" font-size="10.00">SensorBase</text>
<polyline fill="none" stroke="black" points="0,-220.5 132,-220.5 "/>
<text text-anchor="start" x="8" y="-208.5" font-family="Helvetica,sans-Serif" font-size="10.00"># _sensorValue</text>
<polyline fill="none" stroke="black" points="0,-201.5 132,-201.5 "/>
<text text-anchor="start" x="8" y="-189.5" font-family="Helvetica,sans-Serif" font-size="10.00">+ SensorBase()</text>
<text text-anchor="start" x="8" y="-178.5" font-family="Helvetica,sans-Serif" font-size="10.00">+ ~SensorBase()</text>
<text text-anchor="start" x="8" y="-167.5" font-family="Helvetica,sans-Serif" font-size="10.00">+ startMeasurement()</text>
<text text-anchor="start" x="8" y="-156.5" font-family="Helvetica,sans-Serif" font-size="10.00">+ getMeasurementResult()</text>
</a>
</g>
</g>
<!-- Node2&#45;&gt;Node1 -->
<g id="edge1" class="edge">
<title>Node2&#45;&gt;Node1</title>
<path fill="none" stroke="midnightblue" d="M66,-139.31C66,-130.61 66,-121.59 66,-112.87"/>
<polygon fill="none" stroke="midnightblue" points="62.5,-139.34 66,-149.34 69.5,-139.34 62.5,-139.34"/>
</g>
</g>
</svg>
