<?xml version="1.0" encoding="UTF-8" standalone="no"?>
<!DOCTYPE svg PUBLIC "-//W3C//DTD SVG 1.1//EN"
 "http://www.w3.org/Graphics/SVG/1.1/DTD/svg11.dtd">
<!-- Generated by graphviz version 4.0.0 (20220529.0937)
 -->
<!-- Title: MeasurementController::publishMeasurements Pages: 1 -->
<svg width="845pt" height="294pt"
 viewBox="0.00 0.00 845.00 294.00" xmlns="http://www.w3.org/2000/svg" xmlns:xlink="http://www.w3.org/1999/xlink">
<g id="graph0" class="graph" transform="scale(1 1) rotate(0) translate(4 290)">
<title>MeasurementController::publishMeasurements</title>
<polygon fill="white" stroke="transparent" points="-4,4 -4,-290 841,-290 841,4 -4,4"/>
<!-- Node1 -->
<g id="node1" class="node">
<title>Node1</title>
<g id="a_node1"><a xlink:title="Publish measurements to the DataPublisher.">
<polygon fill="#bfbfbf" stroke="black" points="0,-166 0,-196 118,-196 118,-166 0,-166"/>
<text text-anchor="start" x="8" y="-184" font-family="Helvetica,sans-Serif" font-size="10.00">MeasurementController</text>
<text text-anchor="middle" x="59" y="-173" font-family="Helvetica,sans-Serif" font-size="10.00">::publishMeasurements</text>
</a>
</g>
</g>
<!-- Node2 -->
<g id="node2" class="node">
<title>Node2</title>
<g id="a_node2"><a xlink:href="class_data_publisher.html#a1e695b3453c48f2887fc9c4fa3699066" target="_top" xlink:title="Add datafield to data object.">
<polygon fill="white" stroke="black" points="157,-190.5 157,-209.5 276,-209.5 276,-190.5 157,-190.5"/>
<text text-anchor="middle" x="216.5" y="-197.5" font-family="Helvetica,sans-Serif" font-size="10.00">DataPublisher::addData</text>
</a>
</g>
</g>
<!-- Node1&#45;&gt;Node2 -->
<g id="edge1" class="edge">
<title>Node1&#45;&gt;Node2</title>
<path fill="none" stroke="midnightblue" d="M118.34,-188.13C127.58,-189.26 137.22,-190.43 146.67,-191.59"/>
<polygon fill="midnightblue" stroke="midnightblue" points="146.48,-195.09 156.83,-192.83 147.33,-188.14 146.48,-195.09"/>
</g>
<!-- Node3 -->
<g id="node3" class="node">
<title>Node3</title>
<g id="a_node3"><a xlink:href="class_data_publisher.html#a266411f687c44a946cbac8323903a3e5" target="_top" xlink:title="Send data to network.">
<polygon fill="white" stroke="black" points="154,-152.5 154,-171.5 279,-171.5 279,-152.5 154,-152.5"/>
<text text-anchor="middle" x="216.5" y="-159.5" font-family="Helvetica,sans-Serif" font-size="10.00">DataPublisher::sendData</text>
</a>
</g>
</g>
<!-- Node1&#45;&gt;Node3 -->
<g id="edge2" class="edge">
<title>Node1&#45;&gt;Node3</title>
<path fill="none" stroke="midnightblue" d="M118.34,-173.87C126.71,-172.85 135.39,-171.79 143.97,-170.74"/>
<polygon fill="midnightblue" stroke="midnightblue" points="144.47,-174.21 153.97,-169.52 143.62,-167.26 144.47,-174.21"/>
</g>
<!-- Node4 -->
<g id="node4" class="node">
<title>Node4</title>
<g id="a_node4"><a xlink:href="class_transmission_base.html#a8bda22d8af26bdab83608d288827f15c" target="_top" xlink:title="Default close method, can be overwritten.">
<polygon fill="white" stroke="black" points="332.5,-266.5 332.5,-285.5 458.5,-285.5 458.5,-266.5 332.5,-266.5"/>
<text text-anchor="middle" x="395.5" y="-273.5" font-family="Helvetica,sans-Serif" font-size="10.00">TransmissionBase::close</text>
</a>
</g>
</g>
<!-- Node3&#45;&gt;Node4 -->
<g id="edge3" class="edge">
<title>Node3&#45;&gt;Node4</title>
<path fill="none" stroke="midnightblue" d="M263.74,-171.58C269.27,-174.03 274.52,-177.12 279,-181 307.25,-205.48 285.97,-233.45 315,-257 317.59,-259.1 320.37,-260.98 323.3,-262.65"/>
<polygon fill="midnightblue" stroke="midnightblue" points="321.89,-265.86 332.41,-267.09 324.95,-259.56 321.89,-265.86"/>
</g>
<!-- Node5 -->
<g id="node5" class="node">
<title>Node5</title>
<g id="a_node5"><a xlink:href="class_data_store.html#ad2397fa823658daa46dadd0e510f5af2" target="_top" xlink:title="Check if data has been stored locally.">
<polygon fill="white" stroke="black" points="334,-228.5 334,-247.5 457,-247.5 457,-228.5 334,-228.5"/>
<text text-anchor="middle" x="395.5" y="-235.5" font-family="Helvetica,sans-Serif" font-size="10.00">DataStore::dataAvailable</text>
</a>
</g>
</g>
<!-- Node3&#45;&gt;Node5 -->
<g id="edge4" class="edge">
<title>Node3&#45;&gt;Node5</title>
<path fill="none" stroke="midnightblue" d="M258.82,-171.54C265.83,-174.05 272.83,-177.17 279,-181 298.76,-193.28 294.85,-207.37 315,-219 318.91,-221.26 323.07,-223.24 327.37,-225"/>
<polygon fill="midnightblue" stroke="midnightblue" points="326.34,-228.35 336.93,-228.47 328.73,-221.77 326.34,-228.35"/>
</g>
<!-- Node6 -->
<g id="node6" class="node">
<title>Node6</title>
<g id="a_node6"><a xlink:href="class_data_store.html#a9f153c8de4863259737ba4b75869bf67" target="_top" xlink:title="Add data object to local storage.">
<polygon fill="white" stroke="black" points="327,-190.5 327,-209.5 464,-209.5 464,-190.5 327,-190.5"/>
<text text-anchor="middle" x="395.5" y="-197.5" font-family="Helvetica,sans-Serif" font-size="10.00">DataStore::storeDataObject</text>
</a>
</g>
</g>
<!-- Node3&#45;&gt;Node6 -->
<g id="edge5" class="edge">
<title>Node3&#45;&gt;Node6</title>
<path fill="none" stroke="midnightblue" d="M262.16,-171.59C285.84,-176.67 315.11,-182.96 340.1,-188.32"/>
<polygon fill="midnightblue" stroke="midnightblue" points="339.64,-191.8 350.16,-190.48 341.11,-184.96 339.64,-191.8"/>
</g>
<!-- Node9 -->
<g id="node9" class="node">
<title>Node9</title>
<g id="a_node9"><a xlink:href="class_transmission_base.html#a5f5167fe4e51db44b9070ca4c27e1961" target="_top" xlink:title="Transmit data using method.">
<polygon fill="white" stroke="black" points="512,-152.5 512,-171.5 670,-171.5 670,-152.5 512,-152.5"/>
<text text-anchor="middle" x="591" y="-159.5" font-family="Helvetica,sans-Serif" font-size="10.00">TransmissionBase::transmitData</text>
</a>
</g>
</g>
<!-- Node3&#45;&gt;Node9 -->
<g id="edge8" class="edge">
<title>Node3&#45;&gt;Node9</title>
<path fill="none" stroke="midnightblue" d="M279.01,-162C339.65,-162 432.93,-162 501.52,-162"/>
<polygon fill="midnightblue" stroke="midnightblue" points="501.88,-165.5 511.88,-162 501.88,-158.5 501.88,-165.5"/>
</g>
<!-- Node10 -->
<g id="node10" class="node">
<title>Node10</title>
<g id="a_node10"><a xlink:href="class_data_store.html#a07027b1feb1d9819d77a48322f9cd2a7" target="_top" xlink:title="Send retained data from local storage.">
<polygon fill="white" stroke="black" points="318,-114.5 318,-133.5 473,-133.5 473,-114.5 318,-114.5"/>
<text text-anchor="middle" x="395.5" y="-121.5" font-family="Helvetica,sans-Serif" font-size="10.00">DataStore::transmitDataStorage</text>
</a>
</g>
</g>
<!-- Node3&#45;&gt;Node10 -->
<g id="edge9" class="edge">
<title>Node3&#45;&gt;Node10</title>
<path fill="none" stroke="midnightblue" d="M262.16,-152.41C285.84,-147.33 315.11,-141.04 340.1,-135.68"/>
<polygon fill="midnightblue" stroke="midnightblue" points="341.11,-139.04 350.16,-133.52 339.64,-132.2 341.11,-139.04"/>
</g>
<!-- Node15 -->
<g id="node15" class="node">
<title>Node15</title>
<g id="a_node15"><a xlink:href="class_data_publisher.html#a36d4a0232251a0bf710d96be39f913af" target="_top" xlink:title="Update the current Timestamp for a measurement.">
<polygon fill="white" stroke="black" points="315,-76.5 315,-95.5 476,-95.5 476,-76.5 315,-76.5"/>
<text text-anchor="middle" x="395.5" y="-83.5" font-family="Helvetica,sans-Serif" font-size="10.00">DataPublisher::updateTimestamp</text>
</a>
</g>
</g>
<!-- Node3&#45;&gt;Node15 -->
<g id="edge15" class="edge">
<title>Node3&#45;&gt;Node15</title>
<path fill="none" stroke="midnightblue" d="M231.04,-152.33C249.29,-139.73 283.16,-117.79 315,-105 321.28,-102.48 327.98,-100.24 334.73,-98.26"/>
<polygon fill="midnightblue" stroke="midnightblue" points="335.89,-101.57 344.6,-95.54 334.03,-94.82 335.89,-101.57"/>
</g>
<!-- Node17 -->
<g id="node17" class="node">
<title>Node17</title>
<g id="a_node17"><a xlink:href="class_data_publisher.html#af6aeeea1fe0922eec7187094470c2ede" target="_top" xlink:title="Get connection status.">
<polygon fill="white" stroke="black" points="328.5,-27 328.5,-57 462.5,-57 462.5,-27 328.5,-27"/>
<text text-anchor="start" x="336.5" y="-45" font-family="Helvetica,sans-Serif" font-size="10.00">DataPublisher::wirelessGet</text>
<text text-anchor="middle" x="395.5" y="-34" font-family="Helvetica,sans-Serif" font-size="10.00">Connected</text>
</a>
</g>
</g>
<!-- Node3&#45;&gt;Node17 -->
<g id="edge17" class="edge">
<title>Node3&#45;&gt;Node17</title>
<path fill="none" stroke="midnightblue" d="M224.73,-152.41C239.58,-133.38 275.44,-90.64 315,-67 318.56,-64.87 322.33,-62.91 326.2,-61.09"/>
<polygon fill="midnightblue" stroke="midnightblue" points="327.59,-64.3 335.39,-57.14 324.83,-57.87 327.59,-64.3"/>
</g>
<!-- Node7 -->
<g id="node7" class="node">
<title>Node7</title>
<g id="a_node7"><a xlink:href="class_data_store.html#a1b9b92814aaedb80943d875a464ea7d9" target="_top" xlink:title="Add data to local storage file.">
<polygon fill="white" stroke="black" points="532,-228.5 532,-247.5 650,-247.5 650,-228.5 532,-228.5"/>
<text text-anchor="middle" x="591" y="-235.5" font-family="Helvetica,sans-Serif" font-size="10.00">DataStore::appendData</text>
</a>
</g>
</g>
<!-- Node6&#45;&gt;Node7 -->
<g id="edge6" class="edge">
<title>Node6&#45;&gt;Node7</title>
<path fill="none" stroke="midnightblue" d="M445.33,-209.59C471.55,-214.74 504.06,-221.12 531.62,-226.53"/>
<polygon fill="midnightblue" stroke="midnightblue" points="531.04,-229.99 541.52,-228.48 532.38,-223.12 531.04,-229.99"/>
</g>
<!-- Node8 -->
<g id="node8" class="node">
<title>Node8</title>
<g id="a_node8"><a xlink:href="class_data_store.html#aeb526ffea5feb11fb3821aa5f6400c18" target="_top" xlink:title="Format data from raw data into storage data.">
<polygon fill="white" stroke="black" points="534.5,-190.5 534.5,-209.5 647.5,-209.5 647.5,-190.5 534.5,-190.5"/>
<text text-anchor="middle" x="591" y="-197.5" font-family="Helvetica,sans-Serif" font-size="10.00">DataStore::formatData</text>
</a>
</g>
</g>
<!-- Node6&#45;&gt;Node8 -->
<g id="edge7" class="edge">
<title>Node6&#45;&gt;Node8</title>
<path fill="none" stroke="midnightblue" d="M464.18,-200C483.58,-200 504.7,-200 523.99,-200"/>
<polygon fill="midnightblue" stroke="midnightblue" points="524.2,-203.5 534.2,-200 524.2,-196.5 524.2,-203.5"/>
</g>
<!-- Node10&#45;&gt;Node9 -->
<g id="edge14" class="edge">
<title>Node10&#45;&gt;Node9</title>
<path fill="none" stroke="midnightblue" d="M445.33,-133.59C471.55,-138.74 504.06,-145.12 531.62,-150.53"/>
<polygon fill="midnightblue" stroke="midnightblue" points="531.04,-153.99 541.52,-152.48 532.38,-147.12 531.04,-153.99"/>
</g>
<!-- Node11 -->
<g id="node11" class="node">
<title>Node11</title>
<g id="a_node11"><a xlink:href="class_data_store.html#a10b2120afd567750d6117a266eb9207a" target="_top" xlink:title="Delete locally stored data.">
<polygon fill="white" stroke="black" points="518,-114.5 518,-133.5 664,-133.5 664,-114.5 518,-114.5"/>
<text text-anchor="middle" x="591" y="-121.5" font-family="Helvetica,sans-Serif" font-size="10.00">DataStore::deleteDataStorage</text>
</a>
</g>
</g>
<!-- Node10&#45;&gt;Node11 -->
<g id="edge10" class="edge">
<title>Node10&#45;&gt;Node11</title>
<path fill="none" stroke="midnightblue" d="M473.25,-124C484.48,-124 496.09,-124 507.43,-124"/>
<polygon fill="midnightblue" stroke="midnightblue" points="507.75,-127.5 517.75,-124 507.75,-120.5 507.75,-127.5"/>
</g>
<!-- Node12 -->
<g id="node12" class="node">
<title>Node12</title>
<g id="a_node12"><a xlink:href="class_data_store.html#a6724e2f03e4339881f7ee09b092a526c" target="_top" xlink:title="Load data stored in file into the local _retainedData vector.">
<polygon fill="white" stroke="black" points="522,-76.5 522,-95.5 660,-95.5 660,-76.5 522,-76.5"/>
<text text-anchor="middle" x="591" y="-83.5" font-family="Helvetica,sans-Serif" font-size="10.00">DataStore::loadDataStorage</text>
</a>
</g>
</g>
<!-- Node10&#45;&gt;Node12 -->
<g id="edge11" class="edge">
<title>Node10&#45;&gt;Node12</title>
<path fill="none" stroke="midnightblue" d="M445.33,-114.41C471.55,-109.26 504.06,-102.88 531.62,-97.47"/>
<polygon fill="midnightblue" stroke="midnightblue" points="532.38,-100.88 541.52,-95.52 531.04,-94.01 532.38,-100.88"/>
</g>
<!-- Node13 -->
<g id="node13" class="node">
<title>Node13</title>
<g id="a_node13"><a xlink:href="class_data_store.html#a4ac88a34f9a5f6ebc435bd1bf652e1c7" target="_top" xlink:title="Format data from storage data back to raw data.">
<polygon fill="white" stroke="black" points="528.5,-38.5 528.5,-57.5 653.5,-57.5 653.5,-38.5 528.5,-38.5"/>
<text text-anchor="middle" x="591" y="-45.5" font-family="Helvetica,sans-Serif" font-size="10.00">DataStore::reFormatData</text>
</a>
</g>
</g>
<!-- Node10&#45;&gt;Node13 -->
<g id="edge12" class="edge">
<title>Node10&#45;&gt;Node13</title>
<path fill="none" stroke="midnightblue" d="M454.07,-114.47C461.72,-112 469.24,-108.9 476,-105 496.15,-93.37 491.88,-78.67 512,-67 515.73,-64.84 519.7,-62.92 523.79,-61.22"/>
<polygon fill="midnightblue" stroke="midnightblue" points="525.34,-64.37 533.52,-57.63 522.92,-57.81 525.34,-64.37"/>
</g>
<!-- Node14 -->
<g id="node14" class="node">
<title>Node14</title>
<g id="a_node14"><a xlink:href="class_data_publisher.html#a10b8b56b6889df477dfe9b1ee549988d" target="_top" xlink:title="Singleton class instance.">
<polygon fill="white" stroke="black" points="706,-38.5 706,-57.5 837,-57.5 837,-38.5 706,-38.5"/>
<text text-anchor="middle" x="771.5" y="-45.5" font-family="Helvetica,sans-Serif" font-size="10.00">DataPublisher::INSTANCE</text>
</a>
</g>
</g>
<!-- Node13&#45;&gt;Node14 -->
<g id="edge13" class="edge">
<title>Node13&#45;&gt;Node14</title>
<path fill="none" stroke="midnightblue" d="M653.68,-48C667.22,-48 681.7,-48 695.7,-48"/>
<polygon fill="midnightblue" stroke="midnightblue" points="695.78,-51.5 705.78,-48 695.78,-44.5 695.78,-51.5"/>
</g>
<!-- Node16 -->
<g id="node16" class="node">
<title>Node16</title>
<g id="a_node16"><a xlink:href="class_data_publisher.html#a01a7b2d8788d7d8b7100a92c322a15a9" target="_top" xlink:title="Helper print function.">
<polygon fill="white" stroke="black" points="527.5,-0.5 527.5,-19.5 654.5,-19.5 654.5,-0.5 527.5,-0.5"/>
<text text-anchor="middle" x="591" y="-7.5" font-family="Helvetica,sans-Serif" font-size="10.00">DataPublisher::showTime</text>
</a>
</g>
</g>
<!-- Node15&#45;&gt;Node16 -->
<g id="edge16" class="edge">
<title>Node15&#45;&gt;Node16</title>
<path fill="none" stroke="midnightblue" d="M454.07,-76.47C461.72,-74 469.24,-70.9 476,-67 496.15,-55.37 491.88,-40.67 512,-29 515.73,-26.84 519.7,-24.92 523.79,-23.22"/>
<polygon fill="midnightblue" stroke="midnightblue" points="525.34,-26.37 533.52,-19.63 522.92,-19.81 525.34,-26.37"/>
</g>
</g>
</svg>
