<?xml version="1.0" encoding="UTF-8" standalone="no"?>
<!DOCTYPE svg PUBLIC "-//W3C//DTD SVG 1.1//EN"
 "http://www.w3.org/Graphics/SVG/1.1/DTD/svg11.dtd">
<!-- Generated by graphviz version 4.0.0 (20220529.0937)
 -->
<!-- Title: OneWireTemperatureBus::getTemperatureForAddress Pages: 1 -->
<svg width="310pt" height="88pt"
 viewBox="0.00 0.00 310.00 88.00" xmlns="http://www.w3.org/2000/svg" xmlns:xlink="http://www.w3.org/1999/xlink">
<g id="graph0" class="graph" transform="scale(1 1) rotate(0) translate(4 84)">
<title>OneWireTemperatureBus::getTemperatureForAddress</title>
<polygon fill="white" stroke="transparent" points="-4,4 -4,-84 306,-84 306,4 -4,4"/>
<!-- Node1 -->
<g id="node1" class="node">
<title>Node1</title>
<g id="a_node1"><a xlink:title="Get the Temperature for the sensor with Address.">
<polygon fill="#bfbfbf" stroke="black" points="0,-24.5 0,-54.5 140,-54.5 140,-24.5 0,-24.5"/>
<text text-anchor="start" x="8" y="-42.5" font-family="Helvetica,sans-Serif" font-size="10.00">OneWireTemperatureBus</text>
<text text-anchor="middle" x="70" y="-31.5" font-family="Helvetica,sans-Serif" font-size="10.00">::getTemperatureForAddress</text>
</a>
</g>
</g>
<!-- Node2 -->
<g id="node2" class="node">
<title>Node2</title>
<g id="a_node2"><a xlink:href="class_one_wire_temperature_bus.html#a32d7aba5fc362df498212ea6f4c55f5c" target="_top" xlink:title="Address translation helper function.">
<polygon fill="white" stroke="black" points="176,-49.5 176,-79.5 302,-79.5 302,-49.5 176,-49.5"/>
<text text-anchor="start" x="184" y="-67.5" font-family="Helvetica,sans-Serif" font-size="10.00">OneWireTemperatureBus</text>
<text text-anchor="middle" x="239" y="-56.5" font-family="Helvetica,sans-Serif" font-size="10.00">::addressUint64ToArray</text>
</a>
</g>
</g>
<!-- Node1&#45;&gt;Node2 -->
<g id="edge1" class="edge">
<title>Node1&#45;&gt;Node2</title>
<path fill="none" stroke="midnightblue" d="M140.37,-49.89C148.72,-51.13 157.26,-52.41 165.65,-53.67"/>
<polygon fill="midnightblue" stroke="midnightblue" points="165.37,-57.17 175.78,-55.19 166.41,-50.24 165.37,-57.17"/>
</g>
<!-- Node3 -->
<g id="node3" class="node">
<title>Node3</title>
<g id="a_node3"><a xlink:href="class_one_wire_temperature_bus.html#a506ed0e8a2de83c44588eabae9aae89c" target="_top" xlink:title="Run and buffer measurements for all connected sensors.">
<polygon fill="white" stroke="black" points="176,-0.5 176,-30.5 302,-30.5 302,-0.5 176,-0.5"/>
<text text-anchor="start" x="184" y="-18.5" font-family="Helvetica,sans-Serif" font-size="10.00">OneWireTemperatureBus</text>
<text text-anchor="middle" x="239" y="-7.5" font-family="Helvetica,sans-Serif" font-size="10.00">::runMeasurements</text>
</a>
</g>
</g>
<!-- Node1&#45;&gt;Node3 -->
<g id="edge2" class="edge">
<title>Node1&#45;&gt;Node3</title>
<path fill="none" stroke="midnightblue" d="M140.37,-29.53C148.72,-28.33 157.26,-27.1 165.65,-25.9"/>
<polygon fill="midnightblue" stroke="midnightblue" points="166.38,-29.33 175.78,-24.44 165.38,-22.4 166.38,-29.33"/>
</g>
</g>
</svg>
