<?xml version="1.0" encoding="UTF-8" standalone="no"?>
<!DOCTYPE svg PUBLIC "-//W3C//DTD SVG 1.1//EN"
 "http://www.w3.org/Graphics/SVG/1.1/DTD/svg11.dtd">
<!-- Generated by graphviz version 4.0.0 (20220529.0937)
 -->
<!-- Title: DataPublisher::wirelessConnect Pages: 1 -->
<svg width="509pt" height="28pt"
 viewBox="0.00 0.00 509.00 28.00" xmlns="http://www.w3.org/2000/svg" xmlns:xlink="http://www.w3.org/1999/xlink">
<g id="graph0" class="graph" transform="scale(1 1) rotate(0) translate(4 24)">
<title>DataPublisher::wirelessConnect</title>
<polygon fill="white" stroke="transparent" points="-4,4 -4,-24 505,-24 505,4 -4,4"/>
<!-- Node1 -->
<g id="node1" class="node">
<title>Node1</title>
<g id="a_node1"><a xlink:title="Connect to the wireless network.">
<polygon fill="#bfbfbf" stroke="black" points="0,-0.5 0,-19.5 155,-19.5 155,-0.5 0,-0.5"/>
<text text-anchor="middle" x="77.5" y="-7.5" font-family="Helvetica,sans-Serif" font-size="10.00">DataPublisher::wirelessConnect</text>
</a>
</g>
</g>
<!-- Node2 -->
<g id="node2" class="node">
<title>Node2</title>
<g id="a_node2"><a xlink:href="class_data_publisher.html#a27a0a8162505d891b324e4d5bfa057dc" target="_top" xlink:title="Wireless event callback method.">
<polygon fill="white" stroke="black" points="191,-0.5 191,-19.5 334,-19.5 334,-0.5 191,-0.5"/>
<text text-anchor="middle" x="262.5" y="-7.5" font-family="Helvetica,sans-Serif" font-size="10.00">DataPublisher::wirelessEvent</text>
</a>
</g>
</g>
<!-- Node1&#45;&gt;Node2 -->
<g id="edge1" class="edge">
<title>Node1&#45;&gt;Node2</title>
<path fill="none" stroke="midnightblue" d="M155.05,-10C163.47,-10 172.07,-10 180.55,-10"/>
<polygon fill="midnightblue" stroke="midnightblue" points="180.81,-13.5 190.81,-10 180.81,-6.5 180.81,-13.5"/>
</g>
<!-- Node3 -->
<g id="node3" class="node">
<title>Node3</title>
<g id="a_node3"><a xlink:href="class_data_publisher.html#a10b8b56b6889df477dfe9b1ee549988d" target="_top" xlink:title="Singleton class instance.">
<polygon fill="white" stroke="black" points="370,-0.5 370,-19.5 501,-19.5 501,-0.5 370,-0.5"/>
<text text-anchor="middle" x="435.5" y="-7.5" font-family="Helvetica,sans-Serif" font-size="10.00">DataPublisher::INSTANCE</text>
</a>
</g>
</g>
<!-- Node2&#45;&gt;Node3 -->
<g id="edge2" class="edge">
<title>Node2&#45;&gt;Node3</title>
<path fill="none" stroke="midnightblue" d="M334.04,-10C342.48,-10 351.11,-10 359.61,-10"/>
<polygon fill="midnightblue" stroke="midnightblue" points="359.88,-13.5 369.88,-10 359.88,-6.5 359.88,-13.5"/>
</g>
</g>
</svg>
