<?xml version="1.0" encoding="UTF-8" standalone="no"?>
<!DOCTYPE svg PUBLIC "-//W3C//DTD SVG 1.1//EN"
 "http://www.w3.org/Graphics/SVG/1.1/DTD/svg11.dtd">
<!-- Generated by graphviz version 4.0.0 (20220529.0937)
 -->
<!-- Title: DataPublisher::sendData Pages: 1 -->
<!--zoomable 294 -->
<svg id="main" version="1.1" xmlns="http://www.w3.org/2000/svg" xmlns:xlink="http://www.w3.org/1999/xlink" xml:space="preserve" onload="init(evt)">
<style type="text/css"><![CDATA[
.edge:hover path { stroke: red; }
.edge:hover polygon { stroke: red; fill: red; }
]]></style>
<script type="text/javascript"><![CDATA[
var edges = document.getElementsByTagName('g');
if (edges && edges.length) {
  for (var i=0;i<edges.length;i++) {
    if (edges[i].id.substr(0,4)=='edge') {
      edges[i].setAttribute('class','edge');
    }
  }
}
]]></script>
        <defs>
                <circle id="rim" cx="0" cy="0" r="7"/>
                <circle id="rim2" cx="0" cy="0" r="3.5"/>
                <g id="zoomPlus">
                        <use xlink:href="#rim" fill="#404040">
                                <set attributeName="fill" to="#808080" begin="zoomplus.mouseover" end="zoomplus.mouseout"/>
                        </use>
                        <path d="M-4,0h8M0,-4v8" fill="none" stroke="white" stroke-width="1.5" pointer-events="none"/>
                </g>
                <g id="zoomMin">
                        <use xlink:href="#rim" fill="#404040">
                                <set attributeName="fill" to="#808080" begin="zoomminus.mouseover" end="zoomminus.mouseout"/>
                        </use>
                        <path d="M-4,0h8" fill="none" stroke="white" stroke-width="1.5" pointer-events="none"/>
                </g>
                <g id="dirArrow">
                        <path fill="none" stroke="white" stroke-width="1.5" d="M0,-3.0v7 M-2.5,-0.5L0,-3.0L2.5,-0.5"/>
                </g>
               <g id="resetDef">
                       <use xlink:href="#rim2" fill="#404040">
                               <set attributeName="fill" to="#808080" begin="reset.mouseover" end="reset.mouseout"/>
                       </use>
               </g>
        </defs>

<script type="text/javascript">
var viewWidth = 691;
var viewHeight = 294;
var sectionId = 'dynsection-4';
</script>
<script xlink:href="svgpan.js"/>
<svg id="graph" class="graph">
<g id="viewport">
<title>DataPublisher::sendData</title>
<polygon fill="white" stroke="transparent" points="-4,4 -4,-290 687,-290 687,4 -4,4"/>
<!-- Node1 -->
<g id="node1" class="node">
<title>Node1</title>
<g id="a_node1"><a xlink:title="Send data to network.">
<polygon fill="#bfbfbf" stroke="black" points="0,-152.5 0,-171.5 125,-171.5 125,-152.5 0,-152.5"/>
<text text-anchor="middle" x="62.5" y="-159.5" font-family="Helvetica,sans-Serif" font-size="10.00">DataPublisher::sendData</text>
</a>
</g>
</g>
<!-- Node2 -->
<g id="node2" class="node">
<title>Node2</title>
<g id="a_node2"><a xlink:href="class_transmission_base.html#a8bda22d8af26bdab83608d288827f15c" target="_top" xlink:title="Default close method, can be overwritten.">
<polygon fill="white" stroke="black" points="178.5,-266.5 178.5,-285.5 304.5,-285.5 304.5,-266.5 178.5,-266.5"/>
<text text-anchor="middle" x="241.5" y="-273.5" font-family="Helvetica,sans-Serif" font-size="10.00">TransmissionBase::close</text>
</a>
</g>
</g>
<!-- Node1&#45;&gt;Node2 -->
<g id="edge1" class="edge">
<title>Node1&#45;&gt;Node2</title>
<path fill="none" stroke="midnightblue" d="M70.37,-171.53C84.83,-190.84 120.43,-234.65 161,-257 165.21,-259.32 169.69,-261.35 174.3,-263.14"/>
<polygon fill="midnightblue" stroke="midnightblue" points="173.32,-266.51 183.91,-266.48 175.61,-259.89 173.32,-266.51"/>
</g>
<!-- Node3 -->
<g id="node3" class="node">
<title>Node3</title>
<g id="a_node3"><a xlink:href="class_data_store.html#ad2397fa823658daa46dadd0e510f5af2" target="_top" xlink:title="Check if data has been stored locally.">
<polygon fill="white" stroke="black" points="180,-228.5 180,-247.5 303,-247.5 303,-228.5 180,-228.5"/>
<text text-anchor="middle" x="241.5" y="-235.5" font-family="Helvetica,sans-Serif" font-size="10.00">DataStore::dataAvailable</text>
</a>
</g>
</g>
<!-- Node1&#45;&gt;Node3 -->
<g id="edge2" class="edge">
<title>Node1&#45;&gt;Node3</title>
<path fill="none" stroke="midnightblue" d="M77.04,-171.67C95.29,-184.27 129.16,-206.21 161,-219 167.28,-221.52 173.98,-223.76 180.73,-225.74"/>
<polygon fill="midnightblue" stroke="midnightblue" points="180.03,-229.18 190.6,-228.46 181.89,-222.43 180.03,-229.18"/>
</g>
<!-- Node4 -->
<g id="node4" class="node">
<title>Node4</title>
<g id="a_node4"><a xlink:href="class_data_store.html#a9f153c8de4863259737ba4b75869bf67" target="_top" xlink:title="Add data object to local storage.">
<polygon fill="white" stroke="black" points="173,-190.5 173,-209.5 310,-209.5 310,-190.5 173,-190.5"/>
<text text-anchor="middle" x="241.5" y="-197.5" font-family="Helvetica,sans-Serif" font-size="10.00">DataStore::storeDataObject</text>
</a>
</g>
</g>
<!-- Node1&#45;&gt;Node4 -->
<g id="edge3" class="edge">
<title>Node1&#45;&gt;Node4</title>
<path fill="none" stroke="midnightblue" d="M108.16,-171.59C131.84,-176.67 161.11,-182.96 186.1,-188.32"/>
<polygon fill="midnightblue" stroke="midnightblue" points="185.64,-191.8 196.16,-190.48 187.11,-184.96 185.64,-191.8"/>
</g>
<!-- Node7 -->
<g id="node7" class="node">
<title>Node7</title>
<g id="a_node7"><a xlink:href="class_transmission_base.html#a5f5167fe4e51db44b9070ca4c27e1961" target="_top" xlink:title="Transmit data using method.">
<polygon fill="white" stroke="black" points="358,-152.5 358,-171.5 516,-171.5 516,-152.5 358,-152.5"/>
<text text-anchor="middle" x="437" y="-159.5" font-family="Helvetica,sans-Serif" font-size="10.00">TransmissionBase::transmitData</text>
</a>
</g>
</g>
<!-- Node1&#45;&gt;Node7 -->
<g id="edge6" class="edge">
<title>Node1&#45;&gt;Node7</title>
<path fill="none" stroke="midnightblue" d="M125.01,-162C185.65,-162 278.93,-162 347.52,-162"/>
<polygon fill="midnightblue" stroke="midnightblue" points="347.88,-165.5 357.88,-162 347.88,-158.5 347.88,-165.5"/>
</g>
<!-- Node8 -->
<g id="node8" class="node">
<title>Node8</title>
<g id="a_node8"><a xlink:href="class_data_store.html#a07027b1feb1d9819d77a48322f9cd2a7" target="_top" xlink:title="Send retained data from local storage.">
<polygon fill="white" stroke="black" points="164,-114.5 164,-133.5 319,-133.5 319,-114.5 164,-114.5"/>
<text text-anchor="middle" x="241.5" y="-121.5" font-family="Helvetica,sans-Serif" font-size="10.00">DataStore::transmitDataStorage</text>
</a>
</g>
</g>
<!-- Node1&#45;&gt;Node8 -->
<g id="edge7" class="edge">
<title>Node1&#45;&gt;Node8</title>
<path fill="none" stroke="midnightblue" d="M108.16,-152.41C131.84,-147.33 161.11,-141.04 186.1,-135.68"/>
<polygon fill="midnightblue" stroke="midnightblue" points="187.11,-139.04 196.16,-133.52 185.64,-132.2 187.11,-139.04"/>
</g>
<!-- Node13 -->
<g id="node13" class="node">
<title>Node13</title>
<g id="a_node13"><a xlink:href="class_data_publisher.html#a36d4a0232251a0bf710d96be39f913af" target="_top" xlink:title="Update the current Timestamp for a measurement.">
<polygon fill="white" stroke="black" points="161,-76.5 161,-95.5 322,-95.5 322,-76.5 161,-76.5"/>
<text text-anchor="middle" x="241.5" y="-83.5" font-family="Helvetica,sans-Serif" font-size="10.00">DataPublisher::updateTimestamp</text>
</a>
</g>
</g>
<!-- Node1&#45;&gt;Node13 -->
<g id="edge13" class="edge">
<title>Node1&#45;&gt;Node13</title>
<path fill="none" stroke="midnightblue" d="M77.04,-152.33C95.29,-139.73 129.16,-117.79 161,-105 167.28,-102.48 173.98,-100.24 180.73,-98.26"/>
<polygon fill="midnightblue" stroke="midnightblue" points="181.89,-101.57 190.6,-95.54 180.03,-94.82 181.89,-101.57"/>
</g>
<!-- Node15 -->
<g id="node15" class="node">
<title>Node15</title>
<g id="a_node15"><a xlink:href="class_data_publisher.html#af6aeeea1fe0922eec7187094470c2ede" target="_top" xlink:title="Get connection status.">
<polygon fill="white" stroke="black" points="174.5,-27 174.5,-57 308.5,-57 308.5,-27 174.5,-27"/>
<text text-anchor="start" x="182.5" y="-45" font-family="Helvetica,sans-Serif" font-size="10.00">DataPublisher::wirelessGet</text>
<text text-anchor="middle" x="241.5" y="-34" font-family="Helvetica,sans-Serif" font-size="10.00">Connected</text>
</a>
</g>
</g>
<!-- Node1&#45;&gt;Node15 -->
<g id="edge15" class="edge">
<title>Node1&#45;&gt;Node15</title>
<path fill="none" stroke="midnightblue" d="M70.73,-152.41C85.58,-133.38 121.44,-90.64 161,-67 164.56,-64.87 168.33,-62.91 172.2,-61.09"/>
<polygon fill="midnightblue" stroke="midnightblue" points="173.59,-64.3 181.39,-57.14 170.83,-57.87 173.59,-64.3"/>
</g>
<!-- Node5 -->
<g id="node5" class="node">
<title>Node5</title>
<g id="a_node5"><a xlink:href="class_data_store.html#a1b9b92814aaedb80943d875a464ea7d9" target="_top" xlink:title="Add data to local storage file.">
<polygon fill="white" stroke="black" points="378,-228.5 378,-247.5 496,-247.5 496,-228.5 378,-228.5"/>
<text text-anchor="middle" x="437" y="-235.5" font-family="Helvetica,sans-Serif" font-size="10.00">DataStore::appendData</text>
</a>
</g>
</g>
<!-- Node4&#45;&gt;Node5 -->
<g id="edge4" class="edge">
<title>Node4&#45;&gt;Node5</title>
<path fill="none" stroke="midnightblue" d="M291.33,-209.59C317.55,-214.74 350.06,-221.12 377.62,-226.53"/>
<polygon fill="midnightblue" stroke="midnightblue" points="377.04,-229.99 387.52,-228.48 378.38,-223.12 377.04,-229.99"/>
</g>
<!-- Node6 -->
<g id="node6" class="node">
<title>Node6</title>
<g id="a_node6"><a xlink:href="class_data_store.html#aeb526ffea5feb11fb3821aa5f6400c18" target="_top" xlink:title="Format data from raw data into storage data.">
<polygon fill="white" stroke="black" points="380.5,-190.5 380.5,-209.5 493.5,-209.5 493.5,-190.5 380.5,-190.5"/>
<text text-anchor="middle" x="437" y="-197.5" font-family="Helvetica,sans-Serif" font-size="10.00">DataStore::formatData</text>
</a>
</g>
</g>
<!-- Node4&#45;&gt;Node6 -->
<g id="edge5" class="edge">
<title>Node4&#45;&gt;Node6</title>
<path fill="none" stroke="midnightblue" d="M310.18,-200C329.58,-200 350.7,-200 369.99,-200"/>
<polygon fill="midnightblue" stroke="midnightblue" points="370.2,-203.5 380.2,-200 370.2,-196.5 370.2,-203.5"/>
</g>
<!-- Node8&#45;&gt;Node7 -->
<g id="edge12" class="edge">
<title>Node8&#45;&gt;Node7</title>
<path fill="none" stroke="midnightblue" d="M291.33,-133.59C317.55,-138.74 350.06,-145.12 377.62,-150.53"/>
<polygon fill="midnightblue" stroke="midnightblue" points="377.04,-153.99 387.52,-152.48 378.38,-147.12 377.04,-153.99"/>
</g>
<!-- Node9 -->
<g id="node9" class="node">
<title>Node9</title>
<g id="a_node9"><a xlink:href="class_data_store.html#a10b2120afd567750d6117a266eb9207a" target="_top" xlink:title="Delete locally stored data.">
<polygon fill="white" stroke="black" points="364,-114.5 364,-133.5 510,-133.5 510,-114.5 364,-114.5"/>
<text text-anchor="middle" x="437" y="-121.5" font-family="Helvetica,sans-Serif" font-size="10.00">DataStore::deleteDataStorage</text>
</a>
</g>
</g>
<!-- Node8&#45;&gt;Node9 -->
<g id="edge8" class="edge">
<title>Node8&#45;&gt;Node9</title>
<path fill="none" stroke="midnightblue" d="M319.25,-124C330.48,-124 342.09,-124 353.43,-124"/>
<polygon fill="midnightblue" stroke="midnightblue" points="353.75,-127.5 363.75,-124 353.75,-120.5 353.75,-127.5"/>
</g>
<!-- Node10 -->
<g id="node10" class="node">
<title>Node10</title>
<g id="a_node10"><a xlink:href="class_data_store.html#a6724e2f03e4339881f7ee09b092a526c" target="_top" xlink:title="Load data stored in file into the local _retainedData vector.">
<polygon fill="white" stroke="black" points="368,-76.5 368,-95.5 506,-95.5 506,-76.5 368,-76.5"/>
<text text-anchor="middle" x="437" y="-83.5" font-family="Helvetica,sans-Serif" font-size="10.00">DataStore::loadDataStorage</text>
</a>
</g>
</g>
<!-- Node8&#45;&gt;Node10 -->
<g id="edge9" class="edge">
<title>Node8&#45;&gt;Node10</title>
<path fill="none" stroke="midnightblue" d="M291.33,-114.41C317.55,-109.26 350.06,-102.88 377.62,-97.47"/>
<polygon fill="midnightblue" stroke="midnightblue" points="378.38,-100.88 387.52,-95.52 377.04,-94.01 378.38,-100.88"/>
</g>
<!-- Node11 -->
<g id="node11" class="node">
<title>Node11</title>
<g id="a_node11"><a xlink:href="class_data_store.html#a4ac88a34f9a5f6ebc435bd1bf652e1c7" target="_top" xlink:title="Format data from storage data back to raw data.">
<polygon fill="white" stroke="black" points="374.5,-38.5 374.5,-57.5 499.5,-57.5 499.5,-38.5 374.5,-38.5"/>
<text text-anchor="middle" x="437" y="-45.5" font-family="Helvetica,sans-Serif" font-size="10.00">DataStore::reFormatData</text>
</a>
</g>
</g>
<!-- Node8&#45;&gt;Node11 -->
<g id="edge10" class="edge">
<title>Node8&#45;&gt;Node11</title>
<path fill="none" stroke="midnightblue" d="M300.07,-114.47C307.72,-112 315.24,-108.9 322,-105 342.15,-93.37 337.88,-78.67 358,-67 361.73,-64.84 365.7,-62.92 369.79,-61.22"/>
<polygon fill="midnightblue" stroke="midnightblue" points="371.34,-64.37 379.52,-57.63 368.92,-57.81 371.34,-64.37"/>
</g>
<!-- Node12 -->
<g id="node12" class="node">
<title>Node12</title>
<g id="a_node12"><a xlink:href="class_data_publisher.html#a10b8b56b6889df477dfe9b1ee549988d" target="_top" xlink:title="Singleton class instance.">
<polygon fill="white" stroke="black" points="552,-38.5 552,-57.5 683,-57.5 683,-38.5 552,-38.5"/>
<text text-anchor="middle" x="617.5" y="-45.5" font-family="Helvetica,sans-Serif" font-size="10.00">DataPublisher::INSTANCE</text>
</a>
</g>
</g>
<!-- Node11&#45;&gt;Node12 -->
<g id="edge11" class="edge">
<title>Node11&#45;&gt;Node12</title>
<path fill="none" stroke="midnightblue" d="M499.68,-48C513.22,-48 527.7,-48 541.7,-48"/>
<polygon fill="midnightblue" stroke="midnightblue" points="541.78,-51.5 551.78,-48 541.78,-44.5 541.78,-51.5"/>
</g>
<!-- Node14 -->
<g id="node14" class="node">
<title>Node14</title>
<g id="a_node14"><a xlink:href="class_data_publisher.html#a01a7b2d8788d7d8b7100a92c322a15a9" target="_top" xlink:title="Helper print function.">
<polygon fill="white" stroke="black" points="373.5,-0.5 373.5,-19.5 500.5,-19.5 500.5,-0.5 373.5,-0.5"/>
<text text-anchor="middle" x="437" y="-7.5" font-family="Helvetica,sans-Serif" font-size="10.00">DataPublisher::showTime</text>
</a>
</g>
</g>
<!-- Node13&#45;&gt;Node14 -->
<g id="edge14" class="edge">
<title>Node13&#45;&gt;Node14</title>
<path fill="none" stroke="midnightblue" d="M300.07,-76.47C307.72,-74 315.24,-70.9 322,-67 342.15,-55.37 337.88,-40.67 358,-29 361.73,-26.84 365.7,-24.92 369.79,-23.22"/>
<polygon fill="midnightblue" stroke="midnightblue" points="371.34,-26.37 379.52,-19.63 368.92,-19.81 371.34,-26.37"/>
</g>
</g>
</svg>
        <g id="navigator" transform="translate(0 0)" fill="#404254">
                <rect fill="#f2f5e9" fill-opacity="0.5" stroke="#606060" stroke-width=".5" x="0" y="0" width="60" height="60"/>
                <use id="zoomplus" xlink:href="#zoomPlus" x="17" y="9" onmousedown="handleZoom(evt,'in')"/>
                <use id="zoomminus" xlink:href="#zoomMin" x="42" y="9" onmousedown="handleZoom(evt,'out')"/>
                <use id="reset" xlink:href="#resetDef" x="30" y="36" onmousedown="handleReset()"/>
                <g id="arrowUp" xlink:href="#dirArrow" transform="translate(30 24)" onmousedown="handlePan(0,-1)">
                  <use xlink:href="#rim" fill="#404040">
                        <set attributeName="fill" to="#808080" begin="arrowUp.mouseover" end="arrowUp.mouseout"/>
                  </use>
                  <path fill="none" stroke="white" stroke-width="1.5" d="M0,-3.0v7 M-2.5,-0.5L0,-3.0L2.5,-0.5"/>
                </g>
                <g id="arrowRight" xlink:href="#dirArrow" transform="rotate(90) translate(36 -43)" onmousedown="handlePan(1,0)">
                  <use xlink:href="#rim" fill="#404040">
                        <set attributeName="fill" to="#808080" begin="arrowRight.mouseover" end="arrowRight.mouseout"/>
                  </use>
                  <path fill="none" stroke="white" stroke-width="1.5" d="M0,-3.0v7 M-2.5,-0.5L0,-3.0L2.5,-0.5"/>
                </g>
                <g id="arrowDown" xlink:href="#dirArrow" transform="rotate(180) translate(-30 -48)" onmousedown="handlePan(0,1)">
                  <use xlink:href="#rim" fill="#404040">
                        <set attributeName="fill" to="#808080" begin="arrowDown.mouseover" end="arrowDown.mouseout"/>
                  </use>
                  <path fill="none" stroke="white" stroke-width="1.5" d="M0,-3.0v7 M-2.5,-0.5L0,-3.0L2.5,-0.5"/>
                </g>
                <g id="arrowLeft" xlink:href="#dirArrow" transform="rotate(270) translate(-36 17)" onmousedown="handlePan(-1,0)">
                  <use xlink:href="#rim" fill="#404040">
                        <set attributeName="fill" to="#808080" begin="arrowLeft.mouseover" end="arrowLeft.mouseout"/>
                  </use>
                  <path fill="none" stroke="white" stroke-width="1.5" d="M0,-3.0v7 M-2.5,-0.5L0,-3.0L2.5,-0.5"/>
                </g>
        </g>
        <svg viewBox="0 0 15 15" width="100%" height="30px" preserveAspectRatio="xMaxYMin meet">
         <g id="arrow_out" transform="scale(0.3 0.3)">
          <a xlink:href="class_data_publisher_a266411f687c44a946cbac8323903a3e5_cgraph_org.svg" target="_base">
           <rect id="button" ry="5" rx="5" y="6" x="6" height="38" width="38"
                fill="#f2f5e9" fill-opacity="0.5" stroke="#606060" stroke-width="1.0"/>
           <path id="arrow"
             d="M 11.500037,31.436501 C 11.940474,20.09759 22.043105,11.32322 32.158766,21.979434 L 37.068811,17.246167 C 37.068811,17.246167 37.088388,32 37.088388,32 L 22.160133,31.978069 C 22.160133,31.978069 26.997745,27.140456 26.997745,27.140456 C 18.528582,18.264221 13.291696,25.230495 11.500037,31.436501 z"
             style="fill:#404040;"/>
          </a>
         </g>
        </svg>
</svg>
