<?xml version="1.0" encoding="UTF-8" standalone="no"?>
<!DOCTYPE svg PUBLIC "-//W3C//DTD SVG 1.1//EN"
 "http://www.w3.org/Graphics/SVG/1.1/DTD/svg11.dtd">
<!-- Generated by graphviz version 4.0.0 (20220529.0937)
 -->
<!-- Title: SensorBase Pages: 1 -->
<!--zoomable 270 -->
<svg id="main" version="1.1" xmlns="http://www.w3.org/2000/svg" xmlns:xlink="http://www.w3.org/1999/xlink" xml:space="preserve" onload="init(evt)">
<style type="text/css"><![CDATA[
.edge:hover path { stroke: red; }
.edge:hover polygon { stroke: red; fill: red; }
]]></style>
<script type="text/javascript"><![CDATA[
var edges = document.getElementsByTagName('g');
if (edges && edges.length) {
  for (var i=0;i<edges.length;i++) {
    if (edges[i].id.substr(0,4)=='edge') {
      edges[i].setAttribute('class','edge');
    }
  }
}
]]></script>
        <defs>
                <circle id="rim" cx="0" cy="0" r="7"/>
                <circle id="rim2" cx="0" cy="0" r="3.5"/>
                <g id="zoomPlus">
                        <use xlink:href="#rim" fill="#404040">
                                <set attributeName="fill" to="#808080" begin="zoomplus.mouseover" end="zoomplus.mouseout"/>
                        </use>
                        <path d="M-4,0h8M0,-4v8" fill="none" stroke="white" stroke-width="1.5" pointer-events="none"/>
                </g>
                <g id="zoomMin">
                        <use xlink:href="#rim" fill="#404040">
                                <set attributeName="fill" to="#808080" begin="zoomminus.mouseover" end="zoomminus.mouseout"/>
                        </use>
                        <path d="M-4,0h8" fill="none" stroke="white" stroke-width="1.5" pointer-events="none"/>
                </g>
                <g id="dirArrow">
                        <path fill="none" stroke="white" stroke-width="1.5" d="M0,-3.0v7 M-2.5,-0.5L0,-3.0L2.5,-0.5"/>
                </g>
               <g id="resetDef">
                       <use xlink:href="#rim2" fill="#404040">
                               <set attributeName="fill" to="#808080" begin="reset.mouseover" end="reset.mouseout"/>
                       </use>
               </g>
        </defs>

<script type="text/javascript">
var viewWidth = 590;
var viewHeight = 270;
var sectionId = 'dynsection-0';
</script>
<script xlink:href="svgpan.js"/>
<svg id="graph" class="graph">
<g id="viewport">
<title>SensorBase</title>
<polygon fill="white" stroke="transparent" points="-4,4 -4,-266 586,-266 586,4 -4,4"/>
<!-- Node1 -->
<g id="node1" class="node">
<title>Node1</title>
<g id="a_node1"><a xlink:title="Sensor base class.">
<polygon fill="#bfbfbf" stroke="black" points="225,-171.5 225,-261.5 357,-261.5 357,-171.5 225,-171.5"/>
<text text-anchor="middle" x="291" y="-249.5" font-family="Helvetica,sans-Serif" font-size="10.00">SensorBase</text>
<polyline fill="none" stroke="black" points="225,-242.5 357,-242.5 "/>
<text text-anchor="start" x="233" y="-230.5" font-family="Helvetica,sans-Serif" font-size="10.00"># _sensorValue</text>
<polyline fill="none" stroke="black" points="225,-223.5 357,-223.5 "/>
<text text-anchor="start" x="233" y="-211.5" font-family="Helvetica,sans-Serif" font-size="10.00">+ SensorBase()</text>
<text text-anchor="start" x="233" y="-200.5" font-family="Helvetica,sans-Serif" font-size="10.00">+ ~SensorBase()</text>
<text text-anchor="start" x="233" y="-189.5" font-family="Helvetica,sans-Serif" font-size="10.00">+ startMeasurement()</text>
<text text-anchor="start" x="233" y="-178.5" font-family="Helvetica,sans-Serif" font-size="10.00">+ getMeasurementResult()</text>
</a>
</g>
</g>
<!-- Node2 -->
<g id="node2" class="node">
<title>Node2</title>
<g id="a_node2"><a xlink:href="class_d_s18_b20_sensor.html" target="_top" xlink:title="One wire temperature sensor implementation.">
<polygon fill="white" stroke="black" points="0,-11.5 0,-123.5 132,-123.5 132,-11.5 0,-11.5"/>
<text text-anchor="middle" x="66" y="-111.5" font-family="Helvetica,sans-Serif" font-size="10.00">DS18B20Sensor</text>
<polyline fill="none" stroke="black" points="0,-104.5 132,-104.5 "/>
<text text-anchor="start" x="8" y="-92.5" font-family="Helvetica,sans-Serif" font-size="10.00">&#45; _sharedBus</text>
<text text-anchor="start" x="8" y="-81.5" font-family="Helvetica,sans-Serif" font-size="10.00">&#45; _busAddress</text>
<polyline fill="none" stroke="black" points="0,-74.5 132,-74.5 "/>
<text text-anchor="start" x="8" y="-62.5" font-family="Helvetica,sans-Serif" font-size="10.00">+ DS18B20Sensor()</text>
<text text-anchor="start" x="8" y="-51.5" font-family="Helvetica,sans-Serif" font-size="10.00">+ DS18B20Sensor()</text>
<text text-anchor="start" x="8" y="-40.5" font-family="Helvetica,sans-Serif" font-size="10.00">+ ~DS18B20Sensor()</text>
<text text-anchor="start" x="8" y="-29.5" font-family="Helvetica,sans-Serif" font-size="10.00">+ startMeasurement()</text>
<text text-anchor="start" x="8" y="-18.5" font-family="Helvetica,sans-Serif" font-size="10.00">+ getMeasurementResult()</text>
</a>
</g>
</g>
<!-- Node1&#45;&gt;Node2 -->
<g id="edge1" class="edge">
<title>Node1&#45;&gt;Node2</title>
<path fill="none" stroke="midnightblue" d="M215.88,-179.57C191.29,-166.67 164.32,-151.26 141,-135 136,-131.52 130.97,-127.74 126.01,-123.82"/>
<polygon fill="none" stroke="midnightblue" points="214.33,-182.7 224.82,-184.2 217.55,-176.49 214.33,-182.7"/>
</g>
<!-- Node3 -->
<g id="node3" class="node">
<title>Node3</title>
<g id="a_node3"><a xlink:href="class_moisture_sensor.html" target="_top" xlink:title="Analog moisture sensor implementation.">
<polygon fill="white" stroke="black" points="150,-17 150,-118 282,-118 282,-17 150,-17"/>
<text text-anchor="middle" x="216" y="-106" font-family="Helvetica,sans-Serif" font-size="10.00">MoistureSensor</text>
<polyline fill="none" stroke="black" points="150,-99 282,-99 "/>
<text text-anchor="start" x="158" y="-87" font-family="Helvetica,sans-Serif" font-size="10.00">&#45; _sensorPin</text>
<text text-anchor="start" x="158" y="-76" font-family="Helvetica,sans-Serif" font-size="10.00">&#45; _voltagePin</text>
<polyline fill="none" stroke="black" points="150,-69 282,-69 "/>
<text text-anchor="start" x="158" y="-57" font-family="Helvetica,sans-Serif" font-size="10.00">+ MoistureSensor()</text>
<text text-anchor="start" x="158" y="-46" font-family="Helvetica,sans-Serif" font-size="10.00">+ ~MoistureSensor()</text>
<text text-anchor="start" x="158" y="-35" font-family="Helvetica,sans-Serif" font-size="10.00">+ startMeasurement()</text>
<text text-anchor="start" x="158" y="-24" font-family="Helvetica,sans-Serif" font-size="10.00">+ getMeasurementResult()</text>
</a>
</g>
</g>
<!-- Node1&#45;&gt;Node3 -->
<g id="edge2" class="edge">
<title>Node1&#45;&gt;Node3</title>
<path fill="none" stroke="midnightblue" d="M263.78,-162.16C256.47,-147.82 248.59,-132.37 241.38,-118.24"/>
<polygon fill="none" stroke="midnightblue" points="260.84,-164.08 268.5,-171.4 267.07,-160.9 260.84,-164.08"/>
</g>
<!-- Node4 -->
<g id="node4" class="node">
<title>Node4</title>
<g id="a_node4"><a xlink:href="class_test_sensor.html" target="_top" xlink:title=" ">
<polygon fill="white" stroke="black" points="300,-22.5 300,-112.5 432,-112.5 432,-22.5 300,-22.5"/>
<text text-anchor="middle" x="366" y="-100.5" font-family="Helvetica,sans-Serif" font-size="10.00">TestSensor</text>
<polyline fill="none" stroke="black" points="300,-93.5 432,-93.5 "/>
<text text-anchor="start" x="308" y="-81.5" font-family="Helvetica,sans-Serif" font-size="10.00">&#45; _localVal</text>
<polyline fill="none" stroke="black" points="300,-74.5 432,-74.5 "/>
<text text-anchor="start" x="308" y="-62.5" font-family="Helvetica,sans-Serif" font-size="10.00">+ TestSensor()</text>
<text text-anchor="start" x="308" y="-51.5" font-family="Helvetica,sans-Serif" font-size="10.00">+ ~TestSensor()</text>
<text text-anchor="start" x="308" y="-40.5" font-family="Helvetica,sans-Serif" font-size="10.00">+ startMeasurement()</text>
<text text-anchor="start" x="308" y="-29.5" font-family="Helvetica,sans-Serif" font-size="10.00">+ getMeasurementResult()</text>
</a>
</g>
</g>
<!-- Node1&#45;&gt;Node4 -->
<g id="edge3" class="edge">
<title>Node1&#45;&gt;Node4</title>
<path fill="none" stroke="midnightblue" d="M318.05,-162.48C326.4,-146.11 335.51,-128.27 343.51,-112.57"/>
<polygon fill="none" stroke="midnightblue" points="314.93,-160.9 313.5,-171.4 321.16,-164.08 314.93,-160.9"/>
</g>
<!-- Node5 -->
<g id="node5" class="node">
<title>Node5</title>
<g id="a_node5"><a xlink:href="class_water_level_sensor.html" target="_top" xlink:title="Ultrasonic distance sensor class for calculating water level.">
<polygon fill="white" stroke="black" points="450,-0.5 450,-134.5 582,-134.5 582,-0.5 450,-0.5"/>
<text text-anchor="middle" x="516" y="-122.5" font-family="Helvetica,sans-Serif" font-size="10.00">WaterLevelSensor</text>
<polyline fill="none" stroke="black" points="450,-115.5 582,-115.5 "/>
<text text-anchor="start" x="458" y="-103.5" font-family="Helvetica,sans-Serif" font-size="10.00">&#45; _echoPin</text>
<text text-anchor="start" x="458" y="-92.5" font-family="Helvetica,sans-Serif" font-size="10.00">&#45; _triggerPin</text>
<text text-anchor="start" x="458" y="-81.5" font-family="Helvetica,sans-Serif" font-size="10.00">&#45; _sonar</text>
<polyline fill="none" stroke="black" points="450,-74.5 582,-74.5 "/>
<text text-anchor="start" x="458" y="-62.5" font-family="Helvetica,sans-Serif" font-size="10.00">+ WaterLevelSensor()</text>
<text text-anchor="start" x="458" y="-51.5" font-family="Helvetica,sans-Serif" font-size="10.00">+ ~WaterLevelSensor()</text>
<text text-anchor="start" x="458" y="-40.5" font-family="Helvetica,sans-Serif" font-size="10.00">+ startMeasurement()</text>
<text text-anchor="start" x="458" y="-29.5" font-family="Helvetica,sans-Serif" font-size="10.00">+ getMeasurementResult()</text>
<text text-anchor="start" x="458" y="-18.5" font-family="Helvetica,sans-Serif" font-size="10.00">&#45; measureDistance()</text>
<text text-anchor="start" x="458" y="-7.5" font-family="Helvetica,sans-Serif" font-size="10.00">&#45; calculateWaterLevel()</text>
</a>
</g>
</g>
<!-- Node1&#45;&gt;Node5 -->
<g id="edge4" class="edge">
<title>Node1&#45;&gt;Node5</title>
<path fill="none" stroke="midnightblue" d="M366.12,-179.57C390.71,-166.67 417.68,-151.26 441,-135 443.85,-133.01 446.72,-130.92 449.58,-128.77"/>
<polygon fill="none" stroke="midnightblue" points="364.45,-176.49 357.18,-184.2 367.67,-182.7 364.45,-176.49"/>
</g>
</g>
</svg>
        <g id="navigator" transform="translate(0 0)" fill="#404254">
                <rect fill="#f2f5e9" fill-opacity="0.5" stroke="#606060" stroke-width=".5" x="0" y="0" width="60" height="60"/>
                <use id="zoomplus" xlink:href="#zoomPlus" x="17" y="9" onmousedown="handleZoom(evt,'in')"/>
                <use id="zoomminus" xlink:href="#zoomMin" x="42" y="9" onmousedown="handleZoom(evt,'out')"/>
                <use id="reset" xlink:href="#resetDef" x="30" y="36" onmousedown="handleReset()"/>
                <g id="arrowUp" xlink:href="#dirArrow" transform="translate(30 24)" onmousedown="handlePan(0,-1)">
                  <use xlink:href="#rim" fill="#404040">
                        <set attributeName="fill" to="#808080" begin="arrowUp.mouseover" end="arrowUp.mouseout"/>
                  </use>
                  <path fill="none" stroke="white" stroke-width="1.5" d="M0,-3.0v7 M-2.5,-0.5L0,-3.0L2.5,-0.5"/>
                </g>
                <g id="arrowRight" xlink:href="#dirArrow" transform="rotate(90) translate(36 -43)" onmousedown="handlePan(1,0)">
                  <use xlink:href="#rim" fill="#404040">
                        <set attributeName="fill" to="#808080" begin="arrowRight.mouseover" end="arrowRight.mouseout"/>
                  </use>
                  <path fill="none" stroke="white" stroke-width="1.5" d="M0,-3.0v7 M-2.5,-0.5L0,-3.0L2.5,-0.5"/>
                </g>
                <g id="arrowDown" xlink:href="#dirArrow" transform="rotate(180) translate(-30 -48)" onmousedown="handlePan(0,1)">
                  <use xlink:href="#rim" fill="#404040">
                        <set attributeName="fill" to="#808080" begin="arrowDown.mouseover" end="arrowDown.mouseout"/>
                  </use>
                  <path fill="none" stroke="white" stroke-width="1.5" d="M0,-3.0v7 M-2.5,-0.5L0,-3.0L2.5,-0.5"/>
                </g>
                <g id="arrowLeft" xlink:href="#dirArrow" transform="rotate(270) translate(-36 17)" onmousedown="handlePan(-1,0)">
                  <use xlink:href="#rim" fill="#404040">
                        <set attributeName="fill" to="#808080" begin="arrowLeft.mouseover" end="arrowLeft.mouseout"/>
                  </use>
                  <path fill="none" stroke="white" stroke-width="1.5" d="M0,-3.0v7 M-2.5,-0.5L0,-3.0L2.5,-0.5"/>
                </g>
        </g>
        <svg viewBox="0 0 15 15" width="100%" height="30px" preserveAspectRatio="xMaxYMin meet">
         <g id="arrow_out" transform="scale(0.3 0.3)">
          <a xlink:href="class_sensor_base__inherit__graph_org.svg" target="_base">
           <rect id="button" ry="5" rx="5" y="6" x="6" height="38" width="38"
                fill="#f2f5e9" fill-opacity="0.5" stroke="#606060" stroke-width="1.0"/>
           <path id="arrow"
             d="M 11.500037,31.436501 C 11.940474,20.09759 22.043105,11.32322 32.158766,21.979434 L 37.068811,17.246167 C 37.068811,17.246167 37.088388,32 37.088388,32 L 22.160133,31.978069 C 22.160133,31.978069 26.997745,27.140456 26.997745,27.140456 C 18.528582,18.264221 13.291696,25.230495 11.500037,31.436501 z"
             style="fill:#404040;"/>
          </a>
         </g>
        </svg>
</svg>
