<?xml version="1.0" encoding="UTF-8" standalone="no"?>
<!DOCTYPE svg PUBLIC "-//W3C//DTD SVG 1.1//EN"
 "http://www.w3.org/Graphics/SVG/1.1/DTD/svg11.dtd">
<!-- Generated by graphviz version 4.0.0 (20220529.0937)
 -->
<!-- Title: TransmissionBase Pages: 1 -->
<svg width="408pt" height="292pt"
 viewBox="0.00 0.00 407.50 292.00" xmlns="http://www.w3.org/2000/svg" xmlns:xlink="http://www.w3.org/1999/xlink">
<g id="graph0" class="graph" transform="scale(1 1) rotate(0) translate(4 288)">
<title>TransmissionBase</title>
<polygon fill="white" stroke="transparent" points="-4,4 -4,-288 403.5,-288 403.5,4 -4,4"/>
<!-- Node1 -->
<g id="node1" class="node">
<title>Node1</title>
<g id="a_node1"><a xlink:title="Base class for sending data to one of the endpoints.">
<polygon fill="#bfbfbf" stroke="black" points="142.5,-171.5 142.5,-283.5 260.5,-283.5 260.5,-171.5 142.5,-171.5"/>
<text text-anchor="middle" x="201.5" y="-271.5" font-family="Helvetica,sans-Serif" font-size="10.00">TransmissionBase</text>
<polyline fill="none" stroke="black" points="142.5,-264.5 260.5,-264.5 "/>
<text text-anchor="start" x="150.5" y="-252.5" font-family="Helvetica,sans-Serif" font-size="10.00"># _dataObject</text>
<text text-anchor="start" x="150.5" y="-241.5" font-family="Helvetica,sans-Serif" font-size="10.00"># _parsedData</text>
<polyline fill="none" stroke="black" points="142.5,-234.5 260.5,-234.5 "/>
<text text-anchor="start" x="150.5" y="-222.5" font-family="Helvetica,sans-Serif" font-size="10.00">+ TransmissionBase()</text>
<text text-anchor="start" x="150.5" y="-211.5" font-family="Helvetica,sans-Serif" font-size="10.00">+ ~TransmissionBase()</text>
<text text-anchor="start" x="150.5" y="-200.5" font-family="Helvetica,sans-Serif" font-size="10.00">+ transmitData()</text>
<text text-anchor="start" x="150.5" y="-189.5" font-family="Helvetica,sans-Serif" font-size="10.00">+ close()</text>
<text text-anchor="start" x="150.5" y="-178.5" font-family="Helvetica,sans-Serif" font-size="10.00">&#45; parseData()</text>
</a>
</g>
</g>
<!-- Node2 -->
<g id="node2" class="node">
<title>Node2</title>
<g id="a_node2"><a xlink:href="class_h_t_t_p_transmission.html" target="_top" xlink:title="HTTP Post transmission.">
<polygon fill="white" stroke="black" points="0,-22.5 0,-112.5 119,-112.5 119,-22.5 0,-22.5"/>
<text text-anchor="middle" x="59.5" y="-100.5" font-family="Helvetica,sans-Serif" font-size="10.00">HTTPTransmission</text>
<polyline fill="none" stroke="black" points="0,-93.5 119,-93.5 "/>
<text text-anchor="start" x="8" y="-81.5" font-family="Helvetica,sans-Serif" font-size="10.00">&#45; _httpClient</text>
<polyline fill="none" stroke="black" points="0,-74.5 119,-74.5 "/>
<text text-anchor="start" x="8" y="-62.5" font-family="Helvetica,sans-Serif" font-size="10.00">+ HTTPTransmission()</text>
<text text-anchor="start" x="8" y="-51.5" font-family="Helvetica,sans-Serif" font-size="10.00">+ ~HTTPTransmission()</text>
<text text-anchor="start" x="8" y="-40.5" font-family="Helvetica,sans-Serif" font-size="10.00">+ transmitData()</text>
<text text-anchor="start" x="8" y="-29.5" font-family="Helvetica,sans-Serif" font-size="10.00">&#45; parseData()</text>
</a>
</g>
</g>
<!-- Node1&#45;&gt;Node2 -->
<g id="edge1" class="edge">
<title>Node1&#45;&gt;Node2</title>
<path fill="none" stroke="midnightblue" d="M144.86,-163.48C129.53,-146.42 113.26,-128.31 99.08,-112.54"/>
<polygon fill="none" stroke="midnightblue" points="142.55,-166.14 151.84,-171.24 147.75,-161.46 142.55,-166.14"/>
</g>
<!-- Node3 -->
<g id="node3" class="node">
<title>Node3</title>
<g id="a_node3"><a xlink:href="class_i_o_t_hub_transmission.html" target="_top" xlink:title=" ">
<polygon fill="white" stroke="black" points="137.5,-0.5 137.5,-134.5 265.5,-134.5 265.5,-0.5 137.5,-0.5"/>
<text text-anchor="middle" x="201.5" y="-122.5" font-family="Helvetica,sans-Serif" font-size="10.00">IOTHubTransmission</text>
<polyline fill="none" stroke="black" points="137.5,-115.5 265.5,-115.5 "/>
<text text-anchor="middle" x="201.5" y="-103.5" font-family="Helvetica,sans-Serif" font-size="10.00"> </text>
<polyline fill="none" stroke="black" points="137.5,-96.5 265.5,-96.5 "/>
<text text-anchor="start" x="145.5" y="-84.5" font-family="Helvetica,sans-Serif" font-size="10.00">+ IOTHubTransmission()</text>
<text text-anchor="start" x="145.5" y="-73.5" font-family="Helvetica,sans-Serif" font-size="10.00">+ ~IOTHubTransmission()</text>
<text text-anchor="start" x="145.5" y="-62.5" font-family="Helvetica,sans-Serif" font-size="10.00">+ transmitData()</text>
<text text-anchor="start" x="145.5" y="-51.5" font-family="Helvetica,sans-Serif" font-size="10.00">+ close()</text>
<text text-anchor="start" x="145.5" y="-40.5" font-family="Helvetica,sans-Serif" font-size="10.00">+ mqttEventHandler()</text>
<text text-anchor="start" x="145.5" y="-29.5" font-family="Helvetica,sans-Serif" font-size="10.00">&#45; parseData()</text>
<text text-anchor="start" x="145.5" y="-18.5" font-family="Helvetica,sans-Serif" font-size="10.00">&#45; initIotHubClient()</text>
<text text-anchor="start" x="145.5" y="-7.5" font-family="Helvetica,sans-Serif" font-size="10.00">&#45; initMqttClient()</text>
</a>
</g>
</g>
<!-- Node1&#45;&gt;Node3 -->
<g id="edge2" class="edge">
<title>Node1&#45;&gt;Node3</title>
<path fill="none" stroke="midnightblue" d="M201.5,-161.09C201.5,-152.34 201.5,-143.35 201.5,-134.59"/>
<polygon fill="none" stroke="midnightblue" points="198,-161.24 201.5,-171.24 205,-161.24 198,-161.24"/>
</g>
<!-- Node4 -->
<g id="node4" class="node">
<title>Node4</title>
<g id="a_node4"><a xlink:href="class_u_d_p_transmission.html" target="_top" xlink:title="UDP / HTTP post transmission.">
<polygon fill="white" stroke="black" points="283.5,-17 283.5,-118 399.5,-118 399.5,-17 283.5,-17"/>
<text text-anchor="middle" x="341.5" y="-106" font-family="Helvetica,sans-Serif" font-size="10.00">UDPTransmission</text>
<polyline fill="none" stroke="black" points="283.5,-99 399.5,-99 "/>
<text text-anchor="start" x="291.5" y="-87" font-family="Helvetica,sans-Serif" font-size="10.00">&#45; _httpClient</text>
<polyline fill="none" stroke="black" points="283.5,-80 399.5,-80 "/>
<text text-anchor="start" x="291.5" y="-68" font-family="Helvetica,sans-Serif" font-size="10.00">+ UDPTransmission()</text>
<text text-anchor="start" x="291.5" y="-57" font-family="Helvetica,sans-Serif" font-size="10.00">+ ~UDPTransmission()</text>
<text text-anchor="start" x="291.5" y="-46" font-family="Helvetica,sans-Serif" font-size="10.00">+ transmitData()</text>
<text text-anchor="start" x="291.5" y="-35" font-family="Helvetica,sans-Serif" font-size="10.00">&#45; parseData()</text>
<text text-anchor="start" x="291.5" y="-24" font-family="Helvetica,sans-Serif" font-size="10.00">&#45; parseTime()</text>
</a>
</g>
</g>
<!-- Node1&#45;&gt;Node4 -->
<g id="edge3" class="edge">
<title>Node1&#45;&gt;Node4</title>
<path fill="none" stroke="midnightblue" d="M257.36,-163.45C270.7,-148.4 284.75,-132.54 297.47,-118.19"/>
<polygon fill="none" stroke="midnightblue" points="254.48,-161.43 250.47,-171.24 259.72,-166.08 254.48,-161.43"/>
</g>
</g>
</svg>
