<?xml version="1.0" encoding="UTF-8" standalone="no"?>
<!DOCTYPE svg PUBLIC "-//W3C//DTD SVG 1.1//EN"
 "http://www.w3.org/Graphics/SVG/1.1/DTD/svg11.dtd">
<!-- Generated by graphviz version 4.0.0 (20220529.0937)
 -->
<!-- Title: UDPTransmission Pages: 1 -->
<svg width="128pt" height="365pt"
 viewBox="0.00 0.00 128.00 365.00" xmlns="http://www.w3.org/2000/svg" xmlns:xlink="http://www.w3.org/1999/xlink">
<g id="graph0" class="graph" transform="scale(1 1) rotate(0) translate(4 361)">
<title>UDPTransmission</title>
<polygon fill="white" stroke="transparent" points="-4,4 -4,-361 124,-361 124,4 -4,4"/>
<!-- Node1 -->
<g id="node1" class="node">
<title>Node1</title>
<g id="a_node1"><a xlink:title="UDP / HTTP post transmission.">
<polygon fill="#bfbfbf" stroke="black" points="1,-0.5 1,-101.5 117,-101.5 117,-0.5 1,-0.5"/>
<text text-anchor="middle" x="59" y="-89.5" font-family="Helvetica,sans-Serif" font-size="10.00">UDPTransmission</text>
<polyline fill="none" stroke="black" points="1,-82.5 117,-82.5 "/>
<text text-anchor="start" x="9" y="-70.5" font-family="Helvetica,sans-Serif" font-size="10.00">&#45; _httpClient</text>
<polyline fill="none" stroke="black" points="1,-63.5 117,-63.5 "/>
<text text-anchor="start" x="9" y="-51.5" font-family="Helvetica,sans-Serif" font-size="10.00">+ UDPTransmission()</text>
<text text-anchor="start" x="9" y="-40.5" font-family="Helvetica,sans-Serif" font-size="10.00">+ ~UDPTransmission()</text>
<text text-anchor="start" x="9" y="-29.5" font-family="Helvetica,sans-Serif" font-size="10.00">+ transmitData()</text>
<text text-anchor="start" x="9" y="-18.5" font-family="Helvetica,sans-Serif" font-size="10.00">&#45; parseData()</text>
<text text-anchor="start" x="9" y="-7.5" font-family="Helvetica,sans-Serif" font-size="10.00">&#45; parseTime()</text>
</a>
</g>
</g>
<!-- Node2 -->
<g id="node2" class="node">
<title>Node2</title>
<g id="a_node2"><a xlink:href="class_transmission_base.html" target="_top" xlink:title="Base class for sending data to one of the endpoints.">
<polygon fill="white" stroke="black" points="0,-139.5 0,-240.5 118,-240.5 118,-139.5 0,-139.5"/>
<text text-anchor="middle" x="59" y="-228.5" font-family="Helvetica,sans-Serif" font-size="10.00">TransmissionBase</text>
<polyline fill="none" stroke="black" points="0,-221.5 118,-221.5 "/>
<text text-anchor="start" x="8" y="-209.5" font-family="Helvetica,sans-Serif" font-size="10.00"># _parsedData</text>
<polyline fill="none" stroke="black" points="0,-202.5 118,-202.5 "/>
<text text-anchor="start" x="8" y="-190.5" font-family="Helvetica,sans-Serif" font-size="10.00">+ TransmissionBase()</text>
<text text-anchor="start" x="8" y="-179.5" font-family="Helvetica,sans-Serif" font-size="10.00">+ ~TransmissionBase()</text>
<text text-anchor="start" x="8" y="-168.5" font-family="Helvetica,sans-Serif" font-size="10.00">+ transmitData()</text>
<text text-anchor="start" x="8" y="-157.5" font-family="Helvetica,sans-Serif" font-size="10.00">+ close()</text>
<text text-anchor="start" x="8" y="-146.5" font-family="Helvetica,sans-Serif" font-size="10.00">&#45; parseData()</text>
</a>
</g>
</g>
<!-- Node2&#45;&gt;Node1 -->
<g id="edge1" class="edge">
<title>Node2&#45;&gt;Node1</title>
<path fill="none" stroke="midnightblue" d="M59,-128.95C59,-119.81 59,-110.47 59,-101.58"/>
<polygon fill="none" stroke="midnightblue" points="55.5,-129.15 59,-139.15 62.5,-129.15 55.5,-129.15"/>
</g>
<!-- Node3 -->
<g id="node3" class="node">
<title>Node3</title>
<g id="a_node3"><a xlink:href="struct_data_object.html" target="_top" xlink:title="Data object.">
<polygon fill="white" stroke="black" points="23.5,-288.5 23.5,-356.5 94.5,-356.5 94.5,-288.5 23.5,-288.5"/>
<text text-anchor="middle" x="59" y="-344.5" font-family="Helvetica,sans-Serif" font-size="10.00">DataObject</text>
<polyline fill="none" stroke="black" points="23.5,-337.5 94.5,-337.5 "/>
<text text-anchor="start" x="31.5" y="-325.5" font-family="Helvetica,sans-Serif" font-size="10.00">+ timestamp</text>
<text text-anchor="start" x="31.5" y="-314.5" font-family="Helvetica,sans-Serif" font-size="10.00">+ items</text>
<polyline fill="none" stroke="black" points="23.5,-307.5 94.5,-307.5 "/>
<text text-anchor="middle" x="59" y="-295.5" font-family="Helvetica,sans-Serif" font-size="10.00"> </text>
</a>
</g>
</g>
<!-- Node3&#45;&gt;Node2 -->
<g id="edge2" class="edge">
<title>Node3&#45;&gt;Node2</title>
<path fill="none" stroke="#404040" d="M59,-288.23C59,-277.47 59,-265.17 59,-253.02"/>
<polygon fill="none" stroke="#404040" points="59,-252.98 55,-246.98 59,-240.98 63,-246.98 59,-252.98"/>
<text text-anchor="middle" x="89.5" y="-262" font-family="Helvetica,sans-Serif" font-size="10.00"> #_dataObject</text>
</g>
</g>
</svg>
