<?xml version="1.0" encoding="UTF-8" standalone="no"?>
<!DOCTYPE svg PUBLIC "-//W3C//DTD SVG 1.1//EN"
 "http://www.w3.org/Graphics/SVG/1.1/DTD/svg11.dtd">
<!-- Generated by graphviz version 4.0.0 (20220529.0937)
 -->
<!-- Title: D:/OneDrive &#45; Avans Hogeschool/Minor/PRO Smart Roofs/Software/GreenRoof_Base/include/Settings/config.h Pages: 1 -->
<svg width="1758pt" height="672pt"
 viewBox="0.00 0.00 1757.50 672.00" xmlns="http://www.w3.org/2000/svg" xmlns:xlink="http://www.w3.org/1999/xlink">
<g id="graph0" class="graph" transform="scale(1 1) rotate(0) translate(4 668)">
<title>D:/OneDrive &#45; Avans Hogeschool/Minor/PRO Smart Roofs/Software/GreenRoof_Base/include/Settings/config.h</title>
<polygon fill="white" stroke="transparent" points="-4,4 -4,-668 1753.5,-668 1753.5,4 -4,4"/>
<!-- Node1 -->
<g id="node1" class="node">
<title>Node1</title>
<g id="a_node1"><a xlink:title="System configuration.">
<polygon fill="#bfbfbf" stroke="black" points="752.5,-600.5 752.5,-663.5 879.5,-663.5 879.5,-600.5 752.5,-600.5"/>
<text text-anchor="start" x="760.5" y="-651.5" font-family="Helvetica,sans-Serif" font-size="10.00">D:/OneDrive &#45; Avans</text>
<text text-anchor="start" x="760.5" y="-640.5" font-family="Helvetica,sans-Serif" font-size="10.00"> Hogeschool/Minor/PRO</text>
<text text-anchor="start" x="760.5" y="-629.5" font-family="Helvetica,sans-Serif" font-size="10.00"> Smart Roofs/Software</text>
<text text-anchor="start" x="760.5" y="-618.5" font-family="Helvetica,sans-Serif" font-size="10.00">/GreenRoof_Base/include</text>
<text text-anchor="middle" x="816" y="-607.5" font-family="Helvetica,sans-Serif" font-size="10.00">/Settings/config.h</text>
</a>
</g>
</g>
<!-- Node2 -->
<g id="node2" class="node">
<title>Node2</title>
<g id="a_node2"><a xlink:href="_data_object_8h.html" target="_top" xlink:title="Data objects used for sensor data storage.">
<polygon fill="white" stroke="black" points="290.5,-500.5 290.5,-563.5 417.5,-563.5 417.5,-500.5 290.5,-500.5"/>
<text text-anchor="start" x="298.5" y="-551.5" font-family="Helvetica,sans-Serif" font-size="10.00">D:/OneDrive &#45; Avans</text>
<text text-anchor="start" x="298.5" y="-540.5" font-family="Helvetica,sans-Serif" font-size="10.00"> Hogeschool/Minor/PRO</text>
<text text-anchor="start" x="298.5" y="-529.5" font-family="Helvetica,sans-Serif" font-size="10.00"> Smart Roofs/Software</text>
<text text-anchor="start" x="298.5" y="-518.5" font-family="Helvetica,sans-Serif" font-size="10.00">/GreenRoof_Base/include</text>
<text text-anchor="middle" x="354" y="-507.5" font-family="Helvetica,sans-Serif" font-size="10.00">/DataObject.h</text>
</a>
</g>
</g>
<!-- Node1&#45;&gt;Node2 -->
<g id="edge1" class="edge">
<title>Node1&#45;&gt;Node2</title>
<path fill="none" stroke="midnightblue" d="M742.03,-622.68C663.96,-612.84 537.79,-593.91 432,-564 427.37,-562.69 422.64,-561.21 417.91,-559.61"/>
<polygon fill="midnightblue" stroke="midnightblue" points="741.89,-626.19 752.25,-623.95 742.76,-619.24 741.89,-626.19"/>
</g>
<!-- Node3 -->
<g id="node3" class="node">
<title>Node3</title>
<g id="a_node3"><a xlink:href="_data_publisher_8h.html" target="_top" xlink:title="Data parser and management for transmission and storage of sensor data.">
<polygon fill="white" stroke="black" points="210.5,-200.5 210.5,-263.5 337.5,-263.5 337.5,-200.5 210.5,-200.5"/>
<text text-anchor="start" x="218.5" y="-251.5" font-family="Helvetica,sans-Serif" font-size="10.00">D:/OneDrive &#45; Avans</text>
<text text-anchor="start" x="218.5" y="-240.5" font-family="Helvetica,sans-Serif" font-size="10.00"> Hogeschool/Minor/PRO</text>
<text text-anchor="start" x="218.5" y="-229.5" font-family="Helvetica,sans-Serif" font-size="10.00"> Smart Roofs/Software</text>
<text text-anchor="start" x="218.5" y="-218.5" font-family="Helvetica,sans-Serif" font-size="10.00">/GreenRoof_Base/include</text>
<text text-anchor="middle" x="274" y="-207.5" font-family="Helvetica,sans-Serif" font-size="10.00">/DataPublisher.h</text>
</a>
</g>
</g>
<!-- Node1&#45;&gt;Node3 -->
<g id="edge24" class="edge">
<title>Node1&#45;&gt;Node3</title>
<path fill="none" stroke="midnightblue" d="M742.19,-626.89C603.04,-618.41 313.03,-596.95 282,-564 203.97,-481.15 241.86,-328.45 263.03,-263.51"/>
<polygon fill="midnightblue" stroke="midnightblue" points="742.16,-630.39 752.35,-627.5 742.58,-623.41 742.16,-630.39"/>
</g>
<!-- Node5 -->
<g id="node5" class="node">
<title>Node5</title>
<g id="a_node5"><a xlink:href="main_8cpp.html" target="_top" xlink:title="Main runnable.">
<polygon fill="white" stroke="black" points="757,-6 757,-58 909,-58 909,-6 757,-6"/>
<text text-anchor="start" x="765" y="-46" font-family="Helvetica,sans-Serif" font-size="10.00">D:/OneDrive &#45; Avans</text>
<text text-anchor="start" x="765" y="-35" font-family="Helvetica,sans-Serif" font-size="10.00"> Hogeschool/Minor/PRO</text>
<text text-anchor="start" x="765" y="-24" font-family="Helvetica,sans-Serif" font-size="10.00"> Smart Roofs/Software</text>
<text text-anchor="middle" x="833" y="-13" font-family="Helvetica,sans-Serif" font-size="10.00">/GreenRoof_Base/src/main.cpp</text>
</a>
</g>
</g>
<!-- Node1&#45;&gt;Node5 -->
<g id="edge50" class="edge">
<title>Node1&#45;&gt;Node5</title>
<path fill="none" stroke="midnightblue" d="M816,-590.31C816,-550.28 816,-487.43 816,-433 816,-433 816,-433 816,-231 816,-168.72 824.45,-95.83 829.44,-58.26"/>
<polygon fill="midnightblue" stroke="midnightblue" points="812.5,-590.47 816,-600.47 819.5,-590.47 812.5,-590.47"/>
</g>
<!-- Node9 -->
<g id="node9" class="node">
<title>Node9</title>
<g id="a_node9"><a xlink:href="_data_store_8h.html" target="_top" xlink:title="Local data storage object.">
<polygon fill="white" stroke="black" points="290.5,-300.5 290.5,-363.5 417.5,-363.5 417.5,-300.5 290.5,-300.5"/>
<text text-anchor="start" x="298.5" y="-351.5" font-family="Helvetica,sans-Serif" font-size="10.00">D:/OneDrive &#45; Avans</text>
<text text-anchor="start" x="298.5" y="-340.5" font-family="Helvetica,sans-Serif" font-size="10.00"> Hogeschool/Minor/PRO</text>
<text text-anchor="start" x="298.5" y="-329.5" font-family="Helvetica,sans-Serif" font-size="10.00"> Smart Roofs/Software</text>
<text text-anchor="start" x="298.5" y="-318.5" font-family="Helvetica,sans-Serif" font-size="10.00">/GreenRoof_Base/include</text>
<text text-anchor="middle" x="354" y="-307.5" font-family="Helvetica,sans-Serif" font-size="10.00">/DataStore.h</text>
</a>
</g>
</g>
<!-- Node1&#45;&gt;Node9 -->
<g id="edge25" class="edge">
<title>Node1&#45;&gt;Node9</title>
<path fill="none" stroke="midnightblue" d="M742.6,-608.11C667.29,-582.01 549.63,-533.74 466,-464 430.15,-434.11 396.4,-392 375.51,-363.67"/>
<polygon fill="midnightblue" stroke="midnightblue" points="741.89,-611.57 752.48,-611.49 744.16,-604.94 741.89,-611.57"/>
</g>
<!-- Node10 -->
<g id="node10" class="node">
<title>Node10</title>
<g id="a_node10"><a xlink:href="_transmission_base_8h.html" target="_top" xlink:title="Transmission base object.">
<polygon fill="white" stroke="black" points="474.5,-400.5 474.5,-463.5 623.5,-463.5 623.5,-400.5 474.5,-400.5"/>
<text text-anchor="start" x="482.5" y="-451.5" font-family="Helvetica,sans-Serif" font-size="10.00">D:/OneDrive &#45; Avans</text>
<text text-anchor="start" x="482.5" y="-440.5" font-family="Helvetica,sans-Serif" font-size="10.00"> Hogeschool/Minor/PRO</text>
<text text-anchor="start" x="482.5" y="-429.5" font-family="Helvetica,sans-Serif" font-size="10.00"> Smart Roofs/Software</text>
<text text-anchor="start" x="482.5" y="-418.5" font-family="Helvetica,sans-Serif" font-size="10.00">/GreenRoof_Base/include</text>
<text text-anchor="middle" x="549" y="-407.5" font-family="Helvetica,sans-Serif" font-size="10.00">/Transmit/TransmissionBase.h</text>
</a>
</g>
</g>
<!-- Node1&#45;&gt;Node10 -->
<g id="edge49" class="edge">
<title>Node1&#45;&gt;Node10</title>
<path fill="none" stroke="midnightblue" d="M766.65,-594.41C715.89,-556.76 637.73,-498.8 590.18,-463.54"/>
<polygon fill="midnightblue" stroke="midnightblue" points="764.75,-597.35 774.87,-600.5 768.92,-591.73 764.75,-597.35"/>
</g>
<!-- Node13 -->
<g id="node13" class="node">
<title>Node13</title>
<g id="a_node13"><a xlink:href="_i_o_t_hub_transmission_8h.html" target="_top" xlink:title="IOT Hub based transmission method.">
<polygon fill="white" stroke="black" points="844,-300.5 844,-363.5 1002,-363.5 1002,-300.5 844,-300.5"/>
<text text-anchor="start" x="852" y="-351.5" font-family="Helvetica,sans-Serif" font-size="10.00">D:/OneDrive &#45; Avans</text>
<text text-anchor="start" x="852" y="-340.5" font-family="Helvetica,sans-Serif" font-size="10.00"> Hogeschool/Minor/PRO</text>
<text text-anchor="start" x="852" y="-329.5" font-family="Helvetica,sans-Serif" font-size="10.00"> Smart Roofs/Software</text>
<text text-anchor="start" x="852" y="-318.5" font-family="Helvetica,sans-Serif" font-size="10.00">/GreenRoof_Base/include</text>
<text text-anchor="middle" x="923" y="-307.5" font-family="Helvetica,sans-Serif" font-size="10.00">/Transmit/IOTHubTransmission.h</text>
</a>
</g>
</g>
<!-- Node1&#45;&gt;Node13 -->
<g id="edge48" class="edge">
<title>Node1&#45;&gt;Node13</title>
<path fill="none" stroke="midnightblue" d="M825.12,-590.31C839.05,-528.72 864.89,-417.16 873,-400 879.02,-387.27 887.65,-374.57 896.06,-363.7"/>
<polygon fill="midnightblue" stroke="midnightblue" points="821.69,-589.58 822.9,-600.1 828.52,-591.12 821.69,-589.58"/>
</g>
<!-- Node17 -->
<g id="node17" class="node">
<title>Node17</title>
<g id="a_node17"><a xlink:href="_one_wire_temperature_bus_8h.html" target="_top" xlink:title="Class for shared bus instance of temperature bus.">
<polygon fill="white" stroke="black" points="1293,-200.5 1293,-263.5 1493,-263.5 1493,-200.5 1293,-200.5"/>
<text text-anchor="start" x="1301" y="-251.5" font-family="Helvetica,sans-Serif" font-size="10.00">D:/OneDrive &#45; Avans</text>
<text text-anchor="start" x="1301" y="-240.5" font-family="Helvetica,sans-Serif" font-size="10.00"> Hogeschool/Minor/PRO</text>
<text text-anchor="start" x="1301" y="-229.5" font-family="Helvetica,sans-Serif" font-size="10.00"> Smart Roofs/Software</text>
<text text-anchor="start" x="1301" y="-218.5" font-family="Helvetica,sans-Serif" font-size="10.00">/GreenRoof_Base/include</text>
<text text-anchor="middle" x="1393" y="-207.5" font-family="Helvetica,sans-Serif" font-size="10.00">/Sensors/Com/OneWireTemperatureBus.h</text>
</a>
</g>
</g>
<!-- Node1&#45;&gt;Node17 -->
<g id="edge26" class="edge">
<title>Node1&#45;&gt;Node17</title>
<path fill="none" stroke="midnightblue" d="M889.65,-622.26C942.64,-613.51 1014.29,-596.47 1070,-564 1207.35,-483.94 1325.46,-329.72 1371.92,-263.94"/>
<polygon fill="midnightblue" stroke="midnightblue" points="888.97,-618.83 879.65,-623.85 890.07,-625.74 888.97,-618.83"/>
</g>
<!-- Node21 -->
<g id="node21" class="node">
<title>Node21</title>
<g id="a_node21"><a xlink:href="_sensor_base_8h.html" target="_top" xlink:title="Sensor base object Interface.">
<polygon fill="white" stroke="black" points="1050.5,-200.5 1050.5,-263.5 1177.5,-263.5 1177.5,-200.5 1050.5,-200.5"/>
<text text-anchor="start" x="1058.5" y="-251.5" font-family="Helvetica,sans-Serif" font-size="10.00">D:/OneDrive &#45; Avans</text>
<text text-anchor="start" x="1058.5" y="-240.5" font-family="Helvetica,sans-Serif" font-size="10.00"> Hogeschool/Minor/PRO</text>
<text text-anchor="start" x="1058.5" y="-229.5" font-family="Helvetica,sans-Serif" font-size="10.00"> Smart Roofs/Software</text>
<text text-anchor="start" x="1058.5" y="-218.5" font-family="Helvetica,sans-Serif" font-size="10.00">/GreenRoof_Base/include</text>
<text text-anchor="middle" x="1114" y="-207.5" font-family="Helvetica,sans-Serif" font-size="10.00">/Sensors/SensorBase.h</text>
</a>
</g>
</g>
<!-- Node1&#45;&gt;Node21 -->
<g id="edge32" class="edge">
<title>Node1&#45;&gt;Node21</title>
<path fill="none" stroke="midnightblue" d="M889.65,-626.64C937.41,-619.92 997.49,-603.51 1035,-564 1115.34,-479.38 1118.74,-328.32 1116.09,-263.7"/>
<polygon fill="midnightblue" stroke="midnightblue" points="889.13,-623.17 879.66,-627.93 890.03,-630.12 889.13,-623.17"/>
</g>
<!-- Node28 -->
<g id="node28" class="node">
<title>Node28</title>
<g id="a_node28"><a xlink:href="_az_io_t_sas_token_8h.html" target="_top" xlink:title=" ">
<polygon fill="white" stroke="black" points="888.5,-500.5 888.5,-563.5 1025.5,-563.5 1025.5,-500.5 888.5,-500.5"/>
<text text-anchor="start" x="896.5" y="-551.5" font-family="Helvetica,sans-Serif" font-size="10.00">D:/OneDrive &#45; Avans</text>
<text text-anchor="start" x="896.5" y="-540.5" font-family="Helvetica,sans-Serif" font-size="10.00"> Hogeschool/Minor/PRO</text>
<text text-anchor="start" x="896.5" y="-529.5" font-family="Helvetica,sans-Serif" font-size="10.00"> Smart Roofs/Software</text>
<text text-anchor="start" x="896.5" y="-518.5" font-family="Helvetica,sans-Serif" font-size="10.00">/GreenRoof_Base/include</text>
<text text-anchor="middle" x="957" y="-507.5" font-family="Helvetica,sans-Serif" font-size="10.00">/Transmit/AzIoTSasToken.h</text>
</a>
</g>
</g>
<!-- Node1&#45;&gt;Node28 -->
<g id="edge45" class="edge">
<title>Node1&#45;&gt;Node28</title>
<path fill="none" stroke="midnightblue" d="M868.66,-594.4C883.24,-584.27 898.9,-573.38 912.93,-563.63"/>
<polygon fill="midnightblue" stroke="midnightblue" points="866.44,-591.68 860.23,-600.26 870.44,-597.43 866.44,-591.68"/>
</g>
<!-- Node2&#45;&gt;Node3 -->
<g id="edge2" class="edge">
<title>Node2&#45;&gt;Node3</title>
<path fill="none" stroke="midnightblue" d="M332.34,-491.54C315.37,-458.52 292.88,-409.62 282,-364 273.97,-330.31 272.65,-290.44 272.91,-263.61"/>
<polygon fill="midnightblue" stroke="midnightblue" points="329.24,-493.16 336.96,-500.41 335.45,-489.93 329.24,-493.16"/>
</g>
<!-- Node4 -->
<g id="node4" class="node">
<title>Node4</title>
<g id="a_node4"><a xlink:href="_measurement_controller_8h.html" target="_top" xlink:title="Main measurement and communication controller.">
<polygon fill="white" stroke="black" points="210,-100.5 210,-163.5 338,-163.5 338,-100.5 210,-100.5"/>
<text text-anchor="start" x="218" y="-151.5" font-family="Helvetica,sans-Serif" font-size="10.00">D:/OneDrive &#45; Avans</text>
<text text-anchor="start" x="218" y="-140.5" font-family="Helvetica,sans-Serif" font-size="10.00"> Hogeschool/Minor/PRO</text>
<text text-anchor="start" x="218" y="-129.5" font-family="Helvetica,sans-Serif" font-size="10.00"> Smart Roofs/Software</text>
<text text-anchor="start" x="218" y="-118.5" font-family="Helvetica,sans-Serif" font-size="10.00">/GreenRoof_Base/include</text>
<text text-anchor="middle" x="274" y="-107.5" font-family="Helvetica,sans-Serif" font-size="10.00">/MeasurementController.h</text>
</a>
</g>
</g>
<!-- Node2&#45;&gt;Node4 -->
<g id="edge11" class="edge">
<title>Node2&#45;&gt;Node4</title>
<path fill="none" stroke="midnightblue" d="M312.65,-493C304.18,-484.01 295.79,-474.08 289,-464 234.78,-383.43 220.98,-359.03 201,-264 195.15,-236.16 189.55,-226.04 201,-200 207.09,-186.14 217.62,-173.89 228.82,-163.79"/>
<polygon fill="midnightblue" stroke="midnightblue" points="310.27,-495.58 319.75,-500.32 315.3,-490.71 310.27,-495.58"/>
</g>
<!-- Node2&#45;&gt;Node9 -->
<g id="edge8" class="edge">
<title>Node2&#45;&gt;Node9</title>
<path fill="none" stroke="midnightblue" d="M354,-490.37C354,-452.73 354,-397.56 354,-363.54"/>
<polygon fill="midnightblue" stroke="midnightblue" points="350.5,-490.5 354,-500.5 357.5,-490.5 350.5,-490.5"/>
</g>
<!-- Node2&#45;&gt;Node10 -->
<g id="edge12" class="edge">
<title>Node2&#45;&gt;Node10</title>
<path fill="none" stroke="midnightblue" d="M424.08,-495.78C445.06,-485.23 467.9,-473.76 488.23,-463.54"/>
<polygon fill="midnightblue" stroke="midnightblue" points="422.26,-492.78 414.9,-500.4 425.4,-499.03 422.26,-492.78"/>
</g>
<!-- Node3&#45;&gt;Node4 -->
<g id="edge3" class="edge">
<title>Node3&#45;&gt;Node4</title>
<path fill="none" stroke="midnightblue" d="M274,-190.1C274,-181.24 274,-172.01 274,-163.63"/>
<polygon fill="midnightblue" stroke="midnightblue" points="270.5,-190.26 274,-200.26 277.5,-190.26 270.5,-190.26"/>
</g>
<!-- Node7 -->
<g id="node7" class="node">
<title>Node7</title>
<g id="a_node7"><a xlink:href="_data_publisher_8cpp.html" target="_top" xlink:title="Data parser and management for transmission and storage of sensor data.">
<polygon fill="white" stroke="black" points="0,-106 0,-158 192,-158 192,-106 0,-106"/>
<text text-anchor="start" x="8" y="-146" font-family="Helvetica,sans-Serif" font-size="10.00">D:/OneDrive &#45; Avans</text>
<text text-anchor="start" x="8" y="-135" font-family="Helvetica,sans-Serif" font-size="10.00"> Hogeschool/Minor/PRO</text>
<text text-anchor="start" x="8" y="-124" font-family="Helvetica,sans-Serif" font-size="10.00"> Smart Roofs/Software</text>
<text text-anchor="middle" x="96" y="-113" font-family="Helvetica,sans-Serif" font-size="10.00">/GreenRoof_Base/src/DataPublisher.cpp</text>
</a>
</g>
</g>
<!-- Node3&#45;&gt;Node7 -->
<g id="edge6" class="edge">
<title>Node3&#45;&gt;Node7</title>
<path fill="none" stroke="midnightblue" d="M209.35,-195.4C186.85,-183.02 162.12,-169.4 141.51,-158.05"/>
<polygon fill="midnightblue" stroke="midnightblue" points="207.72,-198.5 218.17,-200.26 211.1,-192.37 207.72,-198.5"/>
</g>
<!-- Node8 -->
<g id="node8" class="node">
<title>Node8</title>
<g id="a_node8"><a xlink:href="_data_store_8cpp.html" target="_top" xlink:title="Local data storage object.">
<polygon fill="white" stroke="black" points="356.5,-106 356.5,-158 531.5,-158 531.5,-106 356.5,-106"/>
<text text-anchor="start" x="364.5" y="-146" font-family="Helvetica,sans-Serif" font-size="10.00">D:/OneDrive &#45; Avans</text>
<text text-anchor="start" x="364.5" y="-135" font-family="Helvetica,sans-Serif" font-size="10.00"> Hogeschool/Minor/PRO</text>
<text text-anchor="start" x="364.5" y="-124" font-family="Helvetica,sans-Serif" font-size="10.00"> Smart Roofs/Software</text>
<text text-anchor="middle" x="444" y="-113" font-family="Helvetica,sans-Serif" font-size="10.00">/GreenRoof_Base/src/DataStore.cpp</text>
</a>
</g>
</g>
<!-- Node3&#45;&gt;Node8 -->
<g id="edge7" class="edge">
<title>Node3&#45;&gt;Node8</title>
<path fill="none" stroke="midnightblue" d="M336.03,-195.24C357.44,-182.9 380.94,-169.35 400.54,-158.05"/>
<polygon fill="midnightblue" stroke="midnightblue" points="334.24,-192.23 327.32,-200.26 337.73,-198.3 334.24,-192.23"/>
</g>
<!-- Node4&#45;&gt;Node5 -->
<g id="edge4" class="edge">
<title>Node4&#45;&gt;Node5</title>
<path fill="none" stroke="midnightblue" d="M347.7,-100.08C347.8,-100.06 347.9,-100.03 348,-100 489.23,-61.37 659.98,-44.39 756.58,-37.42"/>
<polygon fill="midnightblue" stroke="midnightblue" points="346.79,-96.7 338.23,-102.94 348.81,-103.4 346.79,-96.7"/>
</g>
<!-- Node6 -->
<g id="node6" class="node">
<title>Node6</title>
<g id="a_node6"><a xlink:href="_measurement_controller_8cpp.html" target="_top" xlink:title="Main measurement and communication controller.">
<polygon fill="white" stroke="black" points="188,-0.5 188,-63.5 360,-63.5 360,-0.5 188,-0.5"/>
<text text-anchor="start" x="196" y="-51.5" font-family="Helvetica,sans-Serif" font-size="10.00">D:/OneDrive &#45; Avans</text>
<text text-anchor="start" x="196" y="-40.5" font-family="Helvetica,sans-Serif" font-size="10.00"> Hogeschool/Minor/PRO</text>
<text text-anchor="start" x="196" y="-29.5" font-family="Helvetica,sans-Serif" font-size="10.00"> Smart Roofs/Software</text>
<text text-anchor="start" x="196" y="-18.5" font-family="Helvetica,sans-Serif" font-size="10.00">/GreenRoof_Base/src/Measurement</text>
<text text-anchor="middle" x="274" y="-7.5" font-family="Helvetica,sans-Serif" font-size="10.00">Controller.cpp</text>
</a>
</g>
</g>
<!-- Node4&#45;&gt;Node6 -->
<g id="edge5" class="edge">
<title>Node4&#45;&gt;Node6</title>
<path fill="none" stroke="midnightblue" d="M274,-90.1C274,-81.24 274,-72.01 274,-63.63"/>
<polygon fill="midnightblue" stroke="midnightblue" points="270.5,-90.26 274,-100.26 277.5,-90.26 270.5,-90.26"/>
</g>
<!-- Node9&#45;&gt;Node3 -->
<g id="edge9" class="edge">
<title>Node9&#45;&gt;Node3</title>
<path fill="none" stroke="midnightblue" d="M322.49,-292.4C314.69,-282.85 306.44,-272.74 299,-263.63"/>
<polygon fill="midnightblue" stroke="midnightblue" points="319.87,-294.73 328.91,-300.26 325.29,-290.3 319.87,-294.73"/>
</g>
<!-- Node9&#45;&gt;Node8 -->
<g id="edge10" class="edge">
<title>Node9&#45;&gt;Node8</title>
<path fill="none" stroke="midnightblue" d="M358.43,-290.22C362.57,-263.42 370.41,-228.22 385,-200 392.97,-184.58 405.26,-169.83 416.57,-158.11"/>
<polygon fill="midnightblue" stroke="midnightblue" points="354.92,-290.01 356.97,-300.41 361.85,-291.01 354.92,-290.01"/>
</g>
<!-- Node10&#45;&gt;Node3 -->
<g id="edge13" class="edge">
<title>Node10&#45;&gt;Node3</title>
<path fill="none" stroke="midnightblue" d="M496.47,-393.93C485.39,-384.84 474.27,-374.64 465,-364 443.27,-339.06 451.79,-321.91 427,-300 401.58,-277.53 367.44,-261.6 337.85,-250.93"/>
<polygon fill="midnightblue" stroke="midnightblue" points="494.5,-396.84 504.5,-400.35 498.87,-391.37 494.5,-396.84"/>
</g>
<!-- Node10&#45;&gt;Node9 -->
<g id="edge14" class="edge">
<title>Node10&#45;&gt;Node9</title>
<path fill="none" stroke="midnightblue" d="M478.92,-395.78C457.94,-385.23 435.1,-373.76 414.77,-363.54"/>
<polygon fill="midnightblue" stroke="midnightblue" points="477.6,-399.03 488.1,-400.4 480.74,-392.78 477.6,-399.03"/>
</g>
<!-- Node11 -->
<g id="node11" class="node">
<title>Node11</title>
<g id="a_node11"><a xlink:href="_h_t_t_p_transmission_8h.html" target="_top" xlink:title="Transmission method for HTTP post transfers.">
<polygon fill="white" stroke="black" points="474,-300.5 474,-363.5 624,-363.5 624,-300.5 474,-300.5"/>
<text text-anchor="start" x="482" y="-351.5" font-family="Helvetica,sans-Serif" font-size="10.00">D:/OneDrive &#45; Avans</text>
<text text-anchor="start" x="482" y="-340.5" font-family="Helvetica,sans-Serif" font-size="10.00"> Hogeschool/Minor/PRO</text>
<text text-anchor="start" x="482" y="-329.5" font-family="Helvetica,sans-Serif" font-size="10.00"> Smart Roofs/Software</text>
<text text-anchor="start" x="482" y="-318.5" font-family="Helvetica,sans-Serif" font-size="10.00">/GreenRoof_Base/include</text>
<text text-anchor="middle" x="549" y="-307.5" font-family="Helvetica,sans-Serif" font-size="10.00">/Transmit/HTTPTransmission.h</text>
</a>
</g>
</g>
<!-- Node10&#45;&gt;Node11 -->
<g id="edge15" class="edge">
<title>Node10&#45;&gt;Node11</title>
<path fill="none" stroke="midnightblue" d="M549,-390.1C549,-381.24 549,-372.01 549,-363.63"/>
<polygon fill="midnightblue" stroke="midnightblue" points="545.5,-390.26 549,-400.26 552.5,-390.26 545.5,-390.26"/>
</g>
<!-- Node10&#45;&gt;Node13 -->
<g id="edge18" class="edge">
<title>Node10&#45;&gt;Node13</title>
<path fill="none" stroke="midnightblue" d="M633.7,-408.81C696.73,-392.29 782.16,-369.9 843.83,-353.75"/>
<polygon fill="midnightblue" stroke="midnightblue" points="632.57,-405.48 623.79,-411.4 634.35,-412.25 632.57,-405.48"/>
</g>
<!-- Node15 -->
<g id="node15" class="node">
<title>Node15</title>
<g id="a_node15"><a xlink:href="_u_d_p_transmission_8h.html" target="_top" xlink:title="Transmission class for publishing to Urban Data Platform.">
<polygon fill="white" stroke="black" points="642,-300.5 642,-363.5 788,-363.5 788,-300.5 642,-300.5"/>
<text text-anchor="start" x="650" y="-351.5" font-family="Helvetica,sans-Serif" font-size="10.00">D:/OneDrive &#45; Avans</text>
<text text-anchor="start" x="650" y="-340.5" font-family="Helvetica,sans-Serif" font-size="10.00"> Hogeschool/Minor/PRO</text>
<text text-anchor="start" x="650" y="-329.5" font-family="Helvetica,sans-Serif" font-size="10.00"> Smart Roofs/Software</text>
<text text-anchor="start" x="650" y="-318.5" font-family="Helvetica,sans-Serif" font-size="10.00">/GreenRoof_Base/include</text>
<text text-anchor="middle" x="715" y="-307.5" font-family="Helvetica,sans-Serif" font-size="10.00">/Transmit/UDPTransmission.h</text>
</a>
</g>
</g>
<!-- Node10&#45;&gt;Node15 -->
<g id="edge21" class="edge">
<title>Node10&#45;&gt;Node15</title>
<path fill="none" stroke="midnightblue" d="M610.04,-394.97C627.47,-384.68 646.29,-373.56 663.12,-363.63"/>
<polygon fill="midnightblue" stroke="midnightblue" points="607.9,-392.16 601.07,-400.26 611.46,-398.19 607.9,-392.16"/>
</g>
<!-- Node11&#45;&gt;Node5 -->
<g id="edge16" class="edge">
<title>Node11&#45;&gt;Node5</title>
<path fill="none" stroke="midnightblue" d="M554.98,-290.23C560.64,-262.64 571.31,-226.53 591,-200 639.75,-134.31 722.3,-85.43 777.22,-58.04"/>
<polygon fill="midnightblue" stroke="midnightblue" points="551.49,-289.87 553.05,-300.34 558.36,-291.18 551.49,-289.87"/>
</g>
<!-- Node12 -->
<g id="node12" class="node">
<title>Node12</title>
<g id="a_node12"><a xlink:href="_h_t_t_p_transmission_8cpp.html" target="_top" xlink:title="Transmission method for HTTP post transfers.">
<polygon fill="white" stroke="black" points="394,-200.5 394,-263.5 544,-263.5 544,-200.5 394,-200.5"/>
<text text-anchor="start" x="402" y="-251.5" font-family="Helvetica,sans-Serif" font-size="10.00">D:/OneDrive &#45; Avans</text>
<text text-anchor="start" x="402" y="-240.5" font-family="Helvetica,sans-Serif" font-size="10.00"> Hogeschool/Minor/PRO</text>
<text text-anchor="start" x="402" y="-229.5" font-family="Helvetica,sans-Serif" font-size="10.00"> Smart Roofs/Software</text>
<text text-anchor="start" x="402" y="-218.5" font-family="Helvetica,sans-Serif" font-size="10.00">/GreenRoof_Base/src/Transmit</text>
<text text-anchor="middle" x="469" y="-207.5" font-family="Helvetica,sans-Serif" font-size="10.00">/HTTPTransmission.cpp</text>
</a>
</g>
</g>
<!-- Node11&#45;&gt;Node12 -->
<g id="edge17" class="edge">
<title>Node11&#45;&gt;Node12</title>
<path fill="none" stroke="midnightblue" d="M517.49,-292.4C509.69,-282.85 501.44,-272.74 494,-263.63"/>
<polygon fill="midnightblue" stroke="midnightblue" points="514.87,-294.73 523.91,-300.26 520.29,-290.3 514.87,-294.73"/>
</g>
<!-- Node13&#45;&gt;Node5 -->
<g id="edge19" class="edge">
<title>Node13&#45;&gt;Node5</title>
<path fill="none" stroke="midnightblue" d="M980.96,-293.42C989.89,-284.88 997.85,-275.03 1003,-264 1015.03,-238.23 1020.33,-222.56 1003,-200 965.17,-150.76 911.92,-207.9 868,-164 839.78,-135.79 833.58,-87.51 832.62,-58.1"/>
<polygon fill="midnightblue" stroke="midnightblue" points="978.4,-291.01 973.26,-300.28 983.06,-296.24 978.4,-291.01"/>
</g>
<!-- Node14 -->
<g id="node14" class="node">
<title>Node14</title>
<g id="a_node14"><a xlink:href="_i_o_t_hub_transmission_8cpp.html" target="_top" xlink:title="IOT Hub based transmission method.">
<polygon fill="white" stroke="black" points="844,-200.5 844,-263.5 994,-263.5 994,-200.5 844,-200.5"/>
<text text-anchor="start" x="852" y="-251.5" font-family="Helvetica,sans-Serif" font-size="10.00">D:/OneDrive &#45; Avans</text>
<text text-anchor="start" x="852" y="-240.5" font-family="Helvetica,sans-Serif" font-size="10.00"> Hogeschool/Minor/PRO</text>
<text text-anchor="start" x="852" y="-229.5" font-family="Helvetica,sans-Serif" font-size="10.00"> Smart Roofs/Software</text>
<text text-anchor="start" x="852" y="-218.5" font-family="Helvetica,sans-Serif" font-size="10.00">/GreenRoof_Base/src/Transmit</text>
<text text-anchor="middle" x="919" y="-207.5" font-family="Helvetica,sans-Serif" font-size="10.00">/IOTHubTransmission.cpp</text>
</a>
</g>
</g>
<!-- Node13&#45;&gt;Node14 -->
<g id="edge20" class="edge">
<title>Node13&#45;&gt;Node14</title>
<path fill="none" stroke="midnightblue" d="M921.33,-290.1C920.97,-281.24 920.59,-272.01 920.25,-263.63"/>
<polygon fill="midnightblue" stroke="midnightblue" points="917.84,-290.41 921.75,-300.26 924.83,-290.13 917.84,-290.41"/>
</g>
<!-- Node15&#45;&gt;Node5 -->
<g id="edge22" class="edge">
<title>Node15&#45;&gt;Node5</title>
<path fill="none" stroke="midnightblue" d="M743.86,-291.64C749.44,-282.85 754.84,-273.34 759,-264 789.64,-195.16 776.52,-170.92 802,-100 807.11,-85.77 814.1,-70.42 820.14,-58.01"/>
<polygon fill="midnightblue" stroke="midnightblue" points="740.82,-289.9 738.26,-300.18 746.67,-293.74 740.82,-289.9"/>
</g>
<!-- Node16 -->
<g id="node16" class="node">
<title>Node16</title>
<g id="a_node16"><a xlink:href="_u_d_p_transmission_8cpp.html" target="_top" xlink:title="Transmission class for publishing to Urban Data Platform.">
<polygon fill="white" stroke="black" points="600,-200.5 600,-263.5 750,-263.5 750,-200.5 600,-200.5"/>
<text text-anchor="start" x="608" y="-251.5" font-family="Helvetica,sans-Serif" font-size="10.00">D:/OneDrive &#45; Avans</text>
<text text-anchor="start" x="608" y="-240.5" font-family="Helvetica,sans-Serif" font-size="10.00"> Hogeschool/Minor/PRO</text>
<text text-anchor="start" x="608" y="-229.5" font-family="Helvetica,sans-Serif" font-size="10.00"> Smart Roofs/Software</text>
<text text-anchor="start" x="608" y="-218.5" font-family="Helvetica,sans-Serif" font-size="10.00">/GreenRoof_Base/src/Transmit</text>
<text text-anchor="middle" x="675" y="-207.5" font-family="Helvetica,sans-Serif" font-size="10.00">/UDPTransmission.cpp</text>
</a>
</g>
</g>
<!-- Node15&#45;&gt;Node16 -->
<g id="edge23" class="edge">
<title>Node15&#45;&gt;Node16</title>
<path fill="none" stroke="midnightblue" d="M698.66,-290.96C694.93,-281.84 691.04,-272.29 687.5,-263.63"/>
<polygon fill="midnightblue" stroke="midnightblue" points="695.43,-292.33 702.45,-300.26 701.91,-289.68 695.43,-292.33"/>
</g>
<!-- Node17&#45;&gt;Node5 -->
<g id="edge30" class="edge">
<title>Node17&#45;&gt;Node5</title>
<path fill="none" stroke="midnightblue" d="M1305.48,-195.73C1289.29,-186.85 1273.31,-176.28 1260,-164 1235.52,-141.42 1249.02,-118.01 1221,-100 1107.28,-26.93 1050.54,-95.12 919,-64 912.05,-62.36 904.89,-60.33 897.8,-58.11"/>
<polygon fill="midnightblue" stroke="midnightblue" points="1304.01,-198.91 1314.49,-200.5 1307.28,-192.73 1304.01,-198.91"/>
</g>
<!-- Node18 -->
<g id="node18" class="node">
<title>Node18</title>
<g id="a_node18"><a xlink:href="_d_s18_b20_sensor_8h.html" target="_top" xlink:title=" ">
<polygon fill="white" stroke="black" points="1421.5,-100.5 1421.5,-163.5 1560.5,-163.5 1560.5,-100.5 1421.5,-100.5"/>
<text text-anchor="start" x="1429.5" y="-151.5" font-family="Helvetica,sans-Serif" font-size="10.00">D:/OneDrive &#45; Avans</text>
<text text-anchor="start" x="1429.5" y="-140.5" font-family="Helvetica,sans-Serif" font-size="10.00"> Hogeschool/Minor/PRO</text>
<text text-anchor="start" x="1429.5" y="-129.5" font-family="Helvetica,sans-Serif" font-size="10.00"> Smart Roofs/Software</text>
<text text-anchor="start" x="1429.5" y="-118.5" font-family="Helvetica,sans-Serif" font-size="10.00">/GreenRoof_Base/include</text>
<text text-anchor="middle" x="1491" y="-107.5" font-family="Helvetica,sans-Serif" font-size="10.00">/Sensors/DS18B20Sensor.h</text>
</a>
</g>
</g>
<!-- Node17&#45;&gt;Node18 -->
<g id="edge27" class="edge">
<title>Node17&#45;&gt;Node18</title>
<path fill="none" stroke="midnightblue" d="M1431.03,-192.97C1440.75,-183.25 1451.07,-172.93 1460.37,-163.63"/>
<polygon fill="midnightblue" stroke="midnightblue" points="1428.34,-190.72 1423.74,-200.26 1433.28,-195.66 1428.34,-190.72"/>
</g>
<!-- Node20 -->
<g id="node20" class="node">
<title>Node20</title>
<g id="a_node20"><a xlink:href="_one_wire_temperature_bus_8cpp.html" target="_top" xlink:title="Class for shared bus instance of temperature bus.">
<polygon fill="white" stroke="black" points="1578.5,-100.5 1578.5,-163.5 1749.5,-163.5 1749.5,-100.5 1578.5,-100.5"/>
<text text-anchor="start" x="1586.5" y="-151.5" font-family="Helvetica,sans-Serif" font-size="10.00">D:/OneDrive &#45; Avans</text>
<text text-anchor="start" x="1586.5" y="-140.5" font-family="Helvetica,sans-Serif" font-size="10.00"> Hogeschool/Minor/PRO</text>
<text text-anchor="start" x="1586.5" y="-129.5" font-family="Helvetica,sans-Serif" font-size="10.00"> Smart Roofs/Software</text>
<text text-anchor="start" x="1586.5" y="-118.5" font-family="Helvetica,sans-Serif" font-size="10.00">/GreenRoof_Base/src/Sensors</text>
<text text-anchor="middle" x="1664" y="-107.5" font-family="Helvetica,sans-Serif" font-size="10.00">/Com/OneWireTemperatureBus.cpp</text>
</a>
</g>
</g>
<!-- Node17&#45;&gt;Node20 -->
<g id="edge31" class="edge">
<title>Node17&#45;&gt;Node20</title>
<path fill="none" stroke="midnightblue" d="M1487.26,-196.91C1517.28,-186.06 1550.27,-174.13 1579.54,-163.54"/>
<polygon fill="midnightblue" stroke="midnightblue" points="1485.85,-193.7 1477.63,-200.4 1488.23,-200.29 1485.85,-193.7"/>
</g>
<!-- Node18&#45;&gt;Node5 -->
<g id="edge28" class="edge">
<title>Node18&#45;&gt;Node5</title>
<path fill="none" stroke="midnightblue" d="M1411.16,-99.82C1196.46,-52.54 1131.07,-109.06 919,-64 911.55,-62.42 903.87,-60.34 896.31,-58"/>
<polygon fill="midnightblue" stroke="midnightblue" points="1410.64,-103.29 1421.16,-102.08 1412.18,-96.47 1410.64,-103.29"/>
</g>
<!-- Node19 -->
<g id="node19" class="node">
<title>Node19</title>
<g id="a_node19"><a xlink:href="_d_s18_b20_sensor_8cpp.html" target="_top" xlink:title="Temperature sensor class.">
<polygon fill="white" stroke="black" points="1428.5,-0.5 1428.5,-63.5 1577.5,-63.5 1577.5,-0.5 1428.5,-0.5"/>
<text text-anchor="start" x="1436.5" y="-51.5" font-family="Helvetica,sans-Serif" font-size="10.00">D:/OneDrive &#45; Avans</text>
<text text-anchor="start" x="1436.5" y="-40.5" font-family="Helvetica,sans-Serif" font-size="10.00"> Hogeschool/Minor/PRO</text>
<text text-anchor="start" x="1436.5" y="-29.5" font-family="Helvetica,sans-Serif" font-size="10.00"> Smart Roofs/Software</text>
<text text-anchor="start" x="1436.5" y="-18.5" font-family="Helvetica,sans-Serif" font-size="10.00">/GreenRoof_Base/src/Sensors</text>
<text text-anchor="middle" x="1503" y="-7.5" font-family="Helvetica,sans-Serif" font-size="10.00">/DS18B20Sensor.cpp</text>
</a>
</g>
</g>
<!-- Node18&#45;&gt;Node19 -->
<g id="edge29" class="edge">
<title>Node18&#45;&gt;Node19</title>
<path fill="none" stroke="midnightblue" d="M1496.01,-90.1C1497.09,-81.24 1498.22,-72.01 1499.25,-63.63"/>
<polygon fill="midnightblue" stroke="midnightblue" points="1492.51,-89.91 1494.76,-100.26 1499.45,-90.76 1492.51,-89.91"/>
</g>
<!-- Node21&#45;&gt;Node4 -->
<g id="edge33" class="edge">
<title>Node21&#45;&gt;Node4</title>
<path fill="none" stroke="midnightblue" d="M1040.43,-208.05C1028.04,-204.88 1015.23,-202.02 1003,-200 715.34,-152.51 632.15,-229.28 348,-164 344.74,-163.25 341.44,-162.37 338.14,-161.39"/>
<polygon fill="midnightblue" stroke="midnightblue" points="1039.7,-211.47 1050.26,-210.65 1041.49,-204.71 1039.7,-211.47"/>
</g>
<!-- Node21&#45;&gt;Node5 -->
<g id="edge44" class="edge">
<title>Node21&#45;&gt;Node5</title>
<path fill="none" stroke="midnightblue" d="M1040.87,-201.7C1039.24,-201.12 1037.61,-200.55 1036,-200 981.72,-181.38 957.5,-198.97 912,-164 902.47,-156.68 866.93,-94.22 846.92,-58.26"/>
<polygon fill="midnightblue" stroke="midnightblue" points="1039.74,-205.01 1050.33,-205.12 1042.12,-198.43 1039.74,-205.01"/>
</g>
<!-- Node21&#45;&gt;Node18 -->
<g id="edge34" class="edge">
<title>Node21&#45;&gt;Node18</title>
<path fill="none" stroke="midnightblue" d="M1187.69,-217.86C1248.73,-206.17 1337.4,-187.33 1413,-164 1415.78,-163.14 1418.61,-162.23 1421.45,-161.27"/>
<polygon fill="midnightblue" stroke="midnightblue" points="1186.93,-214.44 1177.76,-219.74 1188.24,-221.31 1186.93,-214.44"/>
</g>
<!-- Node22 -->
<g id="node22" class="node">
<title>Node22</title>
<g id="a_node22"><a xlink:href="_moisture_sensor_8h.html" target="_top" xlink:title="Moisture sensor class.">
<polygon fill="white" stroke="black" points="1268.5,-100.5 1268.5,-163.5 1403.5,-163.5 1403.5,-100.5 1268.5,-100.5"/>
<text text-anchor="start" x="1276.5" y="-151.5" font-family="Helvetica,sans-Serif" font-size="10.00">D:/OneDrive &#45; Avans</text>
<text text-anchor="start" x="1276.5" y="-140.5" font-family="Helvetica,sans-Serif" font-size="10.00"> Hogeschool/Minor/PRO</text>
<text text-anchor="start" x="1276.5" y="-129.5" font-family="Helvetica,sans-Serif" font-size="10.00"> Smart Roofs/Software</text>
<text text-anchor="start" x="1276.5" y="-118.5" font-family="Helvetica,sans-Serif" font-size="10.00">/GreenRoof_Base/include</text>
<text text-anchor="middle" x="1336" y="-107.5" font-family="Helvetica,sans-Serif" font-size="10.00">/Sensors/MoistureSensor.h</text>
</a>
</g>
</g>
<!-- Node21&#45;&gt;Node22 -->
<g id="edge35" class="edge">
<title>Node21&#45;&gt;Node22</title>
<path fill="none" stroke="midnightblue" d="M1187.08,-198.74C1213.18,-187.22 1242.46,-174.29 1268.11,-162.97"/>
<polygon fill="midnightblue" stroke="midnightblue" points="1185.35,-195.68 1177.62,-202.92 1188.18,-202.08 1185.35,-195.68"/>
</g>
<!-- Node24 -->
<g id="node24" class="node">
<title>Node24</title>
<g id="a_node24"><a xlink:href="_test_sensor_8h.html" target="_top" xlink:title="Test sensor class.">
<polygon fill="white" stroke="black" points="920.5,-100.5 920.5,-163.5 1047.5,-163.5 1047.5,-100.5 920.5,-100.5"/>
<text text-anchor="start" x="928.5" y="-151.5" font-family="Helvetica,sans-Serif" font-size="10.00">D:/OneDrive &#45; Avans</text>
<text text-anchor="start" x="928.5" y="-140.5" font-family="Helvetica,sans-Serif" font-size="10.00"> Hogeschool/Minor/PRO</text>
<text text-anchor="start" x="928.5" y="-129.5" font-family="Helvetica,sans-Serif" font-size="10.00"> Smart Roofs/Software</text>
<text text-anchor="start" x="928.5" y="-118.5" font-family="Helvetica,sans-Serif" font-size="10.00">/GreenRoof_Base/include</text>
<text text-anchor="middle" x="984" y="-107.5" font-family="Helvetica,sans-Serif" font-size="10.00">/Sensors/TestSensor.h</text>
</a>
</g>
</g>
<!-- Node21&#45;&gt;Node24 -->
<g id="edge38" class="edge">
<title>Node21&#45;&gt;Node24</title>
<path fill="none" stroke="midnightblue" d="M1065.07,-194.11C1051.74,-184.06 1037.45,-173.29 1024.63,-163.63"/>
<polygon fill="midnightblue" stroke="midnightblue" points="1063.13,-197.04 1073.22,-200.26 1067.35,-191.45 1063.13,-197.04"/>
</g>
<!-- Node26 -->
<g id="node26" class="node">
<title>Node26</title>
<g id="a_node26"><a xlink:href="_water_level_sensor_8h.html" target="_top" xlink:title="Water level sensor class.">
<polygon fill="white" stroke="black" points="1066,-100.5 1066,-163.5 1212,-163.5 1212,-100.5 1066,-100.5"/>
<text text-anchor="start" x="1074" y="-151.5" font-family="Helvetica,sans-Serif" font-size="10.00">D:/OneDrive &#45; Avans</text>
<text text-anchor="start" x="1074" y="-140.5" font-family="Helvetica,sans-Serif" font-size="10.00"> Hogeschool/Minor/PRO</text>
<text text-anchor="start" x="1074" y="-129.5" font-family="Helvetica,sans-Serif" font-size="10.00"> Smart Roofs/Software</text>
<text text-anchor="start" x="1074" y="-118.5" font-family="Helvetica,sans-Serif" font-size="10.00">/GreenRoof_Base/include</text>
<text text-anchor="middle" x="1139" y="-107.5" font-family="Helvetica,sans-Serif" font-size="10.00">/Sensors/WaterLevelSensor.h</text>
</a>
</g>
</g>
<!-- Node21&#45;&gt;Node26 -->
<g id="edge41" class="edge">
<title>Node21&#45;&gt;Node26</title>
<path fill="none" stroke="midnightblue" d="M1124.36,-190.39C1126.64,-181.44 1129.02,-172.11 1131.19,-163.63"/>
<polygon fill="midnightblue" stroke="midnightblue" points="1120.92,-189.71 1121.84,-200.26 1127.7,-191.44 1120.92,-189.71"/>
</g>
<!-- Node22&#45;&gt;Node5 -->
<g id="edge36" class="edge">
<title>Node22&#45;&gt;Node5</title>
<path fill="none" stroke="midnightblue" d="M1258.47,-101.12C1256.97,-100.73 1255.48,-100.35 1254,-100 1108.34,-65.24 1064.92,-97.63 919,-64 911.89,-62.36 904.55,-60.31 897.31,-58.05"/>
<polygon fill="midnightblue" stroke="midnightblue" points="1257.83,-104.57 1268.4,-103.93 1259.73,-97.84 1257.83,-104.57"/>
</g>
<!-- Node23 -->
<g id="node23" class="node">
<title>Node23</title>
<g id="a_node23"><a xlink:href="_moisture_sensor_8cpp.html" target="_top" xlink:title="Moisture sensor class.">
<polygon fill="white" stroke="black" points="1261.5,-0.5 1261.5,-63.5 1410.5,-63.5 1410.5,-0.5 1261.5,-0.5"/>
<text text-anchor="start" x="1269.5" y="-51.5" font-family="Helvetica,sans-Serif" font-size="10.00">D:/OneDrive &#45; Avans</text>
<text text-anchor="start" x="1269.5" y="-40.5" font-family="Helvetica,sans-Serif" font-size="10.00"> Hogeschool/Minor/PRO</text>
<text text-anchor="start" x="1269.5" y="-29.5" font-family="Helvetica,sans-Serif" font-size="10.00"> Smart Roofs/Software</text>
<text text-anchor="start" x="1269.5" y="-18.5" font-family="Helvetica,sans-Serif" font-size="10.00">/GreenRoof_Base/src/Sensors</text>
<text text-anchor="middle" x="1336" y="-7.5" font-family="Helvetica,sans-Serif" font-size="10.00">/MoistureSensor.cpp</text>
</a>
</g>
</g>
<!-- Node22&#45;&gt;Node23 -->
<g id="edge37" class="edge">
<title>Node22&#45;&gt;Node23</title>
<path fill="none" stroke="midnightblue" d="M1336,-90.1C1336,-81.24 1336,-72.01 1336,-63.63"/>
<polygon fill="midnightblue" stroke="midnightblue" points="1332.5,-90.26 1336,-100.26 1339.5,-90.26 1332.5,-90.26"/>
</g>
<!-- Node24&#45;&gt;Node5 -->
<g id="edge39" class="edge">
<title>Node24&#45;&gt;Node5</title>
<path fill="none" stroke="midnightblue" d="M928.14,-94.74C909.33,-82.54 888.78,-69.2 871.6,-58.05"/>
<polygon fill="midnightblue" stroke="midnightblue" points="926.34,-97.75 936.64,-100.26 930.15,-91.88 926.34,-97.75"/>
</g>
<!-- Node25 -->
<g id="node25" class="node">
<title>Node25</title>
<g id="a_node25"><a xlink:href="_test_sensor_8cpp.html" target="_top" xlink:title="Test sensor class.">
<polygon fill="white" stroke="black" points="927.5,-0.5 927.5,-63.5 1076.5,-63.5 1076.5,-0.5 927.5,-0.5"/>
<text text-anchor="start" x="935.5" y="-51.5" font-family="Helvetica,sans-Serif" font-size="10.00">D:/OneDrive &#45; Avans</text>
<text text-anchor="start" x="935.5" y="-40.5" font-family="Helvetica,sans-Serif" font-size="10.00"> Hogeschool/Minor/PRO</text>
<text text-anchor="start" x="935.5" y="-29.5" font-family="Helvetica,sans-Serif" font-size="10.00"> Smart Roofs/Software</text>
<text text-anchor="start" x="935.5" y="-18.5" font-family="Helvetica,sans-Serif" font-size="10.00">/GreenRoof_Base/src/Sensors</text>
<text text-anchor="middle" x="1002" y="-7.5" font-family="Helvetica,sans-Serif" font-size="10.00">/TestSensor.cpp</text>
</a>
</g>
</g>
<!-- Node24&#45;&gt;Node25 -->
<g id="edge40" class="edge">
<title>Node24&#45;&gt;Node25</title>
<path fill="none" stroke="midnightblue" d="M991.46,-90.39C993.1,-81.44 994.82,-72.11 996.37,-63.63"/>
<polygon fill="midnightblue" stroke="midnightblue" points="988.01,-89.79 989.65,-100.26 994.89,-91.06 988.01,-89.79"/>
</g>
<!-- Node26&#45;&gt;Node5 -->
<g id="edge42" class="edge">
<title>Node26&#45;&gt;Node5</title>
<path fill="none" stroke="midnightblue" d="M1056.04,-99.82C994.83,-80.91 976.59,-81.85 919,-64 913.09,-62.17 906.98,-60.17 900.88,-58.11"/>
<polygon fill="midnightblue" stroke="midnightblue" points="1055.23,-103.23 1065.82,-102.89 1057.33,-96.55 1055.23,-103.23"/>
</g>
<!-- Node27 -->
<g id="node27" class="node">
<title>Node27</title>
<g id="a_node27"><a xlink:href="_water_level_sensor_8cpp.html" target="_top" xlink:title="Water level sensor class.">
<polygon fill="white" stroke="black" points="1094.5,-0.5 1094.5,-63.5 1243.5,-63.5 1243.5,-0.5 1094.5,-0.5"/>
<text text-anchor="start" x="1102.5" y="-51.5" font-family="Helvetica,sans-Serif" font-size="10.00">D:/OneDrive &#45; Avans</text>
<text text-anchor="start" x="1102.5" y="-40.5" font-family="Helvetica,sans-Serif" font-size="10.00"> Hogeschool/Minor/PRO</text>
<text text-anchor="start" x="1102.5" y="-29.5" font-family="Helvetica,sans-Serif" font-size="10.00"> Smart Roofs/Software</text>
<text text-anchor="start" x="1102.5" y="-18.5" font-family="Helvetica,sans-Serif" font-size="10.00">/GreenRoof_Base/src/Sensors</text>
<text text-anchor="middle" x="1169" y="-7.5" font-family="Helvetica,sans-Serif" font-size="10.00">/WaterLevelSensor.cpp</text>
</a>
</g>
</g>
<!-- Node26&#45;&gt;Node27 -->
<g id="edge43" class="edge">
<title>Node26&#45;&gt;Node27</title>
<path fill="none" stroke="midnightblue" d="M1151.34,-90.68C1154.11,-81.64 1157,-72.2 1159.62,-63.63"/>
<polygon fill="midnightblue" stroke="midnightblue" points="1147.99,-89.67 1148.41,-100.26 1154.68,-91.72 1147.99,-89.67"/>
</g>
<!-- Node28&#45;&gt;Node13 -->
<g id="edge46" class="edge">
<title>Node28&#45;&gt;Node13</title>
<path fill="none" stroke="midnightblue" d="M1017.85,-493.81C1027.22,-485.24 1035.57,-475.27 1041,-464 1053.34,-438.37 1055.31,-424.58 1041,-400 1031.87,-384.32 1017.56,-372.02 1002.01,-362.47"/>
<polygon fill="midnightblue" stroke="midnightblue" points="1015.49,-491.22 1010.16,-500.38 1020.04,-496.54 1015.49,-491.22"/>
</g>
<!-- Node29 -->
<g id="node29" class="node">
<title>Node29</title>
<g id="a_node29"><a xlink:href="_az_io_t_sas_token_8cpp.html" target="_top" xlink:title=" ">
<polygon fill="white" stroke="black" points="882,-400.5 882,-463.5 1032,-463.5 1032,-400.5 882,-400.5"/>
<text text-anchor="start" x="890" y="-451.5" font-family="Helvetica,sans-Serif" font-size="10.00">D:/OneDrive &#45; Avans</text>
<text text-anchor="start" x="890" y="-440.5" font-family="Helvetica,sans-Serif" font-size="10.00"> Hogeschool/Minor/PRO</text>
<text text-anchor="start" x="890" y="-429.5" font-family="Helvetica,sans-Serif" font-size="10.00"> Smart Roofs/Software</text>
<text text-anchor="start" x="890" y="-418.5" font-family="Helvetica,sans-Serif" font-size="10.00">/GreenRoof_Base/src/Transmit</text>
<text text-anchor="middle" x="957" y="-407.5" font-family="Helvetica,sans-Serif" font-size="10.00">/AzIoTSasToken.cpp</text>
</a>
</g>
</g>
<!-- Node28&#45;&gt;Node29 -->
<g id="edge47" class="edge">
<title>Node28&#45;&gt;Node29</title>
<path fill="none" stroke="midnightblue" d="M957,-490.1C957,-481.24 957,-472.01 957,-463.63"/>
<polygon fill="midnightblue" stroke="midnightblue" points="953.5,-490.26 957,-500.26 960.5,-490.26 953.5,-490.26"/>
</g>
</g>
</svg>
