<?xml version="1.0" encoding="UTF-8" standalone="no"?>
<!DOCTYPE svg PUBLIC "-//W3C//DTD SVG 1.1//EN"
 "http://www.w3.org/Graphics/SVG/1.1/DTD/svg11.dtd">
<!-- Generated by graphviz version 4.0.0 (20220529.0937)
 -->
<!-- Title: D:/OneDrive &#45; Avans Hogeschool/Minor/PRO Smart Roofs/Software/GreenRoof_Base Pages: 1 -->
<svg width="202pt" height="148pt"
 viewBox="0.00 0.00 202.00 148.00" xmlns="http://www.w3.org/2000/svg" xmlns:xlink="http://www.w3.org/1999/xlink">
<g id="graph0" class="graph" transform="scale(1 1) rotate(0) translate(4 144)">
<title>D:/OneDrive &#45; Avans Hogeschool/Minor/PRO Smart Roofs/Software/GreenRoof_Base</title>
<polygon fill="white" stroke="transparent" points="-4,4 -4,-144 198,-144 198,4 -4,4"/>
<g id="clust1" class="cluster">
<title>clusterdir_f4bedc76b784f52f7af210109633f3ee</title>
<g id="a_clust1"><a xlink:href="dir_f4bedc76b784f52f7af210109633f3ee.html" target="_top">
<polygon fill="#eeeeff" stroke="black" points="8,-8 8,-132 186,-132 186,-8 8,-8"/>
</a>
</g>
</g>
<!-- dir_f4bedc76b784f52f7af210109633f3ee -->
<g id="node1" class="node">
<title>dir_f4bedc76b784f52f7af210109633f3ee</title>
<text text-anchor="middle" x="133" y="-103.5" font-family="Helvetica,sans-Serif" font-size="10.00">GreenRoof_Base</text>
</g>
<!-- dir_e98f780e25adbdf161e4aaa921b7f8f5 -->
<g id="node2" class="node">
<title>dir_e98f780e25adbdf161e4aaa921b7f8f5</title>
<g id="a_node2"><a xlink:href="dir_e98f780e25adbdf161e4aaa921b7f8f5.html" target="_top" xlink:title="include">
<polygon fill="white" stroke="red" points="70,-52 16,-52 16,-16 70,-16 70,-52"/>
<text text-anchor="middle" x="43" y="-31.5" font-family="Helvetica,sans-Serif" font-size="10.00">include</text>
</a>
</g>
</g>
<!-- dir_dae02e3216c5c9fce9d11b8d87b15b13 -->
<g id="node3" class="node">
<title>dir_dae02e3216c5c9fce9d11b8d87b15b13</title>
<g id="a_node3"><a xlink:href="dir_dae02e3216c5c9fce9d11b8d87b15b13.html" target="_top" xlink:title="src">
<polygon fill="white" stroke="red" points="70,-124 16,-124 16,-88 70,-88 70,-124"/>
<text text-anchor="middle" x="43" y="-103.5" font-family="Helvetica,sans-Serif" font-size="10.00">src</text>
</a>
</g>
</g>
<!-- dir_dae02e3216c5c9fce9d11b8d87b15b13&#45;&gt;dir_e98f780e25adbdf161e4aaa921b7f8f5 -->
<g id="edge1" class="edge">
<title>dir_dae02e3216c5c9fce9d11b8d87b15b13&#45;&gt;dir_e98f780e25adbdf161e4aaa921b7f8f5</title>
<path fill="none" stroke="black" d="M43,-87.7C43,-79.98 43,-70.71 43,-62.11"/>
<polygon fill="black" stroke="black" points="46.5,-62.1 43,-52.1 39.5,-62.1 46.5,-62.1"/>
<g id="a_edge1&#45;headlabel"><a xlink:href="dir_000006_000001.html" target="_top" xlink:title="24">
<text text-anchor="middle" x="49.34" y="-63.2" font-family="Helvetica,sans-Serif" font-size="10.00">24</text>
</a>
</g>
</g>
</g>
</svg>
