<?xml version="1.0" encoding="UTF-8" standalone="no"?>
<!DOCTYPE svg PUBLIC "-//W3C//DTD SVG 1.1//EN"
 "http://www.w3.org/Graphics/SVG/1.1/DTD/svg11.dtd">
<!-- Generated by graphviz version 4.0.0 (20220529.0937)
 -->
<!-- Title: D:/OneDrive &#45; Avans Hogeschool/Minor/PRO Smart Roofs/Software/GreenRoof_Base/src Pages: 1 -->
<svg width="254pt" height="159pt"
 viewBox="0.00 0.00 254.00 159.00" xmlns="http://www.w3.org/2000/svg" xmlns:xlink="http://www.w3.org/1999/xlink">
<g id="graph0" class="graph" transform="scale(1 1) rotate(0) translate(4 155)">
<title>D:/OneDrive &#45; Avans Hogeschool/Minor/PRO Smart Roofs/Software/GreenRoof_Base/src</title>
<polygon fill="white" stroke="transparent" points="-4,4 -4,-155 250,-155 250,4 -4,4"/>
<g id="clust1" class="cluster">
<title>clusterdir_f4bedc76b784f52f7af210109633f3ee</title>
<g id="a_clust1"><a xlink:href="dir_f4bedc76b784f52f7af210109633f3ee.html" target="_top" xlink:title="GreenRoof_Base">
<polygon fill="#ddddee" stroke="black" points="8,-56 8,-143 238,-143 238,-56 8,-56"/>
<text text-anchor="middle" x="123" y="-131" font-family="Helvetica,sans-Serif" font-size="10.00">GreenRoof_Base</text>
</a>
</g>
</g>
<g id="clust2" class="cluster">
<title>clusterdir_dae02e3216c5c9fce9d11b8d87b15b13</title>
<g id="a_clust2"><a xlink:href="dir_dae02e3216c5c9fce9d11b8d87b15b13.html" target="_top">
<polygon fill="#eeeeff" stroke="black" points="16,-64 16,-116 230,-116 230,-64 16,-64"/>
</a>
</g>
</g>
<!-- dir_dae02e3216c5c9fce9d11b8d87b15b13 -->
<g id="node1" class="node">
<title>dir_dae02e3216c5c9fce9d11b8d87b15b13</title>
<text text-anchor="middle" x="195" y="-87.5" font-family="Helvetica,sans-Serif" font-size="10.00">src</text>
</g>
<!-- dir_c697c053091b804f2e7a4fcdda4f8101 -->
<g id="node2" class="node">
<title>dir_c697c053091b804f2e7a4fcdda4f8101</title>
<g id="a_node2"><a xlink:href="dir_c697c053091b804f2e7a4fcdda4f8101.html" target="_top" xlink:title="Sensors">
<polygon fill="white" stroke="red" points="150,-108 96,-108 96,-72 150,-72 150,-108"/>
<text text-anchor="middle" x="123" y="-87.5" font-family="Helvetica,sans-Serif" font-size="10.00">Sensors</text>
</a>
</g>
</g>
<!-- dir_e98f780e25adbdf161e4aaa921b7f8f5 -->
<g id="node4" class="node">
<title>dir_e98f780e25adbdf161e4aaa921b7f8f5</title>
<g id="a_node4"><a xlink:href="dir_e98f780e25adbdf161e4aaa921b7f8f5.html" target="_top" xlink:title="include">
<polygon fill="white" stroke="red" points="114,-36 60,-36 60,0 114,0 114,-36"/>
<text text-anchor="middle" x="87" y="-15.5" font-family="Helvetica,sans-Serif" font-size="10.00">include</text>
</a>
</g>
</g>
<!-- dir_c697c053091b804f2e7a4fcdda4f8101&#45;&gt;dir_e98f780e25adbdf161e4aaa921b7f8f5 -->
<g id="edge2" class="edge">
<title>dir_c697c053091b804f2e7a4fcdda4f8101&#45;&gt;dir_e98f780e25adbdf161e4aaa921b7f8f5</title>
<path fill="none" stroke="black" d="M114.1,-71.7C110,-63.73 105.05,-54.1 100.51,-45.26"/>
<polygon fill="black" stroke="black" points="103.48,-43.4 95.8,-36.1 97.26,-46.6 103.48,-43.4"/>
<g id="a_edge2&#45;headlabel"><a xlink:href="dir_000007_000001.html" target="_top" xlink:title="5">
<text text-anchor="middle" x="107.65" y="-42.79" font-family="Helvetica,sans-Serif" font-size="10.00">5</text>
</a>
</g>
</g>
<!-- dir_aa1459ea0d9993420d410ea86e82ce5d -->
<g id="node3" class="node">
<title>dir_aa1459ea0d9993420d410ea86e82ce5d</title>
<g id="a_node3"><a xlink:href="dir_aa1459ea0d9993420d410ea86e82ce5d.html" target="_top" xlink:title="Transmit">
<polygon fill="white" stroke="black" points="78,-108 24,-108 24,-72 78,-72 78,-108"/>
<text text-anchor="middle" x="51" y="-87.5" font-family="Helvetica,sans-Serif" font-size="10.00">Transmit</text>
</a>
</g>
</g>
<!-- dir_aa1459ea0d9993420d410ea86e82ce5d&#45;&gt;dir_e98f780e25adbdf161e4aaa921b7f8f5 -->
<g id="edge1" class="edge">
<title>dir_aa1459ea0d9993420d410ea86e82ce5d&#45;&gt;dir_e98f780e25adbdf161e4aaa921b7f8f5</title>
<path fill="none" stroke="black" d="M59.9,-71.7C64,-63.73 68.95,-54.1 73.49,-45.26"/>
<polygon fill="black" stroke="black" points="76.74,-46.6 78.2,-36.1 70.52,-43.4 76.74,-46.6"/>
<g id="a_edge1&#45;headlabel"><a xlink:href="dir_000009_000001.html" target="_top" xlink:title="4">
<text text-anchor="middle" x="77.62" y="-48.59" font-family="Helvetica,sans-Serif" font-size="10.00">4</text>
</a>
</g>
</g>
</g>
</svg>
