<?xml version="1.0" encoding="UTF-8" standalone="no"?>
<!DOCTYPE svg PUBLIC "-//W3C//DTD SVG 1.1//EN"
 "http://www.w3.org/Graphics/SVG/1.1/DTD/svg11.dtd">
<!-- Generated by graphviz version 4.0.0 (20220529.0937)
 -->
<!-- Title: include Pages: 1 -->
<svg width="94pt" height="220pt"
 viewBox="0.00 0.00 94.00 220.00" xmlns="http://www.w3.org/2000/svg" xmlns:xlink="http://www.w3.org/1999/xlink">
<g id="graph0" class="graph" transform="scale(1 1) rotate(0) translate(4 216)">
<title>include</title>
<polygon fill="white" stroke="transparent" points="-4,4 -4,-216 90,-216 90,4 -4,4"/>
<g id="clust1" class="cluster">
<title>clusterdir_d44c64559bbebec7f509842c48db8b23</title>
<g id="a_clust1"><a xlink:href="dir_d44c64559bbebec7f509842c48db8b23.html" target="_top">
<polygon fill="#eeeeff" stroke="black" points="8,-8 8,-204 78,-204 78,-8 8,-8"/>
</a>
</g>
</g>
<!-- dir_d44c64559bbebec7f509842c48db8b23 -->
<g id="node1" class="node">
<title>dir_d44c64559bbebec7f509842c48db8b23</title>
<text text-anchor="middle" x="43" y="-175.5" font-family="Helvetica,sans-Serif" font-size="10.00">include</text>
</g>
<!-- dir_632e1770b996aebcb52863c08dfee6b2 -->
<g id="node2" class="node">
<title>dir_632e1770b996aebcb52863c08dfee6b2</title>
<g id="a_node2"><a xlink:href="dir_632e1770b996aebcb52863c08dfee6b2.html" target="_top" xlink:title="Sensors">
<polygon fill="white" stroke="red" points="70,-124 16,-124 16,-88 70,-88 70,-124"/>
<text text-anchor="middle" x="43" y="-103.5" font-family="Helvetica,sans-Serif" font-size="10.00">Sensors</text>
</a>
</g>
</g>
<!-- dir_d44c64559bbebec7f509842c48db8b23&#45;&gt;dir_632e1770b996aebcb52863c08dfee6b2 -->
<g id="edge1" class="edge">
<title>dir_d44c64559bbebec7f509842c48db8b23&#45;&gt;dir_632e1770b996aebcb52863c08dfee6b2</title>
<path fill="none" stroke="black" d="M43,-159.7C43,-151.98 43,-142.71 43,-134.11"/>
<polygon fill="black" stroke="black" points="46.5,-134.1 43,-124.1 39.5,-134.1 46.5,-134.1"/>
<g id="a_edge1&#45;headlabel"><a xlink:href="dir_000000_000001.html" target="_top" xlink:title="2">
<text text-anchor="middle" x="49.34" y="-135.2" font-family="Helvetica,sans-Serif" font-size="10.00">2</text>
</a>
</g>
</g>
<!-- dir_9f260e40a4e2832526f2634517da5baf -->
<g id="node3" class="node">
<title>dir_9f260e40a4e2832526f2634517da5baf</title>
<g id="a_node3"><a xlink:href="dir_9f260e40a4e2832526f2634517da5baf.html" target="_top" xlink:title="Settings">
<polygon fill="white" stroke="black" points="70,-52 16,-52 16,-16 70,-16 70,-52"/>
<text text-anchor="middle" x="43" y="-31.5" font-family="Helvetica,sans-Serif" font-size="10.00">Settings</text>
</a>
</g>
</g>
<!-- dir_632e1770b996aebcb52863c08dfee6b2&#45;&gt;dir_9f260e40a4e2832526f2634517da5baf -->
<g id="edge2" class="edge">
<title>dir_632e1770b996aebcb52863c08dfee6b2&#45;&gt;dir_9f260e40a4e2832526f2634517da5baf</title>
<path fill="none" stroke="black" d="M43,-87.7C43,-79.98 43,-70.71 43,-62.11"/>
<polygon fill="black" stroke="black" points="46.5,-62.1 43,-52.1 39.5,-62.1 46.5,-62.1"/>
<g id="a_edge2&#45;headlabel"><a xlink:href="dir_000001_000003.html" target="_top" xlink:title="2">
<text text-anchor="middle" x="49.34" y="-63.2" font-family="Helvetica,sans-Serif" font-size="10.00">2</text>
</a>
</g>
</g>
</g>
</svg>
