<?xml version="1.0" encoding="UTF-8" standalone="no"?>
<!DOCTYPE svg PUBLIC "-//W3C//DTD SVG 1.1//EN"
 "http://www.w3.org/Graphics/SVG/1.1/DTD/svg11.dtd">
<!-- Generated by graphviz version 4.0.0 (20220529.0937)
 -->
<!-- Title: include/Sensors Pages: 1 -->
<svg width="110pt" height="231pt"
 viewBox="0.00 0.00 110.00 231.00" xmlns="http://www.w3.org/2000/svg" xmlns:xlink="http://www.w3.org/1999/xlink">
<g id="graph0" class="graph" transform="scale(1 1) rotate(0) translate(4 227)">
<title>include/Sensors</title>
<polygon fill="white" stroke="transparent" points="-4,4 -4,-227 106,-227 106,4 -4,4"/>
<g id="clust1" class="cluster">
<title>clusterdir_d44c64559bbebec7f509842c48db8b23</title>
<g id="a_clust1"><a xlink:href="dir_d44c64559bbebec7f509842c48db8b23.html" target="_top" xlink:title="include">
<polygon fill="#ddddee" stroke="black" points="8,-56 8,-215 94,-215 94,-56 8,-56"/>
<text text-anchor="middle" x="51" y="-203" font-family="Helvetica,sans-Serif" font-size="10.00">include</text>
</a>
</g>
</g>
<g id="clust2" class="cluster">
<title>clusterdir_632e1770b996aebcb52863c08dfee6b2</title>
<g id="a_clust2"><a xlink:href="dir_632e1770b996aebcb52863c08dfee6b2.html" target="_top">
<polygon fill="#eeeeff" stroke="black" points="16,-64 16,-188 86,-188 86,-64 16,-64"/>
</a>
</g>
</g>
<!-- dir_632e1770b996aebcb52863c08dfee6b2 -->
<g id="node1" class="node">
<title>dir_632e1770b996aebcb52863c08dfee6b2</title>
<text text-anchor="middle" x="51" y="-159.5" font-family="Helvetica,sans-Serif" font-size="10.00">Sensors</text>
</g>
<!-- dir_bccf14d5e5161fb454f6cdfa6e52ec4b -->
<g id="node2" class="node">
<title>dir_bccf14d5e5161fb454f6cdfa6e52ec4b</title>
<g id="a_node2"><a xlink:href="dir_bccf14d5e5161fb454f6cdfa6e52ec4b.html" target="_top" xlink:title="Com">
<polygon fill="white" stroke="black" points="78,-108 24,-108 24,-72 78,-72 78,-108"/>
<text text-anchor="middle" x="51" y="-87.5" font-family="Helvetica,sans-Serif" font-size="10.00">Com</text>
</a>
</g>
</g>
<!-- dir_632e1770b996aebcb52863c08dfee6b2&#45;&gt;dir_bccf14d5e5161fb454f6cdfa6e52ec4b -->
<g id="edge1" class="edge">
<title>dir_632e1770b996aebcb52863c08dfee6b2&#45;&gt;dir_bccf14d5e5161fb454f6cdfa6e52ec4b</title>
<path fill="none" stroke="black" d="M51,-143.7C51,-135.98 51,-126.71 51,-118.11"/>
<polygon fill="black" stroke="black" points="54.5,-118.1 51,-108.1 47.5,-118.1 54.5,-118.1"/>
<g id="a_edge1&#45;headlabel"><a xlink:href="dir_000001_000002.html" target="_top" xlink:title="1">
<text text-anchor="middle" x="57.34" y="-119.2" font-family="Helvetica,sans-Serif" font-size="10.00">1</text>
</a>
</g>
</g>
<!-- dir_9f260e40a4e2832526f2634517da5baf -->
<g id="node3" class="node">
<title>dir_9f260e40a4e2832526f2634517da5baf</title>
<g id="a_node3"><a xlink:href="dir_9f260e40a4e2832526f2634517da5baf.html" target="_top" xlink:title="Settings">
<polygon fill="none" stroke="black" points="78,-36 24,-36 24,0 78,0 78,-36"/>
<text text-anchor="middle" x="51" y="-15.5" font-family="Helvetica,sans-Serif" font-size="10.00">Settings</text>
</a>
</g>
</g>
<!-- dir_bccf14d5e5161fb454f6cdfa6e52ec4b&#45;&gt;dir_9f260e40a4e2832526f2634517da5baf -->
<g id="edge2" class="edge">
<title>dir_bccf14d5e5161fb454f6cdfa6e52ec4b&#45;&gt;dir_9f260e40a4e2832526f2634517da5baf</title>
<path fill="none" stroke="black" d="M51,-71.7C51,-63.98 51,-54.71 51,-46.11"/>
<polygon fill="black" stroke="black" points="54.5,-46.1 51,-36.1 47.5,-46.1 54.5,-46.1"/>
<g id="a_edge2&#45;headlabel"><a xlink:href="dir_000002_000003.html" target="_top" xlink:title="1">
<text text-anchor="middle" x="57.34" y="-47.2" font-family="Helvetica,sans-Serif" font-size="10.00">1</text>
</a>
</g>
</g>
</g>
</svg>
