<?xml version="1.0" encoding="UTF-8" standalone="no"?>
<!DOCTYPE svg PUBLIC "-//W3C//DTD SVG 1.1//EN"
 "http://www.w3.org/Graphics/SVG/1.1/DTD/svg11.dtd">
<!-- Generated by graphviz version 4.0.0 (20220529.0937)
 -->
<!-- Title: D:/OneDrive &#45; Avans Hogeschool/Minor/PRO Smart Roofs/Software/GreenRoof_Base/include/Sensors/Com Pages: 1 -->
<svg width="94pt" height="151pt"
 viewBox="0.00 0.00 94.00 151.00" xmlns="http://www.w3.org/2000/svg" xmlns:xlink="http://www.w3.org/1999/xlink">
<g id="graph0" class="graph" transform="scale(1 1) rotate(0) translate(4 147)">
<title>D:/OneDrive &#45; Avans Hogeschool/Minor/PRO Smart Roofs/Software/GreenRoof_Base/include/Sensors/Com</title>
<polygon fill="white" stroke="transparent" points="-4,4 -4,-147 90,-147 90,4 -4,4"/>
<g id="clust1" class="cluster">
<title>clusterdir_bcc2ea9dcaa64d8d506c5a92791c01fd</title>
<g id="a_clust1"><a xlink:href="dir_bcc2ea9dcaa64d8d506c5a92791c01fd.html" target="_top" xlink:title="Sensors">
<polygon fill="#ddddee" stroke="black" points="8,-64 8,-135 78,-135 78,-64 8,-64"/>
<text text-anchor="middle" x="43" y="-123" font-family="Helvetica,sans-Serif" font-size="10.00">Sensors</text>
</a>
</g>
</g>
<!-- dir_1a2f045dd10aef5537a90ad0957daf65 -->
<g id="node1" class="node">
<title>dir_1a2f045dd10aef5537a90ad0957daf65</title>
<g id="a_node1"><a xlink:href="dir_1a2f045dd10aef5537a90ad0957daf65.html" target="_top" xlink:title="Com">
<polygon fill="#eeeeff" stroke="black" points="70,-108 16,-108 16,-72 70,-72 70,-108"/>
<text text-anchor="middle" x="43" y="-87.5" font-family="Helvetica,sans-Serif" font-size="10.00">Com</text>
</a>
</g>
</g>
<!-- dir_f1f404a6b61e53081ad7dac0fe0fe9e3 -->
<g id="node2" class="node">
<title>dir_f1f404a6b61e53081ad7dac0fe0fe9e3</title>
<g id="a_node2"><a xlink:href="dir_f1f404a6b61e53081ad7dac0fe0fe9e3.html" target="_top" xlink:title="Settings">
<polygon fill="none" stroke="black" points="70,-36 16,-36 16,0 70,0 70,-36"/>
<text text-anchor="middle" x="43" y="-15.5" font-family="Helvetica,sans-Serif" font-size="10.00">Settings</text>
</a>
</g>
</g>
<!-- dir_1a2f045dd10aef5537a90ad0957daf65&#45;&gt;dir_f1f404a6b61e53081ad7dac0fe0fe9e3 -->
<g id="edge1" class="edge">
<title>dir_1a2f045dd10aef5537a90ad0957daf65&#45;&gt;dir_f1f404a6b61e53081ad7dac0fe0fe9e3</title>
<path fill="none" stroke="black" d="M43,-71.7C43,-63.98 43,-54.71 43,-46.11"/>
<polygon fill="black" stroke="black" points="46.5,-46.1 43,-36.1 39.5,-46.1 46.5,-46.1"/>
<g id="a_edge1&#45;headlabel"><a xlink:href="dir_000003_000004.html" target="_top" xlink:title="1">
<text text-anchor="middle" x="49.34" y="-47.2" font-family="Helvetica,sans-Serif" font-size="10.00">1</text>
</a>
</g>
</g>
</g>
</svg>
