<?xml version="1.0" encoding="UTF-8" standalone="no"?>
<!DOCTYPE svg PUBLIC "-//W3C//DTD SVG 1.1//EN"
 "http://www.w3.org/Graphics/SVG/1.1/DTD/svg11.dtd">
<!-- Generated by graphviz version 4.0.0 (20220529.0937)
 -->
<!-- Title: D:/OneDrive &#45; Avans Hogeschool/Minor/PRO Smart Roofs/Software/GreenRoof_Base/include/Sensors Pages: 1 -->
<svg width="110pt" height="231pt"
 viewBox="0.00 0.00 110.00 231.00" xmlns="http://www.w3.org/2000/svg" xmlns:xlink="http://www.w3.org/1999/xlink">
<g id="graph0" class="graph" transform="scale(1 1) rotate(0) translate(4 227)">
<title>D:/OneDrive &#45; Avans Hogeschool/Minor/PRO Smart Roofs/Software/GreenRoof_Base/include/Sensors</title>
<polygon fill="white" stroke="transparent" points="-4,4 -4,-227 106,-227 106,4 -4,4"/>
<g id="clust1" class="cluster">
<title>clusterdir_e98f780e25adbdf161e4aaa921b7f8f5</title>
<g id="a_clust1"><a xlink:href="dir_e98f780e25adbdf161e4aaa921b7f8f5.html" target="_top" xlink:title="include">
<polygon fill="#ddddee" stroke="black" points="8,-56 8,-215 94,-215 94,-56 8,-56"/>
<text text-anchor="middle" x="51" y="-203" font-family="Helvetica,sans-Serif" font-size="10.00">include</text>
</a>
</g>
</g>
<g id="clust2" class="cluster">
<title>clusterdir_bcc2ea9dcaa64d8d506c5a92791c01fd</title>
<g id="a_clust2"><a xlink:href="dir_bcc2ea9dcaa64d8d506c5a92791c01fd.html" target="_top">
<polygon fill="#eeeeff" stroke="black" points="16,-64 16,-188 86,-188 86,-64 16,-64"/>
</a>
</g>
</g>
<!-- dir_bcc2ea9dcaa64d8d506c5a92791c01fd -->
<g id="node1" class="node">
<title>dir_bcc2ea9dcaa64d8d506c5a92791c01fd</title>
<text text-anchor="middle" x="51" y="-159.5" font-family="Helvetica,sans-Serif" font-size="10.00">Sensors</text>
</g>
<!-- dir_1a2f045dd10aef5537a90ad0957daf65 -->
<g id="node2" class="node">
<title>dir_1a2f045dd10aef5537a90ad0957daf65</title>
<g id="a_node2"><a xlink:href="dir_1a2f045dd10aef5537a90ad0957daf65.html" target="_top" xlink:title="Com">
<polygon fill="white" stroke="black" points="78,-108 24,-108 24,-72 78,-72 78,-108"/>
<text text-anchor="middle" x="51" y="-87.5" font-family="Helvetica,sans-Serif" font-size="10.00">Com</text>
</a>
</g>
</g>
<!-- dir_bcc2ea9dcaa64d8d506c5a92791c01fd&#45;&gt;dir_1a2f045dd10aef5537a90ad0957daf65 -->
<g id="edge2" class="edge">
<title>dir_bcc2ea9dcaa64d8d506c5a92791c01fd&#45;&gt;dir_1a2f045dd10aef5537a90ad0957daf65</title>
<path fill="none" stroke="black" d="M51,-143.7C51,-135.98 51,-126.71 51,-118.11"/>
<polygon fill="black" stroke="black" points="54.5,-118.1 51,-108.1 47.5,-118.1 54.5,-118.1"/>
<g id="a_edge2&#45;headlabel"><a xlink:href="dir_000002_000003.html" target="_top" xlink:title="1">
<text text-anchor="middle" x="57.34" y="-119.2" font-family="Helvetica,sans-Serif" font-size="10.00">1</text>
</a>
</g>
</g>
<!-- dir_f1f404a6b61e53081ad7dac0fe0fe9e3 -->
<g id="node3" class="node">
<title>dir_f1f404a6b61e53081ad7dac0fe0fe9e3</title>
<g id="a_node3"><a xlink:href="dir_f1f404a6b61e53081ad7dac0fe0fe9e3.html" target="_top" xlink:title="Settings">
<polygon fill="none" stroke="black" points="78,-36 24,-36 24,0 78,0 78,-36"/>
<text text-anchor="middle" x="51" y="-15.5" font-family="Helvetica,sans-Serif" font-size="10.00">Settings</text>
</a>
</g>
</g>
<!-- dir_1a2f045dd10aef5537a90ad0957daf65&#45;&gt;dir_f1f404a6b61e53081ad7dac0fe0fe9e3 -->
<g id="edge1" class="edge">
<title>dir_1a2f045dd10aef5537a90ad0957daf65&#45;&gt;dir_f1f404a6b61e53081ad7dac0fe0fe9e3</title>
<path fill="none" stroke="black" d="M51,-71.7C51,-63.98 51,-54.71 51,-46.11"/>
<polygon fill="black" stroke="black" points="54.5,-46.1 51,-36.1 47.5,-46.1 54.5,-46.1"/>
<g id="a_edge1&#45;headlabel"><a xlink:href="dir_000003_000004.html" target="_top" xlink:title="1">
<text text-anchor="middle" x="57.34" y="-47.2" font-family="Helvetica,sans-Serif" font-size="10.00">1</text>
</a>
</g>
</g>
</g>
</svg>
