<?xml version="1.0" encoding="UTF-8" standalone="no"?>
<!DOCTYPE svg PUBLIC "-//W3C//DTD SVG 1.1//EN"
 "http://www.w3.org/Graphics/SVG/1.1/DTD/svg11.dtd">
<!-- Generated by graphviz version 4.0.0 (20220529.0937)
 -->
<!-- Title: D:/OneDrive &#45; Avans Hogeschool/Minor/PRO Smart Roofs/Software/GreenRoof_Base/include Pages: 1 -->
<svg width="182pt" height="255pt"
 viewBox="0.00 0.00 182.00 255.00" xmlns="http://www.w3.org/2000/svg" xmlns:xlink="http://www.w3.org/1999/xlink">
<g id="graph0" class="graph" transform="scale(1 1) rotate(0) translate(4 251)">
<title>D:/OneDrive &#45; Avans Hogeschool/Minor/PRO Smart Roofs/Software/GreenRoof_Base/include</title>
<polygon fill="white" stroke="transparent" points="-4,4 -4,-251 178,-251 178,4 -4,4"/>
<g id="clust1" class="cluster">
<title>clusterdir_f4bedc76b784f52f7af210109633f3ee</title>
<g id="a_clust1"><a xlink:href="dir_f4bedc76b784f52f7af210109633f3ee.html" target="_top" xlink:title="GreenRoof_Base">
<polygon fill="#ddddee" stroke="black" points="8,-8 8,-239 166,-239 166,-8 8,-8"/>
<text text-anchor="middle" x="87" y="-227" font-family="Helvetica,sans-Serif" font-size="10.00">GreenRoof_Base</text>
</a>
</g>
</g>
<g id="clust2" class="cluster">
<title>clusterdir_e98f780e25adbdf161e4aaa921b7f8f5</title>
<g id="a_clust2"><a xlink:href="dir_e98f780e25adbdf161e4aaa921b7f8f5.html" target="_top">
<polygon fill="#eeeeff" stroke="black" points="16,-16 16,-212 158,-212 158,-16 16,-16"/>
</a>
</g>
</g>
<!-- dir_e98f780e25adbdf161e4aaa921b7f8f5 -->
<g id="node1" class="node">
<title>dir_e98f780e25adbdf161e4aaa921b7f8f5</title>
<text text-anchor="middle" x="87" y="-183.5" font-family="Helvetica,sans-Serif" font-size="10.00">include</text>
</g>
<!-- dir_bcc2ea9dcaa64d8d506c5a92791c01fd -->
<g id="node2" class="node">
<title>dir_bcc2ea9dcaa64d8d506c5a92791c01fd</title>
<g id="a_node2"><a xlink:href="dir_bcc2ea9dcaa64d8d506c5a92791c01fd.html" target="_top" xlink:title="Sensors">
<polygon fill="white" stroke="red" points="78,-132 24,-132 24,-96 78,-96 78,-132"/>
<text text-anchor="middle" x="51" y="-111.5" font-family="Helvetica,sans-Serif" font-size="10.00">Sensors</text>
</a>
</g>
</g>
<!-- dir_e98f780e25adbdf161e4aaa921b7f8f5&#45;&gt;dir_bcc2ea9dcaa64d8d506c5a92791c01fd -->
<g id="edge1" class="edge">
<title>dir_e98f780e25adbdf161e4aaa921b7f8f5&#45;&gt;dir_bcc2ea9dcaa64d8d506c5a92791c01fd</title>
<path fill="none" stroke="black" d="M78.1,-167.7C74,-159.73 69.05,-150.1 64.51,-141.26"/>
<polygon fill="black" stroke="black" points="67.48,-139.4 59.8,-132.1 61.26,-142.6 67.48,-139.4"/>
<g id="a_edge1&#45;headlabel"><a xlink:href="dir_000001_000002.html" target="_top" xlink:title="2">
<text text-anchor="middle" x="71.65" y="-138.79" font-family="Helvetica,sans-Serif" font-size="10.00">2</text>
</a>
</g>
</g>
<!-- dir_e3079644f854caac9b7ec70d5b5812c7 -->
<g id="node4" class="node">
<title>dir_e3079644f854caac9b7ec70d5b5812c7</title>
<g id="a_node4"><a xlink:href="dir_e3079644f854caac9b7ec70d5b5812c7.html" target="_top" xlink:title="Transmit">
<polygon fill="white" stroke="black" points="150,-132 96,-132 96,-96 150,-96 150,-132"/>
<text text-anchor="middle" x="123" y="-111.5" font-family="Helvetica,sans-Serif" font-size="10.00">Transmit</text>
</a>
</g>
</g>
<!-- dir_e98f780e25adbdf161e4aaa921b7f8f5&#45;&gt;dir_e3079644f854caac9b7ec70d5b5812c7 -->
<g id="edge2" class="edge">
<title>dir_e98f780e25adbdf161e4aaa921b7f8f5&#45;&gt;dir_e3079644f854caac9b7ec70d5b5812c7</title>
<path fill="none" stroke="black" d="M95.9,-167.7C100,-159.73 104.95,-150.1 109.49,-141.26"/>
<polygon fill="black" stroke="black" points="112.74,-142.6 114.2,-132.1 106.52,-139.4 112.74,-142.6"/>
<g id="a_edge2&#45;headlabel"><a xlink:href="dir_000001_000005.html" target="_top" xlink:title="2">
<text text-anchor="middle" x="113.62" y="-144.59" font-family="Helvetica,sans-Serif" font-size="10.00">2</text>
</a>
</g>
</g>
<!-- dir_f1f404a6b61e53081ad7dac0fe0fe9e3 -->
<g id="node3" class="node">
<title>dir_f1f404a6b61e53081ad7dac0fe0fe9e3</title>
<g id="a_node3"><a xlink:href="dir_f1f404a6b61e53081ad7dac0fe0fe9e3.html" target="_top" xlink:title="Settings">
<polygon fill="white" stroke="black" points="114,-60 60,-60 60,-24 114,-24 114,-60"/>
<text text-anchor="middle" x="87" y="-39.5" font-family="Helvetica,sans-Serif" font-size="10.00">Settings</text>
</a>
</g>
</g>
<!-- dir_bcc2ea9dcaa64d8d506c5a92791c01fd&#45;&gt;dir_f1f404a6b61e53081ad7dac0fe0fe9e3 -->
<g id="edge3" class="edge">
<title>dir_bcc2ea9dcaa64d8d506c5a92791c01fd&#45;&gt;dir_f1f404a6b61e53081ad7dac0fe0fe9e3</title>
<path fill="none" stroke="black" d="M59.9,-95.7C64,-87.73 68.95,-78.1 73.49,-69.26"/>
<polygon fill="black" stroke="black" points="76.74,-70.6 78.2,-60.1 70.52,-67.4 76.74,-70.6"/>
<g id="a_edge3&#45;headlabel"><a xlink:href="dir_000002_000004.html" target="_top" xlink:title="2">
<text text-anchor="middle" x="77.62" y="-72.59" font-family="Helvetica,sans-Serif" font-size="10.00">2</text>
</a>
</g>
</g>
<!-- dir_e3079644f854caac9b7ec70d5b5812c7&#45;&gt;dir_f1f404a6b61e53081ad7dac0fe0fe9e3 -->
<g id="edge4" class="edge">
<title>dir_e3079644f854caac9b7ec70d5b5812c7&#45;&gt;dir_f1f404a6b61e53081ad7dac0fe0fe9e3</title>
<path fill="none" stroke="black" d="M114.1,-95.7C110,-87.73 105.05,-78.1 100.51,-69.26"/>
<polygon fill="black" stroke="black" points="103.48,-67.4 95.8,-60.1 97.26,-70.6 103.48,-67.4"/>
<g id="a_edge4&#45;headlabel"><a xlink:href="dir_000005_000004.html" target="_top" xlink:title="3">
<text text-anchor="middle" x="107.65" y="-66.79" font-family="Helvetica,sans-Serif" font-size="10.00">3</text>
</a>
</g>
</g>
</g>
</svg>
