<?xml version="1.0" encoding="UTF-8" standalone="no"?>
<!DOCTYPE svg PUBLIC "-//W3C//DTD SVG 1.1//EN"
 "http://www.w3.org/Graphics/SVG/1.1/DTD/svg11.dtd">
<!-- Generated by graphviz version 4.0.0 (20220529.0937)
 -->
<!-- Title: Graphical Class Hierarchy Pages: 1 -->
<svg width="209pt" height="142pt"
 viewBox="0.00 0.00 209.00 142.00" xmlns="http://www.w3.org/2000/svg" xmlns:xlink="http://www.w3.org/1999/xlink">
<g id="graph0" class="graph" transform="scale(1 1) rotate(0) translate(4 138)">
<title>Graphical Class Hierarchy</title>
<polygon fill="white" stroke="transparent" points="-4,4 -4,-138 205,-138 205,4 -4,4"/>
<!-- Node0 -->
<g id="node1" class="node">
<title>Node0</title>
<g id="a_node1"><a xlink:href="class_sensor_base.html" target="_top" xlink:title="Sensor base class.">
<polygon fill="white" stroke="black" points="0,-57.5 0,-76.5 70,-76.5 70,-57.5 0,-57.5"/>
<text text-anchor="middle" x="35" y="-64.5" font-family="Helvetica,sans-Serif" font-size="10.00">SensorBase</text>
</a>
</g>
</g>
<!-- Node1 -->
<g id="node2" class="node">
<title>Node1</title>
<g id="a_node2"><a xlink:href="class_d_s18_b20_sensor.html" target="_top" xlink:title="One wire temperature sensor implementation.">
<polygon fill="white" stroke="black" points="109,-114.5 109,-133.5 198,-133.5 198,-114.5 109,-114.5"/>
<text text-anchor="middle" x="153.5" y="-121.5" font-family="Helvetica,sans-Serif" font-size="10.00">DS18B20Sensor</text>
</a>
</g>
</g>
<!-- Node0&#45;&gt;Node1 -->
<g id="edge1" class="edge">
<title>Node0&#45;&gt;Node1</title>
<path fill="none" stroke="midnightblue" d="M61.35,-81.63C74.5,-89 90.92,-97.85 106,-105 112.93,-108.29 120.6,-111.56 127.67,-114.44"/>
<polygon fill="midnightblue" stroke="midnightblue" points="62.85,-78.46 52.43,-76.58 59.4,-84.55 62.85,-78.46"/>
</g>
<!-- Node2 -->
<g id="node3" class="node">
<title>Node2</title>
<g id="a_node3"><a xlink:href="class_moisture_sensor.html" target="_top" xlink:title="Analog moisture sensor implementation.">
<polygon fill="white" stroke="black" points="111,-76.5 111,-95.5 196,-95.5 196,-76.5 111,-76.5"/>
<text text-anchor="middle" x="153.5" y="-83.5" font-family="Helvetica,sans-Serif" font-size="10.00">MoistureSensor</text>
</a>
</g>
</g>
<!-- Node0&#45;&gt;Node2 -->
<g id="edge2" class="edge">
<title>Node0&#45;&gt;Node2</title>
<path fill="none" stroke="midnightblue" d="M79.89,-74.16C90.02,-75.81 100.76,-77.56 110.8,-79.2"/>
<polygon fill="midnightblue" stroke="midnightblue" points="80.44,-70.7 70.01,-72.55 79.32,-77.61 80.44,-70.7"/>
</g>
<!-- Node3 -->
<g id="node4" class="node">
<title>Node3</title>
<g id="a_node4"><a xlink:href="class_test_sensor.html" target="_top" xlink:title=" ">
<polygon fill="white" stroke="black" points="120.5,-38.5 120.5,-57.5 186.5,-57.5 186.5,-38.5 120.5,-38.5"/>
<text text-anchor="middle" x="153.5" y="-45.5" font-family="Helvetica,sans-Serif" font-size="10.00">TestSensor</text>
</a>
</g>
</g>
<!-- Node0&#45;&gt;Node3 -->
<g id="edge3" class="edge">
<title>Node0&#45;&gt;Node3</title>
<path fill="none" stroke="midnightblue" d="M79.98,-59.83C93.35,-57.65 107.8,-55.29 120.25,-53.26"/>
<polygon fill="midnightblue" stroke="midnightblue" points="79.32,-56.39 70.01,-61.45 80.44,-63.3 79.32,-56.39"/>
</g>
<!-- Node4 -->
<g id="node5" class="node">
<title>Node4</title>
<g id="a_node5"><a xlink:href="class_water_level_sensor.html" target="_top" xlink:title="Ultrasonic distance sensor class for calculating water level.">
<polygon fill="white" stroke="black" points="106,-0.5 106,-19.5 201,-19.5 201,-0.5 106,-0.5"/>
<text text-anchor="middle" x="153.5" y="-7.5" font-family="Helvetica,sans-Serif" font-size="10.00">WaterLevelSensor</text>
</a>
</g>
</g>
<!-- Node0&#45;&gt;Node4 -->
<g id="edge4" class="edge">
<title>Node0&#45;&gt;Node4</title>
<path fill="none" stroke="midnightblue" d="M61.35,-52.37C74.5,-45 90.92,-36.15 106,-29 112.93,-25.71 120.6,-22.44 127.67,-19.56"/>
<polygon fill="midnightblue" stroke="midnightblue" points="59.4,-49.45 52.43,-57.42 62.85,-55.54 59.4,-49.45"/>
</g>
</g>
</svg>
