<?xml version="1.0" encoding="UTF-8" standalone="no"?>
<!DOCTYPE svg PUBLIC "-//W3C//DTD SVG 1.1//EN"
 "http://www.w3.org/Graphics/SVG/1.1/DTD/svg11.dtd">
<!-- Generated by graphviz version 4.0.0 (20220529.0937)
 -->
<!-- Title: Graphical Class Hierarchy Pages: 1 -->
<svg width="248pt" height="104pt"
 viewBox="0.00 0.00 248.00 104.00" xmlns="http://www.w3.org/2000/svg" xmlns:xlink="http://www.w3.org/1999/xlink">
<g id="graph0" class="graph" transform="scale(1 1) rotate(0) translate(4 100)">
<title>Graphical Class Hierarchy</title>
<polygon fill="white" stroke="transparent" points="-4,4 -4,-100 244,-100 244,4 -4,4"/>
<!-- Node0 -->
<g id="node1" class="node">
<title>Node0</title>
<g id="a_node1"><a xlink:href="class_transmission_base.html" target="_top" xlink:title="Base class for sending data to one of the endpoints.">
<polygon fill="white" stroke="black" points="0,-38.5 0,-57.5 97,-57.5 97,-38.5 0,-38.5"/>
<text text-anchor="middle" x="48.5" y="-45.5" font-family="Helvetica,sans-Serif" font-size="10.00">TransmissionBase</text>
</a>
</g>
</g>
<!-- Node1 -->
<g id="node2" class="node">
<title>Node1</title>
<g id="a_node2"><a xlink:href="class_h_t_t_p_transmission.html" target="_top" xlink:title="HTTP Post transmission.">
<polygon fill="white" stroke="black" points="137.5,-76.5 137.5,-95.5 235.5,-95.5 235.5,-76.5 137.5,-76.5"/>
<text text-anchor="middle" x="186.5" y="-83.5" font-family="Helvetica,sans-Serif" font-size="10.00">HTTPTransmission</text>
</a>
</g>
</g>
<!-- Node0&#45;&gt;Node1 -->
<g id="edge1" class="edge">
<title>Node0&#45;&gt;Node1</title>
<path fill="none" stroke="midnightblue" d="M93.59,-60.32C112.27,-65.54 133.72,-71.53 151.19,-76.41"/>
<polygon fill="midnightblue" stroke="midnightblue" points="94.39,-56.91 83.82,-57.59 92.51,-63.65 94.39,-56.91"/>
</g>
<!-- Node2 -->
<g id="node3" class="node">
<title>Node2</title>
<g id="a_node3"><a xlink:href="class_i_o_t_hub_transmission.html" target="_top" xlink:title=" ">
<polygon fill="white" stroke="black" points="133,-38.5 133,-57.5 240,-57.5 240,-38.5 133,-38.5"/>
<text text-anchor="middle" x="186.5" y="-45.5" font-family="Helvetica,sans-Serif" font-size="10.00">IOTHubTransmission</text>
</a>
</g>
</g>
<!-- Node0&#45;&gt;Node2 -->
<g id="edge2" class="edge">
<title>Node0&#45;&gt;Node2</title>
<path fill="none" stroke="midnightblue" d="M107.21,-48C115.64,-48 124.29,-48 132.62,-48"/>
<polygon fill="midnightblue" stroke="midnightblue" points="107.07,-44.5 97.07,-48 107.07,-51.5 107.07,-44.5"/>
</g>
<!-- Node3 -->
<g id="node4" class="node">
<title>Node3</title>
<g id="a_node4"><a xlink:href="class_u_d_p_transmission.html" target="_top" xlink:title="UDP / HTTP post transmission.">
<polygon fill="white" stroke="black" points="139,-0.5 139,-19.5 234,-19.5 234,-0.5 139,-0.5"/>
<text text-anchor="middle" x="186.5" y="-7.5" font-family="Helvetica,sans-Serif" font-size="10.00">UDPTransmission</text>
</a>
</g>
</g>
<!-- Node0&#45;&gt;Node3 -->
<g id="edge3" class="edge">
<title>Node0&#45;&gt;Node3</title>
<path fill="none" stroke="midnightblue" d="M93.59,-35.68C112.27,-30.46 133.72,-24.47 151.19,-19.59"/>
<polygon fill="midnightblue" stroke="midnightblue" points="92.51,-32.35 83.82,-38.41 94.39,-39.09 92.51,-32.35"/>
</g>
</g>
</svg>
