<?xml version="1.0" encoding="UTF-8" standalone="no"?>
<!DOCTYPE svg PUBLIC "-//W3C//DTD SVG 1.1//EN"
 "http://www.w3.org/Graphics/SVG/1.1/DTD/svg11.dtd">
<!-- Generated by graphviz version 4.0.0 (20220529.0937)
 -->
<!-- Title: setup Pages: 1 -->
<!--zoomable 469 -->
<svg id="main" version="1.1" xmlns="http://www.w3.org/2000/svg" xmlns:xlink="http://www.w3.org/1999/xlink" xml:space="preserve" onload="init(evt)">
<style type="text/css"><![CDATA[
.edge:hover path { stroke: red; }
.edge:hover polygon { stroke: red; fill: red; }
]]></style>
<script type="text/javascript"><![CDATA[
var edges = document.getElementsByTagName('g');
if (edges && edges.length) {
  for (var i=0;i<edges.length;i++) {
    if (edges[i].id.substr(0,4)=='edge') {
      edges[i].setAttribute('class','edge');
    }
  }
}
]]></script>
        <defs>
                <circle id="rim" cx="0" cy="0" r="7"/>
                <circle id="rim2" cx="0" cy="0" r="3.5"/>
                <g id="zoomPlus">
                        <use xlink:href="#rim" fill="#404040">
                                <set attributeName="fill" to="#808080" begin="zoomplus.mouseover" end="zoomplus.mouseout"/>
                        </use>
                        <path d="M-4,0h8M0,-4v8" fill="none" stroke="white" stroke-width="1.5" pointer-events="none"/>
                </g>
                <g id="zoomMin">
                        <use xlink:href="#rim" fill="#404040">
                                <set attributeName="fill" to="#808080" begin="zoomminus.mouseover" end="zoomminus.mouseout"/>
                        </use>
                        <path d="M-4,0h8" fill="none" stroke="white" stroke-width="1.5" pointer-events="none"/>
                </g>
                <g id="dirArrow">
                        <path fill="none" stroke="white" stroke-width="1.5" d="M0,-3.0v7 M-2.5,-0.5L0,-3.0L2.5,-0.5"/>
                </g>
               <g id="resetDef">
                       <use xlink:href="#rim2" fill="#404040">
                               <set attributeName="fill" to="#808080" begin="reset.mouseover" end="reset.mouseout"/>
                       </use>
               </g>
        </defs>

<script type="text/javascript">
var viewWidth = 1167;
var viewHeight = 469;
var sectionId = 'dynsection-1';
</script>
<script xlink:href="svgpan.js"/>
<svg id="graph" class="graph">
<g id="viewport">
<title>setup</title>
<polygon fill="white" stroke="transparent" points="-4,4 -4,-464.5 1163,-464.5 1163,4 -4,4"/>
<!-- Node1 -->
<g id="node1" class="node">
<title>Node1</title>
<g id="a_node1"><a xlink:title="Single run function on startup.">
<polygon fill="#bfbfbf" stroke="black" points="0,-342.5 0,-361.5 41,-361.5 41,-342.5 0,-342.5"/>
<text text-anchor="middle" x="20.5" y="-349.5" font-family="Helvetica,sans-Serif" font-size="10.00">setup</text>
</a>
</g>
</g>
<!-- Node2 -->
<g id="node2" class="node">
<title>Node2</title>
<g id="a_node2"><a xlink:href="class_data_publisher.html#ae289d40091fc1d90114a1f65f680280b" target="_top" xlink:title="Add a secondary Transmission mode object.">
<polygon fill="white" stroke="black" points="93.5,-430 93.5,-460 239.5,-460 239.5,-430 93.5,-430"/>
<text text-anchor="start" x="101.5" y="-448" font-family="Helvetica,sans-Serif" font-size="10.00">DataPublisher::addSecondary</text>
<text text-anchor="middle" x="166.5" y="-437" font-family="Helvetica,sans-Serif" font-size="10.00">TransmissionMode</text>
</a>
</g>
</g>
<!-- Node1&#45;&gt;Node2 -->
<g id="edge1" class="edge">
<title>Node1&#45;&gt;Node2</title>
<path fill="none" stroke="midnightblue" d="M26.58,-361.63C35.01,-376.65 53.33,-405.52 77,-421 79.44,-422.59 81.97,-424.08 84.59,-425.47"/>
<polygon fill="midnightblue" stroke="midnightblue" points="83.2,-428.69 93.74,-429.83 86.21,-422.37 83.2,-428.69"/>
</g>
<!-- Node3 -->
<g id="node3" class="node">
<title>Node3</title>
<g id="a_node3"><a xlink:href="class_measurement_controller.html#ad6a46317b32215613fcb0fb12f6dd9d6" target="_top" xlink:title="Add one sensor to the controller.">
<polygon fill="white" stroke="black" points="108,-381 108,-411 225,-411 225,-381 108,-381"/>
<text text-anchor="start" x="116" y="-399" font-family="Helvetica,sans-Serif" font-size="10.00">MeasurementController</text>
<text text-anchor="middle" x="166.5" y="-388" font-family="Helvetica,sans-Serif" font-size="10.00">::addSensor</text>
</a>
</g>
</g>
<!-- Node1&#45;&gt;Node3 -->
<g id="edge2" class="edge">
<title>Node1&#45;&gt;Node3</title>
<path fill="none" stroke="midnightblue" d="M41.22,-358.03C58.07,-363.17 83.21,-370.86 106.48,-377.96"/>
<polygon fill="midnightblue" stroke="midnightblue" points="105.72,-381.39 116.3,-380.97 107.76,-374.7 105.72,-381.39"/>
</g>
<!-- Node4 -->
<g id="node4" class="node">
<title>Node4</title>
<g id="a_node4"><a xlink:href="class_data_publisher.html#a10b8b56b6889df477dfe9b1ee549988d" target="_top" xlink:title="Singleton class instance.">
<polygon fill="white" stroke="black" points="1028,-304.5 1028,-323.5 1159,-323.5 1159,-304.5 1028,-304.5"/>
<text text-anchor="middle" x="1093.5" y="-311.5" font-family="Helvetica,sans-Serif" font-size="10.00">DataPublisher::INSTANCE</text>
</a>
</g>
</g>
<!-- Node1&#45;&gt;Node4 -->
<g id="edge3" class="edge">
<title>Node1&#45;&gt;Node4</title>
<path fill="none" stroke="midnightblue" d="M41.12,-352C92.08,-352 232.8,-352 350,-352 350,-352 350,-352 718.5,-352 825.87,-352 949.69,-336.31 1024.48,-325.09"/>
<polygon fill="midnightblue" stroke="midnightblue" points="1025.34,-328.5 1034.7,-323.54 1024.29,-321.58 1025.34,-328.5"/>
</g>
<!-- Node5 -->
<g id="node5" class="node">
<title>Node5</title>
<g id="a_node5"><a xlink:href="class_measurement_controller.html#abeba7c187f196061dd3ac727746a3971" target="_top" xlink:title="Run threaded process for measurements.">
<polygon fill="white" stroke="black" points="108,-293 108,-323 225,-323 225,-293 108,-293"/>
<text text-anchor="start" x="116" y="-311" font-family="Helvetica,sans-Serif" font-size="10.00">MeasurementController</text>
<text text-anchor="middle" x="166.5" y="-300" font-family="Helvetica,sans-Serif" font-size="10.00">::runProcess</text>
</a>
</g>
</g>
<!-- Node1&#45;&gt;Node5 -->
<g id="edge4" class="edge">
<title>Node1&#45;&gt;Node5</title>
<path fill="none" stroke="midnightblue" d="M41.22,-345.97C58.07,-340.83 83.21,-333.14 106.48,-326.04"/>
<polygon fill="midnightblue" stroke="midnightblue" points="107.76,-329.3 116.3,-323.03 105.72,-322.61 107.76,-329.3"/>
</g>
<!-- Node26 -->
<g id="node26" class="node">
<title>Node26</title>
<g id="a_node26"><a xlink:href="class_data_publisher.html#a12c3730901cbc6730248593e942c53f6" target="_top" xlink:title="Set the Transmission Mode object.">
<polygon fill="white" stroke="black" points="77,-254.5 77,-273.5 256,-273.5 256,-254.5 77,-254.5"/>
<text text-anchor="middle" x="166.5" y="-261.5" font-family="Helvetica,sans-Serif" font-size="10.00">DataPublisher::setTransmissionMode</text>
</a>
</g>
</g>
<!-- Node1&#45;&gt;Node26 -->
<g id="edge28" class="edge">
<title>Node1&#45;&gt;Node26</title>
<path fill="none" stroke="midnightblue" d="M26.54,-342.39C34.92,-327.43 53.16,-298.76 77,-284 81.14,-281.44 85.56,-279.21 90.15,-277.26"/>
<polygon fill="midnightblue" stroke="midnightblue" points="91.61,-280.45 99.74,-273.65 89.15,-273.89 91.61,-280.45"/>
</g>
<!-- Node6 -->
<g id="node6" class="node">
<title>Node6</title>
<g id="a_node6"><a xlink:href="class_measurement_controller.html#a1ffafc43dd499e1f52f0b72d712eb548" target="_top" xlink:title="Setup Data publisher connection.">
<polygon fill="white" stroke="black" points="292.5,-293 292.5,-323 409.5,-323 409.5,-293 292.5,-293"/>
<text text-anchor="start" x="300.5" y="-311" font-family="Helvetica,sans-Serif" font-size="10.00">MeasurementController</text>
<text text-anchor="middle" x="351" y="-300" font-family="Helvetica,sans-Serif" font-size="10.00">::connect</text>
</a>
</g>
</g>
<!-- Node5&#45;&gt;Node6 -->
<g id="edge5" class="edge">
<title>Node5&#45;&gt;Node6</title>
<path fill="none" stroke="midnightblue" d="M225.24,-308C243.31,-308 263.4,-308 282.1,-308"/>
<polygon fill="midnightblue" stroke="midnightblue" points="282.32,-311.5 292.32,-308 282.32,-304.5 282.32,-311.5"/>
</g>
<!-- Node9 -->
<g id="node9" class="node">
<title>Node9</title>
<g id="a_node9"><a xlink:href="class_measurement_controller.html#a41a466efd3028ea2dcc7948530106ca4" target="_top" xlink:title="Publish measurements to the DataPublisher.">
<polygon fill="white" stroke="black" points="292,-244 292,-274 410,-274 410,-244 292,-244"/>
<text text-anchor="start" x="300" y="-262" font-family="Helvetica,sans-Serif" font-size="10.00">MeasurementController</text>
<text text-anchor="middle" x="351" y="-251" font-family="Helvetica,sans-Serif" font-size="10.00">::publishMeasurements</text>
</a>
</g>
</g>
<!-- Node5&#45;&gt;Node9 -->
<g id="edge9" class="edge">
<title>Node5&#45;&gt;Node9</title>
<path fill="none" stroke="midnightblue" d="M223.75,-292.9C242.83,-287.77 264.32,-282 284.09,-276.7"/>
<polygon fill="midnightblue" stroke="midnightblue" points="285.19,-280.03 293.94,-274.05 283.38,-273.26 285.19,-280.03"/>
</g>
<!-- Node25 -->
<g id="node25" class="node">
<title>Node25</title>
<g id="a_node25"><a xlink:href="class_measurement_controller.html#a14e9ca06a5759944210656cf4576b633" target="_top" xlink:title="Run measurements for all sensors.">
<polygon fill="white" stroke="black" points="292.5,-195 292.5,-225 409.5,-225 409.5,-195 292.5,-195"/>
<text text-anchor="start" x="300.5" y="-213" font-family="Helvetica,sans-Serif" font-size="10.00">MeasurementController</text>
<text text-anchor="middle" x="351" y="-202" font-family="Helvetica,sans-Serif" font-size="10.00">::runMeasurements</text>
</a>
</g>
</g>
<!-- Node5&#45;&gt;Node25 -->
<g id="edge27" class="edge">
<title>Node5&#45;&gt;Node25</title>
<path fill="none" stroke="midnightblue" d="M225.17,-297.6C235.99,-294.06 246.78,-289.32 256,-283 277.99,-267.91 271.05,-251.5 292,-235 294.07,-233.37 296.27,-231.82 298.55,-230.36"/>
<polygon fill="midnightblue" stroke="midnightblue" points="300.72,-233.15 307.64,-225.13 297.23,-227.08 300.72,-233.15"/>
</g>
<!-- Node7 -->
<g id="node7" class="node">
<title>Node7</title>
<g id="a_node7"><a xlink:href="class_data_publisher.html#a4740f93775ead74b0bd4341dadac8b73" target="_top" xlink:title="Connect to the wireless network.">
<polygon fill="white" stroke="black" points="446,-301.5 446,-320.5 601,-320.5 601,-301.5 446,-301.5"/>
<text text-anchor="middle" x="523.5" y="-308.5" font-family="Helvetica,sans-Serif" font-size="10.00">DataPublisher::wirelessConnect</text>
</a>
</g>
</g>
<!-- Node6&#45;&gt;Node7 -->
<g id="edge6" class="edge">
<title>Node6&#45;&gt;Node7</title>
<path fill="none" stroke="midnightblue" d="M409.72,-309.02C418.06,-309.16 426.78,-309.32 435.53,-309.47"/>
<polygon fill="midnightblue" stroke="midnightblue" points="435.73,-312.97 445.79,-309.65 435.85,-305.97 435.73,-312.97"/>
</g>
<!-- Node8 -->
<g id="node8" class="node">
<title>Node8</title>
<g id="a_node8"><a xlink:href="class_data_publisher.html#a27a0a8162505d891b324e4d5bfa057dc" target="_top" xlink:title="Wireless event callback method.">
<polygon fill="white" stroke="black" points="646,-304.5 646,-323.5 789,-323.5 789,-304.5 646,-304.5"/>
<text text-anchor="middle" x="717.5" y="-311.5" font-family="Helvetica,sans-Serif" font-size="10.00">DataPublisher::wirelessEvent</text>
</a>
</g>
</g>
<!-- Node7&#45;&gt;Node8 -->
<g id="edge7" class="edge">
<title>Node7&#45;&gt;Node8</title>
<path fill="none" stroke="midnightblue" d="M601.21,-312.2C612.49,-312.37 624.13,-312.56 635.49,-312.73"/>
<polygon fill="midnightblue" stroke="midnightblue" points="635.77,-316.24 645.82,-312.9 635.88,-309.24 635.77,-316.24"/>
</g>
<!-- Node8&#45;&gt;Node4 -->
<g id="edge8" class="edge">
<title>Node8&#45;&gt;Node4</title>
<path fill="none" stroke="midnightblue" d="M789.29,-314C854.65,-314 951.4,-314 1017.94,-314"/>
<polygon fill="midnightblue" stroke="midnightblue" points="1017.94,-317.5 1027.94,-314 1017.94,-310.5 1017.94,-317.5"/>
</g>
<!-- Node10 -->
<g id="node10" class="node">
<title>Node10</title>
<g id="a_node10"><a xlink:href="class_data_publisher.html#a1e695b3453c48f2887fc9c4fa3699066" target="_top" xlink:title="Add datafield to data object.">
<polygon fill="white" stroke="black" points="464,-249.5 464,-268.5 583,-268.5 583,-249.5 464,-249.5"/>
<text text-anchor="middle" x="523.5" y="-256.5" font-family="Helvetica,sans-Serif" font-size="10.00">DataPublisher::addData</text>
</a>
</g>
</g>
<!-- Node9&#45;&gt;Node10 -->
<g id="edge10" class="edge">
<title>Node9&#45;&gt;Node10</title>
<path fill="none" stroke="midnightblue" d="M410.2,-259C424.17,-259 439.23,-259 453.63,-259"/>
<polygon fill="midnightblue" stroke="midnightblue" points="453.98,-262.5 463.98,-259 453.98,-255.5 453.98,-262.5"/>
</g>
<!-- Node11 -->
<g id="node11" class="node">
<title>Node11</title>
<g id="a_node11"><a xlink:href="class_data_publisher.html#a266411f687c44a946cbac8323903a3e5" target="_top" xlink:title="Send data to network.">
<polygon fill="white" stroke="black" points="461,-171.5 461,-190.5 586,-190.5 586,-171.5 461,-171.5"/>
<text text-anchor="middle" x="523.5" y="-178.5" font-family="Helvetica,sans-Serif" font-size="10.00">DataPublisher::sendData</text>
</a>
</g>
</g>
<!-- Node9&#45;&gt;Node11 -->
<g id="edge11" class="edge">
<title>Node9&#45;&gt;Node11</title>
<path fill="none" stroke="midnightblue" d="M389.26,-243.94C396.18,-241.04 403.33,-237.98 410,-235 438.91,-222.09 471.47,-206.33 494.09,-195.17"/>
<polygon fill="midnightblue" stroke="midnightblue" points="495.73,-198.27 503.14,-190.69 492.63,-191.99 495.73,-198.27"/>
</g>
<!-- Node12 -->
<g id="node12" class="node">
<title>Node12</title>
<g id="a_node12"><a xlink:href="class_transmission_base.html#a8bda22d8af26bdab83608d288827f15c" target="_top" xlink:title="Default close method, can be overwritten.">
<polygon fill="white" stroke="black" points="654.5,-266.5 654.5,-285.5 780.5,-285.5 780.5,-266.5 654.5,-266.5"/>
<text text-anchor="middle" x="717.5" y="-273.5" font-family="Helvetica,sans-Serif" font-size="10.00">TransmissionBase::close</text>
</a>
</g>
</g>
<!-- Node11&#45;&gt;Node12 -->
<g id="edge12" class="edge">
<title>Node11&#45;&gt;Node12</title>
<path fill="none" stroke="midnightblue" d="M535.82,-190.72C555.22,-206.88 596.65,-239.25 637,-257 642.71,-259.51 648.81,-261.72 654.98,-263.66"/>
<polygon fill="midnightblue" stroke="midnightblue" points="654.14,-267.06 664.72,-266.48 656.09,-260.33 654.14,-267.06"/>
</g>
<!-- Node13 -->
<g id="node13" class="node">
<title>Node13</title>
<g id="a_node13"><a xlink:href="class_data_store.html#ad2397fa823658daa46dadd0e510f5af2" target="_top" xlink:title="Check if data has been stored locally.">
<polygon fill="white" stroke="black" points="656,-228.5 656,-247.5 779,-247.5 779,-228.5 656,-228.5"/>
<text text-anchor="middle" x="717.5" y="-235.5" font-family="Helvetica,sans-Serif" font-size="10.00">DataStore::dataAvailable</text>
</a>
</g>
</g>
<!-- Node11&#45;&gt;Node13 -->
<g id="edge13" class="edge">
<title>Node11&#45;&gt;Node13</title>
<path fill="none" stroke="midnightblue" d="M550.65,-190.59C573.32,-198.72 607.08,-210.39 637,-219 645.52,-221.45 654.62,-223.84 663.5,-226.05"/>
<polygon fill="midnightblue" stroke="midnightblue" points="662.86,-229.49 673.4,-228.46 664.52,-222.69 662.86,-229.49"/>
</g>
<!-- Node14 -->
<g id="node14" class="node">
<title>Node14</title>
<g id="a_node14"><a xlink:href="class_data_store.html#a9f153c8de4863259737ba4b75869bf67" target="_top" xlink:title="Add data object to local storage.">
<polygon fill="white" stroke="black" points="649,-190.5 649,-209.5 786,-209.5 786,-190.5 649,-190.5"/>
<text text-anchor="middle" x="717.5" y="-197.5" font-family="Helvetica,sans-Serif" font-size="10.00">DataStore::storeDataObject</text>
</a>
</g>
</g>
<!-- Node11&#45;&gt;Node14 -->
<g id="edge14" class="edge">
<title>Node11&#45;&gt;Node14</title>
<path fill="none" stroke="midnightblue" d="M586.04,-187.09C602.82,-188.75 621.22,-190.57 638.77,-192.31"/>
<polygon fill="midnightblue" stroke="midnightblue" points="638.69,-195.82 648.99,-193.32 639.38,-188.85 638.69,-195.82"/>
</g>
<!-- Node17 -->
<g id="node17" class="node">
<title>Node17</title>
<g id="a_node17"><a xlink:href="class_transmission_base.html#a5f5167fe4e51db44b9070ca4c27e1961" target="_top" xlink:title="Transmit data using method.">
<polygon fill="white" stroke="black" points="834,-152.5 834,-171.5 992,-171.5 992,-152.5 834,-152.5"/>
<text text-anchor="middle" x="913" y="-159.5" font-family="Helvetica,sans-Serif" font-size="10.00">TransmissionBase::transmitData</text>
</a>
</g>
</g>
<!-- Node11&#45;&gt;Node17 -->
<g id="edge17" class="edge">
<title>Node11&#45;&gt;Node17</title>
<path fill="none" stroke="midnightblue" d="M586.33,-177.97C650.41,-174.83 751.15,-169.89 823.63,-166.33"/>
<polygon fill="midnightblue" stroke="midnightblue" points="823.84,-169.83 833.66,-165.84 823.5,-162.84 823.84,-169.83"/>
</g>
<!-- Node18 -->
<g id="node18" class="node">
<title>Node18</title>
<g id="a_node18"><a xlink:href="class_data_store.html#a07027b1feb1d9819d77a48322f9cd2a7" target="_top" xlink:title="Send retained data from local storage.">
<polygon fill="white" stroke="black" points="640,-114.5 640,-133.5 795,-133.5 795,-114.5 640,-114.5"/>
<text text-anchor="middle" x="717.5" y="-121.5" font-family="Helvetica,sans-Serif" font-size="10.00">DataStore::transmitDataStorage</text>
</a>
</g>
</g>
<!-- Node11&#45;&gt;Node18 -->
<g id="edge18" class="edge">
<title>Node11&#45;&gt;Node18</title>
<path fill="none" stroke="midnightblue" d="M556.64,-171.46C589.03,-161.84 639.19,-146.95 674.67,-136.42"/>
<polygon fill="midnightblue" stroke="midnightblue" points="675.67,-139.77 684.26,-133.57 673.68,-133.06 675.67,-139.77"/>
</g>
<!-- Node22 -->
<g id="node22" class="node">
<title>Node22</title>
<g id="a_node22"><a xlink:href="class_data_publisher.html#a36d4a0232251a0bf710d96be39f913af" target="_top" xlink:title="Update the current Timestamp for a measurement.">
<polygon fill="white" stroke="black" points="637,-76.5 637,-95.5 798,-95.5 798,-76.5 637,-76.5"/>
<text text-anchor="middle" x="717.5" y="-83.5" font-family="Helvetica,sans-Serif" font-size="10.00">DataPublisher::updateTimestamp</text>
</a>
</g>
</g>
<!-- Node11&#45;&gt;Node22 -->
<g id="edge24" class="edge">
<title>Node11&#45;&gt;Node22</title>
<path fill="none" stroke="midnightblue" d="M535.82,-171.28C555.22,-155.12 596.65,-122.75 637,-105 642.71,-102.49 648.81,-100.28 654.98,-98.34"/>
<polygon fill="midnightblue" stroke="midnightblue" points="656.09,-101.67 664.72,-95.52 654.14,-94.94 656.09,-101.67"/>
</g>
<!-- Node24 -->
<g id="node24" class="node">
<title>Node24</title>
<g id="a_node24"><a xlink:href="class_data_publisher.html#af6aeeea1fe0922eec7187094470c2ede" target="_top" xlink:title="Get connection status.">
<polygon fill="white" stroke="black" points="650.5,-27 650.5,-57 784.5,-57 784.5,-27 650.5,-27"/>
<text text-anchor="start" x="658.5" y="-45" font-family="Helvetica,sans-Serif" font-size="10.00">DataPublisher::wirelessGet</text>
<text text-anchor="middle" x="717.5" y="-34" font-family="Helvetica,sans-Serif" font-size="10.00">Connected</text>
</a>
</g>
</g>
<!-- Node11&#45;&gt;Node24 -->
<g id="edge26" class="edge">
<title>Node11&#45;&gt;Node24</title>
<path fill="none" stroke="midnightblue" d="M531.48,-171.18C547.57,-149.26 589.54,-95.99 637,-67 640.54,-64.84 644.29,-62.84 648.15,-61.01"/>
<polygon fill="midnightblue" stroke="midnightblue" points="649.55,-64.22 657.32,-57.02 646.76,-57.8 649.55,-64.22"/>
</g>
<!-- Node15 -->
<g id="node15" class="node">
<title>Node15</title>
<g id="a_node15"><a xlink:href="class_data_store.html#a1b9b92814aaedb80943d875a464ea7d9" target="_top" xlink:title="Add data to local storage file.">
<polygon fill="white" stroke="black" points="854,-228.5 854,-247.5 972,-247.5 972,-228.5 854,-228.5"/>
<text text-anchor="middle" x="913" y="-235.5" font-family="Helvetica,sans-Serif" font-size="10.00">DataStore::appendData</text>
</a>
</g>
</g>
<!-- Node14&#45;&gt;Node15 -->
<g id="edge15" class="edge">
<title>Node14&#45;&gt;Node15</title>
<path fill="none" stroke="midnightblue" d="M767.33,-209.59C793.55,-214.74 826.06,-221.12 853.62,-226.53"/>
<polygon fill="midnightblue" stroke="midnightblue" points="853.04,-229.99 863.52,-228.48 854.38,-223.12 853.04,-229.99"/>
</g>
<!-- Node16 -->
<g id="node16" class="node">
<title>Node16</title>
<g id="a_node16"><a xlink:href="class_data_store.html#aeb526ffea5feb11fb3821aa5f6400c18" target="_top" xlink:title="Format data from raw data into storage data.">
<polygon fill="white" stroke="black" points="856.5,-190.5 856.5,-209.5 969.5,-209.5 969.5,-190.5 856.5,-190.5"/>
<text text-anchor="middle" x="913" y="-197.5" font-family="Helvetica,sans-Serif" font-size="10.00">DataStore::formatData</text>
</a>
</g>
</g>
<!-- Node14&#45;&gt;Node16 -->
<g id="edge16" class="edge">
<title>Node14&#45;&gt;Node16</title>
<path fill="none" stroke="midnightblue" d="M786.18,-200C805.58,-200 826.7,-200 845.99,-200"/>
<polygon fill="midnightblue" stroke="midnightblue" points="846.2,-203.5 856.2,-200 846.2,-196.5 846.2,-203.5"/>
</g>
<!-- Node18&#45;&gt;Node17 -->
<g id="edge23" class="edge">
<title>Node18&#45;&gt;Node17</title>
<path fill="none" stroke="midnightblue" d="M767.33,-133.59C793.55,-138.74 826.06,-145.12 853.62,-150.53"/>
<polygon fill="midnightblue" stroke="midnightblue" points="853.04,-153.99 863.52,-152.48 854.38,-147.12 853.04,-153.99"/>
</g>
<!-- Node19 -->
<g id="node19" class="node">
<title>Node19</title>
<g id="a_node19"><a xlink:href="class_data_store.html#a10b2120afd567750d6117a266eb9207a" target="_top" xlink:title="Delete locally stored data.">
<polygon fill="white" stroke="black" points="840,-114.5 840,-133.5 986,-133.5 986,-114.5 840,-114.5"/>
<text text-anchor="middle" x="913" y="-121.5" font-family="Helvetica,sans-Serif" font-size="10.00">DataStore::deleteDataStorage</text>
</a>
</g>
</g>
<!-- Node18&#45;&gt;Node19 -->
<g id="edge19" class="edge">
<title>Node18&#45;&gt;Node19</title>
<path fill="none" stroke="midnightblue" d="M795.25,-124C806.48,-124 818.09,-124 829.43,-124"/>
<polygon fill="midnightblue" stroke="midnightblue" points="829.75,-127.5 839.75,-124 829.75,-120.5 829.75,-127.5"/>
</g>
<!-- Node20 -->
<g id="node20" class="node">
<title>Node20</title>
<g id="a_node20"><a xlink:href="class_data_store.html#a6724e2f03e4339881f7ee09b092a526c" target="_top" xlink:title="Load data stored in file into the local _retainedData vector.">
<polygon fill="white" stroke="black" points="844,-76.5 844,-95.5 982,-95.5 982,-76.5 844,-76.5"/>
<text text-anchor="middle" x="913" y="-83.5" font-family="Helvetica,sans-Serif" font-size="10.00">DataStore::loadDataStorage</text>
</a>
</g>
</g>
<!-- Node18&#45;&gt;Node20 -->
<g id="edge20" class="edge">
<title>Node18&#45;&gt;Node20</title>
<path fill="none" stroke="midnightblue" d="M767.33,-114.41C793.55,-109.26 826.06,-102.88 853.62,-97.47"/>
<polygon fill="midnightblue" stroke="midnightblue" points="854.38,-100.88 863.52,-95.52 853.04,-94.01 854.38,-100.88"/>
</g>
<!-- Node21 -->
<g id="node21" class="node">
<title>Node21</title>
<g id="a_node21"><a xlink:href="class_data_store.html#a4ac88a34f9a5f6ebc435bd1bf652e1c7" target="_top" xlink:title="Format data from storage data back to raw data.">
<polygon fill="white" stroke="black" points="850.5,-38.5 850.5,-57.5 975.5,-57.5 975.5,-38.5 850.5,-38.5"/>
<text text-anchor="middle" x="913" y="-45.5" font-family="Helvetica,sans-Serif" font-size="10.00">DataStore::reFormatData</text>
</a>
</g>
</g>
<!-- Node18&#45;&gt;Node21 -->
<g id="edge21" class="edge">
<title>Node18&#45;&gt;Node21</title>
<path fill="none" stroke="midnightblue" d="M776.07,-114.47C783.72,-112 791.24,-108.9 798,-105 818.15,-93.37 813.88,-78.67 834,-67 837.73,-64.84 841.7,-62.92 845.79,-61.22"/>
<polygon fill="midnightblue" stroke="midnightblue" points="847.34,-64.37 855.52,-57.63 844.92,-57.81 847.34,-64.37"/>
</g>
<!-- Node21&#45;&gt;Node4 -->
<g id="edge22" class="edge">
<title>Node21&#45;&gt;Node4</title>
<path fill="none" stroke="midnightblue" d="M975.55,-56.93C981.52,-59.52 987.14,-62.81 992,-67 1063.09,-128.31 1084.62,-247.47 1090.49,-294.36"/>
<polygon fill="midnightblue" stroke="midnightblue" points="1087.03,-294.88 1091.65,-304.42 1093.98,-294.08 1087.03,-294.88"/>
</g>
<!-- Node23 -->
<g id="node23" class="node">
<title>Node23</title>
<g id="a_node23"><a xlink:href="class_data_publisher.html#a01a7b2d8788d7d8b7100a92c322a15a9" target="_top" xlink:title="Helper print function.">
<polygon fill="white" stroke="black" points="849.5,-0.5 849.5,-19.5 976.5,-19.5 976.5,-0.5 849.5,-0.5"/>
<text text-anchor="middle" x="913" y="-7.5" font-family="Helvetica,sans-Serif" font-size="10.00">DataPublisher::showTime</text>
</a>
</g>
</g>
<!-- Node22&#45;&gt;Node23 -->
<g id="edge25" class="edge">
<title>Node22&#45;&gt;Node23</title>
<path fill="none" stroke="midnightblue" d="M776.07,-76.47C783.72,-74 791.24,-70.9 798,-67 818.15,-55.37 813.88,-40.67 834,-29 837.73,-26.84 841.7,-24.92 845.79,-23.22"/>
<polygon fill="midnightblue" stroke="midnightblue" points="847.34,-26.37 855.52,-19.63 844.92,-19.81 847.34,-26.37"/>
</g>
</g>
</svg>
        <g id="navigator" transform="translate(0 0)" fill="#404254">
                <rect fill="#f2f5e9" fill-opacity="0.5" stroke="#606060" stroke-width=".5" x="0" y="0" width="60" height="60"/>
                <use id="zoomplus" xlink:href="#zoomPlus" x="17" y="9" onmousedown="handleZoom(evt,'in')"/>
                <use id="zoomminus" xlink:href="#zoomMin" x="42" y="9" onmousedown="handleZoom(evt,'out')"/>
                <use id="reset" xlink:href="#resetDef" x="30" y="36" onmousedown="handleReset()"/>
                <g id="arrowUp" xlink:href="#dirArrow" transform="translate(30 24)" onmousedown="handlePan(0,-1)">
                  <use xlink:href="#rim" fill="#404040">
                        <set attributeName="fill" to="#808080" begin="arrowUp.mouseover" end="arrowUp.mouseout"/>
                  </use>
                  <path fill="none" stroke="white" stroke-width="1.5" d="M0,-3.0v7 M-2.5,-0.5L0,-3.0L2.5,-0.5"/>
                </g>
                <g id="arrowRight" xlink:href="#dirArrow" transform="rotate(90) translate(36 -43)" onmousedown="handlePan(1,0)">
                  <use xlink:href="#rim" fill="#404040">
                        <set attributeName="fill" to="#808080" begin="arrowRight.mouseover" end="arrowRight.mouseout"/>
                  </use>
                  <path fill="none" stroke="white" stroke-width="1.5" d="M0,-3.0v7 M-2.5,-0.5L0,-3.0L2.5,-0.5"/>
                </g>
                <g id="arrowDown" xlink:href="#dirArrow" transform="rotate(180) translate(-30 -48)" onmousedown="handlePan(0,1)">
                  <use xlink:href="#rim" fill="#404040">
                        <set attributeName="fill" to="#808080" begin="arrowDown.mouseover" end="arrowDown.mouseout"/>
                  </use>
                  <path fill="none" stroke="white" stroke-width="1.5" d="M0,-3.0v7 M-2.5,-0.5L0,-3.0L2.5,-0.5"/>
                </g>
                <g id="arrowLeft" xlink:href="#dirArrow" transform="rotate(270) translate(-36 17)" onmousedown="handlePan(-1,0)">
                  <use xlink:href="#rim" fill="#404040">
                        <set attributeName="fill" to="#808080" begin="arrowLeft.mouseover" end="arrowLeft.mouseout"/>
                  </use>
                  <path fill="none" stroke="white" stroke-width="1.5" d="M0,-3.0v7 M-2.5,-0.5L0,-3.0L2.5,-0.5"/>
                </g>
        </g>
        <svg viewBox="0 0 15 15" width="100%" height="30px" preserveAspectRatio="xMaxYMin meet">
         <g id="arrow_out" transform="scale(0.3 0.3)">
          <a xlink:href="main_8cpp_a4fc01d736fe50cf5b977f755b675f11d_cgraph_org.svg" target="_base">
           <rect id="button" ry="5" rx="5" y="6" x="6" height="38" width="38"
                fill="#f2f5e9" fill-opacity="0.5" stroke="#606060" stroke-width="1.0"/>
           <path id="arrow"
             d="M 11.500037,31.436501 C 11.940474,20.09759 22.043105,11.32322 32.158766,21.979434 L 37.068811,17.246167 C 37.068811,17.246167 37.088388,32 37.088388,32 L 22.160133,31.978069 C 22.160133,31.978069 26.997745,27.140456 26.997745,27.140456 C 18.528582,18.264221 13.291696,25.230495 11.500037,31.436501 z"
             style="fill:#404040;"/>
          </a>
         </g>
        </svg>
</svg>
