<?xml version="1.0" encoding="UTF-8" standalone="no"?>
<!DOCTYPE svg PUBLIC "-//W3C//DTD SVG 1.1//EN"
 "http://www.w3.org/Graphics/SVG/1.1/DTD/svg11.dtd">
<!-- Generated by graphviz version 4.0.0 (20220529.0937)
 -->
<!-- Title: SensorBase::Sensor Pages: 1 -->
<svg width="140pt" height="204pt"
 viewBox="0.00 0.00 140.00 204.00" xmlns="http://www.w3.org/2000/svg" xmlns:xlink="http://www.w3.org/1999/xlink">
<g id="graph0" class="graph" transform="scale(1 1) rotate(0) translate(4 200)">
<title>SensorBase::Sensor</title>
<polygon fill="white" stroke="transparent" points="-4,4 -4,-200 136,-200 136,4 -4,4"/>
<!-- Node1 -->
<g id="node1" class="node">
<title>Node1</title>
<g id="a_node1"><a xlink:title="Sensor registration struct.">
<polygon fill="#bfbfbf" stroke="black" points="12.5,-0.5 12.5,-57.5 119.5,-57.5 119.5,-0.5 12.5,-0.5"/>
<text text-anchor="middle" x="66" y="-45.5" font-family="Helvetica,sans-Serif" font-size="10.00">SensorBase::Sensor</text>
<polyline fill="none" stroke="black" points="12.5,-38.5 119.5,-38.5 "/>
<text text-anchor="start" x="20.5" y="-26.5" font-family="Helvetica,sans-Serif" font-size="10.00">+ sensorName</text>
<polyline fill="none" stroke="black" points="12.5,-19.5 119.5,-19.5 "/>
<text text-anchor="start" x="20.5" y="-7.5" font-family="Helvetica,sans-Serif" font-size="10.00">+ Sensor()</text>
</a>
</g>
</g>
<!-- Node2 -->
<g id="node2" class="node">
<title>Node2</title>
<g id="a_node2"><a xlink:href="class_sensor_base.html" target="_top" xlink:title="Sensor base class.">
<polygon fill="white" stroke="black" points="0,-105.5 0,-195.5 132,-195.5 132,-105.5 0,-105.5"/>
<text text-anchor="middle" x="66" y="-183.5" font-family="Helvetica,sans-Serif" font-size="10.00">SensorBase</text>
<polyline fill="none" stroke="black" points="0,-176.5 132,-176.5 "/>
<text text-anchor="start" x="8" y="-164.5" font-family="Helvetica,sans-Serif" font-size="10.00"># _sensorValue</text>
<polyline fill="none" stroke="black" points="0,-157.5 132,-157.5 "/>
<text text-anchor="start" x="8" y="-145.5" font-family="Helvetica,sans-Serif" font-size="10.00">+ SensorBase()</text>
<text text-anchor="start" x="8" y="-134.5" font-family="Helvetica,sans-Serif" font-size="10.00">+ ~SensorBase()</text>
<text text-anchor="start" x="8" y="-123.5" font-family="Helvetica,sans-Serif" font-size="10.00">+ startMeasurement()</text>
<text text-anchor="start" x="8" y="-112.5" font-family="Helvetica,sans-Serif" font-size="10.00">+ getMeasurementResult()</text>
</a>
</g>
</g>
<!-- Node2&#45;&gt;Node1 -->
<g id="edge1" class="edge">
<title>Node2&#45;&gt;Node1</title>
<path fill="none" stroke="#404040" d="M66,-105.34C66,-93.75 66,-81.31 66,-69.95"/>
<polygon fill="none" stroke="#404040" points="66,-69.69 62,-63.69 66,-57.69 70,-63.69 66,-69.69"/>
<text text-anchor="middle" x="85.5" y="-79" font-family="Helvetica,sans-Serif" font-size="10.00"> +sensor</text>
</g>
</g>
</svg>
